<svg version="1.1" viewBox="0.0 0.0 600.0 371.0" fill="none" stroke="none" stroke-linecap="square" stroke-miterlimit="10" width="600" height="371" xmlns:xlink="http://www.w3.org/1999/xlink" xmlns="http://www.w3.org/2000/svg"><path fill="#ffffff" d="M0 0L600.0 0L600.0 371.0L0 371.0L0 0Z" fill-rule="nonzero"/><path stroke="#333333" stroke-width="1.0" stroke-linecap="butt" d="M82.5 54.5L82.5 300.5" fill-rule="nonzero"/><path stroke="#cccccc" stroke-width="1.0" stroke-linecap="butt" d="M182.5 54.5L182.5 300.5" fill-rule="nonzero"/><path stroke="#cccccc" stroke-width="1.0" stroke-linecap="butt" d="M282.5 54.5L282.5 300.5" fill-rule="nonzero"/><path stroke="#cccccc" stroke-width="1.0" stroke-linecap="butt" d="M381.5 54.5L381.5 300.5" fill-rule="nonzero"/><path stroke="#cccccc" stroke-width="1.0" stroke-linecap="butt" d="M481.5 54.5L481.5 300.5" fill-rule="nonzero"/><path stroke="#cccccc" stroke-width="1.0" stroke-linecap="butt" d="M581.5 54.5L581.5 300.5" fill-rule="nonzero"/><clipPath id="id_0"><path d="M82.55 54.916668L581.45 54.916668L581.45 300.45L82.55 300.45L82.55 54.916668Z" clip-rule="nonzero"/></clipPath><path stroke="#000000" stroke-width="2.0" stroke-linecap="butt" stroke-opacity="0.0" clip-path="url(#id_0)" d="M83.0 101.0L83.0 71.0L510.0 71.0C511.10458 71.0 512.0 71.89543 512.0 73.0L512.0 99.0C512.0 100.10457 511.10458 101.0 510.0 101.0Z" fill-rule="nonzero"/><path fill="#4285f4" clip-path="url(#id_0)" d="M83.0 101.0L83.0 71.0L510.0 71.0C511.10458 71.0 512.0 71.89543 512.0 73.0L512.0 99.0C512.0 100.10457 511.10458 101.0 510.0 101.0Z" fill-rule="nonzero"/><path stroke="#000000" stroke-width="2.0" stroke-linecap="butt" stroke-opacity="0.0" clip-path="url(#id_0)" d="M83.0 147.0L83.0 117.0L360.0 117.0C361.10458 117.0 362.0 117.89543 362.0 119.0L362.0 145.0C362.0 146.10457 361.10458 147.0 360.0 147.0Z" fill-rule="nonzero"/><path fill="#4285f4" clip-path="url(#id_0)" d="M83.0 147.0L83.0 117.0L360.0 117.0C361.10458 117.0 362.0 117.89543 362.0 119.0L362.0 145.0C362.0 146.10457 361.10458 147.0 360.0 147.0Z" fill-rule="nonzero"/><path stroke="#000000" stroke-width="2.0" stroke-linecap="butt" stroke-opacity="0.0" clip-path="url(#id_0)" d="M83.0 193.0L83.0 163.0L101.0 163.0C102.10457 163.0 103.0 163.89543 103.0 165.0L103.0 191.0C103.0 192.10457 102.10457 193.0 101.0 193.0Z" fill-rule="nonzero"/><path fill="#4285f4" clip-path="url(#id_0)" d="M83.0 193.0L83.0 163.0L101.0 163.0C102.10457 163.0 103.0 163.89543 103.0 165.0L103.0 191.0C103.0 192.10457 102.10457 193.0 101.0 193.0Z" fill-rule="nonzero"/><path stroke="#000000" stroke-width="2.0" stroke-linecap="butt" stroke-opacity="0.0" clip-path="url(#id_0)" d="M83.0 239.0L83.0 209.0L130.0 209.0C131.10457 209.0 132.0 209.89543 132.0 211.0L132.0 237.0C132.0 238.10457 131.10457 239.0 130.0 239.0Z" fill-rule="nonzero"/><path fill="#4285f4" clip-path="url(#id_0)" d="M83.0 239.0L83.0 209.0L130.0 209.0C131.10457 209.0 132.0 209.89543 132.0 211.0L132.0 237.0C132.0 238.10457 131.10457 239.0 130.0 239.0Z" fill-rule="nonzero"/><path stroke="#000000" stroke-width="2.0" stroke-linecap="butt" stroke-opacity="0.0" clip-path="url(#id_0)" d="M83.0 284.0L83.0 254.0L110.0 254.0C111.10457 254.0 112.0 254.89543 112.0 256.0L112.0 282.0C112.0 283.10458 111.10457 284.0 110.0 284.0Z" fill-rule="nonzero"/><path fill="#4285f4" clip-path="url(#id_0)" d="M83.0 284.0L83.0 254.0L110.0 254.0C111.10457 254.0 112.0 254.89543 112.0 256.0L112.0 282.0C112.0 283.10458 111.10457 284.0 110.0 284.0Z" fill-rule="nonzero"/><path fill="#000000" d="M299.5625 346.4344L300.6875 346.73126Q300.32812 348.1219 299.40625 348.85626Q298.48438 349.59064 297.14062 349.59064Q295.75 349.59064 294.875 349.02814Q294.0 348.46564 293.54688 347.40314Q293.09375 346.325 293.09375 345.09064Q293.09375 343.7469 293.60938 342.7469Q294.125 341.7469 295.0625 341.23126Q296.01562 340.71564 297.15625 340.71564Q298.4375 340.71564 299.3125 341.3719Q300.20312 342.02814 300.54688 343.21564L299.42188 343.48126Q299.125 342.54376 298.54688 342.1219Q297.98438 341.6844 297.125 341.6844Q296.14062 341.6844 295.46875 342.16876Q294.8125 342.6375 294.53125 343.4344Q294.26562 344.23126 294.26562 345.09064Q294.26562 346.1844 294.57812 346.9969Q294.90625 347.8094 295.57812 348.21564Q296.25 348.6219 297.04688 348.6219Q298.0 348.6219 298.65625 348.075Q299.32812 347.52814 299.5625 346.4344ZM301.90625 346.34064Q301.90625 344.60626 302.85938 343.77814Q303.65625 343.09064 304.8125 343.09064Q306.09375 343.09064 306.90625 343.9344Q307.73438 344.7625 307.73438 346.2469Q307.73438 347.45 307.375 348.1375Q307.01562 348.825 306.3125 349.21564Q305.625 349.59064 304.8125 349.59064Q303.51562 349.59064 302.70312 348.7625Q301.90625 347.91876 301.90625 346.34064ZM302.98438 346.34064Q302.98438 347.52814 303.5 348.1219Q304.03125 348.71564 304.8125 348.71564Q305.60938 348.71564 306.125 348.1219Q306.64062 347.52814 306.64062 346.3094Q306.64062 345.15314 306.10938 344.5594Q305.59375 343.96564 304.8125 343.96564Q304.03125 343.96564 303.5 344.5594Q302.98438 345.1375 302.98438 346.34064ZM313.375 349.45L313.375 348.52814Q312.64062 349.59064 311.39062 349.59064Q310.84375 349.59064 310.35938 349.3875Q309.89062 349.16876 309.65625 348.85626Q309.42188 348.52814 309.32812 348.0594Q309.26562 347.7625 309.26562 347.075L309.26562 343.23126L310.32812 343.23126L310.32812 346.6844Q310.32812 347.4969 310.39062 347.79376Q310.48438 348.2 310.79688 348.45Q311.125 348.6844 311.60938 348.6844Q312.07812 348.6844 312.48438 348.45Q312.90625 348.2 313.07812 347.77814Q313.26562 347.35626 313.26562 346.5594L313.26562 343.23126L314.3125 343.23126L314.3125 349.45L313.375 349.45ZM316.29688 349.45L316.29688 343.23126L317.23438 343.23126L317.23438 344.10626Q317.92188 343.09064 319.21875 343.09064Q319.78125 343.09064 320.25 343.29376Q320.73438 343.4969 320.96875 343.825Q321.20312 344.15314 321.29688 344.59064Q321.34375 344.8875 321.34375 345.6219L321.34375 349.45L320.29688 349.45L320.29688 345.66876Q320.29688 345.0125 320.17188 344.7Q320.04688 344.3875 319.73438 344.2Q319.42188 343.9969 319.0 343.9969Q318.32812 343.9969 317.82812 344.4344Q317.34375 344.85626 317.34375 346.04376L317.34375 349.45L316.29688 349.45ZM325.59375 348.5125L325.75 349.4344Q325.29688 349.52814 324.95312 349.52814Q324.375 349.52814 324.0625 349.35626Q323.75 349.16876 323.60938 348.8719Q323.48438 348.575 323.48438 347.6219L323.48438 344.04376L322.71875 344.04376L322.71875 343.23126L323.48438 343.23126L323.48438 341.6844L324.53125 341.0594L324.53125 343.23126L325.59375 343.23126L325.59375 344.04376L324.53125 344.04376L324.53125 347.6844Q324.53125 348.1375 324.57812 348.2625Q324.64062 348.3875 324.76562 348.46564Q324.89062 348.54376 325.125 348.54376Q325.3125 348.54376 325.59375 348.5125ZM328.90625 346.34064Q328.90625 344.60626 329.85938 343.77814Q330.65625 343.09064 331.8125 343.09064Q333.09375 343.09064 333.90625 343.9344Q334.73438 344.7625 334.73438 346.2469Q334.73438 347.45 334.375 348.1375Q334.01562 348.825 333.3125 349.21564Q332.625 349.59064 331.8125 349.59064Q330.51562 349.59064 329.70312 348.7625Q328.90625 347.91876 328.90625 346.34064ZM329.98438 346.34064Q329.98438 347.52814 330.5 348.1219Q331.03125 348.71564 331.8125 348.71564Q332.60938 348.71564 333.125 348.1219Q333.64062 347.52814 333.64062 346.3094Q333.64062 345.15314 333.10938 344.5594Q332.59375 343.96564 331.8125 343.96564Q331.03125 343.96564 330.5 344.5594Q329.98438 345.1375 329.98438 346.34064ZM336.54688 349.45L336.54688 344.04376L335.60938 344.04376L335.60938 343.23126L336.54688 343.23126L336.54688 342.5594Q336.54688 341.9344 336.65625 341.6375Q336.8125 341.21564 337.1875 340.96564Q337.57812 340.71564 338.26562 340.71564Q338.71875 340.71564 339.25 340.825L339.09375 341.73126Q338.76562 341.6844 338.46875 341.6844Q337.98438 341.6844 337.78125 341.8875Q337.59375 342.09064 337.59375 342.65314L337.59375 343.23126L338.8125 343.23126L338.8125 344.04376L337.59375 344.04376L337.59375 349.45L336.54688 349.45ZM342.39062 349.45L342.39062 340.85626L344.10938 340.85626L346.14062 346.9344Q346.42188 347.79376 346.54688 348.21564Q346.6875 347.7469 347.0 346.84064L349.0625 340.85626L350.59375 340.85626L350.59375 349.45L349.5 349.45L349.5 342.2625L347.0 349.45L345.96875 349.45L343.48438 342.1375L343.48438 349.45L342.39062 349.45ZM350.90625 346.34064Q350.90625 344.60626 351.85938 343.77814Q352.65625 343.09064 353.8125 343.09064Q355.09375 343.09064 355.90625 343.9344Q356.73438 344.7625 356.73438 346.2469Q356.73438 347.45 356.375 348.1375Q356.01562 348.825 355.3125 349.21564Q354.625 349.59064 353.8125 349.59064Q352.51562 349.59064 351.70312 348.7625Q350.90625 347.91876 350.90625 346.34064ZM351.98438 346.34064Q351.98438 347.52814 352.5 348.1219Q353.03125 348.71564 353.8125 348.71564Q354.60938 348.71564 355.125 348.1219Q355.64062 347.52814 355.64062 346.3094Q355.64062 345.15314 355.10938 344.5594Q354.59375 343.96564 353.8125 343.96564Q353.03125 343.96564 352.5 344.5594Q351.98438 345.1375 351.98438 346.34064ZM357.90625 346.34064Q357.90625 344.60626 358.85938 343.77814Q359.65625 343.09064 360.8125 343.09064Q362.09375 343.09064 362.90625 343.9344Q363.73438 344.7625 363.73438 346.2469Q363.73438 347.45 363.375 348.1375Q363.01562 348.825 362.3125 349.21564Q361.625 349.59064 360.8125 349.59064Q359.51562 349.59064 358.70312 348.7625Q357.90625 347.91876 357.90625 346.34064ZM358.98438 346.34064Q358.98438 347.52814 359.5 348.1219Q360.03125 348.71564 360.8125 348.71564Q361.60938 348.71564 362.125 348.1219Q362.64062 347.52814 362.64062 346.3094Q362.64062 345.15314 362.10938 344.5594Q361.59375 343.96564 360.8125 343.96564Q360.03125 343.96564 359.5 344.5594Q358.98438 345.1375 358.98438 346.34064ZM369.32812 349.45L369.32812 348.66876Q368.73438 349.59064 367.59375 349.59064Q366.84375 349.59064 366.21875 349.1844Q365.59375 348.7625 365.25 348.02814Q364.90625 347.29376 364.90625 346.34064Q364.90625 345.41876 365.21875 344.65314Q365.53125 343.8875 366.15625 343.4969Q366.78125 343.09064 367.54688 343.09064Q368.10938 343.09064 368.54688 343.325Q368.98438 343.5594 369.26562 343.9344L369.26562 340.85626L370.3125 340.85626L370.3125 349.45L369.32812 349.45ZM366.0 346.34064Q366.0 347.54376 366.5 348.1375Q367.0 348.71564 367.6875 348.71564Q368.375 348.71564 368.85938 348.15314Q369.34375 347.59064 369.34375 346.4344Q369.34375 345.15314 368.84375 344.5594Q368.35938 343.96564 367.64062 343.96564Q366.9375 343.96564 366.46875 344.54376Q366.0 345.10626 366.0 346.34064Z" fill-rule="nonzero"/><path fill="#000000" d="M42.51875 89.89517L42.51875 81.30142L43.64375 81.30142L43.64375 84.83267L48.1125 84.83267L48.1125 81.30142L49.253124 81.30142L49.253124 89.89517L48.1125 89.89517L48.1125 85.8483L43.64375 85.8483L43.64375 89.89517L42.51875 89.89517ZM55.409374 89.12955Q54.815624 89.62955 54.26875 89.83267Q53.7375 90.0358 53.1125 90.0358Q52.08125 90.0358 51.534374 89.5358Q50.9875 89.0358 50.9875 88.25455Q50.9875 87.80142 51.190624 87.42642Q51.39375 87.0358 51.7375 86.81705Q52.08125 86.58267 52.503124 86.4733Q52.8 86.37955 53.440624 86.30142Q54.70625 86.1608 55.315624 85.94205Q55.315624 85.7233 55.315624 85.67642Q55.315624 85.02017 55.01875 84.75455Q54.6125 84.4108 53.815624 84.4108Q53.08125 84.4108 52.721874 84.67642Q52.3625 84.92642 52.190624 85.58267L51.159374 85.44205Q51.3 84.7858 51.628124 84.37955Q51.95625 83.9733 52.565624 83.75455Q53.175 83.5358 53.971874 83.5358Q54.76875 83.5358 55.26875 83.7233Q55.76875 83.9108 56.003124 84.19205Q56.2375 84.4733 56.33125 84.9108Q56.378124 85.17642 56.378124 85.87955L56.378124 87.2858Q56.378124 88.75455 56.440624 89.14517Q56.51875 89.5358 56.721874 89.89517L55.6125 89.89517Q55.45625 89.56705 55.409374 89.12955ZM55.315624 86.77017Q54.7375 87.00455 53.596874 87.17642Q52.940624 87.27017 52.675 87.39517Q52.409374 87.50455 52.253124 87.7233Q52.1125 87.94205 52.1125 88.2233Q52.1125 88.64517 52.425 88.92642Q52.753124 89.20767 53.3625 89.20767Q53.971874 89.20767 54.440624 88.94205Q54.925 88.67642 55.14375 88.20767Q55.315624 87.8483 55.315624 87.1608L55.315624 86.77017ZM58.346874 92.2858L58.346874 83.67642L59.3 83.67642L59.3 84.4733Q59.64375 84.00455 60.065624 83.77017Q60.503124 83.5358 61.1125 83.5358Q61.909374 83.5358 62.51875 83.94205Q63.128124 84.3483 63.425 85.0983Q63.7375 85.8483 63.7375 86.73892Q63.7375 87.69205 63.39375 88.45767Q63.065624 89.2233 62.409374 89.62955Q61.753124 90.0358 61.034374 90.0358Q60.503124 90.0358 60.08125 89.81705Q59.659374 89.58267 59.39375 89.25455L59.39375 92.2858L58.346874 92.2858ZM59.3 86.81705Q59.3 88.02017 59.784374 88.5983Q60.26875 89.1608 60.95625 89.1608Q61.659374 89.1608 62.159374 88.56705Q62.659374 87.9733 62.659374 86.7233Q62.659374 85.5358 62.175 84.95767Q61.690624 84.36392 61.003124 84.36392Q60.33125 84.36392 59.815624 84.98892Q59.3 85.61392 59.3 86.81705ZM65.34688 92.2858L65.34688 83.67642L66.3 83.67642L66.3 84.4733Q66.64375 84.00455 67.06563 83.77017Q67.50313 83.5358 68.1125 83.5358Q68.90938 83.5358 69.51875 83.94205Q70.12813 84.3483 70.425 85.0983Q70.7375 85.8483 70.7375 86.73892Q70.7375 87.69205 70.39375 88.45767Q70.06563 89.2233 69.40938 89.62955Q68.75313 90.0358 68.03438 90.0358Q67.50313 90.0358 67.08125 89.81705Q66.65938 89.58267 66.39375 89.25455L66.39375 92.2858L65.34688 92.2858ZM66.3 86.81705Q66.3 88.02017 66.78438 88.5983Q67.26875 89.1608 67.95625 89.1608Q68.65938 89.1608 69.15938 88.56705Q69.65938 87.9733 69.65938 86.7233Q69.65938 85.5358 69.175 84.95767Q68.69063 84.36392 68.00313 84.36392Q67.33125 84.36392 66.81563 84.98892Q66.3 85.61392 66.3 86.81705ZM72.3 92.2858L72.175 91.30142Q72.51875 91.39517 72.78438 91.39517Q73.12813 91.39517 73.33125 91.27017Q73.55 91.1608 73.69063 90.95767Q73.78438 90.7858 74.01875 90.1608Q74.03438 90.08267 74.1125 89.9108L71.7375 83.67642L72.87813 83.67642L74.175 87.27017Q74.425 87.95767 74.62813 88.7233Q74.81563 87.98892 75.06563 87.30142L76.39375 83.67642L77.44063 83.67642L75.08125 90.00455Q74.69063 91.02017 74.4875 91.4108Q74.20625 91.94205 73.83125 92.17642Q73.47188 92.42642 72.97188 92.42642Q72.675 92.42642 72.3 92.2858Z" fill-rule="nonzero"/><path fill="#000000" d="M51.659374 135.78925L51.659374 128.21112L48.83125 128.21112L48.83125 127.195496L55.64375 127.195496L55.64375 128.21112L52.8 128.21112L52.8 135.78925L51.659374 135.78925ZM56.346874 128.41425L56.346874 127.195496L57.409374 127.195496L57.409374 128.41425L56.346874 128.41425ZM56.346874 135.78925L56.346874 129.5705L57.409374 129.5705L57.409374 135.78925L56.346874 135.78925ZM59.33125 135.78925L59.33125 129.5705L60.284374 129.5705L60.284374 130.508Q60.64375 129.85175 60.940624 129.64862Q61.253124 129.42987 61.628124 129.42987Q62.159374 129.42987 62.70625 129.758L62.346874 130.74237Q61.95625 130.508 61.58125 130.508Q61.221874 130.508 60.940624 130.72675Q60.675 130.92987 60.565624 131.30487Q60.378124 131.86737 60.378124 132.52362L60.378124 135.78925L59.33125 135.78925ZM67.59688 133.78925L68.69063 133.91425Q68.44063 134.86737 67.7375 135.39862Q67.03438 135.92987 65.95625 135.92987Q64.59688 135.92987 63.784374 135.08612Q62.9875 134.24237 62.9875 132.72675Q62.9875 131.16425 63.8 130.30487Q64.6125 129.42987 65.89375 129.42987Q67.14375 129.42987 67.925 130.27362Q68.72188 131.11737 68.72188 132.66425Q68.72188 132.758 68.72188 132.9455L64.08125 132.9455Q64.14375 133.97675 64.65938 134.52362Q65.175 135.05487 65.95625 135.05487Q66.53438 135.05487 66.94063 134.758Q67.3625 134.4455 67.59688 133.78925ZM64.14375 132.08612L67.6125 132.08612Q67.55 131.28925 67.22188 130.89862Q66.70625 130.28925 65.90938 130.28925Q65.175 130.28925 64.675 130.77362Q64.19063 131.258 64.14375 132.08612ZM74.37813 135.78925L74.37813 135.008Q73.78438 135.92987 72.64375 135.92987Q71.89375 135.92987 71.26875 135.52362Q70.64375 135.10175 70.3 134.36737Q69.95625 133.633 69.95625 132.67987Q69.95625 131.758 70.26875 130.99237Q70.58125 130.22675 71.20625 129.83612Q71.83125 129.42987 72.59688 129.42987Q73.15938 129.42987 73.59688 129.66425Q74.03438 129.89862 74.31563 130.27362L74.31563 127.195496L75.3625 127.195496L75.3625 135.78925L74.37813 135.78925ZM71.05 132.67987Q71.05 133.883 71.55 134.47675Q72.05 135.05487 72.7375 135.05487Q73.425 135.05487 73.90938 134.49237Q74.39375 133.92987 74.39375 132.77362Q74.39375 131.49237 73.89375 130.89862Q73.40938 130.30487 72.69063 130.30487Q71.9875 130.30487 71.51875 130.883Q71.05 131.4455 71.05 132.67987Z" fill-rule="nonzero"/><path fill="#000000" d="M38.503124 181.68333L38.503124 173.08958L44.70625 173.08958L44.70625 174.10521L39.64375 174.10521L39.64375 176.73021L44.39375 176.73021L44.39375 177.74583L39.64375 177.74583L39.64375 180.66771L44.909374 180.66771L44.909374 181.68333L38.503124 181.68333ZM45.64375 181.68333L47.909374 178.44896L45.815624 175.46458L47.128124 175.46458L48.08125 176.91771Q48.346874 177.33958 48.51875 177.62083Q48.76875 177.23021 48.9875 176.93333L50.034374 175.46458L51.3 175.46458L49.14375 178.38646L51.45625 181.68333L50.175 181.68333L48.89375 179.74583L48.55 179.23021L46.909374 181.68333L45.64375 181.68333ZM55.409374 179.40208L56.440624 179.54271Q56.26875 180.60521 55.565624 181.21458Q54.8625 181.82396 53.846874 181.82396Q52.565624 181.82396 51.784374 180.99583Q51.01875 180.15208 51.01875 178.58958Q51.01875 177.58958 51.346874 176.83958Q51.690624 176.07396 52.3625 175.69896Q53.05 175.32396 53.8625 175.32396Q54.8625 175.32396 55.503124 175.83958Q56.159374 176.33958 56.346874 177.29271L55.315624 177.44896Q55.175 176.82396 54.8 176.51146Q54.425 176.18333 53.89375 176.18333Q53.096874 176.18333 52.596874 176.76146Q52.096874 177.32396 52.096874 178.55833Q52.096874 179.82396 52.58125 180.38646Q53.065624 180.94896 53.83125 180.94896Q54.45625 180.94896 54.8625 180.57396Q55.284374 180.19896 55.409374 179.40208ZM57.346874 174.30833L57.346874 173.08958L58.409374 173.08958L58.409374 174.30833L57.346874 174.30833ZM57.346874 181.68333L57.346874 175.46458L58.409374 175.46458L58.409374 181.68333L57.346874 181.68333ZM62.64375 180.74583L62.8 181.66771Q62.346874 181.76146 62.003124 181.76146Q61.425 181.76146 61.1125 181.58958Q60.8 181.40208 60.659374 181.10521Q60.534374 180.80833 60.534374 179.85521L60.534374 176.27708L59.76875 176.27708L59.76875 175.46458L60.534374 175.46458L60.534374 173.91771L61.58125 173.29271L61.58125 175.46458L62.64375 175.46458L62.64375 176.27708L61.58125 176.27708L61.58125 179.91771Q61.58125 180.37083 61.628124 180.49583Q61.690624 180.62083 61.815624 180.69896Q61.940624 180.77708 62.175 180.77708Q62.3625 180.77708 62.64375 180.74583ZM67.59688 179.68333L68.69063 179.80833Q68.44063 180.76146 67.7375 181.29271Q67.03438 181.82396 65.95625 181.82396Q64.59688 181.82396 63.784374 180.98021Q62.9875 180.13646 62.9875 178.62083Q62.9875 177.05833 63.8 176.19896Q64.6125 175.32396 65.89375 175.32396Q67.14375 175.32396 67.925 176.16771Q68.72188 177.01146 68.72188 178.55833Q68.72188 178.65208 68.72188 178.83958L64.08125 178.83958Q64.14375 179.87083 64.65938 180.41771Q65.175 180.94896 65.95625 180.94896Q66.53438 180.94896 66.94063 180.65208Q67.3625 180.33958 67.59688 179.68333ZM64.14375 177.98021L67.6125 177.98021Q67.55 177.18333 67.22188 176.79271Q66.70625 176.18333 65.90938 176.18333Q65.175 176.18333 64.675 176.66771Q64.19063 177.15208 64.14375 177.98021ZM74.37813 181.68333L74.37813 180.90208Q73.78438 181.82396 72.64375 181.82396Q71.89375 181.82396 71.26875 181.41771Q70.64375 180.99583 70.3 180.26146Q69.95625 179.52708 69.95625 178.57396Q69.95625 177.65208 70.26875 176.88646Q70.58125 176.12083 71.20625 175.73021Q71.83125 175.32396 72.59688 175.32396Q73.15938 175.32396 73.59688 175.55833Q74.03438 175.79271 74.31563 176.16771L74.31563 173.08958L75.3625 173.08958L75.3625 181.68333L74.37813 181.68333ZM71.05 178.57396Q71.05 179.77708 71.55 180.37083Q72.05 180.94896 72.7375 180.94896Q73.425 180.94896 73.90938 180.38646Q74.39375 179.82396 74.39375 178.66771Q74.39375 177.38646 73.89375 176.79271Q73.40938 176.19896 72.69063 176.19896Q71.9875 176.19896 71.51875 176.77708Q71.05 177.33958 71.05 178.57396Z" fill-rule="nonzero"/><path fill="#000000" d="M19.503124 227.57741L19.503124 218.98366L25.70625 218.98366L25.70625 219.99928L20.64375 219.99928L20.64375 222.62428L25.39375 222.62428L25.39375 223.63991L20.64375 223.63991L20.64375 226.56178L25.909374 226.56178L25.909374 227.57741L19.503124 227.57741ZM26.64375 227.57741L28.909374 224.34303L26.815624 221.35866L28.128124 221.35866L29.08125 222.81178Q29.346874 223.23366 29.51875 223.51491Q29.76875 223.12428 29.9875 222.82741L31.034374 221.35866L32.3 221.35866L30.14375 224.28053L32.45625 227.57741L31.175 227.57741L29.89375 225.63991L29.55 225.12428L27.909374 227.57741L26.64375 227.57741ZM32.346874 227.57741L32.346874 218.98366L33.39375 218.98366L33.39375 222.06178Q34.128124 221.21803 35.253124 221.21803Q35.95625 221.21803 36.45625 221.49928Q36.971874 221.76491 37.190624 222.24928Q37.409374 222.71803 37.409374 223.63991L37.409374 227.57741L36.3625 227.57741L36.3625 223.63991Q36.3625 222.84303 36.01875 222.48366Q35.675 222.12428 35.05 222.12428Q34.58125 222.12428 34.159374 222.37428Q33.753124 222.60866 33.565624 223.03053Q33.39375 223.43678 33.39375 224.17116L33.39375 227.57741L32.346874 227.57741ZM43.409374 226.81178Q42.815624 227.31178 42.26875 227.51491Q41.7375 227.71803 41.1125 227.71803Q40.08125 227.71803 39.534374 227.21803Q38.9875 226.71803 38.9875 225.93678Q38.9875 225.48366 39.190624 225.10866Q39.39375 224.71803 39.7375 224.49928Q40.08125 224.26491 40.503124 224.15553Q40.8 224.06178 41.440624 223.98366Q42.70625 223.84303 43.315624 223.62428Q43.315624 223.40553 43.315624 223.35866Q43.315624 222.70241 43.01875 222.43678Q42.6125 222.09303 41.815624 222.09303Q41.08125 222.09303 40.721874 222.35866Q40.3625 222.60866 40.190624 223.26491L39.159374 223.12428Q39.3 222.46803 39.628124 222.06178Q39.95625 221.65553 40.565624 221.43678Q41.175 221.21803 41.971874 221.21803Q42.76875 221.21803 43.26875 221.40553Q43.76875 221.59303 44.003124 221.87428Q44.2375 222.15553 44.33125 222.59303Q44.378124 222.85866 44.378124 223.56178L44.378124 224.96803Q44.378124 226.43678 44.440624 226.82741Q44.51875 227.21803 44.721874 227.57741L43.6125 227.57741Q43.45625 227.24928 43.409374 226.81178ZM43.315624 224.45241Q42.7375 224.68678 41.596874 224.85866Q40.940624 224.95241 40.675 225.07741Q40.409374 225.18678 40.253124 225.40553Q40.1125 225.62428 40.1125 225.90553Q40.1125 226.32741 40.425 226.60866Q40.753124 226.88991 41.3625 226.88991Q41.971874 226.88991 42.440624 226.62428Q42.925 226.35866 43.14375 225.88991Q43.315624 225.53053 43.315624 224.84303L43.315624 224.45241ZM50.425 227.57741L50.425 226.65553Q49.690624 227.71803 48.440624 227.71803Q47.89375 227.71803 47.409374 227.51491Q46.940624 227.29616 46.70625 226.98366Q46.471874 226.65553 46.378124 226.18678Q46.315624 225.88991 46.315624 225.20241L46.315624 221.35866L47.378124 221.35866L47.378124 224.81178Q47.378124 225.62428 47.440624 225.92116Q47.534374 226.32741 47.846874 226.57741Q48.175 226.81178 48.659374 226.81178Q49.128124 226.81178 49.534374 226.57741Q49.95625 226.32741 50.128124 225.90553Q50.315624 225.48366 50.315624 224.68678L50.315624 221.35866L51.3625 221.35866L51.3625 227.57741L50.425 227.57741ZM52.925 225.71803L53.95625 225.56178Q54.05 226.18678 54.440624 226.51491Q54.846874 226.84303 55.58125 226.84303Q56.3 226.84303 56.64375 226.56178Q57.003124 226.26491 57.003124 225.85866Q57.003124 225.49928 56.690624 225.29616Q56.471874 225.15553 55.6125 224.93678Q54.45625 224.63991 54.003124 224.43678Q53.565624 224.21803 53.33125 223.84303Q53.096874 223.46803 53.096874 222.99928Q53.096874 222.59303 53.284374 222.23366Q53.471874 221.87428 53.8 221.63991Q54.05 221.46803 54.471874 221.34303Q54.89375 221.21803 55.39375 221.21803Q56.1125 221.21803 56.659374 221.43678Q57.221874 221.63991 57.4875 221.99928Q57.753124 222.35866 57.846874 222.95241L56.815624 223.09303Q56.753124 222.62428 56.409374 222.35866Q56.08125 222.07741 55.45625 222.07741Q54.7375 222.07741 54.425 222.32741Q54.1125 222.56178 54.1125 222.88991Q54.1125 223.09303 54.2375 223.24928Q54.378124 223.42116 54.64375 223.53053Q54.8 223.59303 55.58125 223.79616Q56.70625 224.10866 57.14375 224.29616Q57.58125 224.48366 57.83125 224.84303Q58.08125 225.20241 58.08125 225.74928Q58.08125 226.28053 57.76875 226.74928Q57.471874 227.20241 56.89375 227.46803Q56.315624 227.71803 55.58125 227.71803Q54.3625 227.71803 53.721874 227.21803Q53.096874 226.70241 52.925 225.71803ZM62.64375 226.63991L62.8 227.56178Q62.346874 227.65553 62.003124 227.65553Q61.425 227.65553 61.1125 227.48366Q60.8 227.29616 60.659374 226.99928Q60.534374 226.70241 60.534374 225.74928L60.534374 222.17116L59.76875 222.17116L59.76875 221.35866L60.534374 221.35866L60.534374 219.81178L61.58125 219.18678L61.58125 221.35866L62.64375 221.35866L62.64375 222.17116L61.58125 222.17116L61.58125 225.81178Q61.58125 226.26491 61.628124 226.38991Q61.690624 226.51491 61.815624 226.59303Q61.940624 226.67116 62.175 226.67116Q62.3625 226.67116 62.64375 226.63991ZM67.59688 225.57741L68.69063 225.70241Q68.44063 226.65553 67.7375 227.18678Q67.03438 227.71803 65.95625 227.71803Q64.59688 227.71803 63.784374 226.87428Q62.9875 226.03053 62.9875 224.51491Q62.9875 222.95241 63.8 222.09303Q64.6125 221.21803 65.89375 221.21803Q67.14375 221.21803 67.925 222.06178Q68.72188 222.90553 68.72188 224.45241Q68.72188 224.54616 68.72188 224.73366L64.08125 224.73366Q64.14375 225.76491 64.65938 226.31178Q65.175 226.84303 65.95625 226.84303Q66.53438 226.84303 66.94063 226.54616Q67.3625 226.23366 67.59688 225.57741ZM64.14375 223.87428L67.6125 223.87428Q67.55 223.07741 67.22188 222.68678Q66.70625 222.07741 65.90938 222.07741Q65.175 222.07741 64.675 222.56178Q64.19063 223.04616 64.14375 223.87428ZM74.37813 227.57741L74.37813 226.79616Q73.78438 227.71803 72.64375 227.71803Q71.89375 227.71803 71.26875 227.31178Q70.64375 226.88991 70.3 226.15553Q69.95625 225.42116 69.95625 224.46803Q69.95625 223.54616 70.26875 222.78053Q70.58125 222.01491 71.20625 221.62428Q71.83125 221.21803 72.59688 221.21803Q73.15938 221.21803 73.59688 221.45241Q74.03438 221.68678 74.31563 222.06178L74.31563 218.98366L75.3625 218.98366L75.3625 227.57741L74.37813 227.57741ZM71.05 224.46803Q71.05 225.67116 71.55 226.26491Q72.05 226.84303 72.7375 226.84303Q73.425 226.84303 73.90938 226.28053Q74.39375 225.71803 74.39375 224.56178Q74.39375 223.28053 73.89375 222.68678Q73.40938 222.09303 72.69063 222.09303Q71.9875 222.09303 71.51875 222.67116Q71.05 223.23366 71.05 224.46803Z" fill-rule="nonzero"/><path fill="#000000" d="M38.51875 273.4715L38.51875 264.87775L39.64375 264.87775L39.64375 268.409L44.1125 268.409L44.1125 264.87775L45.253124 264.87775L45.253124 273.4715L44.1125 273.4715L44.1125 269.42462L39.64375 269.42462L39.64375 273.4715L38.51875 273.4715ZM51.425 273.4715L51.425 272.54962Q50.690624 273.61212 49.440624 273.61212Q48.89375 273.61212 48.409374 273.409Q47.940624 273.19025 47.70625 272.87775Q47.471874 272.54962 47.378124 272.08087Q47.315624 271.784 47.315624 271.0965L47.315624 267.25275L48.378124 267.25275L48.378124 270.70587Q48.378124 271.51837 48.440624 271.81525Q48.534374 272.2215 48.846874 272.4715Q49.175 272.70587 49.659374 272.70587Q50.128124 272.70587 50.534374 272.4715Q50.95625 272.2215 51.128124 271.79962Q51.315624 271.37775 51.315624 270.58087L51.315624 267.25275L52.3625 267.25275L52.3625 273.4715L51.425 273.4715ZM54.346874 273.4715L54.346874 267.25275L55.284374 267.25275L55.284374 268.12775Q55.971874 267.11212 57.26875 267.11212Q57.83125 267.11212 58.3 267.31525Q58.784374 267.51837 59.01875 267.8465Q59.253124 268.17462 59.346874 268.61212Q59.39375 268.909 59.39375 269.64337L59.39375 273.4715L58.346874 273.4715L58.346874 269.69025Q58.346874 269.034 58.221874 268.7215Q58.096874 268.409 57.784374 268.2215Q57.471874 268.01837 57.05 268.01837Q56.378124 268.01837 55.878124 268.45587Q55.39375 268.87775 55.39375 270.06525L55.39375 273.4715L54.346874 273.4715ZM61.14375 273.98712L62.175 274.14337Q62.2375 274.61212 62.534374 274.83087Q62.925 275.12775 63.596874 275.12775Q64.33125 275.12775 64.72188 274.83087Q65.12813 274.534 65.26875 274.01837Q65.3625 273.69025 65.34688 272.659Q64.65938 273.4715 63.628124 273.4715Q62.346874 273.4715 61.64375 272.54962Q60.940624 271.61212 60.940624 270.33087Q60.940624 269.44025 61.253124 268.69025Q61.58125 267.92462 62.190624 267.51837Q62.8 267.11212 63.628124 267.11212Q64.7375 267.11212 65.45625 268.00275L65.45625 267.25275L66.425 267.25275L66.425 272.62775Q66.425 274.08087 66.12813 274.69025Q65.83125 275.29962 65.19063 275.64337Q64.55 276.00275 63.6125 276.00275Q62.503124 276.00275 61.815624 275.50275Q61.128124 275.00275 61.14375 273.98712ZM62.01875 270.25275Q62.01875 271.4715 62.503124 272.034Q62.9875 272.5965 63.721874 272.5965Q64.45625 272.5965 64.94063 272.034Q65.44063 271.4715 65.44063 270.284Q65.44063 269.14337 64.925 268.56525Q64.425 267.98712 63.70625 267.98712Q63.003124 267.98712 62.503124 268.56525Q62.01875 269.12775 62.01875 270.25275ZM68.33125 273.4715L68.33125 267.25275L69.28438 267.25275L69.28438 268.19025Q69.64375 267.534 69.94063 267.33087Q70.25313 267.11212 70.62813 267.11212Q71.15938 267.11212 71.70625 267.44025L71.34688 268.42462Q70.95625 268.19025 70.58125 268.19025Q70.22188 268.19025 69.94063 268.409Q69.675 268.61212 69.56563 268.98712Q69.37813 269.54962 69.37813 270.20587L69.37813 273.4715L68.33125 273.4715ZM72.3 275.86212L72.175 274.87775Q72.51875 274.9715 72.78438 274.9715Q73.12813 274.9715 73.33125 274.8465Q73.55 274.73712 73.69063 274.534Q73.78438 274.36212 74.01875 273.73712Q74.03438 273.659 74.1125 273.48712L71.7375 267.25275L72.87813 267.25275L74.175 270.8465Q74.425 271.534 74.62813 272.29962Q74.81563 271.56525 75.06563 270.87775L76.39375 267.25275L77.44063 267.25275L75.08125 273.58087Q74.69063 274.5965 74.4875 274.98712Q74.20625 275.51837 73.83125 275.75275Q73.47188 276.00275 72.97188 276.00275Q72.675 276.00275 72.3 275.86212Z" fill-rule="nonzero"/><path fill="#000000" d="M79.55 313.21564Q79.55 311.6844 79.8625 310.7625Q80.175 309.825 80.78438 309.325Q81.40938 308.825 82.34688 308.825Q83.03438 308.825 83.55 309.10626Q84.08125 309.3875 84.425 309.91876Q84.76875 310.4344 84.95625 311.1844Q85.14375 311.9344 85.14375 313.21564Q85.14375 314.73126 84.83125 315.65314Q84.53438 316.575 83.90938 317.09064Q83.3 317.59064 82.34688 317.59064Q81.1125 317.59064 80.39375 316.7Q79.55 315.6375 79.55 313.21564ZM80.62813 313.21564Q80.62813 315.325 81.12813 316.02814Q81.62813 316.73126 82.34688 316.73126Q83.08125 316.73126 83.56563 316.02814Q84.06563 315.325 84.06563 313.21564Q84.06563 311.09064 83.56563 310.40314Q83.08125 309.7 82.33125 309.7Q81.6125 309.7 81.175 310.3094Q80.62813 311.09064 80.62813 313.21564Z" fill-rule="nonzero"/><path fill="#000000" d="M179.79875 317.45L178.75188 317.45L178.75188 310.73126Q178.36125 311.09064 177.73625 311.46564Q177.12688 311.825 176.6425 311.9969L176.6425 310.98126Q177.5175 310.5594 178.17375 309.98126Q178.84563 309.3875 179.12688 308.825L179.79875 308.825L179.79875 317.45ZM182.83 313.21564Q182.83 311.6844 183.1425 310.7625Q183.455 309.825 184.06438 309.325Q184.68938 308.825 185.62688 308.825Q186.31438 308.825 186.83 309.10626Q187.36125 309.3875 187.705 309.91876Q188.04875 310.4344 188.23625 311.1844Q188.42375 311.9344 188.42375 313.21564Q188.42375 314.73126 188.11125 315.65314Q187.81438 316.575 187.18938 317.09064Q186.58 317.59064 185.62688 317.59064Q184.3925 317.59064 183.67375 316.7Q182.83 315.6375 182.83 313.21564ZM183.90813 313.21564Q183.90813 315.325 184.40813 316.02814Q184.90813 316.73126 185.62688 316.73126Q186.36125 316.73126 186.84563 316.02814Q187.34563 315.325 187.34563 313.21564Q187.34563 311.09064 186.84563 310.40314Q186.36125 309.7 185.61125 309.7Q184.8925 309.7 184.455 310.3094Q183.90813 311.09064 183.90813 313.21564Z" fill-rule="nonzero"/><path fill="#000000" d="M281.15686 316.4344L281.15686 317.45L275.46936 317.45Q275.46936 317.075 275.59436 316.71564Q275.8131 316.1375 276.28186 315.575Q276.76624 315.0125 277.6725 314.27814Q279.07874 313.1219 279.5631 312.45Q280.0631 311.77814 280.0631 311.1844Q280.0631 310.5594 279.61 310.1375Q279.15686 309.7 278.4381 309.7Q277.6725 309.7 277.21936 310.15314Q276.76624 310.60626 276.7506 311.41876L275.6725 311.3094Q275.78186 310.09064 276.5006 309.46564Q277.235 308.825 278.46936 308.825Q279.70374 308.825 280.4225 309.5125Q281.14124 310.2 281.14124 311.21564Q281.14124 311.73126 280.9225 312.23126Q280.71936 312.71564 280.21936 313.27814Q279.735 313.825 278.61 314.77814Q277.65686 315.575 277.3756 315.8719Q277.11 316.15314 276.9381 316.4344L281.15686 316.4344ZM282.61 313.21564Q282.61 311.6844 282.9225 310.7625Q283.235 309.825 283.84436 309.325Q284.46936 308.825 285.40686 308.825Q286.09436 308.825 286.61 309.10626Q287.14124 309.3875 287.485 309.91876Q287.82874 310.4344 288.01624 311.1844Q288.20374 311.9344 288.20374 313.21564Q288.20374 314.73126 287.89124 315.65314Q287.59436 316.575 286.96936 317.09064Q286.36 317.59064 285.40686 317.59064Q284.1725 317.59064 283.45374 316.7Q282.61 315.6375 282.61 313.21564ZM283.6881 313.21564Q283.6881 315.325 284.1881 316.02814Q284.6881 316.73126 285.40686 316.73126Q286.14124 316.73126 286.6256 316.02814Q287.1256 315.325 287.1256 313.21564Q287.1256 311.09064 286.6256 310.40314Q286.14124 309.7 285.39124 309.7Q284.6725 309.7 284.235 310.3094Q283.6881 311.09064 283.6881 313.21564Z" fill-rule="nonzero"/><path fill="#000000" d="M375.39 315.1844L376.4525 315.04376Q376.6244 315.9344 377.0619 316.34064Q377.4994 316.73126 378.1244 316.73126Q378.8744 316.73126 379.39 316.21564Q379.90564 315.7 379.90564 314.9344Q379.90564 314.21564 379.42126 313.7469Q378.9525 313.2625 378.21814 313.2625Q377.92126 313.2625 377.46814 313.3875L377.59314 312.45Q377.7025 312.46564 377.765 312.46564Q378.4369 312.46564 378.96814 312.1219Q379.515 311.7625 379.515 311.02814Q379.515 310.45 379.1244 310.075Q378.73376 309.6844 378.10876 309.6844Q377.4994 309.6844 377.0775 310.075Q376.67126 310.46564 376.5619 311.23126L375.4994 311.04376Q375.6869 309.9969 376.3744 309.41876Q377.0619 308.825 378.0775 308.825Q378.78064 308.825 379.3744 309.1375Q379.96814 309.4344 380.28064 309.95Q380.59314 310.46564 380.59314 311.0594Q380.59314 311.60626 380.29626 312.075Q379.9994 312.52814 379.42126 312.79376Q380.17126 312.96564 380.59314 313.52814Q381.015 314.075 381.015 314.91876Q381.015 316.04376 380.1869 316.825Q379.3744 317.60626 378.1244 317.60626Q376.9994 317.60626 376.2494 316.9344Q375.4994 316.2469 375.39 315.1844ZM382.39 313.21564Q382.39 311.6844 382.7025 310.7625Q383.015 309.825 383.6244 309.325Q384.2494 308.825 385.1869 308.825Q385.8744 308.825 386.39 309.10626Q386.92126 309.3875 387.265 309.91876Q387.60876 310.4344 387.79626 311.1844Q387.98376 311.9344 387.98376 313.21564Q387.98376 314.73126 387.67126 315.65314Q387.3744 316.575 386.7494 317.09064Q386.14 317.59064 385.1869 317.59064Q383.9525 317.59064 383.23376 316.7Q382.39 315.6375 382.39 313.21564ZM383.46814 313.21564Q383.46814 315.325 383.96814 316.02814Q384.46814 316.73126 385.1869 316.73126Q385.92126 316.73126 386.40564 316.02814Q386.90564 315.325 386.90564 313.21564Q386.90564 311.09064 386.40564 310.40314Q385.92126 309.7 385.17126 309.7Q384.4525 309.7 384.015 310.3094Q383.46814 311.09064 383.46814 313.21564Z" fill-rule="nonzero"/><path fill="#000000" d="M478.545 317.45L478.545 315.3875L474.82626 315.3875L474.82626 314.41876L478.74814 308.85626L479.6075 308.85626L479.6075 314.41876L480.76376 314.41876L480.76376 315.3875L479.6075 315.3875L479.6075 317.45L478.545 317.45ZM478.545 314.41876L478.545 310.5594L475.8575 314.41876L478.545 314.41876ZM482.17 313.21564Q482.17 311.6844 482.4825 310.7625Q482.795 309.825 483.4044 309.325Q484.0294 308.825 484.9669 308.825Q485.6544 308.825 486.17 309.10626Q486.70126 309.3875 487.045 309.91876Q487.38876 310.4344 487.57626 311.1844Q487.76376 311.9344 487.76376 313.21564Q487.76376 314.73126 487.45126 315.65314Q487.1544 316.575 486.5294 317.09064Q485.92 317.59064 484.9669 317.59064Q483.7325 317.59064 483.01376 316.7Q482.17 315.6375 482.17 313.21564ZM483.24814 313.21564Q483.24814 315.325 483.74814 316.02814Q484.24814 316.73126 484.9669 316.73126Q485.70126 316.73126 486.18564 316.02814Q486.68564 315.325 486.68564 313.21564Q486.68564 311.09064 486.18564 310.40314Q485.70126 309.7 484.95126 309.7Q484.2325 309.7 483.795 310.3094Q483.24814 311.09064 483.24814 313.21564Z" fill-rule="nonzero"/><path fill="#000000" d="M574.95 315.2L576.0594 315.10626Q576.1844 315.91876 576.6219 316.325Q577.075 316.73126 577.71564 316.73126Q578.46564 316.73126 578.9969 316.15314Q579.52814 315.575 579.52814 314.6375Q579.52814 313.73126 579.0125 313.21564Q578.5125 312.6844 577.6844 312.6844Q577.1844 312.6844 576.7625 312.91876Q576.35626 313.15314 576.1219 313.5125L575.1375 313.3875L575.96564 308.98126L580.2469 308.98126L580.2469 309.98126L576.8094 309.98126L576.35626 312.29376Q577.1219 311.7469 577.96564 311.7469Q579.09064 311.7469 579.85626 312.52814Q580.6375 313.3094 580.6375 314.54376Q580.6375 315.7 579.96564 316.5594Q579.1375 317.59064 577.71564 317.59064Q576.54376 317.59064 575.79376 316.9344Q575.0594 316.27814 574.95 315.2ZM581.95 313.21564Q581.95 311.6844 582.2625 310.7625Q582.575 309.825 583.1844 309.325Q583.8094 308.825 584.7469 308.825Q585.4344 308.825 585.95 309.10626Q586.48126 309.3875 586.825 309.91876Q587.16876 310.4344 587.35626 311.1844Q587.54376 311.9344 587.54376 313.21564Q587.54376 314.73126 587.23126 315.65314Q586.9344 316.575 586.3094 317.09064Q585.7 317.59064 584.7469 317.59064Q583.5125 317.59064 582.79376 316.7Q581.95 315.6375 581.95 313.21564ZM583.02814 313.21564Q583.02814 315.325 583.52814 316.02814Q584.02814 316.73126 584.7469 316.73126Q585.48126 316.73126 585.96564 316.02814Q586.46564 315.325 586.46564 313.21564Q586.46564 311.09064 585.96564 310.40314Q585.48126 309.7 584.73126 309.7Q584.0125 309.7 583.575 310.3094Q583.02814 311.09064 583.02814 313.21564Z" fill-rule="nonzero"/><path fill="#757575" d="M20.034374 37.55L20.034374 23.2375L22.89375 23.2375L26.26875 33.3625Q26.7375 34.784374 26.95625 35.4875Q27.20625 34.70625 27.721874 33.190624L31.14375 23.2375L33.690624 23.2375L33.690624 37.55L31.878124 37.55L31.878124 25.565624L27.70625 37.55L26.003124 37.55L21.8625 25.3625L21.8625 37.55L20.034374 37.55ZM36.221874 32.3625Q36.221874 29.4875 37.815624 28.096874Q39.159374 26.940624 41.08125 26.940624Q43.221874 26.940624 44.565624 28.346874Q45.925 29.753124 45.925 32.221874Q45.925 34.221874 45.33125 35.378124Q44.7375 36.51875 43.58125 37.159374Q42.440624 37.784374 41.08125 37.784374Q38.89375 37.784374 37.55 36.39375Q36.221874 34.9875 36.221874 32.3625ZM38.01875 32.3625Q38.01875 34.3625 38.878124 35.346874Q39.753124 36.33125 41.08125 36.33125Q42.39375 36.33125 43.253124 35.346874Q44.128124 34.346874 44.128124 32.3Q44.128124 30.378124 43.253124 29.39375Q42.378124 28.39375 41.08125 28.39375Q39.753124 28.39375 38.878124 29.39375Q38.01875 30.378124 38.01875 32.3625ZM47.221874 32.3625Q47.221874 29.4875 48.815624 28.096874Q50.159374 26.940624 52.08125 26.940624Q54.221874 26.940624 55.565624 28.346874Q56.925 29.753124 56.925 32.221874Q56.925 34.221874 56.33125 35.378124Q55.7375 36.51875 54.58125 37.159374Q53.440624 37.784374 52.08125 37.784374Q49.89375 37.784374 48.55 36.39375Q47.221874 34.9875 47.221874 32.3625ZM49.01875 32.3625Q49.01875 34.3625 49.878124 35.346874Q50.753124 36.33125 52.08125 36.33125Q53.39375 36.33125 54.253124 35.346874Q55.128124 34.346874 55.128124 32.3Q55.128124 30.378124 54.253124 29.39375Q53.378124 28.39375 52.08125 28.39375Q50.753124 28.39375 49.878124 29.39375Q49.01875 30.378124 49.01875 32.3625ZM65.59688 37.55L65.59688 36.2375Q64.6125 37.784374 62.690624 37.784374Q61.45625 37.784374 60.409374 37.096874Q59.378124 36.409374 58.8 35.190624Q58.2375 33.971874 58.2375 32.378124Q58.2375 30.815624 58.753124 29.55Q59.26875 28.284374 60.3 27.6125Q61.346874 26.940624 62.6125 26.940624Q63.55 26.940624 64.28438 27.346874Q65.01875 27.7375 65.4875 28.3625L65.4875 23.2375L67.22188 23.2375L67.22188 37.55L65.59688 37.55ZM60.034374 32.378124Q60.034374 34.3625 60.878124 35.346874Q61.721874 36.33125 62.8625 36.33125Q64.01875 36.33125 64.81563 35.39375Q65.62813 34.45625 65.62813 32.51875Q65.62813 30.39375 64.8 29.39375Q63.9875 28.39375 62.784374 28.39375Q61.6125 28.39375 60.815624 29.3625Q60.034374 30.315624 60.034374 32.378124ZM79.22188 41.753124Q77.76875 39.925 76.76875 37.471874Q75.76875 35.003124 75.76875 32.3625Q75.76875 30.034374 76.51875 27.909374Q77.39375 25.440624 79.22188 22.9875L80.4875 22.9875Q79.3 25.01875 78.925 25.89375Q78.33125 27.2375 77.9875 28.70625Q77.56563 30.534374 77.56563 32.378124Q77.56563 37.065624 80.4875 41.753124L79.22188 41.753124ZM82.45625 32.95625L84.2375 32.8Q84.3625 33.8625 84.81563 34.55Q85.28438 35.2375 86.25313 35.675Q87.2375 36.096874 88.47188 36.096874Q89.55 36.096874 90.37813 35.784374Q91.20625 35.45625 91.6125 34.89375Q92.01875 34.33125 92.01875 33.659374Q92.01875 32.9875 91.62813 32.4875Q91.2375 31.9875 90.34688 31.64375Q89.76875 31.409374 87.78438 30.940624Q85.81563 30.471874 85.03438 30.05Q84.00313 29.51875 83.50313 28.721874Q83.00313 27.925 83.00313 26.940624Q83.00313 25.846874 83.6125 24.909374Q84.22188 23.971874 85.40938 23.4875Q86.59688 22.9875 88.03438 22.9875Q89.62813 22.9875 90.84688 23.503124Q92.06563 24.01875 92.70625 25.01875Q93.3625 26.003124 93.40938 27.26875L91.59688 27.409374Q91.45625 26.05 90.6125 25.3625Q89.76875 24.659374 88.1125 24.659374Q86.39375 24.659374 85.59688 25.3Q84.81563 25.925 84.81563 26.8Q84.81563 27.58125 85.37813 28.08125Q85.925 28.58125 88.2375 29.096874Q90.55 29.6125 91.40938 30.003124Q92.65938 30.58125 93.25313 31.471874Q93.84688 32.346874 93.84688 33.503124Q93.84688 34.64375 93.19063 35.659374Q92.53438 36.675 91.3 37.2375Q90.08125 37.8 88.55 37.8Q86.6125 37.8 85.3 37.2375Q83.9875 36.659374 83.2375 35.51875Q82.4875 34.378124 82.45625 32.95625ZM102.97188 34.20625L104.78438 34.440624Q104.3625 36.01875 103.19063 36.909374Q102.03438 37.784374 100.22188 37.784374Q97.95625 37.784374 96.6125 36.39375Q95.28438 34.9875 95.28438 32.45625Q95.28438 29.83125 96.62813 28.39375Q97.97188 26.940624 100.12813 26.940624Q102.20625 26.940624 103.51875 28.3625Q104.84688 29.76875 104.84688 32.346874Q104.84688 32.503124 104.83125 32.815624L97.09688 32.815624Q97.19063 34.51875 98.06563 35.425Q98.94063 36.33125 100.2375 36.33125Q101.20625 36.33125 101.87813 35.83125Q102.56563 35.315624 102.97188 34.20625ZM97.19063 31.3625L102.9875 31.3625Q102.87813 30.065624 102.33125 29.409374Q101.4875 28.39375 100.14375 28.39375Q98.94063 28.39375 98.1125 29.20625Q97.28438 30.003124 97.19063 31.3625ZM106.8625 41.51875L106.8625 27.175L108.47188 27.175L108.47188 28.51875Q109.03438 27.7375 109.7375 27.346874Q110.45625 26.940624 111.47188 26.940624Q112.8 26.940624 113.81563 27.628124Q114.83125 28.315624 115.34688 29.565624Q115.87813 30.8 115.87813 32.284374Q115.87813 33.878124 115.3 35.159374Q114.7375 36.425 113.64375 37.1125Q112.55 37.784374 111.34688 37.784374Q110.47188 37.784374 109.76875 37.409374Q109.08125 37.034374 108.62813 36.471874L108.62813 41.51875L106.8625 41.51875ZM108.45625 32.425Q108.45625 34.425 109.26875 35.378124Q110.08125 36.33125 111.2375 36.33125Q112.40938 36.33125 113.2375 35.346874Q114.08125 34.3625 114.08125 32.26875Q114.08125 30.3 113.25313 29.315624Q112.44063 28.315624 111.31563 28.315624Q110.19063 28.315624 109.31563 29.378124Q108.45625 30.425 108.45625 32.425ZM118.33125 37.55L118.33125 35.55L120.33125 35.55L120.33125 37.55Q120.33125 38.659374 119.94063 39.33125Q119.55 40.01875 118.70625 40.378124L118.20625 39.628124Q118.76875 39.39375 119.03438 38.909374Q119.3 38.440624 119.33125 37.55L118.33125 37.55ZM130.08125 37.55L130.08125 23.2375L132.01875 23.2375L139.53438 34.471874L139.53438 23.2375L141.34688 23.2375L141.34688 37.55L139.40938 37.55L131.89375 26.3L131.89375 37.55L130.08125 37.55ZM142.22188 32.3625Q142.22188 29.4875 143.81563 28.096874Q145.15938 26.940624 147.08125 26.940624Q149.22188 26.940624 150.56563 28.346874Q151.925 29.753124 151.925 32.221874Q151.925 34.221874 151.33125 35.378124Q150.7375 36.51875 149.58125 37.159374Q148.44063 37.784374 147.08125 37.784374Q144.89375 37.784374 143.55 36.39375Q142.22188 34.9875 142.22188 32.3625ZM144.01875 32.3625Q144.01875 34.3625 144.87813 35.346874Q145.75313 36.33125 147.08125 36.33125Q148.39375 36.33125 149.25313 35.346874Q150.12813 34.346874 150.12813 32.3Q150.12813 30.378124 149.25313 29.39375Q148.37813 28.39375 147.08125 28.39375Q145.75313 28.39375 144.87813 29.39375Q144.01875 30.378124 144.01875 32.3625ZM156.75313 37.55L152.8 27.175L154.65938 27.175L156.89375 33.39375Q157.25313 34.39375 157.55 35.471874Q157.78438 34.659374 158.20625 33.503124L160.50313 27.175L162.31563 27.175L158.39375 37.55L156.75313 37.55ZM163.33125 37.55L163.33125 35.55L165.33125 35.55L165.33125 37.55Q165.33125 38.659374 164.94063 39.33125Q164.55 40.01875 163.70625 40.378124L163.20625 39.628124Q163.76875 39.39375 164.03438 38.909374Q164.3 38.440624 164.33125 37.55L163.33125 37.55ZM174.51875 30.58125Q174.51875 27.01875 176.425 25.003124Q178.34688 22.971874 181.37813 22.971874Q183.3625 22.971874 184.94063 23.925Q186.53438 24.878124 187.3625 26.58125Q188.20625 28.26875 188.20625 30.409374Q188.20625 32.58125 187.33125 34.3Q186.45625 36.01875 184.83125 36.909374Q183.22188 37.8 181.3625 37.8Q179.34688 37.8 177.75313 36.83125Q176.15938 35.846874 175.33125 34.159374Q174.51875 32.45625 174.51875 30.58125ZM176.47188 30.6125Q176.47188 33.190624 177.8625 34.690624Q179.25313 36.175 181.34688 36.175Q183.4875 36.175 184.8625 34.675Q186.25313 33.159374 186.25313 30.39375Q186.25313 28.659374 185.65938 27.3625Q185.08125 26.05 183.94063 25.33125Q182.8 24.6125 181.37813 24.6125Q179.37813 24.6125 177.925 26.003124Q176.47188 27.378124 176.47188 30.6125ZM197.64375 33.753124L199.3625 33.971874Q199.08125 35.76875 197.90938 36.784374Q196.75313 37.784374 195.05 37.784374Q192.925 37.784374 191.62813 36.39375Q190.33125 35.003124 190.33125 32.409374Q190.33125 30.721874 190.87813 29.471874Q191.44063 28.20625 192.58125 27.58125Q193.72188 26.940624 195.06563 26.940624Q196.75313 26.940624 197.81563 27.8Q198.89375 28.659374 199.20625 30.221874L197.4875 30.4875Q197.25313 29.440624 196.62813 28.925Q196.00313 28.39375 195.12813 28.39375Q193.8 28.39375 192.97188 29.346874Q192.14375 30.3 192.14375 32.346874Q192.14375 34.440624 192.94063 35.39375Q193.7375 36.33125 195.03438 36.33125Q196.06563 36.33125 196.75313 35.70625Q197.45625 35.065624 197.64375 33.753124ZM204.70625 35.971874L204.95625 37.534374Q204.22188 37.690624 203.62813 37.690624Q202.675 37.690624 202.14375 37.39375Q201.62813 37.08125 201.40938 36.596874Q201.19063 36.096874 201.19063 34.51875L201.19063 28.55L199.90938 28.55L199.90938 27.175L201.19063 27.175L201.19063 24.6125L202.94063 23.55L202.94063 27.175L204.70625 27.175L204.70625 28.55L202.94063 28.55L202.94063 34.6125Q202.94063 35.3625 203.03438 35.58125Q203.12813 35.784374 203.33125 35.925Q203.55 36.05 203.94063 36.05Q204.22188 36.05 204.70625 35.971874ZM207.33125 37.55L207.33125 35.55L209.33125 35.55L209.33125 37.55Q209.33125 38.659374 208.94063 39.33125Q208.55 40.01875 207.70625 40.378124L207.20625 39.628124Q207.76875 39.39375 208.03438 38.909374Q208.3 38.440624 208.33125 37.55L207.33125 37.55ZM219.09688 37.55L219.09688 23.2375L224.01875 23.2375Q225.69063 23.2375 226.58125 23.440624Q227.8 23.721874 228.675 24.45625Q229.8 25.425 230.3625 26.909374Q230.925 28.39375 230.925 30.315624Q230.925 31.940624 230.55 33.20625Q230.175 34.45625 229.56563 35.284374Q228.97188 36.1125 228.26875 36.596874Q227.56563 37.065624 226.56563 37.315624Q225.56563 37.55 224.25313 37.55L219.09688 37.55ZM220.9875 35.8625L224.05 35.8625Q225.45625 35.8625 226.25313 35.596874Q227.06563 35.33125 227.55 34.846874Q228.22188 34.175 228.59688 33.05Q228.97188 31.909374 228.97188 30.284374Q228.97188 28.034374 228.2375 26.83125Q227.50313 25.628124 226.44063 25.221874Q225.69063 24.925 224.00313 24.925L220.9875 24.925L220.9875 35.8625ZM239.97188 34.20625L241.78438 34.440624Q241.3625 36.01875 240.19063 36.909374Q239.03438 37.784374 237.22188 37.784374Q234.95625 37.784374 233.6125 36.39375Q232.28438 34.9875 232.28438 32.45625Q232.28438 29.83125 233.62813 28.39375Q234.97188 26.940624 237.12813 26.940624Q239.20625 26.940624 240.51875 28.3625Q241.84688 29.76875 241.84688 32.346874Q241.84688 32.503124 241.83125 32.815624L234.09688 32.815624Q234.19063 34.51875 235.06563 35.425Q235.94063 36.33125 237.2375 36.33125Q238.20625 36.33125 238.87813 35.83125Q239.56563 35.315624 239.97188 34.20625ZM234.19063 31.3625L239.9875 31.3625Q239.87813 30.065624 239.33125 29.409374Q238.4875 28.39375 237.14375 28.39375Q235.94063 28.39375 235.1125 29.20625Q234.28438 30.003124 234.19063 31.3625ZM250.64375 33.753124L252.3625 33.971874Q252.08125 35.76875 250.90938 36.784374Q249.75313 37.784374 248.05 37.784374Q245.925 37.784374 244.62813 36.39375Q243.33125 35.003124 243.33125 32.409374Q243.33125 30.721874 243.87813 29.471874Q244.44063 28.20625 245.58125 27.58125Q246.72188 26.940624 248.06563 26.940624Q249.75313 26.940624 250.81563 27.8Q251.89375 28.659374 252.20625 30.221874L250.4875 30.4875Q250.25313 29.440624 249.62813 28.925Q249.00313 28.39375 248.12813 28.39375Q246.8 28.39375 245.97188 29.346874Q245.14375 30.3 245.14375 32.346874Q245.14375 34.440624 245.94063 35.39375Q246.7375 36.33125 248.03438 36.33125Q249.06563 36.33125 249.75313 35.70625Q250.45625 35.065624 250.64375 33.753124ZM255.01875 41.753124L253.76875 41.753124Q256.675 37.065624 256.675 32.378124Q256.675 30.534374 256.26874 28.7375Q255.925 27.26875 255.33125 25.925Q254.95625 25.034374 253.76875 22.9875L255.01875 22.9875Q256.8625 25.440624 257.7375 27.909374Q258.4875 30.034374 258.4875 32.3625Q258.4875 35.003124 257.47186 37.471874Q256.47186 39.925 255.01875 41.753124Z" fill-rule="nonzero"/></svg>