<svg version="1.1" viewBox="0.0 0.0 687.0 425.0" fill="none" stroke="none" stroke-linecap="square" stroke-miterlimit="10" width="687" height="425" xmlns:xlink="http://www.w3.org/1999/xlink" xmlns="http://www.w3.org/2000/svg"><path fill="#ffffff" d="M0 0L687.0 0L687.0 425.0L0 425.0L0 0Z" fill-rule="nonzero"/><path fill="#fbbc04" d="M194.39929 158.4125C225.1539 121.12451 281.99078 98.15417 343.5 98.15417L343.5 218.67084Z" fill-rule="nonzero"/><path fill="#a42f25" d="M194.39929 304.75418C179.28851 286.43332 171.33333 265.65094 171.33333 244.49583L171.33333 218.67084C171.33333 239.82593 179.28851 260.6083 194.39929 278.92917Z" fill-rule="nonzero"/><path fill="#ea4335" d="M194.39929 278.92917C163.64468 241.64117 163.64468 195.70049 194.39929 158.4125L343.5 218.67084Z" fill-rule="nonzero"/><path fill="#2e5dab" d="M515.6667 244.49583C515.6667 299.04236 463.32843 346.7883 388.06 360.906C312.7916 375.02368 233.3611 351.99286 194.39929 304.75418L194.39929 278.92917C233.3611 326.16785 312.7916 349.19867 388.06 335.081C463.32843 320.96332 515.6667 273.21735 515.6667 218.67084Z" fill-rule="nonzero"/><path fill="#4285f4" d="M343.5 98.15417C427.0514 98.15417 498.5425 140.14589 513.0511 197.74333C527.55963 255.34077 480.8971 311.91608 402.38446 331.91946C323.87186 351.92285 236.17499 329.5795 194.39929 278.92917L343.5 218.67084Z" fill-rule="nonzero"/><path fill="#1a1a1a" d="M22.234375 115.01886L22.234375 106.42511L28.03125 106.42511L28.03125 107.440735L23.375 107.440735L23.375 110.096985L27.40625 110.096985L27.40625 111.11261L23.375 111.11261L23.375 115.01886L22.234375 115.01886ZM29.03125 115.01886L29.03125 108.80011L29.984375 108.80011L29.984375 109.73761Q30.34375 109.08136 30.640625 108.878235Q30.953125 108.659485 31.328125 108.659485Q31.859375 108.659485 32.40625 108.98761L32.046875 109.971985Q31.65625 109.73761 31.28125 109.73761Q30.921875 109.73761 30.640625 109.95636Q30.375 110.159485 30.265625 110.534485Q30.078125 111.096985 30.078125 111.753235L30.078125 115.01886L29.03125 115.01886ZM33.046875 107.64386L33.046875 106.42511L34.109375 106.42511L34.109375 107.64386L33.046875 107.64386ZM33.046875 115.01886L33.046875 108.80011L34.109375 108.80011L34.109375 115.01886L33.046875 115.01886ZM35.625 113.159485L36.65625 113.003235Q36.75 113.628235 37.140625 113.95636Q37.546875 114.284485 38.28125 114.284485Q39.0 114.284485 39.34375 114.003235Q39.703125 113.70636 39.703125 113.30011Q39.703125 112.940735 39.390625 112.73761Q39.171875 112.596985 38.3125 112.378235Q37.15625 112.08136 36.703125 111.878235Q36.265625 111.659485 36.03125 111.284485Q35.796875 110.909485 35.796875 110.440735Q35.796875 110.034485 35.984375 109.67511Q36.171875 109.315735 36.5 109.08136Q36.75 108.909485 37.171875 108.784485Q37.59375 108.659485 38.09375 108.659485Q38.8125 108.659485 39.359375 108.878235Q39.921875 109.08136 40.1875 109.440735Q40.453125 109.80011 40.546875 110.39386L39.515625 110.534485Q39.453125 110.065735 39.109375 109.80011Q38.78125 109.51886 38.15625 109.51886Q37.4375 109.51886 37.125 109.76886Q36.8125 110.003235 36.8125 110.33136Q36.8125 110.534485 36.9375 110.690735Q37.078125 110.86261 37.34375 110.971985Q37.5 111.034485 38.28125 111.23761Q39.40625 111.55011 39.84375 111.73761Q40.28125 111.92511 40.53125 112.284485Q40.78125 112.64386 40.78125 113.190735Q40.78125 113.721985 40.46875 114.190735Q40.171875 114.64386 39.59375 114.909485Q39.015625 115.159485 38.28125 115.159485Q37.0625 115.159485 36.421875 114.659485Q35.796875 114.14386 35.625 113.159485ZM45.34375 114.08136L45.5 115.003235Q45.046875 115.096985 44.703125 115.096985Q44.125 115.096985 43.8125 114.92511Q43.5 114.73761 43.359375 114.440735Q43.234375 114.14386 43.234375 113.190735L43.234375 109.61261L42.46875 109.61261L42.46875 108.80011L43.234375 108.80011L43.234375 107.253235L44.28125 106.628235L44.28125 108.80011L45.34375 108.80011L45.34375 109.61261L44.28125 109.61261L44.28125 113.253235Q44.28125 113.70636 44.328125 113.83136Q44.390625 113.95636 44.515625 114.034485Q44.640625 114.11261 44.875 114.11261Q45.0625 114.11261 45.34375 114.08136Z" fill-rule="nonzero"/><path fill="#9e9e9e" d="M25.71875 132.01886L24.671875 132.01886L24.671875 125.30011Q24.28125 125.659485 23.65625 126.034485Q23.046875 126.39386 22.5625 126.565735L22.5625 125.55011Q23.4375 125.128235 24.09375 124.55011Q24.765625 123.95636 25.046875 123.39386L25.71875 123.39386L25.71875 132.01886ZM34.21875 125.534485L33.171875 125.61261Q33.03125 124.98761 32.78125 124.70636Q32.34375 124.253235 31.71875 124.253235Q31.21875 124.253235 30.828125 124.534485Q30.34375 124.909485 30.046875 125.61261Q29.765625 126.30011 29.75 127.58136Q30.125 127.003235 30.671875 126.721985Q31.234375 126.440735 31.84375 126.440735Q32.890625 126.440735 33.625 127.221985Q34.375 128.00323 34.375 129.22198Q34.375 130.03448 34.015625 130.73761Q33.671875 131.42511 33.0625 131.80011Q32.453125 132.15948 31.6875 132.15948Q30.359375 132.15948 29.53125 131.19073Q28.703125 130.22198 28.703125 128.00323Q28.703125 125.503235 29.625 124.378235Q30.421875 123.39386 31.78125 123.39386Q32.796875 123.39386 33.4375 123.971985Q34.09375 124.534485 34.21875 125.534485ZM29.921875 129.23761Q29.921875 129.78448 30.140625 130.28448Q30.375 130.76886 30.78125 131.03448Q31.203125 131.30011 31.671875 131.30011Q32.328125 131.30011 32.8125 130.76886Q33.296875 130.22198 33.296875 129.30011Q33.296875 128.40948 32.8125 127.89386Q32.34375 127.378235 31.625 127.378235Q30.90625 127.378235 30.40625 127.89386Q29.921875 128.40948 29.921875 129.23761ZM36.34375 132.01886L36.34375 130.81573L37.546875 130.81573L37.546875 132.01886L36.34375 132.01886ZM38.8125 124.55011L38.8125 123.534485L44.375 123.534485L44.375 124.36261Q43.5625 125.23761 42.75 126.690735Q41.953125 128.12823 41.515625 129.65948Q41.1875 130.73761 41.109375 132.01886L40.015625 132.01886Q40.03125 131.00323 40.40625 129.56573Q40.796875 128.12823 41.5 126.80011Q42.21875 125.471985 43.03125 124.55011L38.8125 124.55011ZM45.953125 125.48761Q45.953125 124.565735 46.40625 123.92511Q46.875 123.284485 47.75 123.284485Q48.5625 123.284485 49.09375 123.86261Q49.625 124.440735 49.625 125.55011Q49.625 126.64386 49.078125 127.23761Q48.546875 127.815735 47.765625 127.815735Q46.984375 127.815735 46.46875 127.23761Q45.953125 126.659485 45.953125 125.48761ZM47.78125 124.003235Q47.390625 124.003235 47.125 124.346985Q46.875 124.690735 46.875 125.596985Q46.875 126.42511 47.125 126.76886Q47.390625 127.096985 47.78125 127.096985Q48.1875 127.096985 48.4375 126.753235Q48.703125 126.409485 48.703125 125.51886Q48.703125 124.67511 48.4375 124.346985Q48.171875 124.003235 47.78125 124.003235ZM47.78125 132.33136L52.484375 123.284485L53.34375 123.284485L48.65625 132.33136L47.78125 132.33136ZM51.5 130.00323Q51.5 129.08136 51.953125 128.44073Q52.421875 127.80011 53.3125 127.80011Q54.125 127.80011 54.65625 128.37823Q55.1875 128.94073 55.1875 130.06573Q55.1875 131.15948 54.640625 131.75323Q54.109375 132.33136 53.3125 132.33136Q52.546875 132.33136 52.015625 131.75323Q51.5 131.17511 51.5 130.00323ZM53.34375 128.51886Q52.9375 128.51886 52.671875 128.86261Q52.421875 129.20636 52.421875 130.11261Q52.421875 130.92511 52.6875 131.26886Q52.953125 131.61261 53.34375 131.61261Q53.734375 131.61261 54.0 131.26886Q54.265625 130.92511 54.265625 130.01886Q54.265625 129.19073 54.0 128.86261Q53.734375 128.51886 53.34375 128.51886Z" fill-rule="nonzero"/><path stroke="#757575" stroke-width="1.0" stroke-linecap="butt" d="M21.25 119.51886L165.33333 119.51886L261.72083 119.51886" fill-rule="nonzero"/><path fill="#9e9e9e" d="M263.72083 119.51886C263.72083 118.41429 262.8254 117.51886 261.72083 117.51886C260.61627 117.51886 259.72083 118.41429 259.72083 119.51886C259.72083 120.623436 260.61627 121.51886 261.72083 121.51886C262.8254 121.51886 263.72083 120.623436 263.72083 119.51886" fill-rule="nonzero"/><path fill="#1a1a1a" d="M22.375 214.17084L22.375 205.57709L23.5 205.57709L23.5 214.17084L22.375 214.17084ZM29.109375 211.88959L30.140625 212.03021Q29.96875 213.09271 29.265625 213.70209Q28.5625 214.31146 27.546875 214.31146Q26.265625 214.31146 25.484375 213.48334Q24.71875 212.63959 24.71875 211.07709Q24.71875 210.07709 25.046875 209.32709Q25.390625 208.56146 26.0625 208.18646Q26.75 207.81146 27.5625 207.81146Q28.5625 207.81146 29.203125 208.32709Q29.859375 208.82709 30.046875 209.78021L29.015625 209.93646Q28.875 209.31146 28.5 208.99896Q28.125 208.67084 27.59375 208.67084Q26.796875 208.67084 26.296875 209.24896Q25.796875 209.81146 25.796875 211.04584Q25.796875 212.31146 26.28125 212.87396Q26.765625 213.43646 27.53125 213.43646Q28.15625 213.43646 28.5625 213.06146Q28.984375 212.68646 29.109375 211.88959ZM35.109375 213.40521Q34.515625 213.90521 33.96875 214.10834Q33.4375 214.31146 32.8125 214.31146Q31.78125 214.31146 31.234375 213.81146Q30.6875 213.31146 30.6875 212.53021Q30.6875 212.07709 30.890625 211.70209Q31.09375 211.31146 31.4375 211.09271Q31.78125 210.85834 32.203125 210.74896Q32.5 210.65521 33.140625 210.57709Q34.40625 210.43646 35.015625 210.21771Q35.015625 209.99896 35.015625 209.95209Q35.015625 209.29584 34.71875 209.03021Q34.3125 208.68646 33.515625 208.68646Q32.78125 208.68646 32.421875 208.95209Q32.0625 209.20209 31.890625 209.85834L30.859375 209.71771Q31.0 209.06146 31.328125 208.65521Q31.65625 208.24896 32.265625 208.03021Q32.875 207.81146 33.671875 207.81146Q34.46875 207.81146 34.96875 207.99896Q35.46875 208.18646 35.703125 208.46771Q35.9375 208.74896 36.03125 209.18646Q36.078125 209.45209 36.078125 210.15521L36.078125 211.56146Q36.078125 213.03021 36.140625 213.42084Q36.21875 213.81146 36.421875 214.17084L35.3125 214.17084Q35.15625 213.84271 35.109375 213.40521ZM35.015625 211.04584Q34.4375 211.28021 33.296875 211.45209Q32.640625 211.54584 32.375 211.67084Q32.109375 211.78021 31.953125 211.99896Q31.8125 212.21771 31.8125 212.49896Q31.8125 212.92084 32.125 213.20209Q32.453125 213.48334 33.0625 213.48334Q33.671875 213.48334 34.140625 213.21771Q34.625 212.95209 34.84375 212.48334Q35.015625 212.12396 35.015625 211.43646L35.015625 211.04584ZM38.046875 214.17084L38.046875 205.57709L39.09375 205.57709L39.09375 208.65521Q39.828125 207.81146 40.953125 207.81146Q41.65625 207.81146 42.15625 208.09271Q42.671875 208.35834 42.890625 208.84271Q43.109375 209.31146 43.109375 210.23334L43.109375 214.17084L42.0625 214.17084L42.0625 210.23334Q42.0625 209.43646 41.71875 209.07709Q41.375 208.71771 40.75 208.71771Q40.28125 208.71771 39.859375 208.96771Q39.453125 209.20209 39.265625 209.62396Q39.09375 210.03021 39.09375 210.76459L39.09375 214.17084L38.046875 214.17084ZM45.046875 214.17084L45.046875 207.95209L45.984375 207.95209L45.984375 208.82709Q46.671875 207.81146 47.96875 207.81146Q48.53125 207.81146 49.0 208.01459Q49.484375 208.21771 49.71875 208.54584Q49.953125 208.87396 50.046875 209.31146Q50.09375 209.60834 50.09375 210.34271L50.09375 214.17084L49.046875 214.17084L49.046875 210.38959Q49.046875 209.73334 48.921875 209.42084Q48.796875 209.10834 48.484375 208.92084Q48.171875 208.71771 47.75 208.71771Q47.078125 208.71771 46.578125 209.15521Q46.09375 209.57709 46.09375 210.76459L46.09375 214.17084L45.046875 214.17084ZM55.125 214.17084L55.125 205.57709L56.265625 205.57709L56.265625 213.15521L60.5 213.15521L60.5 214.17084L55.125 214.17084ZM66.109375 213.40521Q65.515625 213.90521 64.96875 214.10834Q64.4375 214.31146 63.8125 214.31146Q62.78125 214.31146 62.234375 213.81146Q61.6875 213.31146 61.6875 212.53021Q61.6875 212.07709 61.890625 211.70209Q62.09375 211.31146 62.4375 211.09271Q62.78125 210.85834 63.203125 210.74896Q63.5 210.65521 64.140625 210.57709Q65.40625 210.43646 66.015625 210.21771Q66.015625 209.99896 66.015625 209.95209Q66.015625 209.29584 65.71875 209.03021Q65.3125 208.68646 64.515625 208.68646Q63.78125 208.68646 63.421875 208.95209Q63.0625 209.20209 62.890625 209.85834L61.859375 209.71771Q62.0 209.06146 62.328125 208.65521Q62.65625 208.24896 63.265625 208.03021Q63.875 207.81146 64.671875 207.81146Q65.46875 207.81146 65.96875 207.99896Q66.46875 208.18646 66.703125 208.46771Q66.9375 208.74896 67.03125 209.18646Q67.078125 209.45209 67.078125 210.15521L67.078125 211.56146Q67.078125 213.03021 67.140625 213.42084Q67.21875 213.81146 67.421875 214.17084L66.3125 214.17084Q66.15625 213.84271 66.109375 213.40521ZM66.015625 211.04584Q65.4375 211.28021 64.296875 211.45209Q63.640625 211.54584 63.375 211.67084Q63.109375 211.78021 62.953125 211.99896Q62.8125 212.21771 62.8125 212.49896Q62.8125 212.92084 63.125 213.20209Q63.453125 213.48334 64.0625 213.48334Q64.671875 213.48334 65.140625 213.21771Q65.625 212.95209 65.84375 212.48334Q66.015625 212.12396 66.015625 211.43646L66.015625 211.04584ZM70.015625 214.17084L69.03125 214.17084L69.03125 205.57709L70.09375 205.57709L70.09375 208.63959Q70.765625 207.81146 71.796875 207.81146Q72.375 207.81146 72.875 208.04584Q73.390625 208.26459 73.71875 208.68646Q74.0625 209.10834 74.25 209.70209Q74.4375 210.29584 74.4375 210.96771Q74.4375 212.56146 73.640625 213.43646Q72.84375 214.31146 71.75 214.31146Q70.640625 214.31146 70.015625 213.38959L70.015625 214.17084ZM70.0 211.01459Q70.0 212.12396 70.3125 212.62396Q70.8125 213.43646 71.65625 213.43646Q72.34375 213.43646 72.84375 212.84271Q73.359375 212.24896 73.359375 211.04584Q73.359375 209.82709 72.875 209.24896Q72.390625 208.67084 71.703125 208.67084Q71.015625 208.67084 70.5 209.28021Q70.0 209.87396 70.0 211.01459ZM75.65625 211.06146Q75.65625 209.32709 76.609375 208.49896Q77.40625 207.81146 78.5625 207.81146Q79.84375 207.81146 80.65625 208.65521Q81.484375 209.48334 81.484375 210.96771Q81.484375 212.17084 81.125 212.85834Q80.765625 213.54584 80.0625 213.93646Q79.375 214.31146 78.5625 214.31146Q77.265625 214.31146 76.453125 213.48334Q75.65625 212.63959 75.65625 211.06146ZM76.734375 211.06146Q76.734375 212.24896 77.25 212.84271Q77.78125 213.43646 78.5625 213.43646Q79.359375 213.43646 79.875 212.84271Q80.390625 212.24896 80.390625 211.03021Q80.390625 209.87396 79.859375 209.28021Q79.34375 208.68646 78.5625 208.68646Q77.78125 208.68646 77.25 209.28021Q76.734375 209.85834 76.734375 211.06146ZM83.03125 214.17084L83.03125 207.95209L83.984375 207.95209L83.984375 208.88959Q84.34375 208.23334 84.640625 208.03021Q84.953125 207.81146 85.328125 207.81146Q85.859375 207.81146 86.40625 208.13959L86.046875 209.12396Q85.65625 208.88959 85.28125 208.88959Q84.921875 208.88959 84.640625 209.10834Q84.375 209.31146 84.265625 209.68646Q84.078125 210.24896 84.078125 210.90521L84.078125 214.17084L83.03125 214.17084ZM91.109375 213.40521Q90.515625 213.90521 89.96875 214.10834Q89.4375 214.31146 88.8125 214.31146Q87.78125 214.31146 87.234375 213.81146Q86.6875 213.31146 86.6875 212.53021Q86.6875 212.07709 86.890625 211.70209Q87.09375 211.31146 87.4375 211.09271Q87.78125 210.85834 88.203125 210.74896Q88.5 210.65521 89.140625 210.57709Q90.40625 210.43646 91.015625 210.21771Q91.015625 209.99896 91.015625 209.95209Q91.015625 209.29584 90.71875 209.03021Q90.3125 208.68646 89.515625 208.68646Q88.78125 208.68646 88.421875 208.95209Q88.0625 209.20209 87.890625 209.85834L86.859375 209.71771Q87.0 209.06146 87.328125 208.65521Q87.65625 208.24896 88.265625 208.03021Q88.875 207.81146 89.671875 207.81146Q90.46875 207.81146 90.96875 207.99896Q91.46875 208.18646 91.703125 208.46771Q91.9375 208.74896 92.03125 209.18646Q92.078125 209.45209 92.078125 210.15521L92.078125 211.56146Q92.078125 213.03021 92.140625 213.42084Q92.21875 213.81146 92.421875 214.17084L91.3125 214.17084Q91.15625 213.84271 91.109375 213.40521ZM91.015625 211.04584Q90.4375 211.28021 89.296875 211.45209Q88.640625 211.54584 88.375 211.67084Q88.109375 211.78021 87.953125 211.99896Q87.8125 212.21771 87.8125 212.49896Q87.8125 212.92084 88.125 213.20209Q88.453125 213.48334 89.0625 213.48334Q89.671875 213.48334 90.140625 213.21771Q90.625 212.95209 90.84375 212.48334Q91.015625 212.12396 91.015625 211.43646L91.015625 211.04584ZM96.34375 213.23334L96.5 214.15521Q96.046875 214.24896 95.703125 214.24896Q95.125 214.24896 94.8125 214.07709Q94.5 213.88959 94.359375 213.59271Q94.234375 213.29584 94.234375 212.34271L94.234375 208.76459L93.46875 208.76459L93.46875 207.95209L94.234375 207.95209L94.234375 206.40521L95.28125 205.78021L95.28125 207.95209L96.34375 207.95209L96.34375 208.76459L95.28125 208.76459L95.28125 212.40521Q95.28125 212.85834 95.328125 212.98334Q95.390625 213.10834 95.515625 213.18646Q95.640625 213.26459 95.875 213.26459Q96.0625 213.26459 96.34375 213.23334ZM96.65625 211.06146Q96.65625 209.32709 97.609375 208.49896Q98.40625 207.81146 99.5625 207.81146Q100.84375 207.81146 101.65625 208.65521Q102.484375 209.48334 102.484375 210.96771Q102.484375 212.17084 102.125 212.85834Q101.765625 213.54584 101.0625 213.93646Q100.375 214.31146 99.5625 214.31146Q98.265625 214.31146 97.453125 213.48334Q96.65625 212.63959 96.65625 211.06146ZM97.734375 211.06146Q97.734375 212.24896 98.25 212.84271Q98.78125 213.43646 99.5625 213.43646Q100.359375 213.43646 100.875 212.84271Q101.390625 212.24896 101.390625 211.03021Q101.390625 209.87396 100.859375 209.28021Q100.34375 208.68646 99.5625 208.68646Q98.78125 208.68646 98.25 209.28021Q97.734375 209.85834 97.734375 211.06146ZM104.03125 214.17084L104.03125 207.95209L104.984375 207.95209L104.984375 208.88959Q105.34375 208.23334 105.640625 208.03021Q105.953125 207.81146 106.328125 207.81146Q106.859375 207.81146 107.40625 208.13959L107.046875 209.12396Q106.65625 208.88959 106.28125 208.88959Q105.921875 208.88959 105.640625 209.10834Q105.375 209.31146 105.265625 209.68646Q105.078125 210.24896 105.078125 210.90521L105.078125 214.17084L104.03125 214.17084ZM108.0 216.56146L107.875 215.57709Q108.21875 215.67084 108.484375 215.67084Q108.828125 215.67084 109.03125 215.54584Q109.25 215.43646 109.390625 215.23334Q109.484375 215.06146 109.71875 214.43646Q109.734375 214.35834 109.8125 214.18646L107.4375 207.95209L108.578125 207.95209L109.875 211.54584Q110.125 212.23334 110.328125 212.99896Q110.515625 212.26459 110.765625 211.57709L112.09375 207.95209L113.140625 207.95209L110.78125 214.28021Q110.390625 215.29584 110.1875 215.68646Q109.90625 216.21771 109.53125 216.45209Q109.171875 216.70209 108.671875 216.70209Q108.375 216.70209 108.0 216.56146Z" fill-rule="nonzero"/><path fill="#9e9e9e" d="M25.71875 231.17084L24.671875 231.17084L24.671875 224.45209Q24.28125 224.81146 23.65625 225.18646Q23.046875 225.54584 22.5625 225.71771L22.5625 224.70209Q23.4375 224.28021 24.09375 223.70209Q24.765625 223.10834 25.046875 222.54584L25.71875 222.54584L25.71875 231.17084ZM34.21875 224.68646L33.171875 224.76459Q33.03125 224.13959 32.78125 223.85834Q32.34375 223.40521 31.71875 223.40521Q31.21875 223.40521 30.828125 223.68646Q30.34375 224.06146 30.046875 224.76459Q29.765625 225.45209 29.75 226.73334Q30.125 226.15521 30.671875 225.87396Q31.234375 225.59271 31.84375 225.59271Q32.890625 225.59271 33.625 226.37396Q34.375 227.15521 34.375 228.37396Q34.375 229.18646 34.015625 229.88959Q33.671875 230.57709 33.0625 230.95209Q32.453125 231.31146 31.6875 231.31146Q30.359375 231.31146 29.53125 230.34271Q28.703125 229.37396 28.703125 227.15521Q28.703125 224.65521 29.625 223.53021Q30.421875 222.54584 31.78125 222.54584Q32.796875 222.54584 33.4375 223.12396Q34.09375 223.68646 34.21875 224.68646ZM29.921875 228.38959Q29.921875 228.93646 30.140625 229.43646Q30.375 229.92084 30.78125 230.18646Q31.203125 230.45209 31.671875 230.45209Q32.328125 230.45209 32.8125 229.92084Q33.296875 229.37396 33.296875 228.45209Q33.296875 227.56146 32.8125 227.04584Q32.34375 226.53021 31.625 226.53021Q30.90625 226.53021 30.40625 227.04584Q29.921875 227.56146 29.921875 228.38959ZM36.34375 231.17084L36.34375 229.96771L37.546875 229.96771L37.546875 231.17084L36.34375 231.17084ZM38.8125 223.70209L38.8125 222.68646L44.375 222.68646L44.375 223.51459Q43.5625 224.38959 42.75 225.84271Q41.953125 227.28021 41.515625 228.81146Q41.1875 229.88959 41.109375 231.17084L40.015625 231.17084Q40.03125 230.15521 40.40625 228.71771Q40.796875 227.28021 41.5 225.95209Q42.21875 224.62396 43.03125 223.70209L38.8125 223.70209ZM45.953125 224.63959Q45.953125 223.71771 46.40625 223.07709Q46.875 222.43646 47.75 222.43646Q48.5625 222.43646 49.09375 223.01459Q49.625 223.59271 49.625 224.70209Q49.625 225.79584 49.078125 226.38959Q48.546875 226.96771 47.765625 226.96771Q46.984375 226.96771 46.46875 226.38959Q45.953125 225.81146 45.953125 224.63959ZM47.78125 223.15521Q47.390625 223.15521 47.125 223.49896Q46.875 223.84271 46.875 224.74896Q46.875 225.57709 47.125 225.92084Q47.390625 226.24896 47.78125 226.24896Q48.1875 226.24896 48.4375 225.90521Q48.703125 225.56146 48.703125 224.67084Q48.703125 223.82709 48.4375 223.49896Q48.171875 223.15521 47.78125 223.15521ZM47.78125 231.48334L52.484375 222.43646L53.34375 222.43646L48.65625 231.48334L47.78125 231.48334ZM51.5 229.15521Q51.5 228.23334 51.953125 227.59271Q52.421875 226.95209 53.3125 226.95209Q54.125 226.95209 54.65625 227.53021Q55.1875 228.09271 55.1875 229.21771Q55.1875 230.31146 54.640625 230.90521Q54.109375 231.48334 53.3125 231.48334Q52.546875 231.48334 52.015625 230.90521Q51.5 230.32709 51.5 229.15521ZM53.34375 227.67084Q52.9375 227.67084 52.671875 228.01459Q52.421875 228.35834 52.421875 229.26459Q52.421875 230.07709 52.6875 230.42084Q52.953125 230.76459 53.34375 230.76459Q53.734375 230.76459 54.0 230.42084Q54.265625 230.07709 54.265625 229.17084Q54.265625 228.34271 54.0 228.01459Q53.734375 227.67084 53.34375 227.67084Z" fill-rule="nonzero"/><path stroke="#757575" stroke-width="1.0" stroke-linecap="butt" d="M21.25 218.67084L165.33333 218.67084L179.94167 218.67084" fill-rule="nonzero"/><path fill="#9e9e9e" d="M181.94167 218.67084C181.94167 217.56627 181.04623 216.67084 179.94167 216.67084C178.8371 216.67084 177.94167 217.56627 177.94167 218.67084C177.94167 219.7754 178.8371 220.67084 179.94167 220.67084C181.04623 220.67084 181.94167 219.7754 181.94167 218.67084" fill-rule="nonzero"/><path fill="#1a1a1a" d="M609.7344 271.41626L613.03125 262.8225L614.25 262.8225L617.7656 271.41626L616.4844 271.41626L615.46875 268.8069L611.8906 268.8069L610.9375 271.41626L609.7344 271.41626ZM612.21875 267.885L615.125 267.885L614.2344 265.51Q613.8125 264.4319 613.625 263.72876Q613.4531 264.5569 613.15625 265.3694L612.21875 267.885ZM617.5156 271.41626L617.5156 262.8225L618.5781 262.8225L618.5781 271.41626L617.5156 271.41626ZM620.5469 264.04126L620.5469 262.8225L621.6094 262.8225L621.6094 264.04126L620.5469 264.04126ZM620.5469 271.41626L620.5469 265.1975L621.6094 265.1975L621.6094 271.41626L620.5469 271.41626ZM623.5 273.8069L623.375 272.8225Q623.71875 272.91626 623.9844 272.91626Q624.3281 272.91626 624.53125 272.79126Q624.75 272.6819 624.8906 272.47876Q624.9844 272.3069 625.21875 271.6819Q625.2344 271.60376 625.3125 271.4319L622.9375 265.1975L624.0781 265.1975L625.375 268.79126Q625.625 269.47876 625.8281 270.2444Q626.0156 269.51 626.2656 268.8225L627.59375 265.1975L628.6406 265.1975L626.28125 271.52563Q625.8906 272.54126 625.6875 272.9319Q625.40625 273.46313 625.03125 273.6975Q624.6719 273.9475 624.1719 273.9475Q623.875 273.9475 623.5 273.8069ZM632.6094 270.65063Q632.0156 271.15063 631.46875 271.35376Q630.9375 271.5569 630.3125 271.5569Q629.28125 271.5569 628.7344 271.0569Q628.1875 270.5569 628.1875 269.77563Q628.1875 269.3225 628.3906 268.9475Q628.59375 268.5569 628.9375 268.33813Q629.28125 268.10376 629.7031 267.9944Q630.0 267.90063 630.6406 267.8225Q631.90625 267.6819 632.5156 267.46313Q632.5156 267.2444 632.5156 267.1975Q632.5156 266.54126 632.21875 266.27563Q631.8125 265.9319 631.0156 265.9319Q630.28125 265.9319 629.9219 266.1975Q629.5625 266.4475 629.3906 267.10376L628.3594 266.96313Q628.5 266.3069 628.8281 265.90063Q629.15625 265.4944 629.7656 265.27563Q630.375 265.0569 631.1719 265.0569Q631.96875 265.0569 632.46875 265.2444Q632.96875 265.4319 633.2031 265.71313Q633.4375 265.9944 633.53125 266.4319Q633.5781 266.6975 633.5781 267.40063L633.5781 268.8069Q633.5781 270.27563 633.6406 270.66626Q633.71875 271.0569 633.9219 271.41626L632.8125 271.41626Q632.65625 271.08813 632.6094 270.65063ZM632.5156 268.29126Q631.9375 268.52563 630.7969 268.6975Q630.1406 268.79126 629.875 268.91626Q629.6094 269.02563 629.4531 269.2444Q629.3125 269.46313 629.3125 269.7444Q629.3125 270.16626 629.625 270.4475Q629.9531 270.72876 630.5625 270.72876Q631.1719 270.72876 631.6406 270.46313Q632.125 270.1975 632.34375 269.72876Q632.5156 269.3694 632.5156 268.6819L632.5156 268.29126ZM638.625 271.41626L638.625 262.8225L639.7656 262.8225L639.7656 267.08813L644.03125 262.8225L645.5781 262.8225L641.96875 266.3069L645.7344 271.41626L644.2344 271.41626L641.1719 267.0725L639.7656 268.4319L639.7656 271.41626L638.625 271.41626ZM650.6094 270.65063Q650.0156 271.15063 649.46875 271.35376Q648.9375 271.5569 648.3125 271.5569Q647.28125 271.5569 646.7344 271.0569Q646.1875 270.5569 646.1875 269.77563Q646.1875 269.3225 646.3906 268.9475Q646.59375 268.5569 646.9375 268.33813Q647.28125 268.10376 647.7031 267.9944Q648.0 267.90063 648.6406 267.8225Q649.90625 267.6819 650.5156 267.46313Q650.5156 267.2444 650.5156 267.1975Q650.5156 266.54126 650.21875 266.27563Q649.8125 265.9319 649.0156 265.9319Q648.28125 265.9319 647.9219 266.1975Q647.5625 266.4475 647.3906 267.10376L646.3594 266.96313Q646.5 266.3069 646.8281 265.90063Q647.15625 265.4944 647.7656 265.27563Q648.375 265.0569 649.1719 265.0569Q649.96875 265.0569 650.46875 265.2444Q650.96875 265.4319 651.2031 265.71313Q651.4375 265.9944 651.53125 266.4319Q651.5781 266.6975 651.5781 267.40063L651.5781 268.8069Q651.5781 270.27563 651.6406 270.66626Q651.71875 271.0569 651.9219 271.41626L650.8125 271.41626Q650.65625 271.08813 650.6094 270.65063ZM650.5156 268.29126Q649.9375 268.52563 648.7969 268.6975Q648.1406 268.79126 647.875 268.91626Q647.6094 269.02563 647.4531 269.2444Q647.3125 269.46313 647.3125 269.7444Q647.3125 270.16626 647.625 270.4475Q647.9531 270.72876 648.5625 270.72876Q649.1719 270.72876 649.6406 270.46313Q650.125 270.1975 650.34375 269.72876Q650.5156 269.3694 650.5156 268.6819L650.5156 268.29126ZM653.5469 271.41626L653.5469 265.1975L654.4844 265.1975L654.4844 266.0725Q655.1719 265.0569 656.46875 265.0569Q657.03125 265.0569 657.5 265.26Q657.9844 265.46313 658.21875 265.79126Q658.4531 266.1194 658.5469 266.5569Q658.59375 266.85376 658.59375 267.58813L658.59375 271.41626L657.5469 271.41626L657.5469 267.635Q657.5469 266.97876 657.4219 266.66626Q657.2969 266.35376 656.9844 266.16626Q656.6719 265.96313 656.25 265.96313Q655.5781 265.96313 655.0781 266.40063Q654.59375 266.8225 654.59375 268.01L654.59375 271.41626L653.5469 271.41626ZM660.53125 264.0569L660.53125 262.8225L661.59375 262.8225L661.59375 264.0569L660.53125 264.0569ZM659.2031 273.83813L659.3906 272.9319Q659.71875 273.01 659.8906 273.01Q660.21875 273.01 660.375 272.79126Q660.53125 272.58813 660.53125 271.72876L660.53125 265.1975L661.59375 265.1975L661.59375 271.76Q661.59375 272.90063 661.2969 273.35376Q660.90625 273.9475 660.03125 273.9475Q659.59375 273.9475 659.2031 273.83813ZM663.5469 264.04126L663.5469 262.8225L664.6094 262.8225L664.6094 264.04126L663.5469 264.04126ZM663.5469 271.41626L663.5469 265.1975L664.6094 265.1975L664.6094 271.41626L663.5469 271.41626Z" fill-rule="nonzero"/><path fill="#9e9e9e" d="M636.71875 281.9319L635.6719 282.01Q635.53125 281.385 635.28125 281.10376Q634.84375 280.65063 634.21875 280.65063Q633.71875 280.65063 633.3281 280.9319Q632.84375 281.3069 632.5469 282.01Q632.2656 282.6975 632.25 283.97876Q632.625 283.40063 633.1719 283.1194Q633.7344 282.83813 634.34375 282.83813Q635.3906 282.83813 636.125 283.6194Q636.875 284.40063 636.875 285.6194Q636.875 286.4319 636.5156 287.135Q636.1719 287.8225 635.5625 288.1975Q634.9531 288.5569 634.1875 288.5569Q632.8594 288.5569 632.03125 287.58813Q631.2031 286.6194 631.2031 284.40063Q631.2031 281.90063 632.125 280.77563Q632.9219 279.79126 634.28125 279.79126Q635.2969 279.79126 635.9375 280.3694Q636.59375 280.9319 636.71875 281.9319ZM632.4219 285.635Q632.4219 286.1819 632.6406 286.6819Q632.875 287.16626 633.28125 287.4319Q633.7031 287.6975 634.1719 287.6975Q634.8281 287.6975 635.3125 287.16626Q635.7969 286.6194 635.7969 285.6975Q635.7969 284.8069 635.3125 284.29126Q634.84375 283.77563 634.125 283.77563Q633.40625 283.77563 632.90625 284.29126Q632.4219 284.8069 632.4219 285.635ZM643.71875 281.9319L642.6719 282.01Q642.53125 281.385 642.28125 281.10376Q641.84375 280.65063 641.21875 280.65063Q640.71875 280.65063 640.3281 280.9319Q639.84375 281.3069 639.5469 282.01Q639.2656 282.6975 639.25 283.97876Q639.625 283.40063 640.1719 283.1194Q640.7344 282.83813 641.34375 282.83813Q642.3906 282.83813 643.125 283.6194Q643.875 284.40063 643.875 285.6194Q643.875 286.4319 643.5156 287.135Q643.1719 287.8225 642.5625 288.1975Q641.9531 288.5569 641.1875 288.5569Q639.8594 288.5569 639.03125 287.58813Q638.2031 286.6194 638.2031 284.40063Q638.2031 281.90063 639.125 280.77563Q639.9219 279.79126 641.28125 279.79126Q642.2969 279.79126 642.9375 280.3694Q643.59375 280.9319 643.71875 281.9319ZM639.4219 285.635Q639.4219 286.1819 639.6406 286.6819Q639.875 287.16626 640.28125 287.4319Q640.7031 287.6975 641.1719 287.6975Q641.8281 287.6975 642.3125 287.16626Q642.7969 286.6194 642.7969 285.6975Q642.7969 284.8069 642.3125 284.29126Q641.84375 283.77563 641.125 283.77563Q640.40625 283.77563 639.90625 284.29126Q639.4219 284.8069 639.4219 285.635ZM645.84375 288.41626L645.84375 287.21313L647.0469 287.21313L647.0469 288.41626L645.84375 288.41626ZM648.3125 280.9475L648.3125 279.9319L653.875 279.9319L653.875 280.76Q653.0625 281.635 652.25 283.08813Q651.4531 284.52563 651.0156 286.0569Q650.6875 287.135 650.6094 288.41626L649.5156 288.41626Q649.53125 287.40063 649.90625 285.96313Q650.2969 284.52563 651.0 283.1975Q651.71875 281.8694 652.53125 280.9475L648.3125 280.9475ZM655.4531 281.885Q655.4531 280.96313 655.90625 280.3225Q656.375 279.6819 657.25 279.6819Q658.0625 279.6819 658.59375 280.26Q659.125 280.83813 659.125 281.9475Q659.125 283.04126 658.5781 283.635Q658.0469 284.21313 657.2656 284.21313Q656.4844 284.21313 655.96875 283.635Q655.4531 283.0569 655.4531 281.885ZM657.28125 280.40063Q656.8906 280.40063 656.625 280.7444Q656.375 281.08813 656.375 281.9944Q656.375 282.8225 656.625 283.16626Q656.8906 283.4944 657.28125 283.4944Q657.6875 283.4944 657.9375 283.15063Q658.2031 282.8069 658.2031 281.91626Q658.2031 281.0725 657.9375 280.7444Q657.6719 280.40063 657.28125 280.40063ZM657.28125 288.72876L661.9844 279.6819L662.84375 279.6819L658.15625 288.72876L657.28125 288.72876ZM661.0 286.40063Q661.0 285.47876 661.4531 284.83813Q661.9219 284.1975 662.8125 284.1975Q663.625 284.1975 664.15625 284.77563Q664.6875 285.33813 664.6875 286.46313Q664.6875 287.5569 664.1406 288.15063Q663.6094 288.72876 662.8125 288.72876Q662.0469 288.72876 661.5156 288.15063Q661.0 287.5725 661.0 286.40063ZM662.84375 284.91626Q662.4375 284.91626 662.1719 285.26Q661.9219 285.60376 661.9219 286.51Q661.9219 287.3225 662.1875 287.66626Q662.4531 288.01 662.84375 288.01Q663.2344 288.01 663.5 287.66626Q663.7656 287.3225 663.7656 286.41626Q663.7656 285.58813 663.5 285.26Q663.2344 284.91626 662.84375 284.91626Z" fill-rule="nonzero"/><path stroke="#757575" stroke-width="1.0" stroke-linecap="butt" d="M665.75 275.91626L521.6667 275.91626L485.14566 275.91626" fill-rule="nonzero"/><path fill="#9e9e9e" d="M487.14566 275.91626C487.14566 274.81168 486.25024 273.91626 485.14566 273.91626C484.0411 273.91626 483.14566 274.81168 483.14566 275.91626C483.14566 277.0208 484.0411 277.91626 485.14566 277.91626C486.25024 277.91626 487.14566 277.0208 487.14566 275.91626" fill-rule="nonzero"/><path fill="#757575" d="M22.71875 40.25L22.71875 25.9375L24.609375 25.9375L24.609375 38.5625L31.65625 38.5625L31.65625 40.25L22.71875 40.25ZM32.921875 35.0625Q32.921875 32.1875 34.515625 30.796875Q35.859375 29.640625 37.78125 29.640625Q39.921875 29.640625 41.265625 31.046875Q42.625 32.453125 42.625 34.921875Q42.625 36.921875 42.03125 38.078125Q41.4375 39.21875 40.28125 39.859375Q39.140625 40.484375 37.78125 40.484375Q35.59375 40.484375 34.25 39.09375Q32.921875 37.6875 32.921875 35.0625ZM34.71875 35.0625Q34.71875 37.0625 35.578125 38.046875Q36.453125 39.03125 37.78125 39.03125Q39.09375 39.03125 39.953125 38.046875Q40.828125 37.046875 40.828125 35.0Q40.828125 33.078125 39.953125 32.09375Q39.078125 31.09375 37.78125 31.09375Q36.453125 31.09375 35.578125 32.09375Q34.71875 33.078125 34.71875 35.0625ZM51.34375 36.453125L53.0625 36.671875Q52.78125 38.46875 51.609375 39.484375Q50.453125 40.484375 48.75 40.484375Q46.625 40.484375 45.328125 39.09375Q44.03125 37.703125 44.03125 35.109375Q44.03125 33.421875 44.578125 32.171875Q45.140625 30.90625 46.28125 30.28125Q47.421875 29.640625 48.765625 29.640625Q50.453125 29.640625 51.515625 30.5Q52.59375 31.359375 52.90625 32.921875L51.1875 33.1875Q50.953125 32.140625 50.328125 31.625Q49.703125 31.09375 48.828125 31.09375Q47.5 31.09375 46.671875 32.046875Q45.84375 33.0 45.84375 35.046875Q45.84375 37.140625 46.640625 38.09375Q47.4375 39.03125 48.734375 39.03125Q49.765625 39.03125 50.453125 38.40625Q51.15625 37.765625 51.34375 36.453125ZM61.34375 38.96875Q60.359375 39.796875 59.453125 40.140625Q58.546875 40.484375 57.515625 40.484375Q55.8125 40.484375 54.890625 39.65625Q53.96875 38.8125 53.96875 37.515625Q53.96875 36.75 54.3125 36.125Q54.671875 35.5 55.234375 35.125Q55.796875 34.734375 56.5 34.53125Q57.015625 34.40625 58.0625 34.265625Q60.1875 34.015625 61.1875 33.671875Q61.203125 33.3125 61.203125 33.203125Q61.203125 32.140625 60.703125 31.6875Q60.03125 31.09375 58.703125 31.09375Q57.453125 31.09375 56.859375 31.53125Q56.28125 31.96875 56.0 33.078125L54.28125 32.84375Q54.515625 31.734375 55.046875 31.0625Q55.578125 30.375 56.59375 30.015625Q57.609375 29.640625 58.953125 29.640625Q60.28125 29.640625 61.109375 29.953125Q61.9375 30.265625 62.328125 30.75Q62.71875 31.21875 62.875 31.9375Q62.96875 32.390625 62.96875 33.5625L62.96875 35.90625Q62.96875 38.359375 63.078125 39.015625Q63.1875 39.65625 63.53125 40.25L61.6875 40.25Q61.421875 39.703125 61.34375 38.96875ZM61.1875 35.046875Q60.234375 35.4375 58.3125 35.703125Q57.234375 35.859375 56.78125 36.0625Q56.34375 36.25 56.09375 36.625Q55.84375 37.0 55.84375 37.46875Q55.84375 38.171875 56.375 38.640625Q56.90625 39.109375 57.9375 39.109375Q58.953125 39.109375 59.734375 38.671875Q60.53125 38.21875 60.90625 37.453125Q61.1875 36.84375 61.1875 35.6875L61.1875 35.046875ZM69.40625 38.671875L69.65625 40.234375Q68.921875 40.390625 68.328125 40.390625Q67.375 40.390625 66.84375 40.09375Q66.328125 39.78125 66.109375 39.296875Q65.890625 38.796875 65.890625 37.21875L65.890625 31.25L64.609375 31.25L64.609375 29.875L65.890625 29.875L65.890625 27.3125L67.640625 26.25L67.640625 29.875L69.40625 29.875L69.40625 31.25L67.640625 31.25L67.640625 37.3125Q67.640625 38.0625 67.734375 38.28125Q67.828125 38.484375 68.03125 38.625Q68.25 38.75 68.640625 38.75Q68.921875 38.75 69.40625 38.671875ZM71.578125 27.953125L71.578125 25.9375L73.34375 25.9375L73.34375 27.953125L71.578125 27.953125ZM71.578125 40.25L71.578125 29.875L73.34375 29.875L73.34375 40.25L71.578125 40.25ZM74.921875 35.0625Q74.921875 32.1875 76.515625 30.796875Q77.859375 29.640625 79.78125 29.640625Q81.921875 29.640625 83.265625 31.046875Q84.625 32.453125 84.625 34.921875Q84.625 36.921875 84.03125 38.078125Q83.4375 39.21875 82.28125 39.859375Q81.140625 40.484375 79.78125 40.484375Q77.59375 40.484375 76.25 39.09375Q74.921875 37.6875 74.921875 35.0625ZM76.71875 35.0625Q76.71875 37.0625 77.578125 38.046875Q78.453125 39.03125 79.78125 39.03125Q81.09375 39.03125 81.953125 38.046875Q82.828125 37.046875 82.828125 35.0Q82.828125 33.078125 81.953125 32.09375Q81.078125 31.09375 79.78125 31.09375Q78.453125 31.09375 77.578125 32.09375Q76.71875 33.078125 76.71875 35.0625ZM86.5625 40.25L86.5625 29.875L88.15625 29.875L88.15625 31.359375Q89.296875 29.640625 91.453125 29.640625Q92.390625 29.640625 93.171875 29.984375Q93.96875 30.3125 94.359375 30.859375Q94.75 31.40625 94.90625 32.15625Q95.0 32.65625 95.0 33.875L95.0 40.25L93.234375 40.25L93.234375 33.9375Q93.234375 32.859375 93.03125 32.328125Q92.828125 31.796875 92.296875 31.484375Q91.78125 31.171875 91.078125 31.171875Q89.953125 31.171875 89.140625 31.890625Q88.328125 32.59375 88.328125 34.578125L88.328125 40.25L86.5625 40.25ZM105.921875 44.453125Q104.46875 42.625 103.46875 40.171875Q102.46875 37.703125 102.46875 35.0625Q102.46875 32.734375 103.21875 30.609375Q104.09375 28.140625 105.921875 25.6875L107.1875 25.6875Q106.0 27.71875 105.625 28.59375Q105.03125 29.9375 104.6875 31.40625Q104.265625 33.234375 104.265625 35.078125Q104.265625 39.765625 107.1875 44.453125L105.921875 44.453125ZM109.796875 40.25L109.796875 25.9375L114.71875 25.9375Q116.390625 25.9375 117.28125 26.140625Q118.5 26.421875 119.375 27.15625Q120.5 28.125 121.0625 29.609375Q121.625 31.09375 121.625 33.015625Q121.625 34.640625 121.25 35.90625Q120.875 37.15625 120.265625 37.984375Q119.671875 38.8125 118.96875 39.296875Q118.265625 39.765625 117.265625 40.015625Q116.265625 40.25 114.953125 40.25L109.796875 40.25ZM111.6875 38.5625L114.75 38.5625Q116.15625 38.5625 116.953125 38.296875Q117.765625 38.03125 118.25 37.546875Q118.921875 36.875 119.296875 35.75Q119.671875 34.609375 119.671875 32.984375Q119.671875 30.734375 118.9375 29.53125Q118.203125 28.328125 117.140625 27.921875Q116.390625 27.625 114.703125 27.625L111.6875 27.625L111.6875 38.5625ZM130.67188 36.90625L132.48438 37.140625Q132.0625 38.71875 130.89062 39.609375Q129.73438 40.484375 127.921875 40.484375Q125.65625 40.484375 124.3125 39.09375Q122.984375 37.6875 122.984375 35.15625Q122.984375 32.53125 124.328125 31.09375Q125.671875 29.640625 127.828125 29.640625Q129.90625 29.640625 131.21875 31.0625Q132.54688 32.46875 132.54688 35.046875Q132.54688 35.203125 132.53125 35.515625L124.796875 35.515625Q124.890625 37.21875 125.765625 38.125Q126.640625 39.03125 127.9375 39.03125Q128.90625 39.03125 129.57812 38.53125Q130.26562 38.015625 130.67188 36.90625ZM124.890625 34.0625L130.6875 34.0625Q130.57812 32.765625 130.03125 32.109375Q129.1875 31.09375 127.84375 31.09375Q126.640625 31.09375 125.8125 31.90625Q124.984375 32.703125 124.890625 34.0625ZM141.34375 36.453125L143.0625 36.671875Q142.78125 38.46875 141.60938 39.484375Q140.45312 40.484375 138.75 40.484375Q136.625 40.484375 135.32812 39.09375Q134.03125 37.703125 134.03125 35.109375Q134.03125 33.421875 134.57812 32.171875Q135.14062 30.90625 136.28125 30.28125Q137.42188 29.640625 138.76562 29.640625Q140.45312 29.640625 141.51562 30.5Q142.59375 31.359375 142.90625 32.921875L141.1875 33.1875Q140.95312 32.140625 140.32812 31.625Q139.70312 31.09375 138.82812 31.09375Q137.5 31.09375 136.67188 32.046875Q135.84375 33.0 135.84375 35.046875Q135.84375 37.140625 136.64062 38.09375Q137.4375 39.03125 138.73438 39.03125Q139.76562 39.03125 140.45312 38.40625Q141.15625 37.765625 141.34375 36.453125ZM145.71875 44.453125L144.46875 44.453125Q147.375 39.765625 147.375 35.078125Q147.375 33.234375 146.96875 31.4375Q146.625 29.96875 146.03125 28.625Q145.65625 27.734375 144.46875 25.6875L145.71875 25.6875Q147.5625 28.140625 148.4375 30.609375Q149.1875 32.734375 149.1875 35.0625Q149.1875 37.703125 148.17188 40.171875Q147.17188 42.625 145.71875 44.453125Z" fill-rule="nonzero"/></svg>