<svg version="1.1" viewBox="0.0 0.0 600.0 371.0" fill="none" stroke="none" stroke-linecap="square" stroke-miterlimit="10" width="600" height="371" xmlns:xlink="http://www.w3.org/1999/xlink" xmlns="http://www.w3.org/2000/svg"><path fill="#ffffff" d="M0 0L600.0 0L600.0 371.0L0 371.0L0 0Z" fill-rule="nonzero"/><path stroke="#333333" stroke-width="1.0" stroke-linecap="butt" d="M82.5 81.5L82.5 332.5" fill-rule="nonzero"/><path stroke="#cccccc" stroke-width="1.0" stroke-linecap="butt" d="M207.5 81.5L207.5 332.5" fill-rule="nonzero"/><path stroke="#cccccc" stroke-width="1.0" stroke-linecap="butt" d="M332.5 81.5L332.5 332.5" fill-rule="nonzero"/><path stroke="#cccccc" stroke-width="1.0" stroke-linecap="butt" d="M456.5 81.5L456.5 332.5" fill-rule="nonzero"/><path stroke="#cccccc" stroke-width="1.0" stroke-linecap="butt" d="M581.5 81.5L581.5 332.5" fill-rule="nonzero"/><clipPath id="id_0"><path d="M82.55 81.28333L581.45 81.28333L581.45 332.45L82.55 332.45L82.55 81.28333Z" clip-rule="nonzero"/></clipPath><path stroke="#000000" stroke-width="2.0" stroke-linecap="butt" stroke-opacity="0.0" clip-path="url(#id_0)" d="M83.0 110.0L83.0 103.0L530.0 103.0C531.10455 103.0 532.0 103.89543 532.0 105.0L532.0 108.0C532.0 109.10457 531.10455 110.0 530.0 110.0Z" fill-rule="nonzero"/><path fill="#4285f4" clip-path="url(#id_0)" d="M83.0 110.0L83.0 103.0L530.0 103.0C531.10455 103.0 532.0 103.89543 532.0 105.0L532.0 108.0C532.0 109.10457 531.10455 110.0 530.0 110.0Z" fill-rule="nonzero"/><path stroke="#000000" stroke-width="2.0" stroke-linecap="butt" stroke-opacity="0.0" clip-path="url(#id_0)" d="M83.0 168.0L83.0 161.0L305.0 161.0C306.10458 161.0 307.0 161.89543 307.0 163.0L307.0 166.0C307.0 167.10457 306.10458 168.0 305.0 168.0Z" fill-rule="nonzero"/><path fill="#4285f4" clip-path="url(#id_0)" d="M83.0 168.0L83.0 161.0L305.0 161.0C306.10458 161.0 307.0 161.89543 307.0 163.0L307.0 166.0C307.0 167.10457 306.10458 168.0 305.0 168.0Z" fill-rule="nonzero"/><path stroke="#000000" stroke-width="2.0" stroke-linecap="butt" stroke-opacity="0.0" clip-path="url(#id_0)" d="M83.0 226.0L83.0 219.0L105.0 219.0C106.10457 219.0 107.0 219.89543 107.0 221.0L107.0 224.0C107.0 225.10457 106.10457 226.0 105.0 226.0Z" fill-rule="nonzero"/><path fill="#4285f4" clip-path="url(#id_0)" d="M83.0 226.0L83.0 219.0L105.0 219.0C106.10457 219.0 107.0 219.89543 107.0 221.0L107.0 224.0C107.0 225.10457 106.10457 226.0 105.0 226.0Z" fill-rule="nonzero"/><path stroke="#000000" stroke-width="2.0" stroke-linecap="butt" stroke-opacity="0.0" clip-path="url(#id_0)" d="M83.0 283.0L83.0 276.0L105.0 276.0C106.10457 276.0 107.0 276.89542 107.0 278.0L107.0 281.0C107.0 282.10458 106.10457 283.0 105.0 283.0Z" fill-rule="nonzero"/><path fill="#4285f4" clip-path="url(#id_0)" d="M83.0 283.0L83.0 276.0L105.0 276.0C106.10457 276.0 107.0 276.89542 107.0 278.0L107.0 281.0C107.0 282.10458 106.10457 283.0 105.0 283.0Z" fill-rule="nonzero"/><path stroke="#000000" stroke-width="2.0" stroke-linecap="butt" stroke-opacity="0.0" clip-path="url(#id_0)" d="M83.0 119.0L83.0 112.0L430.0 112.0C431.10458 112.0 432.0 112.89543 432.0 114.0L432.0 117.0C432.0 118.10457 431.10458 119.0 430.0 119.0Z" fill-rule="nonzero"/><path fill="#ea4335" clip-path="url(#id_0)" d="M83.0 119.0L83.0 112.0L430.0 112.0C431.10458 112.0 432.0 112.89543 432.0 114.0L432.0 117.0C432.0 118.10457 431.10458 119.0 430.0 119.0Z" fill-rule="nonzero"/><path stroke="#000000" stroke-width="2.0" stroke-linecap="butt" stroke-opacity="0.0" clip-path="url(#id_0)" d="M83.0 177.0L83.0 170.0L330.0 170.0C331.10458 170.0 332.0 170.89543 332.0 172.0L332.0 175.0C332.0 176.10457 331.10458 177.0 330.0 177.0Z" fill-rule="nonzero"/><path fill="#ea4335" clip-path="url(#id_0)" d="M83.0 177.0L83.0 170.0L330.0 170.0C331.10458 170.0 332.0 170.89543 332.0 172.0L332.0 175.0C332.0 176.10457 331.10458 177.0 330.0 177.0Z" fill-rule="nonzero"/><path stroke="#000000" stroke-width="2.0" stroke-linecap="butt" stroke-opacity="0.0" clip-path="url(#id_0)" d="M83.0 235.0L83.0 228.0L105.0 228.0C106.10457 228.0 107.0 228.89543 107.0 230.0L107.0 233.0C107.0 234.10457 106.10457 235.0 105.0 235.0Z" fill-rule="nonzero"/><path fill="#ea4335" clip-path="url(#id_0)" d="M83.0 235.0L83.0 228.0L105.0 228.0C106.10457 228.0 107.0 228.89543 107.0 230.0L107.0 233.0C107.0 234.10457 106.10457 235.0 105.0 235.0Z" fill-rule="nonzero"/><path stroke="#000000" stroke-width="2.0" stroke-linecap="butt" stroke-opacity="0.0" clip-path="url(#id_0)" d="M83.0 292.0L83.0 285.0L105.0 285.0C106.10457 285.0 107.0 285.89542 107.0 287.0L107.0 290.0C107.0 291.10458 106.10457 292.0 105.0 292.0Z" fill-rule="nonzero"/><path fill="#ea4335" clip-path="url(#id_0)" d="M83.0 292.0L83.0 285.0L105.0 285.0C106.10457 285.0 107.0 285.89542 107.0 287.0L107.0 290.0C107.0 291.10458 106.10457 292.0 105.0 292.0Z" fill-rule="nonzero"/><path stroke="#000000" stroke-width="2.0" stroke-linecap="butt" stroke-opacity="0.0" clip-path="url(#id_0)" d="M83.0 128.0L83.0 121.0L330.0 121.0C331.10458 121.0 332.0 121.89543 332.0 123.0L332.0 126.0C332.0 127.10457 331.10458 128.0 330.0 128.0Z" fill-rule="nonzero"/><path fill="#fbbc04" clip-path="url(#id_0)" d="M83.0 128.0L83.0 121.0L330.0 121.0C331.10458 121.0 332.0 121.89543 332.0 123.0L332.0 126.0C332.0 127.10457 331.10458 128.0 330.0 128.0Z" fill-rule="nonzero"/><path stroke="#000000" stroke-width="2.0" stroke-linecap="butt" stroke-opacity="0.0" clip-path="url(#id_0)" d="M83.0 186.0L83.0 179.0L180.0 179.0C181.10457 179.0 182.0 179.89543 182.0 181.0L182.0 184.0C182.0 185.10457 181.10457 186.0 180.0 186.0Z" fill-rule="nonzero"/><path fill="#fbbc04" clip-path="url(#id_0)" d="M83.0 186.0L83.0 179.0L180.0 179.0C181.10457 179.0 182.0 179.89543 182.0 181.0L182.0 184.0C182.0 185.10457 181.10457 186.0 180.0 186.0Z" fill-rule="nonzero"/><path stroke="#000000" stroke-width="2.0" stroke-linecap="butt" stroke-opacity="0.0" clip-path="url(#id_0)" d="M83.0 244.0L83.0 237.0L155.0 237.0C156.10457 237.0 157.0 237.89543 157.0 239.0L157.0 242.0C157.0 243.10457 156.10457 244.0 155.0 244.0Z" fill-rule="nonzero"/><path fill="#fbbc04" clip-path="url(#id_0)" d="M83.0 244.0L83.0 237.0L155.0 237.0C156.10457 237.0 157.0 237.89543 157.0 239.0L157.0 242.0C157.0 243.10457 156.10457 244.0 155.0 244.0Z" fill-rule="nonzero"/><path stroke="#000000" stroke-width="2.0" stroke-linecap="butt" stroke-opacity="0.0" clip-path="url(#id_0)" d="M83.0 301.0L83.0 294.0L155.0 294.0C156.10457 294.0 157.0 294.89542 157.0 296.0L157.0 299.0C157.0 300.10458 156.10457 301.0 155.0 301.0Z" fill-rule="nonzero"/><path fill="#fbbc04" clip-path="url(#id_0)" d="M83.0 301.0L83.0 294.0L155.0 294.0C156.10457 294.0 157.0 294.89542 157.0 296.0L157.0 299.0C157.0 300.10458 156.10457 301.0 155.0 301.0Z" fill-rule="nonzero"/><path stroke="#000000" stroke-width="2.0" stroke-linecap="butt" stroke-opacity="0.0" clip-path="url(#id_0)" d="M83.0 137.0L83.0 130.0L205.0 130.0C206.10457 130.0 207.0 130.89543 207.0 132.0L207.0 135.0C207.0 136.10457 206.10457 137.0 205.0 137.0Z" fill-rule="nonzero"/><path fill="#34a853" clip-path="url(#id_0)" d="M83.0 137.0L83.0 130.0L205.0 130.0C206.10457 130.0 207.0 130.89543 207.0 132.0L207.0 135.0C207.0 136.10457 206.10457 137.0 205.0 137.0Z" fill-rule="nonzero"/><path stroke="#000000" stroke-width="2.0" stroke-linecap="butt" stroke-opacity="0.0" clip-path="url(#id_0)" d="M83.0 195.0L83.0 188.0L105.0 188.0C106.10457 188.0 107.0 188.89543 107.0 190.0L107.0 193.0C107.0 194.10457 106.10457 195.0 105.0 195.0Z" fill-rule="nonzero"/><path fill="#34a853" clip-path="url(#id_0)" d="M83.0 195.0L83.0 188.0L105.0 188.0C106.10457 188.0 107.0 188.89543 107.0 190.0L107.0 193.0C107.0 194.10457 106.10457 195.0 105.0 195.0Z" fill-rule="nonzero"/><path fill="#000000" d="M42.51875 124.25747L42.51875 115.66372L43.64375 115.66372L43.64375 119.19497L48.1125 119.19497L48.1125 115.66372L49.253124 115.66372L49.253124 124.25747L48.1125 124.25747L48.1125 120.210594L43.64375 120.210594L43.64375 124.25747L42.51875 124.25747ZM55.409374 123.491844Q54.815624 123.991844 54.26875 124.19497Q53.7375 124.398094 53.1125 124.398094Q52.08125 124.398094 51.534374 123.898094Q50.9875 123.398094 50.9875 122.616844Q50.9875 122.16372 51.190624 121.78872Q51.39375 121.398094 51.7375 121.179344Q52.08125 120.94497 52.503124 120.835594Q52.8 120.741844 53.440624 120.66372Q54.70625 120.523094 55.315624 120.304344Q55.315624 120.085594 55.315624 120.03872Q55.315624 119.38247 55.01875 119.116844Q54.6125 118.773094 53.815624 118.773094Q53.08125 118.773094 52.721874 119.03872Q52.3625 119.28872 52.190624 119.94497L51.159374 119.804344Q51.3 119.148094 51.628124 118.741844Q51.95625 118.335594 52.565624 118.116844Q53.175 117.898094 53.971874 117.898094Q54.76875 117.898094 55.26875 118.085594Q55.76875 118.273094 56.003124 118.554344Q56.2375 118.835594 56.33125 119.273094Q56.378124 119.53872 56.378124 120.241844L56.378124 121.648094Q56.378124 123.116844 56.440624 123.50747Q56.51875 123.898094 56.721874 124.25747L55.6125 124.25747Q55.45625 123.929344 55.409374 123.491844ZM55.315624 121.13247Q54.7375 121.366844 53.596874 121.53872Q52.940624 121.63247 52.675 121.75747Q52.409374 121.866844 52.253124 122.085594Q52.1125 122.304344 52.1125 122.585594Q52.1125 123.00747 52.425 123.28872Q52.753124 123.56997 53.3625 123.56997Q53.971874 123.56997 54.440624 123.304344Q54.925 123.03872 55.14375 122.56997Q55.315624 122.210594 55.315624 121.523094L55.315624 121.13247ZM58.346874 126.648094L58.346874 118.03872L59.3 118.03872L59.3 118.835594Q59.64375 118.366844 60.065624 118.13247Q60.503124 117.898094 61.1125 117.898094Q61.909374 117.898094 62.51875 118.304344Q63.128124 118.710594 63.425 119.460594Q63.7375 120.210594 63.7375 121.10122Q63.7375 122.054344 63.39375 122.81997Q63.065624 123.585594 62.409374 123.991844Q61.753124 124.398094 61.034374 124.398094Q60.503124 124.398094 60.08125 124.179344Q59.659374 123.94497 59.39375 123.616844L59.39375 126.648094L58.346874 126.648094ZM59.3 121.179344Q59.3 122.38247 59.784374 122.960594Q60.26875 123.523094 60.95625 123.523094Q61.659374 123.523094 62.159374 122.929344Q62.659374 122.335594 62.659374 121.085594Q62.659374 119.898094 62.175 119.31997Q61.690624 118.72622 61.003124 118.72622Q60.33125 118.72622 59.815624 119.35122Q59.3 119.97622 59.3 121.179344ZM65.34688 126.648094L65.34688 118.03872L66.3 118.03872L66.3 118.835594Q66.64375 118.366844 67.06563 118.13247Q67.50313 117.898094 68.1125 117.898094Q68.90938 117.898094 69.51875 118.304344Q70.12813 118.710594 70.425 119.460594Q70.7375 120.210594 70.7375 121.10122Q70.7375 122.054344 70.39375 122.81997Q70.06563 123.585594 69.40938 123.991844Q68.75313 124.398094 68.03438 124.398094Q67.50313 124.398094 67.08125 124.179344Q66.65938 123.94497 66.39375 123.616844L66.39375 126.648094L65.34688 126.648094ZM66.3 121.179344Q66.3 122.38247 66.78438 122.960594Q67.26875 123.523094 67.95625 123.523094Q68.65938 123.523094 69.15938 122.929344Q69.65938 122.335594 69.65938 121.085594Q69.65938 119.898094 69.175 119.31997Q68.69063 118.72622 68.00313 118.72622Q67.33125 118.72622 66.81563 119.35122Q66.3 119.97622 66.3 121.179344ZM72.3 126.648094L72.175 125.66372Q72.51875 125.75747 72.78438 125.75747Q73.12813 125.75747 73.33125 125.63247Q73.55 125.523094 73.69063 125.31997Q73.78438 125.148094 74.01875 124.523094Q74.03438 124.44497 74.1125 124.273094L71.7375 118.03872L72.87813 118.03872L74.175 121.63247Q74.425 122.31997 74.62813 123.085594Q74.81563 122.35122 75.06563 121.66372L76.39375 118.03872L77.44063 118.03872L75.08125 124.366844Q74.69063 125.38247 74.4875 125.773094Q74.20625 126.304344 73.83125 126.53872Q73.47188 126.78872 72.97188 126.78872Q72.675 126.78872 72.3 126.648094Z" fill-rule="nonzero"/><path fill="#000000" d="M51.659374 181.99693L51.659374 174.41881L48.83125 174.41881L48.83125 173.40318L55.64375 173.40318L55.64375 174.41881L52.8 174.41881L52.8 181.99693L51.659374 181.99693ZM56.346874 174.62193L56.346874 173.40318L57.409374 173.40318L57.409374 174.62193L56.346874 174.62193ZM56.346874 181.99693L56.346874 175.77818L57.409374 175.77818L57.409374 181.99693L56.346874 181.99693ZM59.33125 181.99693L59.33125 175.77818L60.284374 175.77818L60.284374 176.71568Q60.64375 176.05943 60.940624 175.85631Q61.253124 175.63756 61.628124 175.63756Q62.159374 175.63756 62.70625 175.96568L62.346874 176.95006Q61.95625 176.71568 61.58125 176.71568Q61.221874 176.71568 60.940624 176.93443Q60.675 177.13756 60.565624 177.51256Q60.378124 178.07506 60.378124 178.73131L60.378124 181.99693L59.33125 181.99693ZM67.59688 179.99693L68.69063 180.12193Q68.44063 181.07506 67.7375 181.60631Q67.03438 182.13756 65.95625 182.13756Q64.59688 182.13756 63.784374 181.29381Q62.9875 180.45006 62.9875 178.93443Q62.9875 177.37193 63.8 176.51256Q64.6125 175.63756 65.89375 175.63756Q67.14375 175.63756 67.925 176.48131Q68.72188 177.32506 68.72188 178.87193Q68.72188 178.96568 68.72188 179.15318L64.08125 179.15318Q64.14375 180.18443 64.65938 180.73131Q65.175 181.26256 65.95625 181.26256Q66.53438 181.26256 66.94063 180.96568Q67.3625 180.65318 67.59688 179.99693ZM64.14375 178.29381L67.6125 178.29381Q67.55 177.49693 67.22188 177.10631Q66.70625 176.49693 65.90938 176.49693Q65.175 176.49693 64.675 176.98131Q64.19063 177.46568 64.14375 178.29381ZM74.37813 181.99693L74.37813 181.21568Q73.78438 182.13756 72.64375 182.13756Q71.89375 182.13756 71.26875 181.73131Q70.64375 181.30943 70.3 180.57506Q69.95625 179.84068 69.95625 178.88756Q69.95625 177.96568 70.26875 177.20006Q70.58125 176.43443 71.20625 176.04381Q71.83125 175.63756 72.59688 175.63756Q73.15938 175.63756 73.59688 175.87193Q74.03438 176.10631 74.31563 176.48131L74.31563 173.40318L75.3625 173.40318L75.3625 181.99693L74.37813 181.99693ZM71.05 178.88756Q71.05 180.09068 71.55 180.68443Q72.05 181.26256 72.7375 181.26256Q73.425 181.26256 73.90938 180.70006Q74.39375 180.13756 74.39375 178.98131Q74.39375 177.70006 73.89375 177.10631Q73.40938 176.51256 72.69063 176.51256Q71.9875 176.51256 71.51875 177.09068Q71.05 177.65318 71.05 178.88756Z" fill-rule="nonzero"/><path fill="#000000" d="M38.503124 239.7364L38.503124 231.14265L44.70625 231.14265L44.70625 232.15828L39.64375 232.15828L39.64375 234.78328L44.39375 234.78328L44.39375 235.7989L39.64375 235.7989L39.64375 238.72078L44.909374 238.72078L44.909374 239.7364L38.503124 239.7364ZM45.64375 239.7364L47.909374 236.50203L45.815624 233.51765L47.128124 233.51765L48.08125 234.97078Q48.346874 235.39265 48.51875 235.6739Q48.76875 235.28328 48.9875 234.9864L50.034374 233.51765L51.3 233.51765L49.14375 236.43953L51.45625 239.7364L50.175 239.7364L48.89375 237.7989L48.55 237.28328L46.909374 239.7364L45.64375 239.7364ZM55.409374 237.45515L56.440624 237.59578Q56.26875 238.65828 55.565624 239.26765Q54.8625 239.87703 53.846874 239.87703Q52.565624 239.87703 51.784374 239.0489Q51.01875 238.20515 51.01875 236.64265Q51.01875 235.64265 51.346874 234.89265Q51.690624 234.12703 52.3625 233.75203Q53.05 233.37703 53.8625 233.37703Q54.8625 233.37703 55.503124 233.89265Q56.159374 234.39265 56.346874 235.34578L55.315624 235.50203Q55.175 234.87703 54.8 234.56453Q54.425 234.2364 53.89375 234.2364Q53.096874 234.2364 52.596874 234.81453Q52.096874 235.37703 52.096874 236.6114Q52.096874 237.87703 52.58125 238.43953Q53.065624 239.00203 53.83125 239.00203Q54.45625 239.00203 54.8625 238.62703Q55.284374 238.25203 55.409374 237.45515ZM57.346874 232.3614L57.346874 231.14265L58.409374 231.14265L58.409374 232.3614L57.346874 232.3614ZM57.346874 239.7364L57.346874 233.51765L58.409374 233.51765L58.409374 239.7364L57.346874 239.7364ZM62.64375 238.7989L62.8 239.72078Q62.346874 239.81453 62.003124 239.81453Q61.425 239.81453 61.1125 239.64265Q60.8 239.45515 60.659374 239.15828Q60.534374 238.8614 60.534374 237.90828L60.534374 234.33015L59.76875 234.33015L59.76875 233.51765L60.534374 233.51765L60.534374 231.97078L61.58125 231.34578L61.58125 233.51765L62.64375 233.51765L62.64375 234.33015L61.58125 234.33015L61.58125 237.97078Q61.58125 238.4239 61.628124 238.5489Q61.690624 238.6739 61.815624 238.75203Q61.940624 238.83015 62.175 238.83015Q62.3625 238.83015 62.64375 238.7989ZM67.59688 237.7364L68.69063 237.8614Q68.44063 238.81453 67.7375 239.34578Q67.03438 239.87703 65.95625 239.87703Q64.59688 239.87703 63.784374 239.03328Q62.9875 238.18953 62.9875 236.6739Q62.9875 235.1114 63.8 234.25203Q64.6125 233.37703 65.89375 233.37703Q67.14375 233.37703 67.925 234.22078Q68.72188 235.06453 68.72188 236.6114Q68.72188 236.70515 68.72188 236.89265L64.08125 236.89265Q64.14375 237.9239 64.65938 238.47078Q65.175 239.00203 65.95625 239.00203Q66.53438 239.00203 66.94063 238.70515Q67.3625 238.39265 67.59688 237.7364ZM64.14375 236.03328L67.6125 236.03328Q67.55 235.2364 67.22188 234.84578Q66.70625 234.2364 65.90938 234.2364Q65.175 234.2364 64.675 234.72078Q64.19063 235.20515 64.14375 236.03328ZM74.37813 239.7364L74.37813 238.95515Q73.78438 239.87703 72.64375 239.87703Q71.89375 239.87703 71.26875 239.47078Q70.64375 239.0489 70.3 238.31453Q69.95625 237.58015 69.95625 236.62703Q69.95625 235.70515 70.26875 234.93953Q70.58125 234.1739 71.20625 233.78328Q71.83125 233.37703 72.59688 233.37703Q73.15938 233.37703 73.59688 233.6114Q74.03438 233.84578 74.31563 234.22078L74.31563 231.14265L75.3625 231.14265L75.3625 239.7364L74.37813 239.7364ZM71.05 236.62703Q71.05 237.83015 71.55 238.4239Q72.05 239.00203 72.7375 239.00203Q73.425 239.00203 73.90938 238.43953Q74.39375 237.87703 74.39375 236.72078Q74.39375 235.43953 73.89375 234.84578Q73.40938 234.25203 72.69063 234.25203Q71.9875 234.25203 71.51875 234.83015Q71.05 235.39265 71.05 236.62703Z" fill-rule="nonzero"/><path fill="#000000" d="M19.503124 297.47586L19.503124 288.8821L25.70625 288.8821L25.70625 289.89774L20.64375 289.89774L20.64375 292.52274L25.39375 292.52274L25.39375 293.53836L20.64375 293.53836L20.64375 296.46024L25.909374 296.46024L25.909374 297.47586L19.503124 297.47586ZM26.64375 297.47586L28.909374 294.2415L26.815624 291.2571L28.128124 291.2571L29.08125 292.71024Q29.346874 293.1321 29.51875 293.41336Q29.76875 293.02274 29.9875 292.72586L31.034374 291.2571L32.3 291.2571L30.14375 294.179L32.45625 297.47586L31.175 297.47586L29.89375 295.53836L29.55 295.02274L27.909374 297.47586L26.64375 297.47586ZM32.346874 297.47586L32.346874 288.8821L33.39375 288.8821L33.39375 291.96024Q34.128124 291.1165 35.253124 291.1165Q35.95625 291.1165 36.45625 291.39774Q36.971874 291.66336 37.190624 292.14774Q37.409374 292.6165 37.409374 293.53836L37.409374 297.47586L36.3625 297.47586L36.3625 293.53836Q36.3625 292.7415 36.01875 292.3821Q35.675 292.02274 35.05 292.02274Q34.58125 292.02274 34.159374 292.27274Q33.753124 292.5071 33.565624 292.929Q33.39375 293.33524 33.39375 294.0696L33.39375 297.47586L32.346874 297.47586ZM43.409374 296.71024Q42.815624 297.21024 42.26875 297.41336Q41.7375 297.6165 41.1125 297.6165Q40.08125 297.6165 39.534374 297.1165Q38.9875 296.6165 38.9875 295.83524Q38.9875 295.3821 39.190624 295.0071Q39.39375 294.6165 39.7375 294.39774Q40.08125 294.16336 40.503124 294.054Q40.8 293.96024 41.440624 293.8821Q42.70625 293.7415 43.315624 293.52274Q43.315624 293.304 43.315624 293.2571Q43.315624 292.60086 43.01875 292.33524Q42.6125 291.9915 41.815624 291.9915Q41.08125 291.9915 40.721874 292.2571Q40.3625 292.5071 40.190624 293.16336L39.159374 293.02274Q39.3 292.3665 39.628124 291.96024Q39.95625 291.554 40.565624 291.33524Q41.175 291.1165 41.971874 291.1165Q42.76875 291.1165 43.26875 291.304Q43.76875 291.4915 44.003124 291.77274Q44.2375 292.054 44.33125 292.4915Q44.378124 292.7571 44.378124 293.46024L44.378124 294.8665Q44.378124 296.33524 44.440624 296.72586Q44.51875 297.1165 44.721874 297.47586L43.6125 297.47586Q43.45625 297.14774 43.409374 296.71024ZM43.315624 294.35086Q42.7375 294.58524 41.596874 294.7571Q40.940624 294.85086 40.675 294.97586Q40.409374 295.08524 40.253124 295.304Q40.1125 295.52274 40.1125 295.804Q40.1125 296.22586 40.425 296.5071Q40.753124 296.78836 41.3625 296.78836Q41.971874 296.78836 42.440624 296.52274Q42.925 296.2571 43.14375 295.78836Q43.315624 295.429 43.315624 294.7415L43.315624 294.35086ZM50.425 297.47586L50.425 296.554Q49.690624 297.6165 48.440624 297.6165Q47.89375 297.6165 47.409374 297.41336Q46.940624 297.1946 46.70625 296.8821Q46.471874 296.554 46.378124 296.08524Q46.315624 295.78836 46.315624 295.10086L46.315624 291.2571L47.378124 291.2571L47.378124 294.71024Q47.378124 295.52274 47.440624 295.8196Q47.534374 296.22586 47.846874 296.47586Q48.175 296.71024 48.659374 296.71024Q49.128124 296.71024 49.534374 296.47586Q49.95625 296.22586 50.128124 295.804Q50.315624 295.3821 50.315624 294.58524L50.315624 291.2571L51.3625 291.2571L51.3625 297.47586L50.425 297.47586ZM52.925 295.6165L53.95625 295.46024Q54.05 296.08524 54.440624 296.41336Q54.846874 296.7415 55.58125 296.7415Q56.3 296.7415 56.64375 296.46024Q57.003124 296.16336 57.003124 295.7571Q57.003124 295.39774 56.690624 295.1946Q56.471874 295.054 55.6125 294.83524Q54.45625 294.53836 54.003124 294.33524Q53.565624 294.1165 53.33125 293.7415Q53.096874 293.3665 53.096874 292.89774Q53.096874 292.4915 53.284374 292.1321Q53.471874 291.77274 53.8 291.53836Q54.05 291.3665 54.471874 291.2415Q54.89375 291.1165 55.39375 291.1165Q56.1125 291.1165 56.659374 291.33524Q57.221874 291.53836 57.4875 291.89774Q57.753124 292.2571 57.846874 292.85086L56.815624 292.9915Q56.753124 292.52274 56.409374 292.2571Q56.08125 291.97586 55.45625 291.97586Q54.7375 291.97586 54.425 292.22586Q54.1125 292.46024 54.1125 292.78836Q54.1125 292.9915 54.2375 293.14774Q54.378124 293.3196 54.64375 293.429Q54.8 293.4915 55.58125 293.6946Q56.70625 294.0071 57.14375 294.1946Q57.58125 294.3821 57.83125 294.7415Q58.08125 295.10086 58.08125 295.64774Q58.08125 296.179 57.76875 296.64774Q57.471874 297.10086 56.89375 297.3665Q56.315624 297.6165 55.58125 297.6165Q54.3625 297.6165 53.721874 297.1165Q53.096874 296.60086 52.925 295.6165ZM62.64375 296.53836L62.8 297.46024Q62.346874 297.554 62.003124 297.554Q61.425 297.554 61.1125 297.3821Q60.8 297.1946 60.659374 296.89774Q60.534374 296.60086 60.534374 295.64774L60.534374 292.0696L59.76875 292.0696L59.76875 291.2571L60.534374 291.2571L60.534374 289.71024L61.58125 289.08524L61.58125 291.2571L62.64375 291.2571L62.64375 292.0696L61.58125 292.0696L61.58125 295.71024Q61.58125 296.16336 61.628124 296.28836Q61.690624 296.41336 61.815624 296.4915Q61.940624 296.5696 62.175 296.5696Q62.3625 296.5696 62.64375 296.53836ZM67.59688 295.47586L68.69063 295.60086Q68.44063 296.554 67.7375 297.08524Q67.03438 297.6165 65.95625 297.6165Q64.59688 297.6165 63.784374 296.77274Q62.9875 295.929 62.9875 294.41336Q62.9875 292.85086 63.8 291.9915Q64.6125 291.1165 65.89375 291.1165Q67.14375 291.1165 67.925 291.96024Q68.72188 292.804 68.72188 294.35086Q68.72188 294.4446 68.72188 294.6321L64.08125 294.6321Q64.14375 295.66336 64.65938 296.21024Q65.175 296.7415 65.95625 296.7415Q66.53438 296.7415 66.94063 296.4446Q67.3625 296.1321 67.59688 295.47586ZM64.14375 293.77274L67.6125 293.77274Q67.55 292.97586 67.22188 292.58524Q66.70625 291.97586 65.90938 291.97586Q65.175 291.97586 64.675 292.46024Q64.19063 292.9446 64.14375 293.77274ZM74.37813 297.47586L74.37813 296.6946Q73.78438 297.6165 72.64375 297.6165Q71.89375 297.6165 71.26875 297.21024Q70.64375 296.78836 70.3 296.054Q69.95625 295.3196 69.95625 294.3665Q69.95625 293.4446 70.26875 292.679Q70.58125 291.91336 71.20625 291.52274Q71.83125 291.1165 72.59688 291.1165Q73.15938 291.1165 73.59688 291.35086Q74.03438 291.58524 74.31563 291.96024L74.31563 288.8821L75.3625 288.8821L75.3625 297.47586L74.37813 297.47586ZM71.05 294.3665Q71.05 295.5696 71.55 296.16336Q72.05 296.7415 72.7375 296.7415Q73.425 296.7415 73.90938 296.179Q74.39375 295.6165 74.39375 294.46024Q74.39375 293.179 73.89375 292.58524Q73.40938 291.9915 72.69063 291.9915Q71.9875 291.9915 71.51875 292.5696Q71.05 293.1321 71.05 294.3665Z" fill-rule="nonzero"/><path fill="#000000" d="M79.55 345.21564Q79.55 343.6844 79.8625 342.7625Q80.175 341.825 80.78438 341.325Q81.40938 340.825 82.34688 340.825Q83.03438 340.825 83.55 341.10626Q84.08125 341.3875 84.425 341.91876Q84.76875 342.4344 84.95625 343.1844Q85.14375 343.9344 85.14375 345.21564Q85.14375 346.73126 84.83125 347.65314Q84.53438 348.575 83.90938 349.09064Q83.3 349.59064 82.34688 349.59064Q81.1125 349.59064 80.39375 348.7Q79.55 347.6375 79.55 345.21564ZM80.62813 345.21564Q80.62813 347.325 81.12813 348.02814Q81.62813 348.73126 82.34688 348.73126Q83.08125 348.73126 83.56563 348.02814Q84.06563 347.325 84.06563 345.21564Q84.06563 343.09064 83.56563 342.40314Q83.08125 341.7 82.33125 341.7Q81.6125 341.7 81.175 342.3094Q80.62813 343.09064 80.62813 345.21564Z" fill-rule="nonzero"/><path fill="#000000" d="M204.275 347.2L205.38437 347.10626Q205.50937 347.91876 205.94687 348.325Q206.4 348.73126 207.04062 348.73126Q207.79062 348.73126 208.32187 348.15314Q208.85312 347.575 208.85312 346.6375Q208.85312 345.73126 208.3375 345.21564Q207.8375 344.6844 207.00937 344.6844Q206.50937 344.6844 206.0875 344.91876Q205.68124 345.15314 205.44687 345.5125L204.4625 345.3875L205.29062 340.98126L209.57187 340.98126L209.57187 341.98126L206.13437 341.98126L205.68124 344.29376Q206.44687 343.7469 207.29062 343.7469Q208.41562 343.7469 209.18124 344.52814Q209.9625 345.3094 209.9625 346.54376Q209.9625 347.7 209.29062 348.5594Q208.4625 349.59064 207.04062 349.59064Q205.86874 349.59064 205.11874 348.9344Q204.38437 348.27814 204.275 347.2Z" fill-rule="nonzero"/><path fill="#000000" d="M329.46875 349.45L328.42188 349.45L328.42188 342.73126Q328.03125 343.09064 327.40625 343.46564Q326.79688 343.825 326.3125 343.9969L326.3125 342.98126Q327.1875 342.5594 327.84375 341.98126Q328.51562 341.3875 328.79688 340.825L329.46875 340.825L329.46875 349.45ZM332.5 345.21564Q332.5 343.6844 332.8125 342.7625Q333.125 341.825 333.73438 341.325Q334.35938 340.825 335.29688 340.825Q335.98438 340.825 336.5 341.10626Q337.03125 341.3875 337.375 341.91876Q337.71875 342.4344 337.90625 343.1844Q338.09375 343.9344 338.09375 345.21564Q338.09375 346.73126 337.78125 347.65314Q337.48438 348.575 336.85938 349.09064Q336.25 349.59064 335.29688 349.59064Q334.0625 349.59064 333.34375 348.7Q332.5 347.6375 332.5 345.21564ZM333.57812 345.21564Q333.57812 347.325 334.07812 348.02814Q334.57812 348.73126 335.29688 348.73126Q336.03125 348.73126 336.51562 348.02814Q337.01562 347.325 337.01562 345.21564Q337.01562 343.09064 336.51562 342.40314Q336.03125 341.7 335.28125 341.7Q334.5625 341.7 334.125 342.3094Q333.57812 343.09064 333.57812 345.21564Z" fill-rule="nonzero"/><path fill="#000000" d="M454.19376 349.45L453.14688 349.45L453.14688 342.73126Q452.75626 343.09064 452.13126 343.46564Q451.52188 343.825 451.0375 343.9969L451.0375 342.98126Q451.9125 342.5594 452.56876 341.98126Q453.24063 341.3875 453.52188 340.825L454.19376 340.825L454.19376 349.45ZM457.225 347.2L458.33438 347.10626Q458.45938 347.91876 458.89688 348.325Q459.35 348.73126 459.99063 348.73126Q460.74063 348.73126 461.27188 348.15314Q461.80313 347.575 461.80313 346.6375Q461.80313 345.73126 461.2875 345.21564Q460.7875 344.6844 459.95938 344.6844Q459.45938 344.6844 459.0375 344.91876Q458.63126 345.15314 458.39688 345.5125L457.4125 345.3875L458.24063 340.98126L462.52188 340.98126L462.52188 341.98126L459.08438 341.98126L458.63126 344.29376Q459.39688 343.7469 460.24063 343.7469Q461.36563 343.7469 462.13126 344.52814Q462.9125 345.3094 462.9125 346.54376Q462.9125 347.7 462.24063 348.5594Q461.4125 349.59064 459.99063 349.59064Q458.81876 349.59064 458.06876 348.9344Q457.33438 348.27814 457.225 347.2Z" fill-rule="nonzero"/><path fill="#000000" d="M580.4969 348.4344L580.4969 349.45L574.8094 349.45Q574.8094 349.075 574.9344 348.71564Q575.15314 348.1375 575.6219 347.575Q576.10626 347.0125 577.0125 346.27814Q578.41876 345.1219 578.90314 344.45Q579.40314 343.77814 579.40314 343.1844Q579.40314 342.5594 578.95 342.1375Q578.4969 341.7 577.77814 341.7Q577.0125 341.7 576.5594 342.15314Q576.10626 342.60626 576.09064 343.41876L575.0125 343.3094Q575.1219 342.09064 575.84064 341.46564Q576.575 340.825 577.8094 340.825Q579.04376 340.825 579.7625 341.5125Q580.48126 342.2 580.48126 343.21564Q580.48126 343.73126 580.2625 344.23126Q580.0594 344.71564 579.5594 345.27814Q579.075 345.825 577.95 346.77814Q576.9969 347.575 576.71564 347.8719Q576.45 348.15314 576.27814 348.4344L580.4969 348.4344ZM581.95 345.21564Q581.95 343.6844 582.2625 342.7625Q582.575 341.825 583.1844 341.325Q583.8094 340.825 584.7469 340.825Q585.4344 340.825 585.95 341.10626Q586.48126 341.3875 586.825 341.91876Q587.16876 342.4344 587.35626 343.1844Q587.54376 343.9344 587.54376 345.21564Q587.54376 346.73126 587.23126 347.65314Q586.9344 348.575 586.3094 349.09064Q585.7 349.59064 584.7469 349.59064Q583.5125 349.59064 582.79376 348.7Q581.95 347.6375 581.95 345.21564ZM583.02814 345.21564Q583.02814 347.325 583.52814 348.02814Q584.02814 348.73126 584.7469 348.73126Q585.48126 348.73126 585.96564 348.02814Q586.46564 347.325 586.46564 345.21564Q586.46564 343.09064 585.96564 342.40314Q585.48126 341.7 584.73126 341.7Q584.0125 341.7 583.575 342.3094Q583.02814 343.09064 583.02814 345.21564Z" fill-rule="nonzero"/><path fill="#4285f4" d="M194.5 56.916668C194.5 56.364384 194.94771 55.916668 195.5 55.916668L205.5 55.916668C206.05229 55.916668 206.5 56.364384 206.5 56.916668L206.5 66.916664C206.5 67.46895 206.05229 67.916664 205.5 67.916664L195.5 67.916664C194.94771 67.916664 194.5 67.46895 194.5 66.916664Z" fill-rule="nonzero"/><path fill="#1a1a1a" d="M215.04688 63.15104L216.10938 63.05729Q216.1875 63.71354 216.46875 64.11979Q216.75 64.52604 217.32812 64.791664Q217.92188 65.041664 218.65625 65.041664Q219.29688 65.041664 219.79688 64.854164Q220.29688 64.65104 220.53125 64.322914Q220.78125 63.979164 220.78125 63.58854Q220.78125 63.18229 220.54688 62.885414Q220.3125 62.572914 219.78125 62.36979Q219.42188 62.229164 218.23438 61.947914Q217.0625 61.666664 216.59375 61.416664Q215.96875 61.08854 215.67188 60.61979Q215.375 60.135414 215.375 59.541664Q215.375 58.90104 215.73438 58.33854Q216.10938 57.760414 216.8125 57.479164Q217.53125 57.18229 218.39062 57.18229Q219.34375 57.18229 220.07812 57.49479Q220.8125 57.791664 221.20312 58.40104Q221.59375 58.99479 221.625 59.74479L220.53125 59.822914Q220.4375 59.010414 219.92188 58.604164Q219.42188 58.18229 218.4375 58.18229Q217.40625 58.18229 216.9375 58.55729Q216.46875 58.93229 216.46875 59.46354Q216.46875 59.93229 216.79688 60.229164Q217.125 60.52604 218.5 60.83854Q219.89062 61.15104 220.40625 61.385414Q221.15625 61.74479 221.51562 62.27604Q221.875 62.791664 221.875 63.49479Q221.875 64.18229 221.48438 64.791664Q221.09375 65.385414 220.35938 65.729164Q219.625 66.05729 218.70312 66.05729Q217.53125 66.05729 216.73438 65.729164Q215.95312 65.385414 215.5 64.697914Q215.0625 64.010414 215.04688 63.15104ZM227.54688 63.916664L228.64062 64.041664Q228.39062 64.99479 227.6875 65.52604Q226.98438 66.05729 225.90625 66.05729Q224.54688 66.05729 223.73438 65.21354Q222.9375 64.36979 222.9375 62.854164Q222.9375 61.291664 223.75 60.43229Q224.5625 59.55729 225.84375 59.55729Q227.09375 59.55729 227.875 60.40104Q228.67188 61.24479 228.67188 62.791664Q228.67188 62.885414 228.67188 63.072914L224.03125 63.072914Q224.09375 64.104164 224.60938 64.65104Q225.125 65.18229 225.90625 65.18229Q226.48438 65.18229 226.89062 64.885414Q227.3125 64.572914 227.54688 63.916664ZM224.09375 62.21354L227.5625 62.21354Q227.5 61.416664 227.17188 61.02604Q226.65625 60.416664 225.85938 60.416664Q225.125 60.416664 224.625 60.90104Q224.14062 61.385414 224.09375 62.21354ZM230.29688 68.30729L230.29688 59.697914L231.25 59.697914L231.25 60.49479Q231.59375 60.02604 232.01562 59.791664Q232.45312 59.55729 233.0625 59.55729Q233.85938 59.55729 234.46875 59.96354Q235.07812 60.36979 235.375 61.11979Q235.6875 61.86979 235.6875 62.760414Q235.6875 63.71354 235.34375 64.479164Q235.01562 65.24479 234.35938 65.65104Q233.70312 66.05729 232.98438 66.05729Q232.45312 66.05729 232.03125 65.83854Q231.60938 65.604164 231.34375 65.27604L231.34375 68.30729L230.29688 68.30729ZM231.25 62.83854Q231.25 64.041664 231.73438 64.61979Q232.21875 65.18229 232.90625 65.18229Q233.60938 65.18229 234.10938 64.58854Q234.60938 63.99479 234.60938 62.74479Q234.60938 61.55729 234.125 60.979164Q233.64062 60.385414 232.95312 60.385414Q232.28125 60.385414 231.76562 61.010414Q231.25 61.635414 231.25 62.83854Z" fill-rule="nonzero"/><path fill="#ea4335" d="M252.5 56.916668C252.5 56.364384 252.94771 55.916668 253.5 55.916668L263.5 55.916668C264.05228 55.916668 264.5 56.364384 264.5 56.916668L264.5 66.916664C264.5 67.46895 264.05228 67.916664 263.5 67.916664L253.5 67.916664C252.94771 67.916664 252.5 67.46895 252.5 66.916664Z" fill-rule="nonzero"/><path fill="#1a1a1a" d="M273.07812 61.729164Q273.07812 59.58854 274.21875 58.385414Q275.375 57.166664 277.1875 57.166664Q278.39062 57.166664 279.34375 57.74479Q280.29688 58.30729 280.79688 59.322914Q281.29688 60.33854 281.29688 61.635414Q281.29688 62.93229 280.76562 63.96354Q280.23438 64.99479 279.26562 65.52604Q278.3125 66.05729 277.1875 66.05729Q275.96875 66.05729 275.01562 65.479164Q274.0625 64.885414 273.5625 63.885414Q273.07812 62.86979 273.07812 61.729164ZM274.25 61.74479Q274.25 63.30729 275.07812 64.197914Q275.92188 65.08854 277.1875 65.08854Q278.46875 65.08854 279.29688 64.197914Q280.125 63.291664 280.125 61.61979Q280.125 60.572914 279.76562 59.791664Q279.42188 59.010414 278.73438 58.58854Q278.04688 58.15104 277.20312 58.15104Q276.0 58.15104 275.125 58.979164Q274.25 59.80729 274.25 61.74479ZM286.35938 63.635414L287.39062 63.77604Q287.21875 64.83854 286.51562 65.447914Q285.8125 66.05729 284.79688 66.05729Q283.51562 66.05729 282.73438 65.229164Q281.96875 64.385414 281.96875 62.822914Q281.96875 61.822914 282.29688 61.072914Q282.64062 60.30729 283.3125 59.93229Q284.0 59.55729 284.8125 59.55729Q285.8125 59.55729 286.45312 60.072914Q287.10938 60.572914 287.29688 61.52604L286.26562 61.68229Q286.125 61.05729 285.75 60.74479Q285.375 60.416664 284.84375 60.416664Q284.04688 60.416664 283.54688 60.99479Q283.04688 61.55729 283.04688 62.791664Q283.04688 64.05729 283.53125 64.61979Q284.01562 65.18229 284.78125 65.18229Q285.40625 65.18229 285.8125 64.80729Q286.23438 64.43229 286.35938 63.635414ZM290.59375 64.979164L290.75 65.90104Q290.29688 65.99479 289.95312 65.99479Q289.375 65.99479 289.0625 65.822914Q288.75 65.635414 288.60938 65.33854Q288.48438 65.041664 288.48438 64.08854L288.48438 60.510414L287.71875 60.510414L287.71875 59.697914L288.48438 59.697914L288.48438 58.15104L289.53125 57.52604L289.53125 59.697914L290.59375 59.697914L290.59375 60.510414L289.53125 60.510414L289.53125 64.15104Q289.53125 64.604164 289.57812 64.729164Q289.64062 64.854164 289.76562 64.93229Q289.89062 65.010414 290.125 65.010414Q290.3125 65.010414 290.59375 64.979164Z" fill-rule="nonzero"/><path fill="#fbbc04" d="M306.5 56.916668C306.5 56.364384 306.94772 55.916668 307.5 55.916668L317.5 55.916668C318.05228 55.916668 318.5 56.364384 318.5 56.916668L318.5 66.916664C318.5 67.46895 318.05228 67.916664 317.5 67.916664L307.5 67.916664C306.94772 67.916664 306.5 67.46895 306.5 66.916664Z" fill-rule="nonzero"/><path fill="#1a1a1a" d="M327.42188 65.916664L327.42188 57.322914L328.57812 57.322914L333.09375 64.072914L333.09375 57.322914L334.1875 57.322914L334.1875 65.916664L333.01562 65.916664L328.5 59.166664L328.5 65.916664L327.42188 65.916664ZM335.90625 62.80729Q335.90625 61.072914 336.85938 60.24479Q337.65625 59.55729 338.8125 59.55729Q340.09375 59.55729 340.90625 60.40104Q341.73438 61.229164 341.73438 62.71354Q341.73438 63.916664 341.375 64.604164Q341.01562 65.291664 340.3125 65.68229Q339.625 66.05729 338.8125 66.05729Q337.51562 66.05729 336.70312 65.229164Q335.90625 64.385414 335.90625 62.80729ZM336.98438 62.80729Q336.98438 63.99479 337.5 64.58854Q338.03125 65.18229 338.8125 65.18229Q339.60938 65.18229 340.125 64.58854Q340.64062 63.99479 340.64062 62.77604Q340.64062 61.61979 340.10938 61.02604Q339.59375 60.43229 338.8125 60.43229Q338.03125 60.43229 337.5 61.02604Q336.98438 61.604164 336.98438 62.80729ZM345.01562 65.916664L342.65625 59.697914L343.76562 59.697914L345.10938 63.416664Q345.3125 64.02604 345.5 64.666664Q345.64062 64.18229 345.89062 63.49479L347.28125 59.697914L348.35938 59.697914L346.0 65.916664L345.01562 65.916664Z" fill-rule="nonzero"/><path fill="#34a853" d="M363.5 56.916668C363.5 56.364384 363.94772 55.916668 364.5 55.916668L374.5 55.916668C375.05228 55.916668 375.5 56.364384 375.5 56.916668L375.5 66.916664C375.5 67.46895 375.05228 67.916664 374.5 67.916664L364.5 67.916664C363.94772 67.916664 363.5 67.46895 363.5 66.916664Z" fill-rule="nonzero"/><path fill="#1a1a1a" d="M384.42188 65.916664L384.42188 57.322914L387.39062 57.322914Q388.39062 57.322914 388.92188 57.447914Q389.65625 57.61979 390.17188 58.05729Q390.85938 58.635414 391.1875 59.541664Q391.53125 60.43229 391.53125 61.572914Q391.53125 62.55729 391.29688 63.30729Q391.07812 64.05729 390.71875 64.55729Q390.35938 65.05729 389.92188 65.33854Q389.5 65.61979 388.90625 65.77604Q388.3125 65.916664 387.53125 65.916664L384.42188 65.916664ZM385.5625 64.90104L387.39062 64.90104Q388.25 64.90104 388.73438 64.74479Q389.21875 64.58854 389.5 64.291664Q389.90625 63.90104 390.125 63.21354Q390.35938 62.52604 390.35938 61.55729Q390.35938 60.21354 389.90625 59.49479Q389.46875 58.760414 388.84375 58.510414Q388.375 58.33854 387.375 58.33854L385.5625 58.33854L385.5625 64.90104ZM397.54688 63.916664L398.64062 64.041664Q398.39062 64.99479 397.6875 65.52604Q396.98438 66.05729 395.90625 66.05729Q394.54688 66.05729 393.73438 65.21354Q392.9375 64.36979 392.9375 62.854164Q392.9375 61.291664 393.75 60.43229Q394.5625 59.55729 395.84375 59.55729Q397.09375 59.55729 397.875 60.40104Q398.67188 61.24479 398.67188 62.791664Q398.67188 62.885414 398.67188 63.072914L394.03125 63.072914Q394.09375 64.104164 394.60938 64.65104Q395.125 65.18229 395.90625 65.18229Q396.48438 65.18229 396.89062 64.885414Q397.3125 64.572914 397.54688 63.916664ZM394.09375 62.21354L397.5625 62.21354Q397.5 61.416664 397.17188 61.02604Q396.65625 60.416664 395.85938 60.416664Q395.125 60.416664 394.625 60.90104Q394.14062 61.385414 394.09375 62.21354ZM404.35938 63.635414L405.39062 63.77604Q405.21875 64.83854 404.51562 65.447914Q403.8125 66.05729 402.79688 66.05729Q401.51562 66.05729 400.73438 65.229164Q399.96875 64.385414 399.96875 62.822914Q399.96875 61.822914 400.29688 61.072914Q400.64062 60.30729 401.3125 59.93229Q402.0 59.55729 402.8125 59.55729Q403.8125 59.55729 404.45312 60.072914Q405.10938 60.572914 405.29688 61.52604L404.26562 61.68229Q404.125 61.05729 403.75 60.74479Q403.375 60.416664 402.84375 60.416664Q402.04688 60.416664 401.54688 60.99479Q401.04688 61.55729 401.04688 62.791664Q401.04688 64.05729 401.53125 64.61979Q402.01562 65.18229 402.78125 65.18229Q403.40625 65.18229 403.8125 64.80729Q404.23438 64.43229 404.35938 63.635414Z" fill-rule="nonzero"/><path fill="#757575" d="M20.034374 37.55L20.034374 23.2375L22.89375 23.2375L26.26875 33.3625Q26.7375 34.784374 26.95625 35.4875Q27.20625 34.70625 27.721874 33.190624L31.14375 23.2375L33.690624 23.2375L33.690624 37.55L31.878124 37.55L31.878124 25.565624L27.70625 37.55L26.003124 37.55L21.8625 25.3625L21.8625 37.55L20.034374 37.55ZM36.221874 32.3625Q36.221874 29.4875 37.815624 28.096874Q39.159374 26.940624 41.08125 26.940624Q43.221874 26.940624 44.565624 28.346874Q45.925 29.753124 45.925 32.221874Q45.925 34.221874 45.33125 35.378124Q44.7375 36.51875 43.58125 37.159374Q42.440624 37.784374 41.08125 37.784374Q38.89375 37.784374 37.55 36.39375Q36.221874 34.9875 36.221874 32.3625ZM38.01875 32.3625Q38.01875 34.3625 38.878124 35.346874Q39.753124 36.33125 41.08125 36.33125Q42.39375 36.33125 43.253124 35.346874Q44.128124 34.346874 44.128124 32.3Q44.128124 30.378124 43.253124 29.39375Q42.378124 28.39375 41.08125 28.39375Q39.753124 28.39375 38.878124 29.39375Q38.01875 30.378124 38.01875 32.3625ZM47.221874 32.3625Q47.221874 29.4875 48.815624 28.096874Q50.159374 26.940624 52.08125 26.940624Q54.221874 26.940624 55.565624 28.346874Q56.925 29.753124 56.925 32.221874Q56.925 34.221874 56.33125 35.378124Q55.7375 36.51875 54.58125 37.159374Q53.440624 37.784374 52.08125 37.784374Q49.89375 37.784374 48.55 36.39375Q47.221874 34.9875 47.221874 32.3625ZM49.01875 32.3625Q49.01875 34.3625 49.878124 35.346874Q50.753124 36.33125 52.08125 36.33125Q53.39375 36.33125 54.253124 35.346874Q55.128124 34.346874 55.128124 32.3Q55.128124 30.378124 54.253124 29.39375Q53.378124 28.39375 52.08125 28.39375Q50.753124 28.39375 49.878124 29.39375Q49.01875 30.378124 49.01875 32.3625ZM65.59688 37.55L65.59688 36.2375Q64.6125 37.784374 62.690624 37.784374Q61.45625 37.784374 60.409374 37.096874Q59.378124 36.409374 58.8 35.190624Q58.2375 33.971874 58.2375 32.378124Q58.2375 30.815624 58.753124 29.55Q59.26875 28.284374 60.3 27.6125Q61.346874 26.940624 62.6125 26.940624Q63.55 26.940624 64.28438 27.346874Q65.01875 27.7375 65.4875 28.3625L65.4875 23.2375L67.22188 23.2375L67.22188 37.55L65.59688 37.55ZM60.034374 32.378124Q60.034374 34.3625 60.878124 35.346874Q61.721874 36.33125 62.8625 36.33125Q64.01875 36.33125 64.81563 35.39375Q65.62813 34.45625 65.62813 32.51875Q65.62813 30.39375 64.8 29.39375Q63.9875 28.39375 62.784374 28.39375Q61.6125 28.39375 60.815624 29.3625Q60.034374 30.315624 60.034374 32.378124ZM79.22188 41.753124Q77.76875 39.925 76.76875 37.471874Q75.76875 35.003124 75.76875 32.3625Q75.76875 30.034374 76.51875 27.909374Q77.39375 25.440624 79.22188 22.9875L80.4875 22.9875Q79.3 25.01875 78.925 25.89375Q78.33125 27.2375 77.9875 28.70625Q77.56563 30.534374 77.56563 32.378124Q77.56563 37.065624 80.4875 41.753124L79.22188 41.753124ZM81.51875 37.55L87.01875 23.2375L89.06563 23.2375L94.925 37.55L92.76875 37.55L91.09688 33.20625L85.1125 33.20625L83.53438 37.55L81.51875 37.55ZM85.65938 31.675L90.50313 31.675L89.01875 27.70625Q88.33125 25.89375 88.00313 24.7375Q87.72188 26.1125 87.22188 27.471874L85.65938 31.675ZM95.83125 37.55L95.83125 23.2375L97.58125 23.2375L97.58125 37.55L95.83125 37.55ZM99.83125 37.55L99.83125 23.2375L101.58125 23.2375L101.58125 37.55L99.83125 37.55ZM109.8625 37.55L109.8625 27.175L111.44063 27.175L111.44063 28.628124Q111.925 27.878124 112.7375 27.409374Q113.55 26.940624 114.58125 26.940624Q115.7375 26.940624 116.47188 27.425Q117.20625 27.89375 117.51875 28.753124Q118.75313 26.940624 120.72188 26.940624Q122.26875 26.940624 123.09688 27.8Q123.925 28.659374 123.925 30.425L123.925 37.55L122.175 37.55L122.175 31.01875Q122.175 29.95625 122.00313 29.503124Q121.83125 29.034374 121.37813 28.753124Q120.94063 28.471874 120.33125 28.471874Q119.2375 28.471874 118.50313 29.20625Q117.78438 29.925 117.78438 31.51875L117.78438 37.55L116.03438 37.55L116.03438 30.815624Q116.03438 29.64375 115.59688 29.065624Q115.175 28.471874 114.19063 28.471874Q113.45625 28.471874 112.81563 28.8625Q112.19063 29.253124 111.90938 30.003124Q111.62813 30.753124 111.62813 32.175L111.62813 37.55L109.8625 37.55ZM125.22188 32.3625Q125.22188 29.4875 126.81563 28.096874Q128.15938 26.940624 130.08125 26.940624Q132.22188 26.940624 133.56563 28.346874Q134.925 29.753124 134.925 32.221874Q134.925 34.221874 134.33125 35.378124Q133.7375 36.51875 132.58125 37.159374Q131.44063 37.784374 130.08125 37.784374Q127.89375 37.784374 126.55 36.39375Q125.22188 34.9875 125.22188 32.3625ZM127.01875 32.3625Q127.01875 34.3625 127.87813 35.346874Q128.75313 36.33125 130.08125 36.33125Q131.39375 36.33125 132.25313 35.346874Q133.12813 34.346874 133.12813 32.3Q133.12813 30.378124 132.25313 29.39375Q131.37813 28.39375 130.08125 28.39375Q128.75313 28.39375 127.87813 29.39375Q127.01875 30.378124 127.01875 32.3625ZM136.8625 37.55L136.8625 27.175L138.45625 27.175L138.45625 28.659374Q139.59688 26.940624 141.75313 26.940624Q142.69063 26.940624 143.47188 27.284374Q144.26875 27.6125 144.65938 28.159374Q145.05 28.70625 145.20625 29.45625Q145.3 29.95625 145.3 31.175L145.3 37.55L143.53438 37.55L143.53438 31.2375Q143.53438 30.159374 143.33125 29.628124Q143.12813 29.096874 142.59688 28.784374Q142.08125 28.471874 141.37813 28.471874Q140.25313 28.471874 139.44063 29.190624Q138.62813 29.89375 138.62813 31.878124L138.62813 37.55L136.8625 37.55ZM150.70625 35.971874L150.95625 37.534374Q150.22188 37.690624 149.62813 37.690624Q148.675 37.690624 148.14375 37.39375Q147.62813 37.08125 147.40938 36.596874Q147.19063 36.096874 147.19063 34.51875L147.19063 28.55L145.90938 28.55L145.90938 27.175L147.19063 27.175L147.19063 24.6125L148.94063 23.55L148.94063 27.175L150.70625 27.175L150.70625 28.55L148.94063 28.55L148.94063 34.6125Q148.94063 35.3625 149.03438 35.58125Q149.12813 35.784374 149.33125 35.925Q149.55 36.05 149.94063 36.05Q150.22188 36.05 150.70625 35.971874ZM152.8625 37.55L152.8625 23.2375L154.62813 23.2375L154.62813 28.3625Q155.8625 26.940624 157.7375 26.940624Q158.87813 26.940624 159.72188 27.39375Q160.58125 27.846874 160.94063 28.659374Q161.31563 29.45625 161.31563 30.971874L161.31563 37.55L159.56563 37.55L159.56563 30.971874Q159.56563 29.659374 158.9875 29.065624Q158.40938 28.45625 157.37813 28.45625Q156.59688 28.45625 155.89375 28.8625Q155.20625 29.26875 154.90938 29.971874Q154.62813 30.659374 154.62813 31.878124L154.62813 37.55L152.8625 37.55ZM162.15938 34.45625L163.90938 34.175Q164.05 35.221874 164.72188 35.784374Q165.39375 36.33125 166.59688 36.33125Q167.8 36.33125 168.37813 35.846874Q168.97188 35.346874 168.97188 34.690624Q168.97188 34.096874 168.45625 33.753124Q168.09688 33.51875 166.65938 33.159374Q164.72188 32.659374 163.97188 32.315624Q163.2375 31.95625 162.84688 31.33125Q162.45625 30.690624 162.45625 29.925Q162.45625 29.2375 162.76875 28.64375Q163.09688 28.05 163.64375 27.659374Q164.05 27.3625 164.75313 27.159374Q165.47188 26.940624 166.28438 26.940624Q167.50313 26.940624 168.425 27.3Q169.34688 27.64375 169.78438 28.253124Q170.22188 28.846874 170.39375 29.846874L168.675 30.08125Q168.55 29.284374 167.9875 28.846874Q167.425 28.39375 166.40938 28.39375Q165.19063 28.39375 164.675 28.8Q164.15938 29.190624 164.15938 29.721874Q164.15938 30.065624 164.37813 30.346874Q164.58125 30.628124 165.05 30.815624Q165.31563 30.909374 166.59688 31.253124Q168.47188 31.753124 169.20625 32.08125Q169.94063 32.39375 170.3625 33.003124Q170.78438 33.596874 170.78438 34.503124Q170.78438 35.378124 170.26875 36.159374Q169.75313 36.940624 168.78438 37.3625Q167.81563 37.784374 166.59688 37.784374Q164.58125 37.784374 163.51875 36.940624Q162.45625 36.096874 162.15938 34.45625ZM174.01875 41.753124L172.76875 41.753124Q175.675 37.065624 175.675 32.378124Q175.675 30.534374 175.26875 28.7375Q174.925 27.26875 174.33125 25.925Q173.95625 25.034374 172.76875 22.9875L174.01875 22.9875Q175.8625 25.440624 176.7375 27.909374Q177.4875 30.034374 177.4875 32.3625Q177.4875 35.003124 176.47188 37.471874Q175.47188 39.925 174.01875 41.753124Z" fill-rule="nonzero"/></svg>