<svg xmlns="http://www.w3.org/2000/svg" width="805" height="600"><rect width="805" height="600" x="0" y="0" fill="#FFFFFF" id="backgorund"/><g id="viz"><g transform="translate(0,0)"><g transform="translate(150,20)"><g class="bars"><rect id="undefined - Butler Basement" x="0" y="66.68764083159725" height="13.30895795246801" width="21.175" fill="#1f77b4"/><rect id="undefined - Joline Dorm" x="0" y="253.34637132774967" height="13.30895795246801" width="21.175" fill="#1f77b4"/><rect id="undefined - Mccarter Theatre" x="0" y="320.0102036478041" height="13.30895795246801" width="332.75" fill="#1f77b4"/><rect id="undefined - Mccosh 50" x="0" y="333.34297011181496" height="13.30895795246801" width="302.5" fill="#1f77b4"/><rect id="undefined - Whitman Dorm" x="0" y="506.6689341439565" height="13.30895795246801" width="9.075" fill="#1f77b4"/><rect id="undefined - Mathey Common Room" x="0" y="293.3446707197823" height="13.30895795246801" width="42.35" fill="#1f77b4"/><rect id="undefined - Tea Room" x="0" y="426.6723353598912" height="13.30895795246801" width="13.612499999999999" fill="#1f77b4"/><rect id="undefined - Firestone" x="0" y="186.68253900769523" height="13.30895795246801" width="5.445" fill="#1f77b4"/><rect id="undefined - CVS" x="0" y="93.35317375961903" height="13.30895795246801" width="4.5375" fill="#1f77b4"/><rect id="undefined - Whitman Common Room" x="0" y="466.67063475192384" height="13.30895795246801" width="9.243055555555555" fill="#1f77b4"/><rect id="undefined - Whitman Courtyard" x="0" y="480.00340121593473" height="13.30895795246801" width="2.26875" fill="#1f77b4"/><rect id="undefined - Whitman Dining Hall" x="0" y="493.3361676799456" height="13.30895795246801" width="68.0625" fill="#1f77b4"/><rect id="undefined - Whitman Studio" x="0" y="520.0017006079673" height="13.30895795246801" width="1.5125" fill="#1f77b4"/><rect id="undefined - Frist " x="0" y="213.348071935717" height="13.30895795246801" width="7.5625" fill="#1f77b4"/><rect id="undefined - Forbes Dining Hall" x="0" y="200.0153054717061" height="13.30895795246801" width="36.3" fill="#1f77b4"/><rect id="undefined - Dillion Gym" x="0" y="133.35147315165167" height="13.30895795246801" width="10.89" fill="#1f77b4"/><rect id="undefined - Webster Hall" x="0" y="453.33786828791295" height="13.30895795246801" width="605" fill="#1f77b4"/><rect id="undefined - Blair Arch" x="0" y="26.689341439564597" height="13.30895795246801" width="10.5875" fill="#1f77b4"/><rect id="undefined - Aliya Kanji" x="0" y="0.023808511542824817" height="13.30895795246801" width="6.9953125" fill="#1f77b4"/><rect id="undefined - Yeh Dining Hall" x="0" y="546.6672335359891" height="13.30895795246801" width="30.25" fill="#1f77b4"/><rect id="undefined - Kung Fu Tea" x="0" y="266.6791377917605" height="13.30895795246801" width="15.125" fill="#1f77b4"/><rect id="undefined - Einstein Hall" x="0" y="173.34977254368434" height="13.30895795246801" width="4.5375" fill="#1f77b4"/><rect id="undefined - Sinclair's Backyard" x="0" y="413.3395688958803" height="13.30895795246801" width="39.325" fill="#1f77b4"/><rect id="undefined - COS Classroom" x="0" y="80.02040729560814" height="13.30895795246801" width="22.6875" fill="#1f77b4"/><rect id="undefined - Mathey Courtyard" x="0" y="306.6774371837932" height="13.30895795246801" width="7.5625" fill="#1f77b4"/><rect id="undefined - United Aircraft" x="0" y="440.00510182390207" height="13.30895795246801" width="302.5" fill="#1f77b4"/><rect id="undefined - Mika Sushi" x="0" y="346.67573657582585" height="13.30895795246801" width="7.5625" fill="#1f77b4"/><rect id="undefined - Boulder Classroom" x="0" y="40.02210790357548" height="13.30895795246801" width="9.075" fill="#1f77b4"/><rect id="undefined - Car" x="0" y="106.68594022362991" height="13.30895795246801" width="6.05" fill="#1f77b4"/><rect id="undefined - Castle Rock" x="0" y="120.0187066876408" height="13.30895795246801" width="6.05" fill="#1f77b4"/><rect id="undefined - FunnyPlus" x="0" y="226.6808383997279" height="13.30895795246801" width="9.075" fill="#1f77b4"/><rect id="undefined - East Pyne Classroom" x="0" y="160.01700607967345" height="13.30895795246801" width="10.5875" fill="#1f77b4"/><rect id="undefined - Yeh Common Room" x="0" y="533.3344670719782" height="13.30895795246801" width="13.612499999999999" fill="#1f77b4"/><rect id="undefined - Alpaca Farm" x="0" y="13.35657497555371" height="13.30895795246801" width="7.5625" fill="#1f77b4"/><rect id="undefined - Nassau Hall" x="0" y="373.3412695038476" height="13.30895795246801" width="1.5125" fill="#1f77b4"/><rect id="undefined - Pizza @Yale" x="0" y="386.6740359678585" height="13.30895795246801" width="37.8125" fill="#1f77b4"/><rect id="undefined - Broadway" x="0" y="53.35487436758637" height="13.30895795246801" width="529.375" fill="#1f77b4"/><rect id="undefined - Icahn Laboratory" x="0" y="240.01360486373878" height="13.30895795246801" width="20.418750000000003" fill="#1f77b4"/><rect id="undefined - Murphy Studio" x="0" y="360.00850303983674" height="13.30895795246801" width="16.6375" fill="#1f77b4"/><rect id="undefined - SPIA Fountain" x="0" y="400.0068024318694" height="13.30895795246801" width="1.5125" fill="#1f77b4"/><rect id="undefined - Laojie Hotpot" x="0" y="280.0119042557714" height="13.30895795246801" width="6.05" fill="#1f77b4"/><rect id="undefined - Dorm" x="0" y="146.68423961566256" height="13.30895795246801" width="1.5125" fill="#1f77b4"/></g><g id="xAxis" transform="translate(0,560)" fill="none" font-size="10" font-family="sans-serif" text-anchor="middle"><path class="domain" stroke="currentColor" d="M0,6V0H605V6"/><g class="tick" opacity="1" transform="translate(0,0)"><line stroke="currentColor" y2="6"/><text fill="currentColor" y="9" dy="0.71em">0</text></g><g class="tick" opacity="1" transform="translate(75.625,0)"><line stroke="currentColor" y2="6"/><text fill="currentColor" y="9" dy="0.71em">50</text></g><g class="tick" opacity="1" transform="translate(151.25,0)"><line stroke="currentColor" y2="6"/><text fill="currentColor" y="9" dy="0.71em">100</text></g><g class="tick" opacity="1" transform="translate(226.875,0)"><line stroke="currentColor" y2="6"/><text fill="currentColor" y="9" dy="0.71em">150</text></g><g class="tick" opacity="1" transform="translate(302.5,0)"><line stroke="currentColor" y2="6"/><text fill="currentColor" y="9" dy="0.71em">200</text></g><g class="tick" opacity="1" transform="translate(378.125,0)"><line stroke="currentColor" y2="6"/><text fill="currentColor" y="9" dy="0.71em">250</text></g><g class="tick" opacity="1" transform="translate(453.75,0)"><line stroke="currentColor" y2="6"/><text fill="currentColor" y="9" dy="0.71em">300</text></g><g class="tick" opacity="1" transform="translate(529.375,0)"><line stroke="currentColor" y2="6"/><text fill="currentColor" y="9" dy="0.71em">350</text></g><g class="tick" opacity="1" transform="translate(605,0)"><line stroke="currentColor" y2="6"/><text fill="currentColor" y="9" dy="0.71em">400</text></g><text font-family="Arial, sans-serif" font-size="10" x="605" dy="-5" fill="black" font-weight="bold" text-anchor="end">People [mean]</text></g><g id="yAxis" transform="translate(0,0)" fill="none" font-size="10" font-family="sans-serif" text-anchor="end"><path class="domain" stroke="currentColor" d="M0,0V560"/><g class="tick" opacity="1" transform="translate(0,6.67828748777683)"><line stroke="currentColor" x2="-6"/><text fill="currentColor" x="-9" dy="0.32em">Aliya Kanji</text></g><g class="tick" opacity="1" transform="translate(0,20.011053951787716)"><line stroke="currentColor" x2="-6"/><text fill="currentColor" x="-9" dy="0.32em">Alpaca Farm</text></g><g class="tick" opacity="1" transform="translate(0,33.343820415798604)"><line stroke="currentColor" x2="-6"/><text fill="currentColor" x="-9" dy="0.32em">Blair Arch</text></g><g class="tick" opacity="1" transform="translate(0,46.676586879809484)"><line stroke="currentColor" x2="-6"/><text fill="currentColor" x="-9" dy="0.32em">Boulder Classroom</text></g><g class="tick" opacity="1" transform="translate(0,60.00935334382037)"><line stroke="currentColor" x2="-6"/><text fill="currentColor" x="-9" dy="0.32em">Broadway</text></g><g class="tick" opacity="1" transform="translate(0,73.34211980783125)"><line stroke="currentColor" x2="-6"/><text fill="currentColor" x="-9" dy="0.32em">Butler Basement</text></g><g class="tick" opacity="1" transform="translate(0,86.67488627184214)"><line stroke="currentColor" x2="-6"/><text fill="currentColor" x="-9" dy="0.32em">COS Classroom</text></g><g class="tick" opacity="1" transform="translate(0,100.00765273585303)"><line stroke="currentColor" x2="-6"/><text fill="currentColor" x="-9" dy="0.32em">CVS</text></g><g class="tick" opacity="1" transform="translate(0,113.34041919986392)"><line stroke="currentColor" x2="-6"/><text fill="currentColor" x="-9" dy="0.32em">Car</text></g><g class="tick" opacity="1" transform="translate(0,126.6731856638748)"><line stroke="currentColor" x2="-6"/><text fill="currentColor" x="-9" dy="0.32em">Castle Rock</text></g><g class="tick" opacity="1" transform="translate(0,140.00595212788568)"><line stroke="currentColor" x2="-6"/><text fill="currentColor" x="-9" dy="0.32em">Dillion Gym</text></g><g class="tick" opacity="1" transform="translate(0,153.33871859189657)"><line stroke="currentColor" x2="-6"/><text fill="currentColor" x="-9" dy="0.32em">Dorm</text></g><g class="tick" opacity="1" transform="translate(0,166.67148505590745)"><line stroke="currentColor" x2="-6"/><text fill="currentColor" x="-9" dy="0.32em">East Pyne Classroom</text></g><g class="tick" opacity="1" transform="translate(0,180.00425151991834)"><line stroke="currentColor" x2="-6"/><text fill="currentColor" x="-9" dy="0.32em">Einstein Hall</text></g><g class="tick" opacity="1" transform="translate(0,193.33701798392923)"><line stroke="currentColor" x2="-6"/><text fill="currentColor" x="-9" dy="0.32em">Firestone</text></g><g class="tick" opacity="1" transform="translate(0,206.66978444794012)"><line stroke="currentColor" x2="-6"/><text fill="currentColor" x="-9" dy="0.32em">Forbes Dining Hall</text></g><g class="tick" opacity="1" transform="translate(0,220.002550911951)"><line stroke="currentColor" x2="-6"/><text fill="currentColor" x="-9" dy="0.32em">Frist </text></g><g class="tick" opacity="1" transform="translate(0,233.3353173759619)"><line stroke="currentColor" x2="-6"/><text fill="currentColor" x="-9" dy="0.32em">FunnyPlus</text></g><g class="tick" opacity="1" transform="translate(0,246.66808383997278)"><line stroke="currentColor" x2="-6"/><text fill="currentColor" x="-9" dy="0.32em">Icahn Laboratory</text></g><g class="tick" opacity="1" transform="translate(0,260.00085030398367)"><line stroke="currentColor" x2="-6"/><text fill="currentColor" x="-9" dy="0.32em">Joline Dorm</text></g><g class="tick" opacity="1" transform="translate(0,273.33361676799456)"><line stroke="currentColor" x2="-6"/><text fill="currentColor" x="-9" dy="0.32em">Kung Fu Tea</text></g><g class="tick" opacity="1" transform="translate(0,286.66638323200544)"><line stroke="currentColor" x2="-6"/><text fill="currentColor" x="-9" dy="0.32em">Laojie Hotpot</text></g><g class="tick" opacity="1" transform="translate(0,299.99914969601633)"><line stroke="currentColor" x2="-6"/><text fill="currentColor" x="-9" dy="0.32em">Mathey Common Room</text></g><g class="tick" opacity="1" transform="translate(0,313.3319161600272)"><line stroke="currentColor" x2="-6"/><text fill="currentColor" x="-9" dy="0.32em">Mathey Courtyard</text></g><g class="tick" opacity="1" transform="translate(0,326.6646826240381)"><line stroke="currentColor" x2="-6"/><text fill="currentColor" x="-9" dy="0.32em">Mccarter Theatre</text></g><g class="tick" opacity="1" transform="translate(0,339.997449088049)"><line stroke="currentColor" x2="-6"/><text fill="currentColor" x="-9" dy="0.32em">Mccosh 50</text></g><g class="tick" opacity="1" transform="translate(0,353.3302155520599)"><line stroke="currentColor" x2="-6"/><text fill="currentColor" x="-9" dy="0.32em">Mika Sushi</text></g><g class="tick" opacity="1" transform="translate(0,366.66298201607077)"><line stroke="currentColor" x2="-6"/><text fill="currentColor" x="-9" dy="0.32em">Murphy Studio</text></g><g class="tick" opacity="1" transform="translate(0,379.99574848008166)"><line stroke="currentColor" x2="-6"/><text fill="currentColor" x="-9" dy="0.32em">Nassau Hall</text></g><g class="tick" opacity="1" transform="translate(0,393.32851494409255)"><line stroke="currentColor" x2="-6"/><text fill="currentColor" x="-9" dy="0.32em">Pizza @Yale</text></g><g class="tick" opacity="1" transform="translate(0,406.66128140810343)"><line stroke="currentColor" x2="-6"/><text fill="currentColor" x="-9" dy="0.32em">SPIA Fountain</text></g><g class="tick" opacity="1" transform="translate(0,419.9940478721143)"><line stroke="currentColor" x2="-6"/><text fill="currentColor" x="-9" dy="0.32em">Sinclair's Backyard</text></g><g class="tick" opacity="1" transform="translate(0,433.3268143361252)"><line stroke="currentColor" x2="-6"/><text fill="currentColor" x="-9" dy="0.32em">Tea Room</text></g><g class="tick" opacity="1" transform="translate(0,446.6595808001361)"><line stroke="currentColor" x2="-6"/><text fill="currentColor" x="-9" dy="0.32em">United Aircraft</text></g><g class="tick" opacity="1" transform="translate(0,459.992347264147)"><line stroke="currentColor" x2="-6"/><text fill="currentColor" x="-9" dy="0.32em">Webster Hall</text></g><g class="tick" opacity="1" transform="translate(0,473.3251137281579)"><line stroke="currentColor" x2="-6"/><text fill="currentColor" x="-9" dy="0.32em">Whitman Common Room</text></g><g class="tick" opacity="1" transform="translate(0,486.65788019216876)"><line stroke="currentColor" x2="-6"/><text fill="currentColor" x="-9" dy="0.32em">Whitman Courtyard</text></g><g class="tick" opacity="1" transform="translate(0,499.99064665617965)"><line stroke="currentColor" x2="-6"/><text fill="currentColor" x="-9" dy="0.32em">Whitman Dining Hall</text></g><g class="tick" opacity="1" transform="translate(0,513.3234131201905)"><line stroke="currentColor" x2="-6"/><text fill="currentColor" x="-9" dy="0.32em">Whitman Dorm</text></g><g class="tick" opacity="1" transform="translate(0,526.6561795842014)"><line stroke="currentColor" x2="-6"/><text fill="currentColor" x="-9" dy="0.32em">Whitman Studio</text></g><g class="tick" opacity="1" transform="translate(0,539.9889460482123)"><line stroke="currentColor" x2="-6"/><text fill="currentColor" x="-9" dy="0.32em">Yeh Common Room</text></g><g class="tick" opacity="1" transform="translate(0,553.3217125122231)"><line stroke="currentColor" x2="-6"/><text fill="currentColor" x="-9" dy="0.32em">Yeh Dining Hall</text></g><text font-family="Arial, sans-serif" font-size="10" x="4" fill="black" font-weight="bold" text-anchor="start" dominant-baseline="hanging">Location</text></g></g><text y="4" x="4" style="font-family: Arial, sans-serif; font-size: 12px; fill: black; font-weight: bold; dominant-baseline: hanging;"/></g></g></svg>