<?xml version="1.0" encoding="UTF-8"?>
<svg id="Layer_1" data-name="Layer 1" xmlns="http://www.w3.org/2000/svg" xmlns:xlink="http://www.w3.org/1999/xlink" viewBox="0 0 847.9 1245.62">
  <defs>
    <style>
      .cls-1, .cls-2, .cls-3, .cls-4, .cls-5 {
        fill: none;
      }

      .cls-6, .cls-7, .cls-8, .cls-9, .cls-10, .cls-11, .cls-12, .cls-13, .cls-14 {
        fill: #010101;
        isolation: isolate;
      }

      .cls-6, .cls-8, .cls-10 {
        font-size: 15.64px;
      }

      .cls-6, .cls-9, .cls-12, .cls-13 {
        font-family: Arial-BoldMT, Arial;
      }

      .cls-15 {
        clip-path: url(#clippath);
      }

      .cls-16 {
        fill: #f57f20;
      }

      .cls-17 {
        fill: #f3f9fd;
      }

      .cls-18 {
        fill: #f6fafe;
      }

      .cls-19 {
        fill: #f7fcfe;
      }

      .cls-20 {
        fill: #f2f7fc;
      }

      .cls-21 {
        fill: #69abd4;
      }

      .cls-22 {
        fill: #ebf3fb;
      }

      .cls-23 {
        fill: #eaf2fb;
      }

      .cls-24 {
        fill: #e9f2fa;
      }

      .cls-25 {
        fill: #f4f9fd;
      }

      .cls-26 {
        fill: #f5fbfe;
      }

      .cls-27 {
        fill: #fbbc04;
      }

      .cls-28 {
        fill: #e7f0fa;
      }

      .cls-29 {
        fill: #ea4335;
      }

      .cls-30 {
        fill: #e3eef9;
      }

      .cls-31 {
        fill: #e8f1fa;
      }

      .cls-32 {
        fill: #edf3fb;
      }

      .cls-33 {
        fill: #edf4fb;
      }

      .cls-34 {
        fill: #fff;
      }

      .cls-35 {
        fill: #f1f6fc;
      }

      .cls-36 {
        fill: #f1f7fc;
      }

      .cls-37 {
        fill: #e5eef9;
      }

      .cls-38 {
        fill: #ecf4fb;
      }

      .cls-39 {
        fill: #e2ecf8;
      }

      .cls-40 {
        fill: #eff6fc;
      }

      .cls-41 {
        fill: #e4effa;
      }

      .cls-42 {
        fill: #9268ad;
      }

      .cls-43 {
        fill: #64a9d3;
      }

      .cls-44 {
        fill: #7eb8d9;
      }

      .cls-45 {
        fill: #67aad3;
      }

      .cls-46 {
        fill: #6bacd4;
      }

      .cls-47 {
        fill: #97c5e0;
      }

      .cls-48 {
        fill: #9ec9e2;
      }

      .cls-49 {
        fill: #91c2de;
      }

      .cls-50 {
        fill: #83badb;
      }

      .cls-51 {
        fill: #89bedc;
      }

      .cls-52 {
        fill: #9bc7e1;
      }

      .cls-53 {
        fill: #9dc9e2;
      }

      .cls-54 {
        fill: #a0cae3;
      }

      .cls-55 {
        fill: #8fc1dd;
      }

      .cls-56 {
        fill: #c2daec;
      }

      .cls-57 {
        fill: #b5d4e9;
      }

      .cls-58 {
        fill: #b3d2e7;
      }

      .cls-59 {
        fill: #c1d9ed;
      }

      .cls-60 {
        fill: #b6d5e9;
      }

      .cls-61 {
        fill: #3280bd;
      }

      .cls-62 {
        fill: #3180bc;
      }

      .cls-63 {
        fill: #317ebb;
      }

      .cls-64 {
        fill: #2fa148;
      }

      .cls-65 {
        fill: #8dc1dd;
      }

      .cls-66 {
        fill: #b9d6ea;
      }

      .cls-67 {
        fill: #8bbfdd;
      }

      .cls-68 {
        fill: #b7d5e9;
      }

      .cls-69 {
        fill: #cee1f1;
      }

      .cls-70 {
        fill: #cde0f0;
      }

      .cls-71 {
        fill: #b0d2e6;
      }

      .cls-72 {
        fill: #a5cde3;
      }

      .cls-73 {
        fill: #a9cee5;
      }

      .cls-74 {
        fill: #bcd7eb;
      }

      .cls-75 {
        fill: #acd0e6;
      }

      .cls-76 {
        fill: #a3cce3;
      }

      .cls-77 {
        fill: #a3cbe3;
      }

      .cls-78 {
        fill: #bbd6eb;
      }

      .cls-79 {
        fill: #bfd9ec;
      }

      .cls-80 {
        fill: #d6e6f3;
      }

      .cls-81 {
        fill: #bed8eb;
      }

      .cls-82 {
        fill: #ccdff0;
      }

      .cls-83 {
        fill: #cbdeef;
      }

      .cls-84 {
        fill: #c6dcee;
      }

      .cls-85 {
        fill: #c9ddee;
      }

      .cls-86 {
        fill: #dce9f5;
      }

      .cls-87 {
        fill: #d2e3f2;
      }

      .cls-88 {
        fill: #d1e3f3;
      }

      .cls-89 {
        fill: #c3dbed;
      }

      .cls-90 {
        fill: #d0e2f1;
      }

      .cls-91 {
        fill: #d0e1f2;
      }

      .cls-92 {
        fill: #abcee5;
      }

      .cls-93 {
        fill: #d62a28;
      }

      .cls-94 {
        fill: #d3e4f3;
      }

      .cls-95 {
        fill: #dbe8f5;
      }

      .cls-96 {
        fill: #d9e8f7;
      }

      .cls-97 {
        fill: #d8e7f5;
      }

      .cls-98 {
        fill: #dfeaf6;
      }

      .cls-99 {
        fill: #cadef0;
      }

      .cls-100 {
        fill: #aed1e6;
      }

      .cls-101 {
        fill: #c5dbed;
      }

      .cls-102 {
        fill: #dae7f5;
      }

      .cls-103 {
        fill: #e1ecf8;
      }

      .cls-104 {
        fill: #e0ebf8;
      }

      .cls-105 {
        fill: #c7dcee;
      }

      .cls-106 {
        fill: #dee9f7;
      }

      .cls-107 {
        fill: #d4e5f3;
      }

      .cls-108 {
        fill: #d5e5f5;
      }

      .cls-109 {
        fill: #a7cde4;
      }

      .cls-110 {
        fill: #2470b3;
      }

      .cls-111 {
        fill: #2473b4;
      }

      .cls-112 {
        fill: #124b8e;
      }

      .cls-113 {
        fill: #0f559d;
      }

      .cls-114 {
        fill: #0f569e;
      }

      .cls-115 {
        fill: #1662a8;
      }

      .cls-116 {
        fill: #213c75;
      }

      .cls-117 {
        fill: #184787;
      }

      .cls-118 {
        fill: #1560a7;
      }

      .cls-119 {
        fill: #164989;
      }

      .cls-120 {
        fill: #1e6bb0;
      }

      .cls-121 {
        fill: #1e6cb0;
      }

      .cls-122 {
        fill: #203569;
      }

      .cls-123 {
        fill: #20366b;
      }

      .cls-124 {
        fill: #20376c;
      }

      .cls-125 {
        fill: #203e77;
      }

      .cls-126 {
        fill: #203e79;
      }

      .cls-127 {
        fill: #20386e;
      }

      .cls-128 {
        fill: #1f407c;
      }

      .cls-129 {
        fill: #1e427f;
      }

      .cls-130 {
        fill: #1e417e;
      }

      .cls-131 {
        fill: #12589f;
      }

      .cls-132 {
        fill: #1259a1;
      }

      .cls-133 {
        fill: #144a8c;
      }

      .cls-134 {
        fill: #2372b3;
      }

      .cls-135 {
        fill: #2278b5;
      }

      .cls-136 {
        fill: #206fb2;
      }

      .cls-137 {
        fill: #206eb1;
      }

      .cls-138 {
        fill: #213b72;
      }

      .cls-139 {
        fill: #213a70;
      }

      .cls-140 {
        fill: #0a549a;
      }

      .cls-141 {
        fill: #4190c6;
      }

      .cls-142 {
        fill: #4291c5;
      }

      .cls-143 {
        fill: #4285f4;
      }

      .cls-144 {
        fill: #3f8ec5;
      }

      .cls-145 {
        fill: #408ec3;
      }

      .cls-146 {
        fill: #074f94;
      }

      .cls-147 {
        fill: #145ca3;
      }

      .cls-148 {
        fill: #135da6;
      }

      .cls-149 {
        fill: #135ba2;
      }

      .cls-150 {
        fill: #0c5095;
      }

      .cls-151 {
        fill: #0c4e91;
      }

      .cls-152 {
        fill: #104c8f;
      }

      .cls-153 {
        fill: #1c6baf;
      }

      .cls-154 {
        fill: #1c68ae;
      }

      .cls-155 {
        fill: #1b67ac;
      }

      .cls-156 {
        fill: #1d4482;
      }

      .cls-157 {
        fill: #0d5196;
      }

      .cls-158 {
        fill: #3586c1;
      }

      .cls-159 {
        fill: #34a853;
      }

      .cls-160 {
        fill: #1965ac;
      }

      .cls-161 {
        fill: #194686;
      }

      .cls-162 {
        fill: #1864a9;
      }

      .cls-163 {
        fill: #1760a7;
      }

      .cls-164 {
        fill: #3d8dc4;
      }

      .cls-165 {
        fill: #3c8bc3;
      }

      .cls-166 {
        fill: #0d5299;
      }

      .cls-167 {
        fill: #1c4584;
      }

      .cls-168 {
        fill: #1964aa;
      }

      .cls-169 {
        fill: #1a4685;
      }

      .cls-170 {
        fill: #1a1a1a;
      }

      .cls-171 {
        fill: #93c3de;
      }

      .cls-172 {
        fill: #a2cbe3;
      }

      .cls-173 {
        fill: #6dadd5;
      }

      .cls-174 {
        fill: #6fafd5;
      }

      .cls-175 {
        fill: #70b0d6;
      }

      .cls-176 {
        fill: #95c4df;
      }

      .cls-177 {
        fill: #529bcb;
      }

      .cls-178 {
        fill: #99c6e0;
      }

      .cls-179 {
        fill: #87bddc;
      }

      .cls-180 {
        fill: #85bbdb;
      }

      .cls-181 {
        fill: #2977b7;
      }

      .cls-182 {
        fill: #63a7d2;
      }

      .cls-183 {
        fill: #61a6d1;
      }

      .cls-184 {
        fill: #2976b6;
      }

      .cls-185 {
        fill: #2979b8;
      }

      .cls-186 {
        fill: #549ecd;
      }

      .cls-187 {
        fill: #2c7ab8;
      }

      .cls-188 {
        fill: #4995c8;
      }

      .cls-189 {
        fill: #4794c7;
      }

      .cls-190 {
        fill: #4792c6;
      }

      .cls-191 {
        fill: #3482bd;
      }

      .cls-192 {
        fill: #3485c0;
      }

      .cls-193 {
        fill: #3788c1;
      }

      .cls-194 {
        fill: #3989c2;
      }

      .cls-195 {
        fill: #3a8ac3;
      }

      .cls-196 {
        fill: #3384bf;
      }

      .cls-197 {
        fill: #2675b5;
      }

      .cls-198 {
        fill: #59a1cf;
      }

      .cls-199 {
        fill: #57a0ce;
      }

      .cls-200 {
        fill: #569fcd;
      }

      .cls-201 {
        fill: #2e7dba;
      }

      .cls-202 {
        fill: #2d7bb9;
      }

      .cls-203 {
        fill: #60a5d1;
      }

      .cls-204 {
        fill: #4894c7;
      }

      .cls-205 {
        fill: #5ea4d0;
      }

      .cls-206 {
        fill: #529dcc;
      }

      .cls-207 {
        fill: #74b2d8;
      }

      .cls-208 {
        fill: #75b2d8;
      }

      .cls-209 {
        fill: #5ca3cf;
      }

      .cls-210 {
        fill: #77b4d8;
      }

      .cls-211 {
        fill: #4f99ca;
      }

      .cls-212 {
        fill: #80b9db;
      }

      .cls-213 {
        fill: #4c99c9;
      }

      .cls-214 {
        fill: #4c97c9;
      }

      .cls-215 {
        fill: #7bb6d9;
      }

      .cls-216 {
        fill: #757575;
      }

      .cls-217 {
        fill: #82bada;
      }

      .cls-218 {
        fill: #509acb;
      }

      .cls-219 {
        fill: #7ab5d8;
      }

      .cls-7, .cls-8, .cls-10, .cls-14 {
        font-family: ArialMT, Arial;
      }

      .cls-7, .cls-9, .cls-11, .cls-14 {
        font-size: 19.85px;
      }

      .cls-8 {
        letter-spacing: -.02em;
      }

      .cls-220 {
        clip-path: url(#clippath-1);
      }

      .cls-221 {
        clip-path: url(#clippath-4);
      }

      .cls-222 {
        clip-path: url(#clippath-3);
      }

      .cls-223 {
        clip-path: url(#clippath-2);
      }

      .cls-224 {
        clip-path: url(#clippath-7);
      }

      .cls-225 {
        clip-path: url(#clippath-8);
      }

      .cls-226 {
        clip-path: url(#clippath-6);
      }

      .cls-227 {
        clip-path: url(#clippath-5);
      }

      .cls-228 {
        clip-path: url(#clippath-9);
      }

      .cls-229 {
        clip-path: url(#clippath-20);
      }

      .cls-230 {
        clip-path: url(#clippath-21);
      }

      .cls-231 {
        clip-path: url(#clippath-24);
      }

      .cls-232 {
        clip-path: url(#clippath-23);
      }

      .cls-233 {
        clip-path: url(#clippath-22);
      }

      .cls-234 {
        clip-path: url(#clippath-25);
      }

      .cls-235 {
        clip-path: url(#clippath-27);
      }

      .cls-236 {
        clip-path: url(#clippath-26);
      }

      .cls-237 {
        clip-path: url(#clippath-14);
      }

      .cls-238 {
        clip-path: url(#clippath-13);
      }

      .cls-239 {
        clip-path: url(#clippath-12);
      }

      .cls-240 {
        clip-path: url(#clippath-10);
      }

      .cls-241 {
        clip-path: url(#clippath-15);
      }

      .cls-242 {
        clip-path: url(#clippath-17);
      }

      .cls-243 {
        clip-path: url(#clippath-16);
      }

      .cls-244 {
        clip-path: url(#clippath-19);
      }

      .cls-245 {
        clip-path: url(#clippath-11);
      }

      .cls-246 {
        clip-path: url(#clippath-18);
      }

      .cls-2 {
        stroke: rgba(0, 0, 0, 0);
        stroke-width: 2px;
      }

      .cls-2, .cls-3, .cls-4 {
        stroke-miterlimit: 10;
      }

      .cls-3 {
        stroke: #333;
      }

      .cls-4, .cls-5 {
        stroke: #ccc;
      }

      .cls-11 {
        font-family: MyriadPro-Regular, 'Myriad Pro';
      }

      .cls-12 {
        font-size: 18.77px;
      }

      .cls-13 {
        font-size: 23.82px;
      }

      .cls-14 {
        letter-spacing: -.02em;
      }
    </style>
    <clipPath id="clippath">
      <rect class="cls-1" x="118.35" y="838.52" width="701" height="352.9"/>
    </clipPath>
    <clipPath id="clippath-1">
      <rect class="cls-1" x="118.35" y="838.52" width="701" height="352.9"/>
    </clipPath>
    <clipPath id="clippath-2">
      <rect class="cls-1" x="118.35" y="838.52" width="701" height="352.9"/>
    </clipPath>
    <clipPath id="clippath-3">
      <rect class="cls-1" x="118.35" y="838.52" width="701" height="352.9"/>
    </clipPath>
    <clipPath id="clippath-4">
      <rect class="cls-1" x="118.35" y="838.52" width="701" height="352.9"/>
    </clipPath>
    <clipPath id="clippath-5">
      <rect class="cls-1" x="118.35" y="838.52" width="701" height="352.9"/>
    </clipPath>
    <clipPath id="clippath-6">
      <rect class="cls-1" x="118.35" y="838.52" width="701" height="352.9"/>
    </clipPath>
    <clipPath id="clippath-7">
      <rect class="cls-1" x="118.35" y="838.52" width="701" height="352.9"/>
    </clipPath>
    <clipPath id="clippath-8">
      <rect class="cls-1" x="118.35" y="838.52" width="701" height="352.9"/>
    </clipPath>
    <clipPath id="clippath-9">
      <rect class="cls-1" x="118.35" y="838.52" width="701" height="352.9"/>
    </clipPath>
    <clipPath id="clippath-10">
      <rect class="cls-1" x="118.35" y="838.52" width="701" height="352.9"/>
    </clipPath>
    <clipPath id="clippath-11">
      <rect class="cls-1" x="118.35" y="838.52" width="701" height="352.9"/>
    </clipPath>
    <clipPath id="clippath-12">
      <rect class="cls-1" x="118.35" y="838.52" width="701" height="352.9"/>
    </clipPath>
    <clipPath id="clippath-13">
      <rect class="cls-1" x="118.35" y="838.52" width="701" height="352.9"/>
    </clipPath>
    <clipPath id="clippath-14">
      <rect class="cls-1" x="118.35" y="838.52" width="701" height="352.9"/>
    </clipPath>
    <clipPath id="clippath-15">
      <rect class="cls-1" x="118.35" y="838.52" width="701" height="352.9"/>
    </clipPath>
    <clipPath id="clippath-16">
      <rect class="cls-1" x="118.35" y="838.52" width="701" height="352.9"/>
    </clipPath>
    <clipPath id="clippath-17">
      <rect class="cls-1" x="118.35" y="838.52" width="701" height="352.9"/>
    </clipPath>
    <clipPath id="clippath-18">
      <rect class="cls-1" x="118.35" y="838.52" width="701" height="352.9"/>
    </clipPath>
    <clipPath id="clippath-19">
      <rect class="cls-1" x="118.35" y="838.52" width="701" height="352.9"/>
    </clipPath>
    <clipPath id="clippath-20">
      <rect class="cls-1" x="118.35" y="838.52" width="701" height="352.9"/>
    </clipPath>
    <clipPath id="clippath-21">
      <rect class="cls-1" x="118.35" y="838.52" width="701" height="352.9"/>
    </clipPath>
    <clipPath id="clippath-22">
      <rect class="cls-1" x="118.35" y="838.52" width="701" height="352.9"/>
    </clipPath>
    <clipPath id="clippath-23">
      <rect class="cls-1" x="118.35" y="838.52" width="701" height="352.9"/>
    </clipPath>
    <clipPath id="clippath-24">
      <rect class="cls-1" x="118.35" y="838.52" width="701" height="352.9"/>
    </clipPath>
    <clipPath id="clippath-25">
      <rect class="cls-1" x="118.35" y="838.52" width="701" height="352.9"/>
    </clipPath>
    <clipPath id="clippath-26">
      <rect class="cls-1" x="118.35" y="838.52" width="701" height="352.9"/>
    </clipPath>
    <clipPath id="clippath-27">
      <rect class="cls-1" x="118.35" y="838.52" width="701" height="352.9"/>
    </clipPath>
  </defs>
  <g>
    <rect id="background" class="cls-34" x="11.5" width="736" height="397"/>
    <g id="visualization">
      <g id="Sat_Jan_01_2022_00:00:00_GMT-0500_Eastern_Standard_Time_" data-name="Sat Jan 01 2022 00:00:00 GMT-0500 Eastern Standard Time ">
        <rect class="cls-64" x="112.4" y="176.1" width="24.8" height="24.8"/>
        <rect class="cls-64" x="112.4" y="202.9" width="24.8" height="24.8"/>
        <rect class="cls-64" x="112.4" y="229.5" width="24.8" height="24.8"/>
        <rect class="cls-42" x="112.4" y="256.3" width="24.8" height="24.8"/>
        <rect class="cls-135" x="139" y="95.9" width="24.8" height="24.8"/>
        <rect class="cls-64" x="139" y="122.7" width="24.8" height="24.8"/>
        <rect class="cls-64" x="139" y="149.3" width="24.8" height="24.8"/>
        <rect class="cls-64" x="139" y="176.1" width="24.8" height="24.8"/>
        <rect class="cls-64" x="139" y="202.9" width="24.8" height="24.8"/>
        <rect class="cls-64" x="139" y="229.5" width="24.8" height="24.8"/>
        <rect class="cls-16" x="139" y="256.3" width="24.8" height="24.8"/>
        <rect class="cls-64" x="165.8" y="95.9" width="24.8" height="24.8"/>
        <rect class="cls-42" x="165.8" y="122.7" width="24.8" height="24.8"/>
        <rect class="cls-42" x="165.8" y="149.3" width="24.8" height="24.8"/>
        <rect class="cls-42" x="165.8" y="176.1" width="24.8" height="24.8"/>
        <rect class="cls-42" x="165.8" y="202.9" width="24.8" height="24.8"/>
        <rect class="cls-64" x="165.8" y="229.5" width="24.8" height="24.8"/>
        <rect class="cls-64" x="165.8" y="256.3" width="24.8" height="24.8"/>
        <rect class="cls-64" x="192.6" y="95.9" width="24.8" height="24.8"/>
        <rect class="cls-42" x="192.6" y="122.7" width="24.8" height="24.8"/>
        <rect class="cls-64" x="192.6" y="149.3" width="24.8" height="24.8"/>
        <rect class="cls-64" x="192.6" y="176.1" width="24.8" height="24.8"/>
        <rect class="cls-64" x="192.6" y="202.9" width="24.8" height="24.8"/>
        <rect class="cls-64" x="192.6" y="229.5" width="24.8" height="24.8"/>
        <rect class="cls-64" x="192.6" y="256.3" width="24.8" height="24.8"/>
        <rect class="cls-42" x="219.2" y="95.9" width="24.8" height="24.8"/>
        <rect class="cls-135" x="219.2" y="122.7" width="24.8" height="24.8"/>
        <rect class="cls-42" x="219.2" y="149.3" width="24.8" height="24.8"/>
        <rect class="cls-42" x="219.2" y="176.1" width="24.8" height="24.8"/>
        <rect class="cls-64" x="219.2" y="202.9" width="24.8" height="24.8"/>
        <rect class="cls-64" x="219.2" y="229.5" width="24.8" height="24.8"/>
        <rect class="cls-42" x="219.2" y="256.3" width="24.8" height="24.8"/>
        <rect class="cls-64" x="246" y="95.9" width="24.8" height="24.8"/>
        <rect class="cls-42" x="246" y="122.7" width="24.8" height="24.8"/>
        <rect class="cls-64" x="246" y="176.1" width="24.8" height="24.8"/>
        <rect class="cls-64" x="246" y="202.9" width="24.8" height="24.8"/>
        <rect class="cls-64" x="246" y="229.5" width="24.8" height="24.8"/>
        <rect class="cls-64" x="272.8" y="95.9" width="24.8" height="24.8"/>
        <rect class="cls-135" x="272.8" y="149.3" width="24.8" height="24.8"/>
        <rect class="cls-64" x="272.8" y="176.1" width="24.8" height="24.8"/>
        <rect class="cls-64" x="272.8" y="202.9" width="24.8" height="24.8"/>
        <rect class="cls-42" x="272.8" y="229.5" width="24.8" height="24.8"/>
        <rect class="cls-64" x="272.8" y="256.3" width="24.8" height="24.8"/>
        <rect class="cls-64" x="299.4" y="122.7" width="24.8" height="24.8"/>
        <rect class="cls-42" x="299.4" y="149.3" width="24.8" height="24.8"/>
        <rect class="cls-42" x="299.4" y="176.1" width="24.8" height="24.8"/>
        <rect class="cls-42" x="299.4" y="202.9" width="24.8" height="24.8"/>
        <rect class="cls-64" x="299.4" y="229.5" width="24.8" height="24.8"/>
        <rect class="cls-64" x="299.4" y="256.3" width="24.8" height="24.8"/>
        <rect class="cls-64" x="326.2" y="95.9" width="24.8" height="24.8"/>
        <rect class="cls-42" x="326.2" y="122.7" width="24.8" height="24.8"/>
        <rect class="cls-64" x="326.2" y="149.3" width="24.8" height="24.8"/>
        <rect class="cls-42" x="326.2" y="176.1" width="24.8" height="24.8"/>
        <rect class="cls-42" x="326.2" y="202.9" width="24.8" height="24.8"/>
        <rect class="cls-42" x="326.2" y="256.3" width="24.8" height="24.8"/>
        <rect class="cls-42" x="352.8" y="95.9" width="24.8" height="24.8"/>
        <rect class="cls-64" x="352.8" y="149.3" width="24.8" height="24.8"/>
        <rect class="cls-64" x="352.8" y="176.1" width="24.8" height="24.8"/>
        <rect class="cls-64" x="352.8" y="202.9" width="24.8" height="24.8"/>
        <rect class="cls-64" x="352.8" y="229.5" width="24.8" height="24.8"/>
        <rect class="cls-42" x="352.8" y="256.3" width="24.8" height="24.8"/>
        <rect class="cls-16" x="379.6" y="149.3" width="24.8" height="24.8"/>
        <rect class="cls-64" x="379.6" y="202.9" width="24.8" height="24.8"/>
        <rect class="cls-93" x="379.6" y="229.5" width="24.8" height="24.8"/>
        <rect class="cls-64" x="379.6" y="256.3" width="24.8" height="24.8"/>
        <rect class="cls-64" x="406.4" y="95.9" width="24.8" height="24.8"/>
        <rect class="cls-64" x="406.4" y="122.7" width="24.8" height="24.8"/>
        <rect class="cls-16" x="406.4" y="149.3" width="24.8" height="24.8"/>
        <rect class="cls-16" x="406.4" y="176.1" width="24.8" height="24.8"/>
        <rect class="cls-16" x="406.4" y="202.9" width="24.8" height="24.8"/>
        <rect class="cls-64" x="406.4" y="229.5" width="24.8" height="24.8"/>
        <rect class="cls-42" x="406.4" y="256.3" width="24.8" height="24.8"/>
        <rect class="cls-42" x="433" y="95.9" width="24.8" height="24.8"/>
        <rect class="cls-64" x="433" y="149.3" width="24.8" height="24.8"/>
        <rect class="cls-93" x="433" y="229.5" width="24.8" height="24.8"/>
        <rect class="cls-93" x="433" y="256.3" width="24.8" height="24.8"/>
        <rect class="cls-42" x="459.8" y="149.3" width="24.8" height="24.8"/>
        <rect class="cls-42" x="459.8" y="176.1" width="24.8" height="24.8"/>
        <rect class="cls-42" x="459.8" y="202.9" width="24.8" height="24.8"/>
        <rect class="cls-42" x="459.8" y="229.5" width="24.8" height="24.8"/>
        <rect class="cls-42" x="486.4" y="95.9" width="24.8" height="24.8"/>
        <text class="cls-9" transform="translate(56.71 93.3)"><tspan x="0" y="0">2022</tspan></text>
        <g>
          <text class="cls-7" transform="translate(62.26 112.61)"><tspan x="0" y="0">Mon</tspan></text>
          <text class="cls-14" transform="translate(67.4 139.33)"><tspan x="0" y="0">T</tspan></text>
          <text class="cls-7" transform="translate(78.79 139.33)"><tspan x="0" y="0">ue</tspan></text>
          <text class="cls-7" transform="translate(60.41 166.05)"><tspan x="0" y="0">W</tspan></text>
          <text class="cls-7" transform="translate(78.79 166.05)"><tspan x="0" y="0">ed</tspan></text>
          <text class="cls-7" transform="translate(66.67 192.77)"><tspan x="0" y="0">Thu</tspan></text>
          <text class="cls-7" transform="translate(77.72 219.49)"><tspan x="0" y="0">Fri</tspan></text>
          <text class="cls-7" transform="translate(71.07 246.22)"><tspan x="0" y="0">Sat</tspan></text>
          <text class="cls-7" transform="translate(65.55 272.94)"><tspan x="0" y="0">Sun</tspan></text>
        </g>
        <g>
          <g>
            <path class="cls-5" d="M245,94.9v106.8h-26.8v80.2"/>
            <text class="cls-7" transform="translate(111.36 89.19)"><tspan x="0" y="0">Sep</tspan></text>
          </g>
          <g>
            <path class="cls-5" d="M351.8,94.9v187"/>
            <text class="cls-7" transform="translate(244.97 89.19)"><tspan x="0" y="0">Oct</tspan></text>
          </g>
          <g>
            <path class="cls-5" d="M485.4,94.9v53.4h-26.8v133.6"/>
            <text class="cls-7" transform="translate(351.85 89.19)"><tspan x="0" y="0">Nov</tspan></text>
          </g>
        </g>
      </g>
    </g>
    <g id="legend">
      <g>
        <g>
          <g>
            <rect class="cls-135" x="586.2" y="121.9" width="29.8" height="29.8"/>
            <text class="cls-7" transform="translate(625.93 146.7)"><tspan x="0" y="0">Excited</tspan></text>
          </g>
          <g>
            <rect class="cls-16" x="586.2" y="162.6" width="29.8" height="29.8"/>
            <text class="cls-7" transform="translate(625.93 187.4)"><tspan x="0" y="0">Exhausted</tspan></text>
          </g>
          <g>
            <rect class="cls-64" x="586.2" y="203.3" width="29.8" height="29.8"/>
            <text class="cls-7" transform="translate(625.93 228.09)"><tspan x="0" y="0">Happy</tspan></text>
          </g>
          <g>
            <rect class="cls-93" x="586.2" y="244" width="29.8" height="29.8"/>
            <text class="cls-7" transform="translate(625.93 268.78)"><tspan x="0" y="0">Hungry</tspan></text>
          </g>
          <g>
            <rect class="cls-42" x="586.2" y="284.6" width="29.8" height="29.8"/>
            <text class="cls-14" transform="translate(625.93 309.47)"><tspan x="0" y="0">T</tspan></text>
            <text class="cls-7" transform="translate(637.32 309.47)"><tspan x="0" y="0">ired</tspan></text>
          </g>
        </g>
        <text class="cls-13" transform="translate(586.22 91.12)"><tspan x="0" y="0">Mood</tspan></text>
      </g>
    </g>
    <text class="cls-11" transform="translate(486.45 89.82)"><tspan x="0" y="0">D</tspan></text>
    <text class="cls-11" transform="translate(499.75 89.82)"><tspan x="0" y="0">ec</tspan></text>
  </g>
  <g>
    <rect id="background-2" class="cls-34" y="443" width="847.9" height="256.2"/>
    <g id="visualization-2">
      <g id="Sat_Jan_01_2022_00:00:00_GMT-0500_Eastern_Standard_Time_-2" data-name="Sat Jan 01 2022 00:00:00 GMT-0500 Eastern Standard Time -2">
        <rect class="cls-169" x="87.6" y="579.9" width="19.7" height="19.7"/>
        <rect class="cls-169" x="87.6" y="601" width="19.7" height="19.7"/>
        <rect class="cls-122" x="87.6" y="622.3" width="19.7" height="19.7"/>
        <rect class="cls-122" x="87.6" y="643.5" width="19.7" height="19.7"/>
        <rect class="cls-122" x="108.9" y="516.2" width="19.7" height="19.7"/>
        <rect class="cls-78" x="108.9" y="537.5" width="19.7" height="19.7"/>
        <rect class="cls-122" x="108.9" y="558.6" width="19.7" height="19.7"/>
        <rect class="cls-186" x="108.9" y="579.9" width="19.7" height="19.7"/>
        <rect class="cls-77" x="108.9" y="601" width="19.7" height="19.7"/>
        <rect class="cls-95" x="108.9" y="622.3" width="19.7" height="19.7"/>
        <rect class="cls-78" x="108.9" y="643.5" width="19.7" height="19.7"/>
        <rect class="cls-145" x="130" y="516.2" width="19.7" height="19.7"/>
        <rect class="cls-95" x="130" y="537.5" width="19.7" height="19.7"/>
        <rect class="cls-23" x="130" y="558.6" width="19.7" height="19.7"/>
        <rect class="cls-122" x="130" y="579.9" width="19.7" height="19.7"/>
        <rect class="cls-19" x="130" y="601" width="19.7" height="19.7"/>
        <rect class="cls-70" x="130" y="622.3" width="19.7" height="19.7"/>
        <rect class="cls-51" x="130" y="643.5" width="19.7" height="19.7"/>
        <rect class="cls-70" x="151.2" y="516.2" width="19.7" height="19.7"/>
        <rect class="cls-19" x="151.2" y="537.5" width="19.7" height="19.7"/>
        <rect class="cls-186" x="151.2" y="558.6" width="19.7" height="19.7"/>
        <rect class="cls-19" x="151.2" y="579.9" width="19.7" height="19.7"/>
        <rect class="cls-122" x="151.2" y="601" width="19.7" height="19.7"/>
        <rect class="cls-77" x="151.2" y="622.3" width="19.7" height="19.7"/>
        <rect class="cls-122" x="151.2" y="643.5" width="19.7" height="19.7"/>
        <rect class="cls-23" x="172.4" y="516.2" width="19.7" height="19.7"/>
        <rect class="cls-122" x="172.4" y="537.5" width="19.7" height="19.7"/>
        <rect class="cls-70" x="172.4" y="558.6" width="19.7" height="19.7"/>
        <rect class="cls-51" x="172.4" y="579.9" width="19.7" height="19.7"/>
        <rect class="cls-78" x="172.4" y="601" width="19.7" height="19.7"/>
        <rect class="cls-122" x="172.4" y="622.3" width="19.7" height="19.7"/>
        <rect class="cls-23" x="172.4" y="643.5" width="19.7" height="19.7"/>
        <rect class="cls-122" x="193.6" y="516.2" width="19.7" height="19.7"/>
        <rect class="cls-95" x="193.6" y="537.5" width="19.7" height="19.7"/>
        <rect class="cls-145" x="193.6" y="579.9" width="19.7" height="19.7"/>
        <rect class="cls-78" x="193.6" y="601" width="19.7" height="19.7"/>
        <rect class="cls-95" x="193.6" y="622.3" width="19.7" height="19.7"/>
        <rect class="cls-122" x="214.9" y="516.2" width="19.7" height="19.7"/>
        <rect class="cls-169" x="214.9" y="558.6" width="19.7" height="19.7"/>
        <rect class="cls-51" x="214.9" y="579.9" width="19.7" height="19.7"/>
        <rect class="cls-78" x="214.9" y="601" width="19.7" height="19.7"/>
        <rect class="cls-122" x="214.9" y="622.3" width="19.7" height="19.7"/>
        <rect class="cls-78" x="214.9" y="643.5" width="19.7" height="19.7"/>
        <rect class="cls-77" x="236" y="537.5" width="19.7" height="19.7"/>
        <rect class="cls-70" x="236" y="558.6" width="19.7" height="19.7"/>
        <rect class="cls-70" x="236" y="579.9" width="19.7" height="19.7"/>
        <rect class="cls-70" x="236" y="601" width="19.7" height="19.7"/>
        <rect class="cls-77" x="236" y="622.3" width="19.7" height="19.7"/>
        <rect class="cls-114" x="236" y="643.5" width="19.7" height="19.7"/>
        <rect class="cls-51" x="257.3" y="516.2" width="19.7" height="19.7"/>
        <rect class="cls-51" x="257.3" y="537.5" width="19.7" height="19.7"/>
        <rect class="cls-78" x="257.3" y="558.6" width="19.7" height="19.7"/>
        <rect class="cls-78" x="257.3" y="579.9" width="19.7" height="19.7"/>
        <rect class="cls-70" x="257.3" y="601" width="19.7" height="19.7"/>
        <rect class="cls-19" x="257.3" y="643.5" width="19.7" height="19.7"/>
        <rect class="cls-173" x="278.4" y="516.2" width="19.7" height="19.7"/>
        <rect class="cls-23" x="278.4" y="558.6" width="19.7" height="19.7"/>
        <rect class="cls-114" x="278.4" y="579.9" width="19.7" height="19.7"/>
        <rect class="cls-51" x="278.4" y="601" width="19.7" height="19.7"/>
        <rect class="cls-78" x="278.4" y="622.3" width="19.7" height="19.7"/>
        <rect class="cls-78" x="278.4" y="643.5" width="19.7" height="19.7"/>
        <rect class="cls-19" x="299.7" y="558.6" width="19.7" height="19.7"/>
        <rect class="cls-114" x="299.7" y="601" width="19.7" height="19.7"/>
        <rect class="cls-122" x="299.7" y="622.3" width="19.7" height="19.7"/>
        <rect class="cls-122" x="299.7" y="643.5" width="19.7" height="19.7"/>
        <rect class="cls-122" x="320.9" y="516.2" width="19.7" height="19.7"/>
        <rect class="cls-70" x="320.9" y="537.5" width="19.7" height="19.7"/>
        <rect class="cls-202" x="320.9" y="558.6" width="19.7" height="19.7"/>
        <rect class="cls-145" x="320.9" y="579.9" width="19.7" height="19.7"/>
        <rect class="cls-145" x="320.9" y="601" width="19.7" height="19.7"/>
        <rect class="cls-122" x="320.9" y="622.3" width="19.7" height="19.7"/>
        <rect class="cls-19" x="320.9" y="643.5" width="19.7" height="19.7"/>
        <rect class="cls-19" x="342.1" y="516.2" width="19.7" height="19.7"/>
        <rect class="cls-77" x="342.1" y="558.6" width="19.7" height="19.7"/>
        <rect class="cls-70" x="342.1" y="622.3" width="19.7" height="19.7"/>
        <rect class="cls-122" x="342.1" y="643.5" width="19.7" height="19.7"/>
        <rect class="cls-19" x="363.3" y="558.6" width="19.7" height="19.7"/>
        <rect class="cls-77" x="363.3" y="579.9" width="19.7" height="19.7"/>
        <rect class="cls-95" x="363.3" y="601" width="19.7" height="19.7"/>
        <rect class="cls-70" x="363.3" y="622.3" width="19.7" height="19.7"/>
        <rect class="cls-145" x="384.4" y="516.2" width="19.7" height="19.7"/>
        <text class="cls-6" transform="translate(35.12 516.54)"><tspan x="0" y="0">2022</tspan></text>
        <g>
          <text class="cls-10" transform="translate(39.49 531.84)"><tspan x="0" y="0">Mon</tspan></text>
          <text class="cls-8" transform="translate(43.54 553.04)"><tspan x="0" y="0">T</tspan></text>
          <text class="cls-10" transform="translate(52.51 553.04)"><tspan x="0" y="0">ue</tspan></text>
          <text class="cls-10" transform="translate(38.04 574.25)"><tspan x="0" y="0">W</tspan></text>
          <text class="cls-10" transform="translate(52.52 574.25)"><tspan x="0" y="0">ed</tspan></text>
          <text class="cls-10" transform="translate(42.96 595.45)"><tspan x="0" y="0">Thu</tspan></text>
          <text class="cls-10" transform="translate(51.68 616.66)"><tspan x="0" y="0">Fri</tspan></text>
          <text class="cls-10" transform="translate(46.44 637.86)"><tspan x="0" y="0">Sat</tspan></text>
          <text class="cls-10" transform="translate(42.08 659.07)"><tspan x="0" y="0">Sun</tspan></text>
        </g>
        <g>
          <g>
            <path class="cls-5" d="M192.9,515.5v84.8h-21.3v63.7"/>
            <text class="cls-10" transform="translate(86.05 513.88)"><tspan x="0" y="0">Sep</tspan></text>
          </g>
          <g>
            <path class="cls-5" d="M277.6,515.5v148.4"/>
            <text class="cls-10" transform="translate(192.07 513.88)"><tspan x="0" y="0">Oct</tspan></text>
          </g>
          <g>
            <path class="cls-5" d="M383.7,515.5v42.4h-21.3v106"/>
            <text class="cls-10" transform="translate(276.89 513.88)"><tspan x="0" y="0">Nov</tspan></text>
          </g>
        </g>
      </g>
    </g>
    <g id="legend-2">
      <g>
        <g>
          <g>
            <rect class="cls-19" x="533.3" y="539.7" width="1.6" height="15.6"/>
            <text class="cls-10" transform="translate(533.34 575.68)"><tspan x="0" y="0">1.0</tspan></text>
          </g>
          <rect class="cls-18" x="534.9" y="539.7" width="1.6" height="15.6"/>
          <rect class="cls-26" x="536.5" y="539.7" width="1.6" height="15.6"/>
          <rect class="cls-25" x="538" y="539.7" width="1.6" height="15.6"/>
          <rect class="cls-20" x="539.6" y="539.7" width="1.6" height="15.6"/>
          <rect class="cls-17" x="541.2" y="539.7" width="1.6" height="15.6"/>
          <rect class="cls-36" x="542.7" y="539.7" width="1.6" height="15.6"/>
          <rect class="cls-35" x="544.3" y="539.7" width="1.6" height="15.6"/>
          <rect class="cls-40" x="545.8" y="539.7" width="1.6" height="15.6"/>
          <rect class="cls-33" x="547.4" y="539.7" width="1.6" height="15.6"/>
          <rect class="cls-32" x="549" y="539.7" width="1.6" height="15.6"/>
          <rect class="cls-38" x="550.5" y="539.7" width="1.6" height="15.6"/>
          <rect class="cls-22" x="552.1" y="539.7" width="1.6" height="15.6"/>
          <rect class="cls-23" x="553.7" y="539.7" width="1.6" height="15.6"/>
          <rect class="cls-24" x="555.2" y="539.7" width="1.6" height="15.6"/>
          <rect class="cls-31" x="556.8" y="539.7" width="1.6" height="15.6"/>
          <rect class="cls-28" x="558.4" y="539.7" width="1.6" height="15.6"/>
          <rect class="cls-37" x="559.9" y="539.7" width="1.6" height="15.6"/>
          <rect class="cls-41" x="561.5" y="539.7" width="1.6" height="15.6"/>
          <rect class="cls-30" x="563.1" y="539.7" width="1.6" height="15.6"/>
          <rect class="cls-39" x="564.6" y="539.7" width="1.6" height="15.6"/>
          <rect class="cls-103" x="566.2" y="539.7" width="1.6" height="15.6"/>
          <rect class="cls-104" x="567.8" y="539.7" width="1.6" height="15.6"/>
          <rect class="cls-98" x="569.3" y="539.7" width="1.6" height="15.6"/>
          <rect class="cls-98" x="570.9" y="539.7" width="1.6" height="15.6"/>
          <rect class="cls-106" x="572.4" y="539.7" width="1.6" height="15.6"/>
          <rect class="cls-86" x="574" y="539.7" width="1.6" height="15.6"/>
          <rect class="cls-95" x="575.6" y="539.7" width="1.6" height="15.6"/>
          <rect class="cls-96" x="577.1" y="539.7" width="1.6" height="15.6"/>
          <rect class="cls-102" x="578.7" y="539.7" width="1.6" height="15.6"/>
          <rect class="cls-97" x="580.3" y="539.7" width="1.6" height="15.6"/>
          <rect class="cls-80" x="581.8" y="539.7" width="1.6" height="15.6"/>
          <rect class="cls-108" x="583.4" y="539.7" width="1.6" height="15.6"/>
          <rect class="cls-107" x="585" y="539.7" width="1.6" height="15.6"/>
          <rect class="cls-94" x="586.5" y="539.7" width="1.6" height="15.6"/>
          <rect class="cls-87" x="588.1" y="539.7" width="1.6" height="15.6"/>
          <rect class="cls-88" x="589.7" y="539.7" width="1.6" height="15.6"/>
          <rect class="cls-90" x="591.2" y="539.7" width="1.6" height="15.6"/>
          <rect class="cls-91" x="592.8" y="539.7" width="1.6" height="15.6"/>
          <rect class="cls-69" x="594.3" y="539.7" width="1.6" height="15.6"/>
          <rect class="cls-70" x="595.9" y="539.7" width="1.6" height="15.6"/>
          <rect class="cls-82" x="597.5" y="539.7" width="1.6" height="15.6"/>
          <rect class="cls-83" x="599" y="539.7" width="1.6" height="15.6"/>
          <rect class="cls-99" x="600.6" y="539.7" width="1.6" height="15.6"/>
          <rect class="cls-85" x="602.2" y="539.7" width="1.6" height="15.6"/>
          <rect class="cls-105" x="603.7" y="539.7" width="1.6" height="15.6"/>
          <rect class="cls-84" x="605.3" y="539.7" width="1.6" height="15.6"/>
          <rect class="cls-101" x="606.8" y="539.7" width="1.6" height="15.6"/>
          <rect class="cls-89" x="608.4" y="539.7" width="1.6" height="15.6"/>
          <rect class="cls-56" x="610" y="539.7" width="1.6" height="15.6"/>
          <rect class="cls-59" x="611.5" y="539.7" width="1.6" height="15.6"/>
          <rect class="cls-79" x="613.1" y="539.7" width="1.6" height="15.6"/>
          <rect class="cls-81" x="614.7" y="539.7" width="1.6" height="15.6"/>
          <rect class="cls-74" x="616.2" y="539.7" width="1.6" height="15.6"/>
          <rect class="cls-78" x="617.8" y="539.7" width="1.6" height="15.6"/>
          <rect class="cls-66" x="619.4" y="539.7" width="1.6" height="15.6"/>
          <rect class="cls-68" x="620.9" y="539.7" width="1.6" height="15.6"/>
          <rect class="cls-60" x="622.5" y="539.7" width="1.6" height="15.6"/>
          <rect class="cls-57" x="624" y="539.7" width="1.6" height="15.6"/>
          <rect class="cls-58" x="625.6" y="539.7" width="1.6" height="15.6"/>
          <rect class="cls-71" x="627.2" y="539.7" width="1.6" height="15.6"/>
          <rect class="cls-100" x="628.8" y="539.7" width="1.6" height="15.6"/>
          <rect class="cls-75" x="630.3" y="539.7" width="1.6" height="15.6"/>
          <rect class="cls-92" x="631.9" y="539.7" width="1.6" height="15.6"/>
          <rect class="cls-73" x="633.4" y="539.7" width="1.6" height="15.6"/>
          <rect class="cls-109" x="635" y="539.7" width="1.6" height="15.6"/>
          <rect class="cls-72" x="636.6" y="539.7" width="1.6" height="15.6"/>
          <rect class="cls-76" x="638.1" y="539.7" width="1.6" height="15.6"/>
          <rect class="cls-172" x="639.7" y="539.7" width="1.6" height="15.6"/>
          <rect class="cls-54" x="641.3" y="539.7" width="1.6" height="15.6"/>
          <rect class="cls-48" x="642.8" y="539.7" width="1.6" height="15.6"/>
          <rect class="cls-53" x="644.4" y="539.7" width="1.6" height="15.6"/>
          <rect class="cls-52" x="646" y="539.7" width="1.6" height="15.6"/>
          <rect class="cls-178" x="647.5" y="539.7" width="1.6" height="15.6"/>
          <rect class="cls-47" x="649.1" y="539.7" width="1.6" height="15.6"/>
          <rect class="cls-176" x="650.6" y="539.7" width="1.6" height="15.6"/>
          <rect class="cls-171" x="652.2" y="539.7" width="1.6" height="15.6"/>
          <rect class="cls-49" x="653.8" y="539.7" width="1.6" height="15.6"/>
          <rect class="cls-55" x="655.3" y="539.7" width="1.6" height="15.6"/>
          <rect class="cls-65" x="656.9" y="539.7" width="1.6" height="15.6"/>
          <rect class="cls-67" x="658.5" y="539.7" width="1.6" height="15.6"/>
          <rect class="cls-51" x="660" y="539.7" width="1.6" height="15.6"/>
          <rect class="cls-179" x="661.6" y="539.7" width="1.6" height="15.6"/>
          <rect class="cls-180" x="663.2" y="539.7" width="1.6" height="15.6"/>
          <rect class="cls-50" x="664.7" y="539.7" width="1.6" height="15.6"/>
          <rect class="cls-217" x="666.3" y="539.7" width="1.6" height="15.6"/>
          <rect class="cls-212" x="667.8" y="539.7" width="1.6" height="15.6"/>
          <rect class="cls-44" x="669.4" y="539.7" width="1.6" height="15.6"/>
          <rect class="cls-215" x="671" y="539.7" width="1.6" height="15.6"/>
          <rect class="cls-219" x="672.5" y="539.7" width="1.6" height="15.6"/>
          <rect class="cls-210" x="674.1" y="539.7" width="1.6" height="15.6"/>
          <rect class="cls-208" x="675.7" y="539.7" width="1.6" height="15.6"/>
          <rect class="cls-207" x="677.2" y="539.7" width="1.6" height="15.6"/>
          <rect class="cls-175" x="678.8" y="539.7" width="1.6" height="15.6"/>
          <rect class="cls-174" x="680.4" y="539.7" width="1.6" height="15.6"/>
          <rect class="cls-173" x="681.9" y="539.7" width="1.6" height="15.6"/>
          <rect class="cls-46" x="683.5" y="539.7" width="1.6" height="15.6"/>
          <rect class="cls-21" x="685" y="539.7" width="1.6" height="15.6"/>
          <rect class="cls-45" x="686.6" y="539.7" width="1.6" height="15.6"/>
          <rect class="cls-43" x="688.2" y="539.7" width="1.6" height="15.6"/>
          <rect class="cls-182" x="689.7" y="539.7" width="1.6" height="15.6"/>
          <rect class="cls-183" x="691.3" y="539.7" width="1.6" height="15.6"/>
          <rect class="cls-203" x="692.9" y="539.7" width="1.6" height="15.6"/>
          <rect class="cls-205" x="694.4" y="539.7" width="1.6" height="15.6"/>
          <rect class="cls-209" x="696" y="539.7" width="1.6" height="15.6"/>
          <rect class="cls-198" x="697.6" y="539.7" width="1.6" height="15.6"/>
          <rect class="cls-199" x="699.1" y="539.7" width="1.6" height="15.6"/>
          <rect class="cls-200" x="700.7" y="539.7" width="1.6" height="15.6"/>
          <rect class="cls-186" x="702.3" y="539.7" width="1.6" height="15.6"/>
          <rect class="cls-206" x="703.8" y="539.7" width="1.6" height="15.6"/>
          <rect class="cls-177" x="705.4" y="539.7" width="1.6" height="15.6"/>
          <rect class="cls-218" x="707" y="539.7" width="1.6" height="15.6"/>
          <rect class="cls-211" x="708.5" y="539.7" width="1.6" height="15.6"/>
          <rect class="cls-213" x="710.1" y="539.7" width="1.6" height="15.6"/>
          <rect class="cls-214" x="711.6" y="539.7" width="1.6" height="15.6"/>
          <rect class="cls-188" x="713.2" y="539.7" width="1.6" height="15.6"/>
          <rect class="cls-204" x="714.8" y="539.7" width="1.6" height="15.6"/>
          <rect class="cls-189" x="716.3" y="539.7" width="1.6" height="15.6"/>
          <rect class="cls-190" x="717.9" y="539.7" width="1.6" height="15.6"/>
          <rect class="cls-142" x="719.5" y="539.7" width="1.6" height="15.6"/>
          <rect class="cls-141" x="721" y="539.7" width="1.6" height="15.6"/>
          <rect class="cls-144" x="722.6" y="539.7" width="1.6" height="15.6"/>
          <rect class="cls-164" x="724.2" y="539.7" width="1.6" height="15.6"/>
          <rect class="cls-165" x="725.7" y="539.7" width="1.6" height="15.6"/>
          <rect class="cls-195" x="727.3" y="539.7" width="1.6" height="15.6"/>
          <rect class="cls-194" x="728.8" y="539.7" width="1.6" height="15.6"/>
          <rect class="cls-193" x="730.4" y="539.7" width="1.6" height="15.6"/>
          <rect class="cls-158" x="732" y="539.7" width="1.6" height="15.6"/>
          <rect class="cls-192" x="733.5" y="539.7" width="1.6" height="15.6"/>
          <rect class="cls-196" x="735.1" y="539.7" width="1.6" height="15.6"/>
          <rect class="cls-191" x="736.7" y="539.7" width="1.6" height="15.6"/>
          <rect class="cls-61" x="738.2" y="539.7" width="1.6" height="15.6"/>
          <rect class="cls-62" x="739.8" y="539.7" width="1.6" height="15.6"/>
          <rect class="cls-63" x="741.4" y="539.7" width="1.6" height="15.6"/>
          <rect class="cls-201" x="742.9" y="539.7" width="1.6" height="15.6"/>
          <rect class="cls-202" x="744.5" y="539.7" width="1.6" height="15.6"/>
          <rect class="cls-187" x="746" y="539.7" width="1.6" height="15.6"/>
          <rect class="cls-185" x="747.6" y="539.7" width="1.6" height="15.6"/>
          <rect class="cls-181" x="749.2" y="539.7" width="1.6" height="15.6"/>
          <rect class="cls-184" x="750.7" y="539.7" width="1.6" height="15.6"/>
          <rect class="cls-197" x="752.3" y="539.7" width="1.6" height="15.6"/>
          <rect class="cls-111" x="753.9" y="539.7" width="1.6" height="15.6"/>
          <rect class="cls-134" x="755.4" y="539.7" width="1.6" height="15.6"/>
          <rect class="cls-110" x="757" y="539.7" width="1.6" height="15.6"/>
          <rect class="cls-136" x="758.6" y="539.7" width="1.6" height="15.6"/>
          <rect class="cls-137" x="760.1" y="539.7" width="1.6" height="15.6"/>
          <rect class="cls-121" x="761.7" y="539.7" width="1.6" height="15.6"/>
          <rect class="cls-120" x="763.2" y="539.7" width="1.6" height="15.6"/>
          <rect class="cls-153" x="764.8" y="539.7" width="1.6" height="15.6"/>
          <rect class="cls-154" x="766.4" y="539.7" width="1.6" height="15.6"/>
          <rect class="cls-155" x="768" y="539.7" width="1.6" height="15.6"/>
          <rect class="cls-160" x="769.5" y="539.7" width="1.6" height="15.6"/>
          <rect class="cls-168" x="771.1" y="539.7" width="1.6" height="15.6"/>
          <rect class="cls-162" x="772.6" y="539.7" width="1.6" height="15.6"/>
          <rect class="cls-115" x="774.2" y="539.7" width="1.6" height="15.6"/>
          <rect class="cls-163" x="775.8" y="539.7" width="1.6" height="15.6"/>
          <rect class="cls-118" x="777.3" y="539.7" width="1.6" height="15.6"/>
          <rect class="cls-148" x="778.9" y="539.7" width="1.6" height="15.6"/>
          <rect class="cls-147" x="780.5" y="539.7" width="1.6" height="15.6"/>
          <rect class="cls-149" x="782" y="539.7" width="1.6" height="15.6"/>
          <rect class="cls-132" x="783.6" y="539.7" width="1.6" height="15.6"/>
          <rect class="cls-131" x="785.2" y="539.7" width="1.6" height="15.6"/>
          <rect class="cls-114" x="786.7" y="539.7" width="1.6" height="15.6"/>
          <rect class="cls-113" x="788.3" y="539.7" width="1.6" height="15.6"/>
          <rect class="cls-140" x="789.8" y="539.7" width="1.6" height="15.6"/>
          <rect class="cls-166" x="791.4" y="539.7" width="1.6" height="15.6"/>
          <rect class="cls-157" x="793" y="539.7" width="1.6" height="15.6"/>
          <rect class="cls-150" x="794.5" y="539.7" width="1.6" height="15.6"/>
          <rect class="cls-146" x="796.1" y="539.7" width="1.6" height="15.6"/>
          <rect class="cls-151" x="797.7" y="539.7" width="1.6" height="15.6"/>
          <rect class="cls-152" x="799.2" y="539.7" width="1.6" height="15.6"/>
          <rect class="cls-112" x="800.8" y="539.7" width="1.6" height="15.6"/>
          <rect class="cls-133" x="802.4" y="539.7" width="1.6" height="15.6"/>
          <rect class="cls-119" x="803.9" y="539.7" width="1.6" height="15.6"/>
          <rect class="cls-117" x="805.5" y="539.7" width="1.6" height="15.6"/>
          <rect class="cls-161" x="807" y="539.7" width="1.6" height="15.6"/>
          <rect class="cls-167" x="808.6" y="539.7" width="1.6" height="15.6"/>
          <rect class="cls-156" x="810.2" y="539.7" width="1.6" height="15.6"/>
          <rect class="cls-129" x="811.7" y="539.7" width="1.6" height="15.6"/>
          <rect class="cls-130" x="813.3" y="539.7" width="1.6" height="15.6"/>
          <rect class="cls-128" x="814.9" y="539.7" width="1.6" height="15.6"/>
          <rect class="cls-126" x="816.4" y="539.7" width="1.6" height="15.6"/>
          <rect class="cls-125" x="818" y="539.7" width="1.6" height="15.6"/>
          <rect class="cls-116" x="819.6" y="539.7" width="1.6" height="15.6"/>
          <rect class="cls-138" x="821.1" y="539.7" width="1.6" height="15.6"/>
          <rect class="cls-139" x="822.7" y="539.7" width="1.6" height="15.6"/>
          <rect class="cls-127" x="824.2" y="539.7" width="1.6" height="15.6"/>
          <rect class="cls-124" x="825.8" y="539.7" width="1.6" height="15.6"/>
          <rect class="cls-123" x="827.4" y="539.7" width="1.6" height="15.6"/>
          <g>
            <rect class="cls-122" x="828.9" y="539.7" width="1.6" height="15.6"/>
            <text class="cls-10" transform="translate(798.5 575.68)"><tspan x="0" y="0">15.0</tspan></text>
          </g>
        </g>
        <text class="cls-12" transform="translate(533.34 515.46)"><tspan x="0" y="0">People</tspan></text>
      </g>
    </g>
    <text class="cls-10" transform="translate(383.7 513.88)"><tspan x="0" y="0">Dec</tspan></text>
  </g>
  <g>
    <path class="cls-34" d="M2.45,724.32H845.45v521.3H2.45V724.32Z"/>
    <path class="cls-3" d="M118.35,838.82v352.7"/>
    <path class="cls-4" d="M293.95,838.82v352.7"/>
    <path class="cls-4" d="M469.55,838.82v352.7"/>
    <path class="cls-4" d="M643.85,838.82v352.7"/>
    <path class="cls-4" d="M819.45,838.82v352.7"/>
    <g class="cls-15">
      <path class="cls-2" d="M119.05,878.82v-9.8H747.05c1.6,0,2.8,1.3,2.8,2.8v4.2c0,1.6-1.3,2.8-2.8,2.8H119.05Z"/>
    </g>
    <g class="cls-220">
      <path class="cls-143" d="M119.05,878.82v-9.8H747.05c1.6,0,2.8,1.3,2.8,2.8v4.2c0,1.6-1.3,2.8-2.8,2.8H119.05Z"/>
    </g>
    <g class="cls-223">
      <path class="cls-2" d="M119.05,960.32v-9.8H430.95c1.6,0,2.8,1.3,2.8,2.8v4.2c0,1.6-1.3,2.8-2.8,2.8H119.05Z"/>
    </g>
    <g class="cls-222">
      <path class="cls-143" d="M119.05,960.32v-9.8H430.95c1.6,0,2.8,1.3,2.8,2.8v4.2c0,1.6-1.3,2.8-2.8,2.8H119.05Z"/>
    </g>
    <g class="cls-221">
      <path class="cls-2" d="M119.05,1041.82v-9.8h30.9c1.6,0,2.8,1.3,2.8,2.8v4.2c0,1.6-1.3,2.8-2.8,2.8h-30.9Z"/>
    </g>
    <g class="cls-227">
      <path class="cls-143" d="M119.05,1041.82v-9.8h30.9c1.6,0,2.8,1.3,2.8,2.8v4.2c0,1.6-1.3,2.8-2.8,2.8h-30.9Z"/>
    </g>
    <g class="cls-226">
      <path class="cls-2" d="M119.05,1121.92v-9.8h30.9c1.6,0,2.8,1.3,2.8,2.8v4.2c0,1.6-1.3,2.8-2.8,2.8h-30.9Z"/>
    </g>
    <g class="cls-224">
      <path class="cls-143" d="M119.05,1121.92v-9.8h30.9c1.6,0,2.8,1.3,2.8,2.8v4.2c0,1.6-1.3,2.8-2.8,2.8h-30.9Z"/>
    </g>
    <g class="cls-225">
      <path class="cls-2" d="M119.05,891.52v-9.8h487.5c1.6,0,2.8,1.3,2.8,2.8v4.2c0,1.6-1.3,2.8-2.8,2.8H119.05Z"/>
    </g>
    <g class="cls-228">
      <path class="cls-29" d="M119.05,891.52v-9.8h487.5c1.6,0,2.8,1.3,2.8,2.8v4.2c0,1.6-1.3,2.8-2.8,2.8H119.05Z"/>
    </g>
    <g class="cls-240">
      <path class="cls-2" d="M119.05,972.92v-9.8H466.05c1.6,0,2.8,1.3,2.8,2.8v4.2c0,1.6-1.3,2.8-2.8,2.8H119.05Z"/>
    </g>
    <g class="cls-245">
      <path class="cls-29" d="M119.05,972.92v-9.8H466.05c1.6,0,2.8,1.3,2.8,2.8v4.2c0,1.6-1.3,2.8-2.8,2.8H119.05Z"/>
    </g>
    <g class="cls-239">
      <path class="cls-2" d="M119.05,1054.42v-9.8h30.9c1.6,0,2.8,1.3,2.8,2.8v4.2c0,1.6-1.3,2.8-2.8,2.8h-30.9Z"/>
    </g>
    <g class="cls-238">
      <path class="cls-29" d="M119.05,1054.42v-9.8h30.9c1.6,0,2.8,1.3,2.8,2.8v4.2c0,1.6-1.3,2.8-2.8,2.8h-30.9Z"/>
    </g>
    <g class="cls-237">
      <path class="cls-2" d="M119.05,1134.52v-9.8h30.9c1.6,0,2.8,1.3,2.8,2.8v4.2c0,1.6-1.3,2.8-2.8,2.8h-30.9Z"/>
    </g>
    <g class="cls-241">
      <path class="cls-29" d="M119.05,1134.52v-9.8h30.9c1.6,0,2.8,1.3,2.8,2.8v4.2c0,1.6-1.3,2.8-2.8,2.8h-30.9Z"/>
    </g>
    <g class="cls-243">
      <path class="cls-2" d="M119.05,904.12v-9.8H466.05c1.6,0,2.8,1.3,2.8,2.8v4.2c0,1.6-1.3,2.8-2.8,2.8H119.05Z"/>
    </g>
    <g class="cls-242">
      <path class="cls-27" d="M119.05,904.12v-9.8H466.05c1.6,0,2.8,1.3,2.8,2.8v4.2c0,1.6-1.3,2.8-2.8,2.8H119.05Z"/>
    </g>
    <g class="cls-246">
      <path class="cls-2" d="M119.05,985.62v-9.8H255.35c1.6,0,2.8,1.3,2.8,2.8v4.2c0,1.6-1.3,2.8-2.8,2.8H119.05Z"/>
    </g>
    <g class="cls-244">
      <path class="cls-27" d="M119.05,985.62v-9.8H255.35c1.6,0,2.8,1.3,2.8,2.8v4.2c0,1.6-1.3,2.8-2.8,2.8H119.05Z"/>
    </g>
    <g class="cls-229">
      <path class="cls-2" d="M119.05,1067.12v-9.8h101.2c1.6,0,2.8,1.3,2.8,2.8v4.2c0,1.6-1.3,2.8-2.8,2.8H119.05Z"/>
    </g>
    <g class="cls-230">
      <path class="cls-27" d="M119.05,1067.12v-9.8h101.2c1.6,0,2.8,1.3,2.8,2.8v4.2c0,1.6-1.3,2.8-2.8,2.8H119.05Z"/>
    </g>
    <g class="cls-233">
      <path class="cls-2" d="M119.05,1147.22v-9.8h101.2c1.6,0,2.8,1.3,2.8,2.8v4.2c0,1.6-1.3,2.8-2.8,2.8H119.05Z"/>
    </g>
    <g class="cls-232">
      <path class="cls-27" d="M119.05,1147.22v-9.8h101.2c1.6,0,2.8,1.3,2.8,2.8v4.2c0,1.6-1.3,2.8-2.8,2.8H119.05Z"/>
    </g>
    <g class="cls-231">
      <path class="cls-2" d="M119.05,916.72v-9.8h171.4c1.6,0,2.8,1.3,2.8,2.8v4.2c0,1.6-1.3,2.8-2.8,2.8H119.05Z"/>
    </g>
    <g class="cls-234">
      <path class="cls-159" d="M119.05,916.72v-9.8h171.4c1.6,0,2.8,1.3,2.8,2.8v4.2c0,1.6-1.3,2.8-2.8,2.8H119.05Z"/>
    </g>
    <g class="cls-236">
      <path class="cls-2" d="M119.05,998.22v-9.8h30.9c1.6,0,2.8,1.3,2.8,2.8v4.2c0,1.6-1.3,2.8-2.8,2.8h-30.9Z"/>
    </g>
    <g class="cls-235">
      <path class="cls-159" d="M119.05,998.22v-9.8h30.9c1.6,0,2.8,1.3,2.8,2.8v4.2c0,1.6-1.3,2.8-2.8,2.8h-30.9Z"/>
    </g>
    <path d="M62.15,898.82v-12.1h1.6v5h6.3v-5h1.6v12.1h-1.6v-5.7h-6.3v5.7h-1.6Zm18.1-1c-.6,.5-1.1,.8-1.6,1s-1,.3-1.6,.3c-1,0-1.7-.2-2.2-.7s-.8-1.1-.8-1.8c0-.4,.1-.8,.3-1.2,.2-.4,.4-.7,.8-.9,.3-.2,.7-.4,1.1-.5,.3-.1,.7-.2,1.3-.2,1.2-.1,2.1-.3,2.6-.5v-.4c0-.6-.1-1-.4-1.3-.4-.3-.9-.5-1.7-.5-.7,0-1.2,.1-1.5,.4-.3,.2-.6,.7-.7,1.3l-1.4-.2c.1-.6,.4-1.1,.7-1.5,.3-.4,.7-.7,1.3-.9,.6-.2,1.2-.3,2-.3s1.4,.1,1.8,.3c.5,.2,.8,.4,1,.7,.2,.3,.4,.6,.5,1,0,.2,.1,.7,.1,1.4v2c0,1.4,0,2.2,.1,2.6s.2,.7,.4,1.1h-1.8c-.1-.5-.2-.8-.3-1.2Zm-.1-3.3c-.5,.2-1.3,.4-2.4,.6-.6,.1-1,.2-1.3,.3-.2,.1-.4,.3-.6,.5-.1,.2-.2,.4-.2,.7,0,.4,.1,.7,.4,1s.7,.4,1.3,.4,1.1-.1,1.5-.4c.5-.2,.8-.6,1-1,.2-.3,.2-.8,.2-1.5v-.6h.1Zm4.2,7.7v-12.1h1.3v1.1c.3-.4,.7-.8,1.1-1s.9-.3,1.5-.3c.7,0,1.4,.2,2,.6s1,.9,1.3,1.6,.4,1.5,.4,2.3c0,.9-.2,1.7-.5,2.4-.3,.7-.8,1.3-1.4,1.6-.6,.4-1.3,.6-1.9,.6-.5,0-.9-.1-1.3-.3-.4-.2-.7-.5-1-.8v4.3h-1.5Zm1.4-7.7c0,1.1,.2,2,.7,2.5s1,.8,1.6,.8c.7,0,1.2-.3,1.7-.8s.7-1.4,.7-2.6c0-1.1-.2-1.9-.7-2.5s-1-.8-1.6-.8-1.2,.3-1.7,.9c-.5,.5-.7,1.4-.7,2.5Zm8.5,7.7v-12.1h1.3v1.1c.3-.4,.7-.8,1.1-1s.9-.3,1.5-.3c.7,0,1.4,.2,2,.6s1,.9,1.3,1.6,.4,1.5,.4,2.3c0,.9-.2,1.7-.5,2.4-.3,.7-.8,1.3-1.4,1.6-.6,.4-1.3,.6-1.9,.6-.5,0-.9-.1-1.3-.3-.4-.2-.7-.5-1-.8v4.3h-1.5Zm1.3-7.7c0,1.1,.2,2,.7,2.5s1,.8,1.6,.8c.7,0,1.2-.3,1.7-.8,.5-.6,.7-1.4,.7-2.6,0-1.1-.2-1.9-.7-2.5s-1-.8-1.6-.8-1.2,.3-1.7,.9c-.4,.5-.7,1.4-.7,2.5Zm8.4,7.7l-.2-1.4c.3,.1,.6,.1,.9,.1s.6-.1,.8-.2c.2-.1,.4-.2,.5-.4,.1-.2,.2-.5,.5-1.1,0-.1,.1-.2,.1-.4l-3.3-8.8h1.6l1.8,5c.2,.6,.4,1.3,.6,2,.2-.7,.4-1.4,.6-2l1.9-5.1h1.5l-3.3,8.9c-.4,1-.6,1.6-.8,2-.3,.5-.6,.9-.9,1.1s-.7,.4-1.2,.4c-.4,.1-.7,0-1.1-.1Z"/>
    <path d="M74.95,980.02v-10.6h-4v-1.4h9.6v1.4h-4v10.6h-1.6Zm6.6-10.4v-1.7h1.5v1.7h-1.5Zm0,10.4v-8.7h1.5v8.7h-1.5Zm4.2,0v-8.7h1.3v1.3c.3-.6,.6-1,.9-1.2s.6-.3,1-.3c.5,0,1,.2,1.5,.5l-.5,1.4c-.4-.2-.7-.3-1.1-.3-.3,0-.6,.1-.9,.3-.2,.2-.4,.5-.5,.8-.2,.5-.3,1.1-.3,1.7v4.6h-1.4v-.1Zm11.6-2.8l1.5,.2c-.2,.9-.7,1.6-1.3,2.1-.7,.5-1.5,.7-2.5,.7-1.3,0-2.3-.4-3.1-1.2-.7-.8-1.1-1.9-1.1-3.3,0-1.5,.4-2.6,1.1-3.4,.8-.8,1.7-1.2,2.9-1.2s2.1,.4,2.9,1.2c.7,.8,1.1,1.9,1.1,3.4v.4h-6.5c.1,1,.3,1.7,.8,2.2s1.1,.7,1.8,.7c.5,0,1-.1,1.4-.4,.5-.4,.8-.8,1-1.4Zm-4.8-2.4h4.9c-.1-.7-.2-1.3-.5-1.7-.5-.6-1.1-.9-1.8-.9s-1.3,.2-1.7,.7c-.6,.5-.9,1.1-.9,1.9Zm14.4,5.2v-1.1c-.6,.9-1.4,1.3-2.4,1.3-.7,0-1.3-.2-1.9-.6s-1-.9-1.4-1.6c-.3-.7-.5-1.5-.5-2.4s.1-1.7,.4-2.4c.3-.7,.7-1.3,1.3-1.6,.6-.4,1.2-.6,2-.6,.5,0,1,.1,1.4,.3,.4,.2,.7,.5,1,.9v-4.3h1.5v12.1h-1.4Zm-4.7-4.4c0,1.1,.2,2,.7,2.5s1,.8,1.7,.8c.6,0,1.2-.3,1.6-.8,.5-.5,.7-1.3,.7-2.4,0-1.2-.2-2.1-.7-2.6-.5-.6-1-.8-1.7-.8s-1.2,.3-1.6,.8c-.5,.5-.7,1.3-.7,2.5Z"/>
    <path d="M56.55,1061.12v-12.1h8.7v1.4h-7.1v3.7h6.7v1.4h-6.7v4.1h7.4v1.4h-9v.1Zm10,0l3.2-4.5-2.9-4.2h1.8l1.3,2c.2,.4,.5,.7,.6,1,.2-.4,.5-.7,.7-1l1.5-2.1h1.8l-3,4.1,3.2,4.6h-1.8l-1.8-2.7-.5-.7-2.3,3.4h-1.8v.1Zm13.7-3.2l1.4,.2c-.2,1-.6,1.8-1.2,2.3-.7,.6-1.5,.9-2.4,.9-1.2,0-2.2-.4-2.9-1.2-.7-.8-1.1-1.9-1.1-3.4,0-.9,.2-1.8,.5-2.5s.8-1.3,1.4-1.6c.6-.4,1.3-.5,2.1-.5,.9,0,1.7,.2,2.3,.7,.6,.5,1,1.1,1.2,2l-1.4,.2c-.1-.6-.4-1-.7-1.3-.4-.3-.8-.5-1.3-.5-.7,0-1.4,.3-1.8,.8-.5,.5-.7,1.4-.7,2.5,0,1.2,.2,2,.7,2.6,.5,.5,1,.8,1.8,.8,.6,0,1.1-.2,1.4-.5,.3-.2,.6-.8,.7-1.5Zm2.7-7.2v-1.7h1.5v1.7h-1.5Zm0,10.4v-8.7h1.5v8.7h-1.5Zm7.5-1.3l.2,1.3c-.4,.1-.8,.1-1.1,.1-.5,0-1-.1-1.3-.2-.3-.2-.5-.4-.6-.7-.1-.3-.2-.9-.2-1.8v-5h-1.1v-1.1h1.1v-2.2l1.5-.9v3.1h1.5v1.1h-1.5v5.1c0,.4,0,.7,.1,.8,.1,.1,.1,.2,.3,.3,.1,.1,.3,.1,.5,.1,.1,0,.3,0,.6,0Zm6.9-1.5l1.5,.2c-.2,.9-.7,1.6-1.3,2.1-.7,.5-1.5,.7-2.5,.7-1.3,0-2.3-.4-3.1-1.2-.7-.8-1.1-1.9-1.1-3.3,0-1.5,.4-2.6,1.1-3.4,.8-.8,1.7-1.2,2.9-1.2s2.1,.4,2.9,1.2c.7,.8,1.1,1.9,1.1,3.4v.4h-6.5c.1,1,.3,1.7,.8,2.2s1.1,.7,1.8,.7c.5,0,1-.1,1.4-.4,.5-.4,.8-.8,1-1.4Zm-4.8-2.4h4.9c-.1-.7-.2-1.3-.5-1.7-.5-.6-1.1-.9-1.8-.9s-1.3,.2-1.7,.7c-.6,.5-.9,1.1-.9,1.9Zm14.4,5.2v-1.1c-.6,.9-1.4,1.3-2.4,1.3-.7,0-1.3-.2-1.9-.6s-1-.9-1.4-1.6c-.3-.7-.5-1.5-.5-2.4s.1-1.7,.4-2.4c.3-.7,.7-1.3,1.3-1.6,.6-.4,1.2-.6,2-.6,.5,0,1,.1,1.4,.3,.4,.2,.7,.5,1,.9v-4.3h1.5v12.1h-1.4Zm-4.7-4.4c0,1.1,.2,2,.7,2.5s1,.8,1.7,.8c.6,0,1.2-.3,1.6-.8s.7-1.3,.7-2.4c0-1.2-.2-2.1-.7-2.6-.5-.6-1-.8-1.7-.8s-1.2,.3-1.6,.8c-.5,.5-.7,1.4-.7,2.5Z"/>
    <path d="M29.85,1142.22v-12.1h8.7v1.4h-7.1v3.7h6.7v1.4h-6.7v4.1h7.4v1.4h-9v.1Zm10,0l3.2-4.5-2.9-4.2h1.8l1.3,2c.2,.4,.5,.7,.6,1,.2-.4,.5-.7,.7-1l1.5-2.1h1.8l-3,4.1,3.2,4.6h-1.8l-1.8-2.7-.5-.7-2.3,3.4h-1.8v.1Zm8,0v-12.1h1.5v4.3c.7-.8,1.6-1.2,2.6-1.2,.7,0,1.2,.1,1.7,.4,.5,.2,.8,.6,1,1.1,.2,.4,.3,1.1,.3,2v5.5h-1.5v-5.5c0-.7-.2-1.3-.5-1.6-.3-.3-.8-.5-1.4-.5-.4,0-.9,.1-1.3,.4-.4,.2-.7,.5-.8,.9-.2,.4-.2,.9-.2,1.6v4.8h-1.4v-.1Zm15.6-1.1c-.6,.5-1.1,.8-1.6,1s-1,.3-1.6,.3c-1,0-1.7-.2-2.2-.7s-.8-1.1-.8-1.8c0-.4,.1-.8,.3-1.2,.2-.4,.4-.7,.8-.9,.3-.2,.7-.4,1.1-.5,.3-.1,.7-.2,1.3-.2,1.2-.1,2.1-.3,2.6-.5v-.4c0-.6-.1-1-.4-1.3-.4-.3-.9-.5-1.7-.5-.7,0-1.2,.1-1.5,.4-.3,.2-.6,.7-.7,1.3l-1.4-.2c.1-.6,.4-1.1,.7-1.5s.7-.7,1.3-.9c.6-.2,1.2-.3,2-.3,.7,0,1.4,.1,1.8,.3,.5,.2,.8,.4,1,.7,.2,.3,.4,.6,.5,1,0,.2,.1,.7,.1,1.4v2c0,1.4,0,2.2,.1,2.6s.2,.7,.4,1.1h-1.6c-.4-.4-.5-.7-.5-1.2Zm-.2-3.3c-.5,.2-1.3,.4-2.4,.6-.6,.1-1,.2-1.3,.3-.2,.1-.4,.3-.6,.5-.1,.2-.2,.4-.2,.7,0,.4,.1,.7,.4,1,.3,.3,.7,.4,1.3,.4s1.1-.1,1.5-.4c.5-.2,.8-.6,1-1,.2-.3,.2-.8,.2-1.5v-.6h.1Zm10,4.4v-1.3c-.7,1-1.6,1.5-2.8,1.5-.5,0-1-.1-1.4-.3-.4-.2-.8-.5-1-.7-.2-.3-.4-.7-.5-1.1-.1-.3-.1-.7-.1-1.4v-5.4h1.5v4.9c0,.8,0,1.3,.1,1.6,.1,.4,.3,.7,.6,.9,.3,.2,.7,.3,1.1,.3s.8-.1,1.2-.3c.4-.2,.7-.5,.8-.9,.2-.4,.3-1,.3-1.7v-4.7h1.5v8.7h-1.3v-.1Zm3.5-2.6l1.4-.2c.1,.6,.3,1,.7,1.3,.4,.3,.9,.5,1.6,.5s1.2-.1,1.5-.4,.5-.6,.5-1c0-.3-.1-.6-.4-.8-.2-.1-.7-.3-1.5-.5-1.1-.3-1.8-.5-2.3-.7-.4-.2-.7-.5-.9-.8-.2-.4-.3-.7-.3-1.2,0-.4,.1-.7,.3-1.1,.2-.3,.4-.6,.7-.8,.2-.2,.5-.3,.9-.4s.8-.2,1.3-.2c.7,0,1.3,.1,1.8,.3,.5,.2,.9,.5,1.2,.8,.2,.3,.4,.8,.5,1.3l-1.4,.2c-.1-.4-.2-.8-.6-1-.3-.3-.8-.4-1.3-.4-.7,0-1.2,.1-1.4,.4-.3,.2-.4,.5-.4,.8,0,.2,.1,.4,.2,.5,.1,.2,.3,.3,.6,.4,.1,.1,.6,.2,1.3,.4,1.1,.3,1.8,.5,2.2,.7s.7,.4,1,.8c.2,.3,.4,.8,.4,1.3s-.1,1-.4,1.4-.7,.8-1.2,1-1.2,.4-1.8,.4c-1.1,0-2-.2-2.6-.7-1-.7-1.4-1.4-1.6-2.3Zm13.7,1.3l.2,1.3c-.4,.1-.8,.1-1.1,.1-.5,0-1-.1-1.3-.2-.3-.2-.5-.4-.6-.7-.1-.3-.2-.9-.2-1.8v-5h-1.1v-1.1h1.1v-2.2l1.5-.9v3.1h1.5v1.1h-1.5v5.1c0,.4,0,.7,.1,.8,.1,.1,.1,.2,.3,.3,.1,.1,.3,.1,.5,.1,.1,0,.3,0,.6,0Zm6.9-1.5l1.5,.2c-.2,.9-.7,1.6-1.3,2.1-.7,.5-1.5,.7-2.5,.7-1.3,0-2.3-.4-3.1-1.2-.7-.8-1.1-1.9-1.1-3.3,0-1.5,.4-2.6,1.1-3.4,.8-.8,1.7-1.2,2.9-1.2s2.1,.4,2.9,1.2c.7,.8,1.1,1.9,1.1,3.4v.4h-6.5c.1,1,.3,1.7,.8,2.2s1.1,.7,1.8,.7c.5,0,1-.1,1.4-.4,.5-.3,.8-.8,1-1.4Zm-4.8-2.4h4.9c-.1-.7-.2-1.3-.5-1.7-.5-.6-1.1-.9-1.8-.9s-1.3,.2-1.7,.7c-.6,.5-.9,1.1-.9,1.9Zm14.4,5.2v-1.1c-.6,.9-1.4,1.3-2.4,1.3-.7,0-1.3-.2-1.9-.6s-1-.9-1.4-1.6c-.3-.7-.5-1.5-.5-2.4s.1-1.7,.4-2.4c.3-.7,.7-1.3,1.3-1.6,.6-.4,1.2-.6,2-.6,.5,0,1,.1,1.4,.3,.4,.2,.7,.5,1,.9v-4.3h1.5v12.1h-1.4Zm-4.7-4.4c0,1.1,.2,2,.7,2.5s1,.8,1.7,.8c.6,0,1.2-.3,1.6-.8s.7-1.3,.7-2.4c0-1.2-.2-2.1-.7-2.6-.5-.6-1-.8-1.7-.8s-1.2,.3-1.6,.8c-.5,.5-.7,1.4-.7,2.5Z"/>
    <path d="M114.15,1209.32c0-1.4,.1-2.6,.4-3.4,.3-.9,.7-1.6,1.3-2,.6-.5,1.3-.7,2.2-.7,.6,0,1.2,.1,1.7,.4s.9,.6,1.2,1.1c.3,.5,.6,1.1,.7,1.8,.2,.7,.3,1.7,.3,2.9,0,1.4-.1,2.6-.4,3.4-.3,.9-.7,1.5-1.3,2-.6,.5-1.3,.7-2.2,.7-1.2,0-2.1-.4-2.7-1.3-.8-1-1.2-2.6-1.2-4.9Zm1.5,0c0,2,.2,3.3,.7,4s1,1,1.7,1,1.3-.3,1.7-1c.5-.7,.7-2,.7-4s-.2-3.3-.7-4-1-1-1.7-1-1.2,.3-1.6,.9c-.5,.7-.8,2.1-.8,4.1Z"/>
    <path d="M289.45,1212.12l1.6-.1c.1,.8,.4,1.3,.8,1.7,.4,.4,.9,.6,1.5,.6,.7,0,1.3-.3,1.8-.8s.7-1.3,.7-2.1-.2-1.5-.7-2-1.1-.7-1.9-.7c-.5,0-.9,.1-1.3,.3-.4,.2-.7,.5-.9,.8l-1.4-.2,1.2-6.2h6v1.4h-4.8l-.6,3.2c.7-.5,1.5-.8,2.3-.8,1.1,0,1.9,.4,2.7,1.1,.7,.7,1.1,1.7,1.1,2.8s-.3,2-.9,2.8c-.8,1-1.8,1.4-3.2,1.4-1.1,0-2-.3-2.7-.9-.8-.5-1.2-1.3-1.3-2.3Z"/>
    <path d="M465.35,1215.22h-1.5v-9.4c-.4,.3-.8,.7-1.4,1s-1.1,.6-1.5,.7v-1.4c.8-.4,1.5-.9,2.2-1.4,.6-.6,1.1-1.1,1.3-1.6h.9v12.1Zm4.2-5.9c0-1.4,.1-2.6,.4-3.4,.3-.9,.7-1.6,1.3-2,.6-.5,1.3-.7,2.2-.7,.6,0,1.2,.1,1.7,.4s.9,.6,1.2,1.1c.3,.5,.6,1.1,.7,1.8,.2,.7,.3,1.7,.3,2.9,0,1.4-.1,2.6-.4,3.4-.3,.9-.7,1.5-1.3,2-.6,.5-1.3,.7-2.2,.7-1.2,0-2.1-.4-2.7-1.3-.8-1-1.2-2.6-1.2-4.9Zm1.5,0c0,2,.2,3.3,.7,4s1,1,1.7,1,1.3-.3,1.7-1c.5-.7,.7-2,.7-4s-.2-3.3-.7-4-1-1-1.7-1-1.2,.3-1.6,.9c-.5,.7-.8,2.1-.8,4.1Z"/>
    <path d="M640.55,1215.22h-1.5v-9.4c-.4,.3-.8,.7-1.4,1-.6,.3-1.1,.6-1.5,.7v-1.4c.8-.4,1.5-.9,2.2-1.4,.6-.6,1.1-1.1,1.3-1.6h.9v12.1Zm4.3-3.1l1.6-.1c.1,.8,.4,1.3,.8,1.7,.4,.4,.9,.6,1.5,.6,.7,0,1.3-.3,1.8-.8s.7-1.3,.7-2.1-.2-1.5-.7-2-1.1-.7-1.9-.7c-.5,0-.9,.1-1.3,.3-.4,.2-.7,.5-.9,.8l-1.4-.2,1.2-6.2h6v1.4h-4.8l-.6,3.2c.7-.5,1.5-.8,2.3-.8,1.1,0,1.9,.4,2.7,1.1,.7,.7,1.1,1.7,1.1,2.8s-.3,2-.9,2.8c-.8,1-1.8,1.4-3.2,1.4-1.1,0-2-.3-2.7-.9-.8-.5-1.2-1.3-1.3-2.3Z"/>
    <path d="M818.05,1213.82v1.4h-8c0-.4,.1-.7,.2-1,.2-.5,.5-1.1,1-1.6s1.1-1.1,2-1.8c1.3-1.1,2.2-1.9,2.7-2.6,.5-.6,.7-1.2,.7-1.8s-.2-1.1-.6-1.5c-.4-.4-1-.6-1.6-.6-.7,0-1.3,.2-1.7,.6s-.6,1-.7,1.8l-1.5-.2c.1-1.1,.5-2,1.2-2.6s1.6-.9,2.8-.9,2.1,.3,2.7,1c.7,.6,1,1.4,1,2.4,0,.5-.1,1-.3,1.4-.2,.5-.5,.9-1,1.5-.5,.5-1.2,1.2-2.3,2.1-.9,.7-1.5,1.3-1.7,1.5-.2,.3-.5,.5-.6,.8h5.7v.1Zm2-4.5c0-1.4,.1-2.6,.4-3.4,.3-.9,.7-1.6,1.3-2,.6-.5,1.3-.7,2.2-.7,.6,0,1.2,.1,1.7,.4s.9,.6,1.2,1.1,.6,1.1,.7,1.8c.2,.7,.3,1.7,.3,2.9,0,1.4-.1,2.6-.4,3.4-.3,.9-.7,1.5-1.3,2s-1.3,.7-2.2,.7c-1.2,0-2.1-.4-2.7-1.3-.8-1-1.2-2.6-1.2-4.9Zm1.5,0c0,2,.2,3.3,.7,4s1,1,1.7,1,1.3-.3,1.7-1c.5-.7,.7-2,.7-4s-.2-3.3-.7-4-1-1-1.7-1-1.2,.3-1.6,.9c-.5,.7-.8,2.1-.8,4.1Z"/>
    <path class="cls-143" d="M275.65,804.22c0-.8,.6-1.4,1.4-1.4h14.1c.8,0,1.4,.6,1.4,1.4v14.1c0,.8-.6,1.4-1.4,1.4h-14.1c-.8,0-1.4-.6-1.4-1.4v-14.1Z"/>
    <path class="cls-170" d="M304.55,813.02l1.5-.1c.1,.6,.2,1.1,.5,1.5s.7,.7,1.2,.9c.6,.2,1.2,.4,1.9,.4,.6,0,1.1-.1,1.6-.3,.5-.2,.8-.4,1-.7,.2-.3,.4-.7,.4-1,0-.4-.1-.7-.3-1-.2-.3-.6-.5-1.1-.7-.3-.1-1.1-.3-2.2-.6-1.1-.3-1.9-.5-2.3-.7-.6-.3-1-.7-1.3-1.1-.3-.5-.4-1-.4-1.5,0-.6,.2-1.2,.5-1.7,.4-.5,.9-.9,1.5-1.2,.7-.3,1.4-.4,2.2-.4,.9,0,1.7,.1,2.4,.4,.7,.3,1.2,.7,1.6,1.3,.4,.6,.6,1.2,.6,1.9l-1.5,.1c-.1-.8-.4-1.3-.9-1.7-.5-.4-1.2-.6-2.1-.6-1,0-1.7,.2-2.1,.5-.4,.4-.7,.8-.7,1.3,0,.4,.2,.8,.5,1.1s1.1,.6,2.4,.9,2.2,.5,2.7,.8c.7,.3,1.2,.8,1.6,1.3,.3,.5,.5,1.1,.5,1.7s-.2,1.3-.5,1.8c-.4,.6-.9,1-1.6,1.3s-1.5,.5-2.3,.5c-1.1,0-2-.2-2.8-.5-.7-.3-1.3-.8-1.7-1.4-.6-1-.8-1.7-.8-2.5Zm17.6,1.1l1.5,.2c-.2,.9-.7,1.6-1.3,2.1-.7,.5-1.5,.7-2.5,.7-1.3,0-2.3-.4-3.1-1.2-.7-.8-1.1-1.9-1.1-3.3,0-1.5,.4-2.6,1.1-3.4,.8-.8,1.7-1.2,2.9-1.2s2.1,.4,2.9,1.2c.7,.8,1.1,1.9,1.1,3.4v.4h-6.5c.1,1,.3,1.7,.8,2.2s1.1,.7,1.8,.7c.5,0,1-.1,1.4-.4,.4-.4,.7-.8,1-1.4Zm-4.9-2.4h4.9c-.1-.7-.2-1.3-.5-1.7-.5-.6-1.1-.9-1.8-.9s-1.3,.2-1.7,.7c-.6,.5-.8,1.1-.9,1.9Zm8.7,8.5v-12.1h1.3v1.1c.3-.4,.7-.8,1.1-1s.9-.3,1.5-.3c.7,0,1.4,.2,2,.6s1,.9,1.3,1.6,.4,1.5,.4,2.3c0,.9-.2,1.7-.5,2.4-.3,.7-.8,1.3-1.4,1.6-.6,.4-1.3,.6-1.9,.6-.5,0-.9-.1-1.3-.3-.4-.2-.7-.5-1-.8v4.3h-1.5Zm1.4-7.7c0,1.1,.2,2,.7,2.5s1,.8,1.6,.8c.7,0,1.2-.3,1.7-.8,.5-.6,.7-1.4,.7-2.6,0-1.1-.2-1.9-.7-2.5s-1-.8-1.6-.8-1.2,.3-1.7,.9-.7,1.4-.7,2.5Z"/>
    <path class="cls-29" d="M357.15,804.22c0-.8,.6-1.4,1.4-1.4h14.1c.8,0,1.4,.6,1.4,1.4v14.1c0,.8-.6,1.4-1.4,1.4h-14.1c-.8,0-1.4-.6-1.4-1.4v-14.1Z"/>
    <path class="cls-170" d="M386.05,811.02c0-2,.5-3.6,1.6-4.7s2.5-1.7,4.2-1.7c1.1,0,2.1,.3,3,.8s1.6,1.3,2,2.2,.7,2,.7,3.2-.2,2.3-.7,3.3-1.2,1.7-2.1,2.2-1.9,.7-2.9,.7c-1.1,0-2.2-.3-3.1-.8-.9-.6-1.6-1.3-2-2.2-.4-.9-.7-1.9-.7-3Zm1.7,0c0,1.5,.4,2.6,1.2,3.4,.8,.8,1.8,1.3,3,1.3s2.2-.4,3-1.3c.8-.8,1.2-2.1,1.2-3.6,0-1-.2-1.8-.5-2.6-.3-.7-.8-1.3-1.4-1.7-.6-.4-1.4-.6-2.2-.6-1.1,0-2.1,.4-2.9,1.2-1,.8-1.4,2.1-1.4,3.9Zm17,2.7l1.4,.2c-.2,1-.6,1.8-1.2,2.3s-1.5,.9-2.4,.9c-1.2,0-2.2-.4-2.9-1.2-.7-.8-1.1-1.9-1.1-3.4,0-.9,.2-1.8,.5-2.5s.8-1.3,1.4-1.6c.6-.4,1.3-.5,2.1-.5,.9,0,1.7,.2,2.3,.7,.6,.5,1,1.1,1.2,2l-1.4,.2c-.1-.6-.4-1-.7-1.3-.4-.3-.8-.5-1.3-.5-.7,0-1.4,.3-1.8,.8-.5,.5-.7,1.4-.7,2.5,0,1.2,.2,2,.7,2.6,.5,.5,1,.8,1.8,.8,.6,0,1.1-.2,1.4-.5,.3-.2,.6-.8,.7-1.5Zm5.9,1.9l.2,1.3c-.4,.1-.8,.1-1.1,.1-.5,0-1-.1-1.3-.2-.3-.2-.5-.4-.6-.7-.1-.3-.2-.9-.2-1.8v-5h-1.1v-1.1h1.1v-2.2l1.5-.9v3.1h1.5v1.1h-1.5v5.1c0,.4,0,.7,.1,.8,.1,.1,.1,.2,.3,.3,.1,.1,.3,.1,.5,.1,.2,0,.4,0,.6,0Z"/>
    <path class="cls-27" d="M433.05,804.22c0-.8,.6-1.4,1.4-1.4h14.1c.8,0,1.4,.6,1.4,1.4v14.1c0,.8-.6,1.4-1.4,1.4h-14.1c-.8,0-1.4-.6-1.4-1.4v-14.1Z"/>
    <path class="cls-170" d="M462.45,816.92v-12.1h1.6l6.3,9.5v-9.5h1.5v12.1h-1.6l-6.3-9.5v9.5h-1.5Zm11.9-4.4c0-1.6,.4-2.8,1.3-3.6,.7-.6,1.7-1,2.7-1,1.2,0,2.2,.4,2.9,1.2,.8,.8,1.2,1.9,1.2,3.2,0,1.1-.2,2-.5,2.7-.3,.6-.8,1.1-1.5,1.5-.6,.4-1.3,.5-2.1,.5-1.2,0-2.2-.4-3-1.2-.6-.7-1-1.8-1-3.3Zm1.5,0c0,1.1,.2,1.9,.7,2.5s1.1,.8,1.8,.8,1.4-.3,1.8-.8c.5-.6,.7-1.4,.7-2.5s-.2-1.9-.7-2.5-1.1-.8-1.8-.8-1.3,.3-1.8,.8c-.4,.5-.7,1.4-.7,2.5Zm11.3,4.4l-3.3-8.7h1.6l1.9,5.2c.2,.6,.4,1.2,.5,1.8,.1-.5,.3-1,.5-1.6l2-5.3h1.5l-3.3,8.7h-1.4v-.1Z"/>
    <path class="cls-159" d="M513.15,804.22c0-.8,.6-1.4,1.4-1.4h14c.8,0,1.4,.6,1.4,1.4v14.1c0,.8-.6,1.4-1.4,1.4h-14c-.8,0-1.4-.6-1.4-1.4v-14.1Z"/>
    <path class="cls-170" d="M542.55,816.92v-12.1h4.2c.9,0,1.7,.1,2.2,.2,.7,.2,1.3,.4,1.8,.9,.6,.5,1.1,1.2,1.4,2.1,.3,.8,.5,1.8,.5,2.9,0,.9-.1,1.7-.3,2.4-.2,.7-.5,1.3-.8,1.8s-.7,.8-1.1,1.1c-.4,.3-.9,.5-1.4,.6-.6,.1-1.2,.2-1.9,.2h-4.6v-.1Zm1.6-1.5h2.6c.8,0,1.4-.1,1.9-.2s.8-.4,1.1-.6c.4-.4,.7-.9,.9-1.5s.3-1.4,.3-2.3c0-1.3-.2-2.2-.6-2.9-.4-.7-.9-1.1-1.5-1.4-.4-.2-1.1-.2-2.1-.2h-2.5v9.1h-.1Zm16.8-1.3l1.5,.2c-.2,.9-.7,1.6-1.3,2.1-.7,.5-1.5,.7-2.5,.7-1.3,0-2.3-.4-3.1-1.2-.7-.8-1.1-1.9-1.1-3.3,0-1.5,.4-2.6,1.1-3.4,.8-.8,1.7-1.2,2.9-1.2s2.1,.4,2.9,1.2c.7,.8,1.1,1.9,1.1,3.4v.4h-6.5c.1,1,.3,1.7,.8,2.2s1.1,.7,1.8,.7c.5,0,1-.1,1.4-.4,.5-.4,.8-.8,1-1.4Zm-4.8-2.4h4.9c-.1-.7-.2-1.3-.5-1.7-.5-.6-1.1-.9-1.8-.9s-1.3,.2-1.7,.7c-.6,.5-.9,1.1-.9,1.9Zm14.4,2l1.4,.2c-.2,1-.6,1.8-1.2,2.3-.7,.6-1.5,.9-2.4,.9-1.2,0-2.2-.4-2.9-1.2-.7-.8-1.1-1.9-1.1-3.4,0-.9,.2-1.8,.5-2.5s.8-1.3,1.4-1.6c.6-.4,1.3-.5,2.1-.5,.9,0,1.7,.2,2.3,.7s1,1.1,1.2,2l-1.4,.2c-.1-.6-.4-1-.7-1.3-.4-.3-.8-.5-1.3-.5-.7,0-1.4,.3-1.8,.8-.5,.5-.7,1.4-.7,2.5,0,1.2,.2,2,.7,2.6,.5,.5,1,.8,1.8,.8,.6,0,1.1-.2,1.4-.5,.3-.2,.6-.8,.7-1.5Z"/>
    <path class="cls-216" d="M30.55,777.02v-20.1h4l4.7,14.2c.4,1.3,.8,2.3,1,3,.2-.7,.6-1.8,1.1-3.2l4.8-14h3.6v20.1h-2.5v-16.8l-5.9,16.8h-2.4l-5.8-17.1v17.1h-2.6Zm22.8-7.3c0-2.7,.7-4.7,2.2-6,1.3-1.1,2.8-1.6,4.6-1.6,2,0,3.6,.7,4.9,2s1.9,3.1,1.9,5.4c0,1.9-.3,3.4-.8,4.4-.6,1.1-1.4,1.9-2.5,2.5s-2.2,.9-3.5,.9c-2,0-3.7-.7-5-2-1.2-1.2-1.8-3.1-1.8-5.6Zm2.5,0c0,1.9,.4,3.3,1.2,4.2,.8,.9,1.9,1.4,3.1,1.4s2.2-.5,3.1-1.4c.8-.9,1.2-2.4,1.2-4.3,0-1.8-.4-3.2-1.2-4.1-.8-.9-1.8-1.4-3.1-1.4-1.2,0-2.3,.5-3.1,1.4-.8,1-1.2,2.4-1.2,4.2Zm12.9,0c0-2.7,.7-4.7,2.2-6,1.3-1.1,2.8-1.6,4.6-1.6,2,0,3.6,.7,4.9,2s1.9,3.1,1.9,5.4c0,1.9-.3,3.4-.8,4.4-.6,1.1-1.4,1.9-2.5,2.5s-2.2,.9-3.5,.9c-2,0-3.7-.7-5-2-1.2-1.2-1.8-3.1-1.8-5.6Zm2.5,0c0,1.9,.4,3.3,1.2,4.2,.8,.9,1.9,1.4,3.1,1.4s2.2-.5,3.1-1.4c.8-.9,1.2-2.4,1.2-4.3,0-1.8-.4-3.2-1.2-4.1-.8-.9-1.8-1.4-3.1-1.4-1.2,0-2.3,.5-3.1,1.4-.8,1-1.2,2.4-1.2,4.2Zm23.3,7.3v-1.8c-.9,1.4-2.3,2.2-4.1,2.2-1.2,0-2.2-.3-3.2-1-1-.6-1.7-1.5-2.3-2.7-.5-1.1-.8-2.5-.8-4s.2-2.8,.7-4,1.2-2.1,2.2-2.7,2.1-.9,3.2-.9c.9,0,1.7,.2,2.3,.6,.7,.4,1.3,.8,1.7,1.4v-7.2h2.4v20.1h-2.1Zm-7.8-7.3c0,1.9,.4,3.2,1.2,4.2,.8,.9,1.7,1.4,2.8,1.4s2-.4,2.7-1.3c.8-.9,1.1-2.2,1.1-4,0-2-.4-3.5-1.2-4.4-.8-.9-1.7-1.4-2.8-1.4s-2,.5-2.8,1.4c-.6,.8-1,2.2-1,4.1Zm27,13.2c-1.4-1.7-2.5-3.7-3.4-6s-1.4-4.7-1.4-7.2c0-2.2,.4-4.3,1.1-6.3,.8-2.3,2.1-4.6,3.8-6.9h1.8c-1.1,1.9-1.8,3.3-2.2,4.1-.6,1.3-1,2.6-1.3,4-.4,1.7-.6,3.4-.6,5.2,0,4.4,1.4,8.8,4.1,13.2h-1.9v-.1Zm3.2-5.9l7.7-20.1h2.9l8.2,20.1h-3l-2.3-6.1h-8.4l-2.2,6.1h-2.9Zm5.8-8.2h6.8l-2.1-5.6c-.6-1.7-1.1-3.1-1.4-4.2-.3,1.3-.6,2.6-1.1,3.8l-2.2,6Zm14.3,8.2v-20.1h2.5v20.1h-2.5Zm5.6,0v-20.1h2.5v20.1h-2.5Zm14.1,0v-14.6h2.2v2c.5-.7,1.1-1.3,1.8-1.7,.8-.4,1.6-.7,2.6-.7,1.1,0,2,.2,2.7,.7,.7,.4,1.2,1.1,1.5,1.9,1.2-1.7,2.7-2.5,4.5-2.5,1.4,0,2.6,.4,3.3,1.2,.8,.8,1.2,2,1.2,3.7v10h-2.5v-9.2c0-1-.1-1.7-.2-2.1-.2-.4-.5-.8-.9-1.1-.4-.3-.9-.4-1.5-.4-1,0-1.9,.3-2.6,1-.7,.7-1,1.8-1,3.2v8.5h-2.5v-9.5c0-1.1-.2-1.9-.6-2.5-.4-.6-1.1-.8-2-.8-.7,0-1.3,.2-1.9,.5-.6,.4-1,.9-1.3,1.6s-.4,1.7-.4,3.1v7.6h-2.4v.1Zm21.6-7.3c0-2.7,.7-4.7,2.2-6,1.3-1.1,2.8-1.6,4.6-1.6,2,0,3.6,.7,4.9,2,1.3,1.3,1.9,3.1,1.9,5.4,0,1.9-.3,3.4-.8,4.4-.6,1.1-1.4,1.9-2.5,2.5s-2.2,.9-3.5,.9c-2,0-3.7-.7-5-2-1.2-1.2-1.8-3.1-1.8-5.6Zm2.5,0c0,1.9,.4,3.3,1.2,4.2,.8,.9,1.9,1.4,3.1,1.4s2.2-.5,3.1-1.4c.8-.9,1.2-2.4,1.2-4.3,0-1.8-.4-3.2-1.2-4.1s-1.8-1.4-3.1-1.4c-1.2,0-2.3,.5-3.1,1.4-.8,1-1.2,2.4-1.2,4.2Zm13.9,7.3v-14.6h2.2v2.1c1.1-1.6,2.6-2.4,4.6-2.4,.9,0,1.7,.2,2.4,.5s1.3,.7,1.7,1.2,.6,1.1,.8,1.8c.1,.5,.1,1.3,.1,2.4v9h-2.5v-8.9c0-1-.1-1.8-.3-2.3s-.5-.9-1-1.2c-.5-.3-1.1-.4-1.7-.4-1.1,0-2,.3-2.7,1-.8,.7-1.1,1.9-1.1,3.8v8h-2.5Zm19.4-2.2l.4,2.2c-.7,.1-1.3,.2-1.9,.2-.9,0-1.6-.1-2.1-.4s-.8-.7-1-1.1c-.2-.5-.3-1.4-.3-2.9v-8.4h-1.8v-1.9h1.8v-3.6l2.5-1.5v5.1h2.5v1.9h-2.5v8.5c0,.7,0,1.2,.1,1.4,.1,.2,.2,.4,.4,.5s.5,.2,.9,.2c.2-.1,.6-.1,1-.2Zm3,2.2v-20.1h2.5v7.2c1.2-1.3,2.6-2,4.4-2,1.1,0,2,.2,2.8,.6s1.4,1,1.7,1.8c.4,.7,.5,1.8,.5,3.2v9.2h-2.5v-9.2c0-1.2-.3-2.1-.8-2.7s-1.3-.9-2.3-.9c-.7,0-1.4,.2-2.1,.6-.6,.4-1.1,.9-1.4,1.6-.3,.6-.4,1.5-.4,2.7v8h-2.4Zm13.1-4.3l2.5-.4c.1,1,.5,1.7,1.1,2.3,.6,.5,1.5,.8,2.6,.8s2-.2,2.5-.7c.6-.5,.8-1,.8-1.6s-.2-1-.7-1.3c-.3-.2-1.2-.5-2.5-.8-1.8-.5-3.1-.9-3.8-1.2-.7-.3-1.2-.8-1.6-1.4-.4-.6-.5-1.3-.5-2,0-.6,.1-1.2,.4-1.8,.3-.6,.7-1,1.2-1.4,.4-.3,.9-.5,1.6-.7,.7-.2,1.4-.3,2.2-.3,1.1,0,2.1,.2,3,.5s1.5,.8,1.9,1.3c.4,.6,.7,1.3,.9,2.2l-2.4,.3c-.1-.7-.4-1.3-1-1.7-.5-.4-1.3-.6-2.2-.6-1.1,0-2,.2-2.4,.6-.5,.4-.7,.8-.7,1.3,0,.3,.1,.6,.3,.9s.5,.5,.9,.7c.2,.1,1,.3,2.2,.6,1.8,.5,3,.9,3.7,1.2,.7,.3,1.2,.7,1.6,1.3,.4,.6,.6,1.3,.6,2.1s-.2,1.6-.7,2.3-1.2,1.3-2.1,1.7-1.9,.6-3.1,.6c-1.9,0-3.3-.4-4.3-1.2-1.1-.9-1.7-2.1-2-3.6Zm16.7,10.2h-1.8c2.7-4.4,4.1-8.8,4.1-13.2,0-1.7-.2-3.4-.6-5.1-.3-1.4-.8-2.7-1.3-4-.4-.8-1.1-2.2-2.2-4.1h1.8c1.7,2.3,3,4.6,3.8,6.9,.7,2,1.1,4.1,1.1,6.3,0,2.5-.5,4.9-1.4,7.2-1,2.3-2.2,4.3-3.5,6Z"/>
  </g>
</svg>