<?xml version="1.0" encoding="utf-8"?>
<!-- Generator: Adobe Illustrator 26.5.0, SVG Export Plug-In . SVG Version: 6.00 Build 0)  -->
<svg version="1.1" id="Layer_1" xmlns="http://www.w3.org/2000/svg" xmlns:xlink="http://www.w3.org/1999/xlink" x="0px" y="0px"
	 viewBox="0 0 847.9 1682.3" style="enable-background:new 0 0 847.9 1682.3;" xml:space="preserve">
<style type="text/css">
	.st0{fill:#FFFFFF;}
	.st1{fill:#2FA148;}
	.st2{fill:#9268AD;}
	.st3{fill:#2278B5;}
	.st4{fill:#F57F20;}
	.st5{fill:#D62A28;}
	.st6{fill:#010101;}
	.st7{font-family:'Arial-BoldMT';}
	.st8{font-size:19.85px;}
	.st9{font-family:'ArialMT';}
	.st10{fill:none;stroke:#CCCCCC;}
	.st11{font-size:23.82px;}
	.st12{font-family:'MyriadPro-Regular';}
	.st13{fill:#1A4685;}
	.st14{fill:#203569;}
	.st15{fill:#BBD6EB;}
	.st16{fill:#549ECD;}
	.st17{fill:#A3CBE3;}
	.st18{fill:#DBE8F5;}
	.st19{fill:#408EC3;}
	.st20{fill:#EAF2FB;}
	.st21{fill:#F7FCFE;}
	.st22{fill:#CDE0F0;}
	.st23{fill:#89BEDC;}
	.st24{fill:#0F569E;}
	.st25{fill:#6DADD5;}
	.st26{fill:#2D7BB9;}
	.st27{font-size:15.64px;}
	.st28{fill:#F6FAFE;}
	.st29{fill:#F5FBFE;}
	.st30{fill:#F4F9FD;}
	.st31{fill:#F2F7FC;}
	.st32{fill:#F3F9FD;}
	.st33{fill:#F1F7FC;}
	.st34{fill:#F1F6FC;}
	.st35{fill:#EFF6FC;}
	.st36{fill:#EDF4FB;}
	.st37{fill:#EDF3FB;}
	.st38{fill:#ECF4FB;}
	.st39{fill:#EBF3FB;}
	.st40{fill:#E9F2FA;}
	.st41{fill:#E8F1FA;}
	.st42{fill:#E7F0FA;}
	.st43{fill:#E5EEF9;}
	.st44{fill:#E4EFFA;}
	.st45{fill:#E3EEF9;}
	.st46{fill:#E2ECF8;}
	.st47{fill:#E1ECF8;}
	.st48{fill:#E0EBF8;}
	.st49{fill:#DFEAF6;}
	.st50{fill:#DEE9F7;}
	.st51{fill:#DCE9F5;}
	.st52{fill:#D9E8F7;}
	.st53{fill:#DAE7F5;}
	.st54{fill:#D8E7F5;}
	.st55{fill:#D6E6F3;}
	.st56{fill:#D5E5F5;}
	.st57{fill:#D4E5F3;}
	.st58{fill:#D3E4F3;}
	.st59{fill:#D2E3F2;}
	.st60{fill:#D1E3F3;}
	.st61{fill:#D0E2F1;}
	.st62{fill:#D0E1F2;}
	.st63{fill:#CEE1F1;}
	.st64{fill:#CCDFF0;}
	.st65{fill:#CBDEEF;}
	.st66{fill:#CADEF0;}
	.st67{fill:#C9DDEE;}
	.st68{fill:#C7DCEE;}
	.st69{fill:#C6DCEE;}
	.st70{fill:#C5DBED;}
	.st71{fill:#C3DBED;}
	.st72{fill:#C2DAEC;}
	.st73{fill:#C1D9ED;}
	.st74{fill:#BFD9EC;}
	.st75{fill:#BED8EB;}
	.st76{fill:#BCD7EB;}
	.st77{fill:#B9D6EA;}
	.st78{fill:#B7D5E9;}
	.st79{fill:#B6D5E9;}
	.st80{fill:#B5D4E9;}
	.st81{fill:#B3D2E7;}
	.st82{fill:#B0D2E6;}
	.st83{fill:#AED1E6;}
	.st84{fill:#ACD0E6;}
	.st85{fill:#ABCEE5;}
	.st86{fill:#A9CEE5;}
	.st87{fill:#A7CDE4;}
	.st88{fill:#A5CDE3;}
	.st89{fill:#A3CCE3;}
	.st90{fill:#A2CBE3;}
	.st91{fill:#A0CAE3;}
	.st92{fill:#9EC9E2;}
	.st93{fill:#9DC9E2;}
	.st94{fill:#9BC7E1;}
	.st95{fill:#99C6E0;}
	.st96{fill:#97C5E0;}
	.st97{fill:#95C4DF;}
	.st98{fill:#93C3DE;}
	.st99{fill:#91C2DE;}
	.st100{fill:#8FC1DD;}
	.st101{fill:#8DC1DD;}
	.st102{fill:#8BBFDD;}
	.st103{fill:#87BDDC;}
	.st104{fill:#85BBDB;}
	.st105{fill:#83BADB;}
	.st106{fill:#82BADA;}
	.st107{fill:#80B9DB;}
	.st108{fill:#7EB8D9;}
	.st109{fill:#7BB6D9;}
	.st110{fill:#7AB5D8;}
	.st111{fill:#77B4D8;}
	.st112{fill:#75B2D8;}
	.st113{fill:#74B2D8;}
	.st114{fill:#70B0D6;}
	.st115{fill:#6FAFD5;}
	.st116{fill:#6BACD4;}
	.st117{fill:#69ABD4;}
	.st118{fill:#67AAD3;}
	.st119{fill:#64A9D3;}
	.st120{fill:#63A7D2;}
	.st121{fill:#61A6D1;}
	.st122{fill:#60A5D1;}
	.st123{fill:#5EA4D0;}
	.st124{fill:#5CA3CF;}
	.st125{fill:#59A1CF;}
	.st126{fill:#57A0CE;}
	.st127{fill:#569FCD;}
	.st128{fill:#529DCC;}
	.st129{fill:#529BCB;}
	.st130{fill:#509ACB;}
	.st131{fill:#4F99CA;}
	.st132{fill:#4C99C9;}
	.st133{fill:#4C97C9;}
	.st134{fill:#4995C8;}
	.st135{fill:#4894C7;}
	.st136{fill:#4794C7;}
	.st137{fill:#4792C6;}
	.st138{fill:#4291C5;}
	.st139{fill:#4190C6;}
	.st140{fill:#3F8EC5;}
	.st141{fill:#3D8DC4;}
	.st142{fill:#3C8BC3;}
	.st143{fill:#3A8AC3;}
	.st144{fill:#3989C2;}
	.st145{fill:#3788C1;}
	.st146{fill:#3586C1;}
	.st147{fill:#3485C0;}
	.st148{fill:#3384BF;}
	.st149{fill:#3482BD;}
	.st150{fill:#3280BD;}
	.st151{fill:#3180BC;}
	.st152{fill:#317EBB;}
	.st153{fill:#2E7DBA;}
	.st154{fill:#2C7AB8;}
	.st155{fill:#2979B8;}
	.st156{fill:#2977B7;}
	.st157{fill:#2976B6;}
	.st158{fill:#2675B5;}
	.st159{fill:#2473B4;}
	.st160{fill:#2372B3;}
	.st161{fill:#2470B3;}
	.st162{fill:#206FB2;}
	.st163{fill:#206EB1;}
	.st164{fill:#1E6CB0;}
	.st165{fill:#1E6BB0;}
	.st166{fill:#1C6BAF;}
	.st167{fill:#1C68AE;}
	.st168{fill:#1B67AC;}
	.st169{fill:#1965AC;}
	.st170{fill:#1964AA;}
	.st171{fill:#1864A9;}
	.st172{fill:#1662A8;}
	.st173{fill:#1760A7;}
	.st174{fill:#1560A7;}
	.st175{fill:#135DA6;}
	.st176{fill:#145CA3;}
	.st177{fill:#135BA2;}
	.st178{fill:#1259A1;}
	.st179{fill:#12589F;}
	.st180{fill:#0F559D;}
	.st181{fill:#0A549A;}
	.st182{fill:#0D5299;}
	.st183{fill:#0D5196;}
	.st184{fill:#0C5095;}
	.st185{fill:#074F94;}
	.st186{fill:#0C4E91;}
	.st187{fill:#104C8F;}
	.st188{fill:#124B8E;}
	.st189{fill:#144A8C;}
	.st190{fill:#164989;}
	.st191{fill:#184787;}
	.st192{fill:#194686;}
	.st193{fill:#1C4584;}
	.st194{fill:#1D4482;}
	.st195{fill:#1E427F;}
	.st196{fill:#1E417E;}
	.st197{fill:#1F407C;}
	.st198{fill:#203E79;}
	.st199{fill:#203E77;}
	.st200{fill:#213C75;}
	.st201{fill:#213B72;}
	.st202{fill:#213A70;}
	.st203{fill:#20386E;}
	.st204{fill:#20376C;}
	.st205{fill:#20366B;}
	.st206{font-size:18.77px;}
	.st207{fill:#DB474B;}
	.st208{fill:#FDF2A9;}
	.st209{fill:#E5ECA5;}
	.st210{fill:#DBE8A0;}
	.st211{fill:#467AB3;}
	.st212{fill:#F2F2B0;}
	.st213{fill:#76C5A7;}
	.st214{fill:#FDC374;}
	.st215{fill:#EA6249;}
	.st216{fill:#4DA2B2;}
	.st217{fill:#4695B5;}
	.st218{fill:#4488B5;}
	.st219{fill:#4B6CAE;}
	.st220{fill:#FFD988;}
	.st221{fill:#FFCF7E;}
	.st222{fill:#F68B54;}
	.st223{fill:#57AFAD;}
	.st224{fill:#B81E49;}
	.st225{fill:#9E1B45;}
	.st226{fill:#5F50A2;}
	.st227{fill:#FBF5B0;}
	.st228{fill:#FCB56A;}
	.st229{fill:#86CCA5;}
	.st230{fill:#E2544A;}
	.st231{fill:#EDEFAA;}
	.st232{fill:#68BCA9;}
	.st233{fill:#D1E49F;}
	.st234{fill:#C52F4B;}
	.st235{fill:#EE6D4B;}
	.st236{fill:#F47C4D;}
	.st237{fill:#FDE293;}
	.st238{fill:#FAA761;}
	.st239{fill:#555EA9;}
	.st240{fill:#AC1D48;}
	.st241{fill:#B6DAA1;}
	.st242{fill:#A7D6A2;}
	.st243{fill:#D03D4C;}
	.st244{fill:#FDEA9E;}
	.st245{fill:#C4DF9F;}
	.st246{fill:#97D0A3;}
	.st247{fill:#F8F4B3;}
	.st248{fill:#F8995A;}
	.st249{font-size:13.7px;}
	.st250{font-size:9.62px;}
	.st251{letter-spacing:-1;}
	.st252{font-size:11.55px;}
	.st253{fill:none;stroke:#333333;stroke-miterlimit:10;}
	.st254{fill:none;stroke:#CCCCCC;stroke-miterlimit:10;}
	
		.st255{clip-path:url(#SVGID_00000165929911839059710770000017902312453099496890_);fill:none;stroke:#000000;stroke-width:2;stroke-miterlimit:10;stroke-opacity:0;}
	.st256{clip-path:url(#SVGID_00000120532131508370097040000012210459902060371607_);fill:#4285F4;}
	
		.st257{clip-path:url(#SVGID_00000089557472829154137610000013771865458750640014_);fill:none;stroke:#000000;stroke-width:2;stroke-miterlimit:10;stroke-opacity:0;}
	.st258{clip-path:url(#SVGID_00000173162347961691006630000000781488598827157393_);fill:#4285F4;}
	
		.st259{clip-path:url(#SVGID_00000093142479442707880940000004568176723793033399_);fill:none;stroke:#000000;stroke-width:2;stroke-miterlimit:10;stroke-opacity:0;}
	.st260{clip-path:url(#SVGID_00000026160932620538296290000002295336900434271373_);fill:#4285F4;}
	
		.st261{clip-path:url(#SVGID_00000034783206985938857950000014722639150692833157_);fill:none;stroke:#000000;stroke-width:2;stroke-miterlimit:10;stroke-opacity:0;}
	.st262{clip-path:url(#SVGID_00000061456530180851316340000005251244904369773711_);fill:#4285F4;}
	
		.st263{clip-path:url(#SVGID_00000133498465299531985720000014645488465729709471_);fill:none;stroke:#000000;stroke-width:2;stroke-miterlimit:10;stroke-opacity:0;}
	.st264{clip-path:url(#SVGID_00000101786079718720105320000007135790646997678219_);fill:#EA4335;}
	
		.st265{clip-path:url(#SVGID_00000031917457070288798950000003807056566598469000_);fill:none;stroke:#000000;stroke-width:2;stroke-miterlimit:10;stroke-opacity:0;}
	.st266{clip-path:url(#SVGID_00000104665674251773241720000005788345141082805172_);fill:#EA4335;}
	
		.st267{clip-path:url(#SVGID_00000073680834011761674910000001788406973700134324_);fill:none;stroke:#000000;stroke-width:2;stroke-miterlimit:10;stroke-opacity:0;}
	.st268{clip-path:url(#SVGID_00000045584201704381927580000002919755871617833100_);fill:#EA4335;}
	
		.st269{clip-path:url(#SVGID_00000018924102674737471870000011047660123140930693_);fill:none;stroke:#000000;stroke-width:2;stroke-miterlimit:10;stroke-opacity:0;}
	.st270{clip-path:url(#SVGID_00000153696001216801138400000001614789115380136870_);fill:#EA4335;}
	
		.st271{clip-path:url(#SVGID_00000004527176297847863090000009201629559459975096_);fill:none;stroke:#000000;stroke-width:2;stroke-miterlimit:10;stroke-opacity:0;}
	.st272{clip-path:url(#SVGID_00000036209123276286027810000011078990000428524944_);fill:#FBBC04;}
	
		.st273{clip-path:url(#SVGID_00000164494151087500209030000007816934372588223616_);fill:none;stroke:#000000;stroke-width:2;stroke-miterlimit:10;stroke-opacity:0;}
	.st274{clip-path:url(#SVGID_00000003083764054738522020000003586655174023913137_);fill:#FBBC04;}
	
		.st275{clip-path:url(#SVGID_00000157269335649661136500000017023241029723140499_);fill:none;stroke:#000000;stroke-width:2;stroke-miterlimit:10;stroke-opacity:0;}
	.st276{clip-path:url(#SVGID_00000071523946902298984940000012798399560289251261_);fill:#FBBC04;}
	
		.st277{clip-path:url(#SVGID_00000046336652834209423140000013375451968712645819_);fill:none;stroke:#000000;stroke-width:2;stroke-miterlimit:10;stroke-opacity:0;}
	.st278{clip-path:url(#SVGID_00000111903987881785125350000010879338676361052034_);fill:#FBBC04;}
	
		.st279{clip-path:url(#SVGID_00000096050527187048418840000015506928675061698954_);fill:none;stroke:#000000;stroke-width:2;stroke-miterlimit:10;stroke-opacity:0;}
	.st280{clip-path:url(#SVGID_00000140723260420742528800000005693414116966477697_);fill:#34A853;}
	
		.st281{clip-path:url(#SVGID_00000055679248134326692420000010067237948268450480_);fill:none;stroke:#000000;stroke-width:2;stroke-miterlimit:10;stroke-opacity:0;}
	.st282{clip-path:url(#SVGID_00000146491303411258854480000001104124678977609376_);fill:#34A853;}
	.st283{fill:#4285F4;}
	.st284{fill:#1A1A1A;}
	.st285{fill:#EA4335;}
	.st286{fill:#FBBC04;}
	.st287{fill:#34A853;}
	.st288{fill:#757575;}
</style>
<g>
	<rect id="background" x="11.5" class="st0" width="736" height="397"/>
	<g id="visualization">
		<g id="Sat_Jan_01_2022_00:00:00_GMT-0500_Eastern_Standard_Time_">
			<rect x="112.4" y="176.1" class="st1" width="24.8" height="24.8"/>
			<rect x="112.4" y="202.9" class="st1" width="24.8" height="24.8"/>
			<rect x="112.4" y="229.5" class="st1" width="24.8" height="24.8"/>
			<rect x="112.4" y="256.3" class="st2" width="24.8" height="24.8"/>
			<rect x="139" y="95.9" class="st3" width="24.8" height="24.8"/>
			<rect x="139" y="122.7" class="st1" width="24.8" height="24.8"/>
			<rect x="139" y="149.3" class="st1" width="24.8" height="24.8"/>
			<rect x="139" y="176.1" class="st1" width="24.8" height="24.8"/>
			<rect x="139" y="202.9" class="st1" width="24.8" height="24.8"/>
			<rect x="139" y="229.5" class="st1" width="24.8" height="24.8"/>
			<rect x="139" y="256.3" class="st4" width="24.8" height="24.8"/>
			<rect x="165.8" y="95.9" class="st1" width="24.8" height="24.8"/>
			<rect x="165.8" y="122.7" class="st2" width="24.8" height="24.8"/>
			<rect x="165.8" y="149.3" class="st2" width="24.8" height="24.8"/>
			<rect x="165.8" y="176.1" class="st2" width="24.8" height="24.8"/>
			<rect x="165.8" y="202.9" class="st2" width="24.8" height="24.8"/>
			<rect x="165.8" y="229.5" class="st1" width="24.8" height="24.8"/>
			<rect x="165.8" y="256.3" class="st1" width="24.8" height="24.8"/>
			<rect x="192.6" y="95.9" class="st1" width="24.8" height="24.8"/>
			<rect x="192.6" y="122.7" class="st2" width="24.8" height="24.8"/>
			<rect x="192.6" y="149.3" class="st1" width="24.8" height="24.8"/>
			<rect x="192.6" y="176.1" class="st1" width="24.8" height="24.8"/>
			<rect x="192.6" y="202.9" class="st1" width="24.8" height="24.8"/>
			<rect x="192.6" y="229.5" class="st1" width="24.8" height="24.8"/>
			<rect x="192.6" y="256.3" class="st1" width="24.8" height="24.8"/>
			<rect x="219.2" y="95.9" class="st2" width="24.8" height="24.8"/>
			<rect x="219.2" y="122.7" class="st3" width="24.8" height="24.8"/>
			<rect x="219.2" y="149.3" class="st2" width="24.8" height="24.8"/>
			<rect x="219.2" y="176.1" class="st2" width="24.8" height="24.8"/>
			<rect x="219.2" y="202.9" class="st1" width="24.8" height="24.8"/>
			<rect x="219.2" y="229.5" class="st1" width="24.8" height="24.8"/>
			<rect x="219.2" y="256.3" class="st2" width="24.8" height="24.8"/>
			<rect x="246" y="95.9" class="st1" width="24.8" height="24.8"/>
			<rect x="246" y="122.7" class="st2" width="24.8" height="24.8"/>
			<rect x="246" y="176.1" class="st1" width="24.8" height="24.8"/>
			<rect x="246" y="202.9" class="st1" width="24.8" height="24.8"/>
			<rect x="246" y="229.5" class="st1" width="24.8" height="24.8"/>
			<rect x="272.8" y="95.9" class="st1" width="24.8" height="24.8"/>
			<rect x="272.8" y="149.3" class="st3" width="24.8" height="24.8"/>
			<rect x="272.8" y="176.1" class="st1" width="24.8" height="24.8"/>
			<rect x="272.8" y="202.9" class="st1" width="24.8" height="24.8"/>
			<rect x="272.8" y="229.5" class="st2" width="24.8" height="24.8"/>
			<rect x="272.8" y="256.3" class="st1" width="24.8" height="24.8"/>
			<rect x="299.4" y="122.7" class="st1" width="24.8" height="24.8"/>
			<rect x="299.4" y="149.3" class="st2" width="24.8" height="24.8"/>
			<rect x="299.4" y="176.1" class="st2" width="24.8" height="24.8"/>
			<rect x="299.4" y="202.9" class="st2" width="24.8" height="24.8"/>
			<rect x="299.4" y="229.5" class="st1" width="24.8" height="24.8"/>
			<rect x="299.4" y="256.3" class="st1" width="24.8" height="24.8"/>
			<rect x="326.2" y="95.9" class="st1" width="24.8" height="24.8"/>
			<rect x="326.2" y="122.7" class="st2" width="24.8" height="24.8"/>
			<rect x="326.2" y="149.3" class="st1" width="24.8" height="24.8"/>
			<rect x="326.2" y="176.1" class="st2" width="24.8" height="24.8"/>
			<rect x="326.2" y="202.9" class="st2" width="24.8" height="24.8"/>
			<rect x="326.2" y="256.3" class="st2" width="24.8" height="24.8"/>
			<rect x="352.8" y="95.9" class="st2" width="24.8" height="24.8"/>
			<rect x="352.8" y="149.3" class="st1" width="24.8" height="24.8"/>
			<rect x="352.8" y="176.1" class="st1" width="24.8" height="24.8"/>
			<rect x="352.8" y="202.9" class="st1" width="24.8" height="24.8"/>
			<rect x="352.8" y="229.5" class="st1" width="24.8" height="24.8"/>
			<rect x="352.8" y="256.3" class="st2" width="24.8" height="24.8"/>
			<rect x="379.6" y="149.3" class="st4" width="24.8" height="24.8"/>
			<rect x="379.6" y="202.9" class="st1" width="24.8" height="24.8"/>
			<rect x="379.6" y="229.5" class="st5" width="24.8" height="24.8"/>
			<rect x="379.6" y="256.3" class="st1" width="24.8" height="24.8"/>
			<rect x="406.4" y="95.9" class="st1" width="24.8" height="24.8"/>
			<rect x="406.4" y="122.7" class="st1" width="24.8" height="24.8"/>
			<rect x="406.4" y="149.3" class="st4" width="24.8" height="24.8"/>
			<rect x="406.4" y="176.1" class="st4" width="24.8" height="24.8"/>
			<rect x="406.4" y="202.9" class="st4" width="24.8" height="24.8"/>
			<rect x="406.4" y="229.5" class="st1" width="24.8" height="24.8"/>
			<rect x="406.4" y="256.3" class="st2" width="24.8" height="24.8"/>
			<rect x="433" y="95.9" class="st2" width="24.8" height="24.8"/>
			<rect x="433" y="149.3" class="st1" width="24.8" height="24.8"/>
			<rect x="433" y="229.5" class="st5" width="24.8" height="24.8"/>
			<rect x="433" y="256.3" class="st5" width="24.8" height="24.8"/>
			<rect x="459.8" y="149.3" class="st2" width="24.8" height="24.8"/>
			<rect x="459.8" y="176.1" class="st2" width="24.8" height="24.8"/>
			<rect x="459.8" y="202.9" class="st2" width="24.8" height="24.8"/>
			<rect x="459.8" y="229.5" class="st2" width="24.8" height="24.8"/>
			<rect x="486.4" y="95.9" class="st2" width="24.8" height="24.8"/>
			<text transform="matrix(1 0 0 1 56.71 93.3)" class="st6 st7 st8">2022</text>
			<g>
				<text transform="matrix(1 0 0 1 62.26 112.61)" class="st6 st9 st8">Mon</text>
				<text transform="matrix(1 0 0 1 67.4 139.33)" class="st6 st9 st8">T</text>
				<text transform="matrix(1 0 0 1 78.79 139.33)" class="st6 st9 st8">ue</text>
				<text transform="matrix(1 0 0 1 60.41 166.05)" class="st6 st9 st8">W</text>
				<text transform="matrix(1 0 0 1 78.79 166.05)" class="st6 st9 st8">ed</text>
				<text transform="matrix(1 0 0 1 66.67 192.77)" class="st6 st9 st8">Thu</text>
				<text transform="matrix(1 0 0 1 77.72 219.49)" class="st6 st9 st8">Fri</text>
				<text transform="matrix(1 0 0 1 71.07 246.22)" class="st6 st9 st8">Sat</text>
				<text transform="matrix(1 0 0 1 65.55 272.94)" class="st6 st9 st8">Sun</text>
			</g>
			<g>
				<g>
					<path class="st10" d="M245,94.9v106.8h-26.8v80.2"/>
					<text transform="matrix(1 0 0 1 111.36 89.1899)" class="st6 st9 st8">Sep</text>
				</g>
				<g>
					<path class="st10" d="M351.8,94.9v187"/>
					<text transform="matrix(1 0 0 1 244.97 89.1899)" class="st6 st9 st8">Oct</text>
				</g>
				<g>
					<path class="st10" d="M485.4,94.9v53.4h-26.8v133.6"/>
					<text transform="matrix(1 0 0 1 351.85 89.1899)" class="st6 st9 st8">Nov</text>
				</g>
			</g>
		</g>
	</g>
	<g id="legend">
		<g>
			<g>
				<g>
					<rect x="586.2" y="121.9" class="st3" width="29.8" height="29.8"/>
					<text transform="matrix(1 0 0 1 625.93 146.7)" class="st6 st9 st8">Excited</text>
				</g>
				<g>
					<rect x="586.2" y="162.6" class="st4" width="29.8" height="29.8"/>
					<text transform="matrix(1 0 0 1 625.93 187.4)" class="st6 st9 st8">Exhausted</text>
				</g>
				<g>
					<rect x="586.2" y="203.3" class="st1" width="29.8" height="29.8"/>
					<text transform="matrix(1 0 0 1 625.93 228.09)" class="st6 st9 st8">Happy</text>
				</g>
				<g>
					<rect x="586.2" y="244" class="st5" width="29.8" height="29.8"/>
					<text transform="matrix(1 0 0 1 625.93 268.78)" class="st6 st9 st8">Hungry</text>
				</g>
				<g>
					<rect x="586.2" y="284.6" class="st2" width="29.8" height="29.8"/>
					<text transform="matrix(1 0 0 1 625.93 309.47)" class="st6 st9 st8">T</text>
					<text transform="matrix(1 0 0 1 637.32 309.47)" class="st6 st9 st8">ired</text>
				</g>
			</g>
			<text transform="matrix(1 0 0 1 586.22 91.12)" class="st6 st7 st11">Mood</text>
		</g>
	</g>
	<text transform="matrix(1 0 0 1 486.45 89.8199)" class="st6 st12 st8">D</text>
	<text transform="matrix(1 0 0 1 499.75 89.8199)" class="st6 st12 st8">ec</text>
</g>
<g>
	<rect id="background-2" y="443" class="st0" width="847.9" height="256.2"/>
	<g id="visualization-2">
		<g id="Sat_Jan_01_2022_00:00:00_GMT-0500_Eastern_Standard_Time_-2">
			<rect x="87.6" y="579.9" class="st13" width="19.7" height="19.7"/>
			<rect x="87.6" y="601" class="st13" width="19.7" height="19.7"/>
			<rect x="87.6" y="622.3" class="st14" width="19.7" height="19.7"/>
			<rect x="87.6" y="643.5" class="st14" width="19.7" height="19.7"/>
			<rect x="108.9" y="516.2" class="st14" width="19.7" height="19.7"/>
			<rect x="108.9" y="537.5" class="st15" width="19.7" height="19.7"/>
			<rect x="108.9" y="558.6" class="st14" width="19.7" height="19.7"/>
			<rect x="108.9" y="579.9" class="st16" width="19.7" height="19.7"/>
			<rect x="108.9" y="601" class="st17" width="19.7" height="19.7"/>
			<rect x="108.9" y="622.3" class="st18" width="19.7" height="19.7"/>
			<rect x="108.9" y="643.5" class="st15" width="19.7" height="19.7"/>
			<rect x="130" y="516.2" class="st19" width="19.7" height="19.7"/>
			<rect x="130" y="537.5" class="st18" width="19.7" height="19.7"/>
			<rect x="130" y="558.6" class="st20" width="19.7" height="19.7"/>
			<rect x="130" y="579.9" class="st14" width="19.7" height="19.7"/>
			<rect x="130" y="601" class="st21" width="19.7" height="19.7"/>
			<rect x="130" y="622.3" class="st22" width="19.7" height="19.7"/>
			<rect x="130" y="643.5" class="st23" width="19.7" height="19.7"/>
			<rect x="151.2" y="516.2" class="st22" width="19.7" height="19.7"/>
			<rect x="151.2" y="537.5" class="st21" width="19.7" height="19.7"/>
			<rect x="151.2" y="558.6" class="st16" width="19.7" height="19.7"/>
			<rect x="151.2" y="579.9" class="st21" width="19.7" height="19.7"/>
			<rect x="151.2" y="601" class="st14" width="19.7" height="19.7"/>
			<rect x="151.2" y="622.3" class="st17" width="19.7" height="19.7"/>
			<rect x="151.2" y="643.5" class="st14" width="19.7" height="19.7"/>
			<rect x="172.4" y="516.2" class="st20" width="19.7" height="19.7"/>
			<rect x="172.4" y="537.5" class="st14" width="19.7" height="19.7"/>
			<rect x="172.4" y="558.6" class="st22" width="19.7" height="19.7"/>
			<rect x="172.4" y="579.9" class="st23" width="19.7" height="19.7"/>
			<rect x="172.4" y="601" class="st15" width="19.7" height="19.7"/>
			<rect x="172.4" y="622.3" class="st14" width="19.7" height="19.7"/>
			<rect x="172.4" y="643.5" class="st20" width="19.7" height="19.7"/>
			<rect x="193.6" y="516.2" class="st14" width="19.7" height="19.7"/>
			<rect x="193.6" y="537.5" class="st18" width="19.7" height="19.7"/>
			<rect x="193.6" y="579.9" class="st19" width="19.7" height="19.7"/>
			<rect x="193.6" y="601" class="st15" width="19.7" height="19.7"/>
			<rect x="193.6" y="622.3" class="st18" width="19.7" height="19.7"/>
			<rect x="214.9" y="516.2" class="st14" width="19.7" height="19.7"/>
			<rect x="214.9" y="558.6" class="st13" width="19.7" height="19.7"/>
			<rect x="214.9" y="579.9" class="st23" width="19.7" height="19.7"/>
			<rect x="214.9" y="601" class="st15" width="19.7" height="19.7"/>
			<rect x="214.9" y="622.3" class="st14" width="19.7" height="19.7"/>
			<rect x="214.9" y="643.5" class="st15" width="19.7" height="19.7"/>
			<rect x="236" y="537.5" class="st17" width="19.7" height="19.7"/>
			<rect x="236" y="558.6" class="st22" width="19.7" height="19.7"/>
			<rect x="236" y="579.9" class="st22" width="19.7" height="19.7"/>
			<rect x="236" y="601" class="st22" width="19.7" height="19.7"/>
			<rect x="236" y="622.3" class="st17" width="19.7" height="19.7"/>
			<rect x="236" y="643.5" class="st24" width="19.7" height="19.7"/>
			<rect x="257.3" y="516.2" class="st23" width="19.7" height="19.7"/>
			<rect x="257.3" y="537.5" class="st23" width="19.7" height="19.7"/>
			<rect x="257.3" y="558.6" class="st15" width="19.7" height="19.7"/>
			<rect x="257.3" y="579.9" class="st15" width="19.7" height="19.7"/>
			<rect x="257.3" y="601" class="st22" width="19.7" height="19.7"/>
			<rect x="257.3" y="643.5" class="st21" width="19.7" height="19.7"/>
			<rect x="278.4" y="516.2" class="st25" width="19.7" height="19.7"/>
			<rect x="278.4" y="558.6" class="st20" width="19.7" height="19.7"/>
			<rect x="278.4" y="579.9" class="st24" width="19.7" height="19.7"/>
			<rect x="278.4" y="601" class="st23" width="19.7" height="19.7"/>
			<rect x="278.4" y="622.3" class="st15" width="19.7" height="19.7"/>
			<rect x="278.4" y="643.5" class="st15" width="19.7" height="19.7"/>
			<rect x="299.7" y="558.6" class="st21" width="19.7" height="19.7"/>
			<rect x="299.7" y="601" class="st24" width="19.7" height="19.7"/>
			<rect x="299.7" y="622.3" class="st14" width="19.7" height="19.7"/>
			<rect x="299.7" y="643.5" class="st14" width="19.7" height="19.7"/>
			<rect x="320.9" y="516.2" class="st14" width="19.7" height="19.7"/>
			<rect x="320.9" y="537.5" class="st22" width="19.7" height="19.7"/>
			<rect x="320.9" y="558.6" class="st26" width="19.7" height="19.7"/>
			<rect x="320.9" y="579.9" class="st19" width="19.7" height="19.7"/>
			<rect x="320.9" y="601" class="st19" width="19.7" height="19.7"/>
			<rect x="320.9" y="622.3" class="st14" width="19.7" height="19.7"/>
			<rect x="320.9" y="643.5" class="st21" width="19.7" height="19.7"/>
			<rect x="342.1" y="516.2" class="st21" width="19.7" height="19.7"/>
			<rect x="342.1" y="558.6" class="st17" width="19.7" height="19.7"/>
			<rect x="342.1" y="622.3" class="st22" width="19.7" height="19.7"/>
			<rect x="342.1" y="643.5" class="st14" width="19.7" height="19.7"/>
			<rect x="363.3" y="558.6" class="st21" width="19.7" height="19.7"/>
			<rect x="363.3" y="579.9" class="st17" width="19.7" height="19.7"/>
			<rect x="363.3" y="601" class="st18" width="19.7" height="19.7"/>
			<rect x="363.3" y="622.3" class="st22" width="19.7" height="19.7"/>
			<rect x="384.4" y="516.2" class="st19" width="19.7" height="19.7"/>
			<text transform="matrix(1 0 0 1 35.12 516.54)" class="st6 st7 st27">2022</text>
			<g>
				<text transform="matrix(1 0 0 1 39.49 531.84)" class="st6 st9 st27">Mon</text>
				<text transform="matrix(1 0 0 1 43.54 553.04)" class="st6 st9 st27">T</text>
				<text transform="matrix(1 0 0 1 52.51 553.04)" class="st6 st9 st27">ue</text>
				<text transform="matrix(1 0 0 1 38.04 574.25)" class="st6 st9 st27">W</text>
				<text transform="matrix(1 0 0 1 52.52 574.25)" class="st6 st9 st27">ed</text>
				<text transform="matrix(1 0 0 1 42.96 595.45)" class="st6 st9 st27">Thu</text>
				<text transform="matrix(1 0 0 1 51.68 616.66)" class="st6 st9 st27">Fri</text>
				<text transform="matrix(1 0 0 1 46.44 637.86)" class="st6 st9 st27">Sat</text>
				<text transform="matrix(1 0 0 1 42.08 659.07)" class="st6 st9 st27">Sun</text>
			</g>
			<g>
				<g>
					<path class="st10" d="M192.9,515.5v84.8h-21.3v63.7"/>
					<text transform="matrix(1 0 0 1 86.05 513.88)" class="st6 st9 st27">Sep</text>
				</g>
				<g>
					<path class="st10" d="M277.6,515.5v148.4"/>
					<text transform="matrix(1 0 0 1 192.07 513.88)" class="st6 st9 st27">Oct</text>
				</g>
				<g>
					<path class="st10" d="M383.7,515.5v42.4h-21.3v106"/>
					<text transform="matrix(1 0 0 1 276.89 513.88)" class="st6 st9 st27">Nov</text>
				</g>
			</g>
		</g>
	</g>
	<g id="legend-2">
		<g>
			<g>
				<g>
					<rect x="533.3" y="539.7" class="st21" width="1.6" height="15.6"/>
					<text transform="matrix(1 0 0 1 533.34 575.68)" class="st6 st9 st27">1.0</text>
				</g>
				<rect x="534.9" y="539.7" class="st28" width="1.6" height="15.6"/>
				<rect x="536.5" y="539.7" class="st29" width="1.6" height="15.6"/>
				<rect x="538" y="539.7" class="st30" width="1.6" height="15.6"/>
				<rect x="539.6" y="539.7" class="st31" width="1.6" height="15.6"/>
				<rect x="541.2" y="539.7" class="st32" width="1.6" height="15.6"/>
				<rect x="542.7" y="539.7" class="st33" width="1.6" height="15.6"/>
				<rect x="544.3" y="539.7" class="st34" width="1.6" height="15.6"/>
				<rect x="545.8" y="539.7" class="st35" width="1.6" height="15.6"/>
				<rect x="547.4" y="539.7" class="st36" width="1.6" height="15.6"/>
				<rect x="549" y="539.7" class="st37" width="1.6" height="15.6"/>
				<rect x="550.5" y="539.7" class="st38" width="1.6" height="15.6"/>
				<rect x="552.1" y="539.7" class="st39" width="1.6" height="15.6"/>
				<rect x="553.7" y="539.7" class="st20" width="1.6" height="15.6"/>
				<rect x="555.2" y="539.7" class="st40" width="1.6" height="15.6"/>
				<rect x="556.8" y="539.7" class="st41" width="1.6" height="15.6"/>
				<rect x="558.4" y="539.7" class="st42" width="1.6" height="15.6"/>
				<rect x="559.9" y="539.7" class="st43" width="1.6" height="15.6"/>
				<rect x="561.5" y="539.7" class="st44" width="1.6" height="15.6"/>
				<rect x="563.1" y="539.7" class="st45" width="1.6" height="15.6"/>
				<rect x="564.6" y="539.7" class="st46" width="1.6" height="15.6"/>
				<rect x="566.2" y="539.7" class="st47" width="1.6" height="15.6"/>
				<rect x="567.8" y="539.7" class="st48" width="1.6" height="15.6"/>
				<rect x="569.3" y="539.7" class="st49" width="1.6" height="15.6"/>
				<rect x="570.9" y="539.7" class="st49" width="1.6" height="15.6"/>
				<rect x="572.4" y="539.7" class="st50" width="1.6" height="15.6"/>
				<rect x="574" y="539.7" class="st51" width="1.6" height="15.6"/>
				<rect x="575.6" y="539.7" class="st18" width="1.6" height="15.6"/>
				<rect x="577.1" y="539.7" class="st52" width="1.6" height="15.6"/>
				<rect x="578.7" y="539.7" class="st53" width="1.6" height="15.6"/>
				<rect x="580.3" y="539.7" class="st54" width="1.6" height="15.6"/>
				<rect x="581.8" y="539.7" class="st55" width="1.6" height="15.6"/>
				<rect x="583.4" y="539.7" class="st56" width="1.6" height="15.6"/>
				<rect x="585" y="539.7" class="st57" width="1.6" height="15.6"/>
				<rect x="586.5" y="539.7" class="st58" width="1.6" height="15.6"/>
				<rect x="588.1" y="539.7" class="st59" width="1.6" height="15.6"/>
				<rect x="589.7" y="539.7" class="st60" width="1.6" height="15.6"/>
				<rect x="591.2" y="539.7" class="st61" width="1.6" height="15.6"/>
				<rect x="592.8" y="539.7" class="st62" width="1.6" height="15.6"/>
				<rect x="594.3" y="539.7" class="st63" width="1.6" height="15.6"/>
				<rect x="595.9" y="539.7" class="st22" width="1.6" height="15.6"/>
				<rect x="597.5" y="539.7" class="st64" width="1.6" height="15.6"/>
				<rect x="599" y="539.7" class="st65" width="1.6" height="15.6"/>
				<rect x="600.6" y="539.7" class="st66" width="1.6" height="15.6"/>
				<rect x="602.2" y="539.7" class="st67" width="1.6" height="15.6"/>
				<rect x="603.7" y="539.7" class="st68" width="1.6" height="15.6"/>
				<rect x="605.3" y="539.7" class="st69" width="1.6" height="15.6"/>
				<rect x="606.8" y="539.7" class="st70" width="1.6" height="15.6"/>
				<rect x="608.4" y="539.7" class="st71" width="1.6" height="15.6"/>
				<rect x="610" y="539.7" class="st72" width="1.6" height="15.6"/>
				<rect x="611.5" y="539.7" class="st73" width="1.6" height="15.6"/>
				<rect x="613.1" y="539.7" class="st74" width="1.6" height="15.6"/>
				<rect x="614.7" y="539.7" class="st75" width="1.6" height="15.6"/>
				<rect x="616.2" y="539.7" class="st76" width="1.6" height="15.6"/>
				<rect x="617.8" y="539.7" class="st15" width="1.6" height="15.6"/>
				<rect x="619.4" y="539.7" class="st77" width="1.6" height="15.6"/>
				<rect x="620.9" y="539.7" class="st78" width="1.6" height="15.6"/>
				<rect x="622.5" y="539.7" class="st79" width="1.6" height="15.6"/>
				<rect x="624" y="539.7" class="st80" width="1.6" height="15.6"/>
				<rect x="625.6" y="539.7" class="st81" width="1.6" height="15.6"/>
				<rect x="627.2" y="539.7" class="st82" width="1.6" height="15.6"/>
				<rect x="628.8" y="539.7" class="st83" width="1.6" height="15.6"/>
				<rect x="630.3" y="539.7" class="st84" width="1.6" height="15.6"/>
				<rect x="631.9" y="539.7" class="st85" width="1.6" height="15.6"/>
				<rect x="633.4" y="539.7" class="st86" width="1.6" height="15.6"/>
				<rect x="635" y="539.7" class="st87" width="1.6" height="15.6"/>
				<rect x="636.6" y="539.7" class="st88" width="1.6" height="15.6"/>
				<rect x="638.1" y="539.7" class="st89" width="1.6" height="15.6"/>
				<rect x="639.7" y="539.7" class="st90" width="1.6" height="15.6"/>
				<rect x="641.3" y="539.7" class="st91" width="1.6" height="15.6"/>
				<rect x="642.8" y="539.7" class="st92" width="1.6" height="15.6"/>
				<rect x="644.4" y="539.7" class="st93" width="1.6" height="15.6"/>
				<rect x="646" y="539.7" class="st94" width="1.6" height="15.6"/>
				<rect x="647.5" y="539.7" class="st95" width="1.6" height="15.6"/>
				<rect x="649.1" y="539.7" class="st96" width="1.6" height="15.6"/>
				<rect x="650.6" y="539.7" class="st97" width="1.6" height="15.6"/>
				<rect x="652.2" y="539.7" class="st98" width="1.6" height="15.6"/>
				<rect x="653.8" y="539.7" class="st99" width="1.6" height="15.6"/>
				<rect x="655.3" y="539.7" class="st100" width="1.6" height="15.6"/>
				<rect x="656.9" y="539.7" class="st101" width="1.6" height="15.6"/>
				<rect x="658.5" y="539.7" class="st102" width="1.6" height="15.6"/>
				<rect x="660" y="539.7" class="st23" width="1.6" height="15.6"/>
				<rect x="661.6" y="539.7" class="st103" width="1.6" height="15.6"/>
				<rect x="663.2" y="539.7" class="st104" width="1.6" height="15.6"/>
				<rect x="664.7" y="539.7" class="st105" width="1.6" height="15.6"/>
				<rect x="666.3" y="539.7" class="st106" width="1.6" height="15.6"/>
				<rect x="667.8" y="539.7" class="st107" width="1.6" height="15.6"/>
				<rect x="669.4" y="539.7" class="st108" width="1.6" height="15.6"/>
				<rect x="671" y="539.7" class="st109" width="1.6" height="15.6"/>
				<rect x="672.5" y="539.7" class="st110" width="1.6" height="15.6"/>
				<rect x="674.1" y="539.7" class="st111" width="1.6" height="15.6"/>
				<rect x="675.7" y="539.7" class="st112" width="1.6" height="15.6"/>
				<rect x="677.2" y="539.7" class="st113" width="1.6" height="15.6"/>
				<rect x="678.8" y="539.7" class="st114" width="1.6" height="15.6"/>
				<rect x="680.4" y="539.7" class="st115" width="1.6" height="15.6"/>
				<rect x="681.9" y="539.7" class="st25" width="1.6" height="15.6"/>
				<rect x="683.5" y="539.7" class="st116" width="1.6" height="15.6"/>
				<rect x="685" y="539.7" class="st117" width="1.6" height="15.6"/>
				<rect x="686.6" y="539.7" class="st118" width="1.6" height="15.6"/>
				<rect x="688.2" y="539.7" class="st119" width="1.6" height="15.6"/>
				<rect x="689.7" y="539.7" class="st120" width="1.6" height="15.6"/>
				<rect x="691.3" y="539.7" class="st121" width="1.6" height="15.6"/>
				<rect x="692.9" y="539.7" class="st122" width="1.6" height="15.6"/>
				<rect x="694.4" y="539.7" class="st123" width="1.6" height="15.6"/>
				<rect x="696" y="539.7" class="st124" width="1.6" height="15.6"/>
				<rect x="697.6" y="539.7" class="st125" width="1.6" height="15.6"/>
				<rect x="699.1" y="539.7" class="st126" width="1.6" height="15.6"/>
				<rect x="700.7" y="539.7" class="st127" width="1.6" height="15.6"/>
				<rect x="702.3" y="539.7" class="st16" width="1.6" height="15.6"/>
				<rect x="703.8" y="539.7" class="st128" width="1.6" height="15.6"/>
				<rect x="705.4" y="539.7" class="st129" width="1.6" height="15.6"/>
				<rect x="707" y="539.7" class="st130" width="1.6" height="15.6"/>
				<rect x="708.5" y="539.7" class="st131" width="1.6" height="15.6"/>
				<rect x="710.1" y="539.7" class="st132" width="1.6" height="15.6"/>
				<rect x="711.6" y="539.7" class="st133" width="1.6" height="15.6"/>
				<rect x="713.2" y="539.7" class="st134" width="1.6" height="15.6"/>
				<rect x="714.8" y="539.7" class="st135" width="1.6" height="15.6"/>
				<rect x="716.3" y="539.7" class="st136" width="1.6" height="15.6"/>
				<rect x="717.9" y="539.7" class="st137" width="1.6" height="15.6"/>
				<rect x="719.5" y="539.7" class="st138" width="1.6" height="15.6"/>
				<rect x="721" y="539.7" class="st139" width="1.6" height="15.6"/>
				<rect x="722.6" y="539.7" class="st140" width="1.6" height="15.6"/>
				<rect x="724.2" y="539.7" class="st141" width="1.6" height="15.6"/>
				<rect x="725.7" y="539.7" class="st142" width="1.6" height="15.6"/>
				<rect x="727.3" y="539.7" class="st143" width="1.6" height="15.6"/>
				<rect x="728.8" y="539.7" class="st144" width="1.6" height="15.6"/>
				<rect x="730.4" y="539.7" class="st145" width="1.6" height="15.6"/>
				<rect x="732" y="539.7" class="st146" width="1.6" height="15.6"/>
				<rect x="733.5" y="539.7" class="st147" width="1.6" height="15.6"/>
				<rect x="735.1" y="539.7" class="st148" width="1.6" height="15.6"/>
				<rect x="736.7" y="539.7" class="st149" width="1.6" height="15.6"/>
				<rect x="738.2" y="539.7" class="st150" width="1.6" height="15.6"/>
				<rect x="739.8" y="539.7" class="st151" width="1.6" height="15.6"/>
				<rect x="741.4" y="539.7" class="st152" width="1.6" height="15.6"/>
				<rect x="742.9" y="539.7" class="st153" width="1.6" height="15.6"/>
				<rect x="744.5" y="539.7" class="st26" width="1.6" height="15.6"/>
				<rect x="746" y="539.7" class="st154" width="1.6" height="15.6"/>
				<rect x="747.6" y="539.7" class="st155" width="1.6" height="15.6"/>
				<rect x="749.2" y="539.7" class="st156" width="1.6" height="15.6"/>
				<rect x="750.7" y="539.7" class="st157" width="1.6" height="15.6"/>
				<rect x="752.3" y="539.7" class="st158" width="1.6" height="15.6"/>
				<rect x="753.9" y="539.7" class="st159" width="1.6" height="15.6"/>
				<rect x="755.4" y="539.7" class="st160" width="1.6" height="15.6"/>
				<rect x="757" y="539.7" class="st161" width="1.6" height="15.6"/>
				<rect x="758.6" y="539.7" class="st162" width="1.6" height="15.6"/>
				<rect x="760.1" y="539.7" class="st163" width="1.6" height="15.6"/>
				<rect x="761.7" y="539.7" class="st164" width="1.6" height="15.6"/>
				<rect x="763.2" y="539.7" class="st165" width="1.6" height="15.6"/>
				<rect x="764.8" y="539.7" class="st166" width="1.6" height="15.6"/>
				<rect x="766.4" y="539.7" class="st167" width="1.6" height="15.6"/>
				<rect x="768" y="539.7" class="st168" width="1.6" height="15.6"/>
				<rect x="769.5" y="539.7" class="st169" width="1.6" height="15.6"/>
				<rect x="771.1" y="539.7" class="st170" width="1.6" height="15.6"/>
				<rect x="772.6" y="539.7" class="st171" width="1.6" height="15.6"/>
				<rect x="774.2" y="539.7" class="st172" width="1.6" height="15.6"/>
				<rect x="775.8" y="539.7" class="st173" width="1.6" height="15.6"/>
				<rect x="777.3" y="539.7" class="st174" width="1.6" height="15.6"/>
				<rect x="778.9" y="539.7" class="st175" width="1.6" height="15.6"/>
				<rect x="780.5" y="539.7" class="st176" width="1.6" height="15.6"/>
				<rect x="782" y="539.7" class="st177" width="1.6" height="15.6"/>
				<rect x="783.6" y="539.7" class="st178" width="1.6" height="15.6"/>
				<rect x="785.2" y="539.7" class="st179" width="1.6" height="15.6"/>
				<rect x="786.7" y="539.7" class="st24" width="1.6" height="15.6"/>
				<rect x="788.3" y="539.7" class="st180" width="1.6" height="15.6"/>
				<rect x="789.8" y="539.7" class="st181" width="1.6" height="15.6"/>
				<rect x="791.4" y="539.7" class="st182" width="1.6" height="15.6"/>
				<rect x="793" y="539.7" class="st183" width="1.6" height="15.6"/>
				<rect x="794.5" y="539.7" class="st184" width="1.6" height="15.6"/>
				<rect x="796.1" y="539.7" class="st185" width="1.6" height="15.6"/>
				<rect x="797.7" y="539.7" class="st186" width="1.6" height="15.6"/>
				<rect x="799.2" y="539.7" class="st187" width="1.6" height="15.6"/>
				<rect x="800.8" y="539.7" class="st188" width="1.6" height="15.6"/>
				<rect x="802.4" y="539.7" class="st189" width="1.6" height="15.6"/>
				<rect x="803.9" y="539.7" class="st190" width="1.6" height="15.6"/>
				<rect x="805.5" y="539.7" class="st191" width="1.6" height="15.6"/>
				<rect x="807" y="539.7" class="st192" width="1.6" height="15.6"/>
				<rect x="808.6" y="539.7" class="st193" width="1.6" height="15.6"/>
				<rect x="810.2" y="539.7" class="st194" width="1.6" height="15.6"/>
				<rect x="811.7" y="539.7" class="st195" width="1.6" height="15.6"/>
				<rect x="813.3" y="539.7" class="st196" width="1.6" height="15.6"/>
				<rect x="814.9" y="539.7" class="st197" width="1.6" height="15.6"/>
				<rect x="816.4" y="539.7" class="st198" width="1.6" height="15.6"/>
				<rect x="818" y="539.7" class="st199" width="1.6" height="15.6"/>
				<rect x="819.6" y="539.7" class="st200" width="1.6" height="15.6"/>
				<rect x="821.1" y="539.7" class="st201" width="1.6" height="15.6"/>
				<rect x="822.7" y="539.7" class="st202" width="1.6" height="15.6"/>
				<rect x="824.2" y="539.7" class="st203" width="1.6" height="15.6"/>
				<rect x="825.8" y="539.7" class="st204" width="1.6" height="15.6"/>
				<rect x="827.4" y="539.7" class="st205" width="1.6" height="15.6"/>
				<g>
					<rect x="828.9" y="539.7" class="st14" width="1.6" height="15.6"/>
					<text transform="matrix(1 0 0 1 798.5 575.68)" class="st6 st9 st27">15.0</text>
				</g>
			</g>
			<text transform="matrix(1 0 0 1 533.34 515.46)" class="st6 st7 st206">People</text>
		</g>
	</g>
	<text transform="matrix(1 0 0 1 383.7 513.88)" class="st6 st9 st27">Dec</text>
</g>
<g>
	<rect id="background-3" x="13.8" y="726.5" class="st0" width="785.2" height="423.4"/>
	<rect x="89.1" y="848.5" class="st207" width="17.3" height="17.3"/>
	<rect x="89.1" y="867" class="st208" width="17.3" height="17.3"/>
	<rect x="89.1" y="885.6" class="st209" width="17.3" height="17.3"/>
	<rect x="89.1" y="904.2" class="st210" width="17.3" height="17.3"/>
	<rect x="107.6" y="792.7" class="st209" width="17.3" height="17.3"/>
	<rect x="107.6" y="811.3" class="st211" width="17.3" height="17.3"/>
	<rect x="107.6" y="829.8" class="st212" width="17.3" height="17.3"/>
	<rect x="107.6" y="848.5" class="st213" width="17.3" height="17.3"/>
	<rect x="107.6" y="867" class="st214" width="17.3" height="17.3"/>
	<rect x="107.6" y="885.6" class="st215" width="17.3" height="17.3"/>
	<rect x="107.6" y="904.2" class="st216" width="17.3" height="17.3"/>
	<rect x="126.2" y="792.7" class="st216" width="17.3" height="17.3"/>
	<rect x="126.2" y="811.3" class="st214" width="17.3" height="17.3"/>
	<rect x="126.2" y="829.8" class="st217" width="17.3" height="17.3"/>
	<rect x="126.2" y="848.5" class="st218" width="17.3" height="17.3"/>
	<rect x="126.2" y="867" class="st219" width="17.3" height="17.3"/>
	<rect x="126.2" y="885.6" class="st216" width="17.3" height="17.3"/>
	<rect x="126.2" y="904.2" class="st216" width="17.3" height="17.3"/>
	<rect x="144.7" y="792.7" class="st214" width="17.3" height="17.3"/>
	<rect x="144.7" y="811.3" class="st220" width="17.3" height="17.3"/>
	<rect x="144.7" y="829.8" class="st216" width="17.3" height="17.3"/>
	<rect x="144.7" y="848.5" class="st220" width="17.3" height="17.3"/>
	<rect x="144.7" y="867" class="st221" width="17.3" height="17.3"/>
	<rect x="144.7" y="885.6" class="st216" width="17.3" height="17.3"/>
	<rect x="144.7" y="904.2" class="st222" width="17.3" height="17.3"/>
	<rect x="163.4" y="792.7" class="st214" width="17.3" height="17.3"/>
	<rect x="163.4" y="811.3" class="st223" width="17.3" height="17.3"/>
	<rect x="163.4" y="829.8" class="st216" width="17.3" height="17.3"/>
	<rect x="163.4" y="848.5" class="st224" width="17.3" height="17.3"/>
	<rect x="163.4" y="867" class="st225" width="17.3" height="17.3"/>
	<rect x="163.4" y="885.6" class="st226" width="17.3" height="17.3"/>
	<rect x="163.4" y="904.2" class="st216" width="17.3" height="17.3"/>
	<rect x="181.9" y="792.7" class="st226" width="17.3" height="17.3"/>
	<rect x="181.9" y="811.3" class="st214" width="17.3" height="17.3"/>
	<rect x="181.9" y="848.5" class="st227" width="17.3" height="17.3"/>
	<rect x="181.9" y="867" class="st222" width="17.3" height="17.3"/>
	<rect x="181.9" y="885.6" class="st228" width="17.3" height="17.3"/>
	<rect x="200.5" y="792.7" class="st229" width="17.3" height="17.3"/>
	<rect x="200.5" y="829.8" class="st230" width="17.3" height="17.3"/>
	<rect x="200.5" y="848.5" class="st211" width="17.3" height="17.3"/>
	<rect x="200.5" y="867" class="st231" width="17.3" height="17.3"/>
	<rect x="200.5" y="885.6" class="st232" width="17.3" height="17.3"/>
	<rect x="200.5" y="904.2" class="st233" width="17.3" height="17.3"/>
	<rect x="219.1" y="811.3" class="st234" width="17.3" height="17.3"/>
	<rect x="219.1" y="829.8" class="st235" width="17.3" height="17.3"/>
	<rect x="219.1" y="848.5" class="st235" width="17.3" height="17.3"/>
	<rect x="219.1" y="867" class="st236" width="17.3" height="17.3"/>
	<rect x="219.1" y="885.6" class="st237" width="17.3" height="17.3"/>
	<rect x="219.1" y="904.2" class="st230" width="17.3" height="17.3"/>
	<rect x="237.6" y="792.7" class="st238" width="17.3" height="17.3"/>
	<rect x="237.6" y="811.3" class="st224" width="17.3" height="17.3"/>
	<rect x="237.6" y="829.8" class="st225" width="17.3" height="17.3"/>
	<rect x="237.6" y="848.5" class="st225" width="17.3" height="17.3"/>
	<rect x="237.6" y="867" class="st239" width="17.3" height="17.3"/>
	<rect x="237.6" y="904.2" class="st222" width="17.3" height="17.3"/>
	<rect x="256.3" y="792.7" class="st216" width="17.3" height="17.3"/>
	<rect x="256.3" y="829.8" class="st225" width="17.3" height="17.3"/>
	<rect x="256.3" y="848.5" class="st220" width="17.3" height="17.3"/>
	<rect x="256.3" y="867" class="st225" width="17.3" height="17.3"/>
	<rect x="256.3" y="885.6" class="st240" width="17.3" height="17.3"/>
	<rect x="256.3" y="904.2" class="st226" width="17.3" height="17.3"/>
	<rect x="274.8" y="829.8" class="st241" width="17.3" height="17.3"/>
	<rect x="274.8" y="867" class="st239" width="17.3" height="17.3"/>
	<rect x="274.8" y="885.6" class="st242" width="17.3" height="17.3"/>
	<rect x="274.8" y="904.2" class="st243" width="17.3" height="17.3"/>
	<rect x="293.4" y="792.7" class="st244" width="17.3" height="17.3"/>
	<rect x="293.4" y="811.3" class="st222" width="17.3" height="17.3"/>
	<rect x="293.4" y="829.8" class="st245" width="17.3" height="17.3"/>
	<rect x="293.4" y="848.5" class="st222" width="17.3" height="17.3"/>
	<rect x="293.4" y="867" class="st239" width="17.3" height="17.3"/>
	<rect x="293.4" y="885.6" class="st230" width="17.3" height="17.3"/>
	<rect x="293.4" y="904.2" class="st246" width="17.3" height="17.3"/>
	<rect x="311.9" y="792.7" class="st217" width="17.3" height="17.3"/>
	<rect x="311.9" y="829.8" class="st212" width="17.3" height="17.3"/>
	<rect x="311.9" y="885.6" class="st247" width="17.3" height="17.3"/>
	<rect x="311.9" y="904.2" class="st226" width="17.3" height="17.3"/>
	<rect x="330.5" y="829.8" class="st248" width="17.3" height="17.3"/>
	<rect x="330.5" y="848.5" class="st225" width="17.3" height="17.3"/>
	<rect x="330.5" y="867" class="st225" width="17.3" height="17.3"/>
	<rect x="330.5" y="885.6" class="st225" width="17.3" height="17.3"/>
	<rect x="349.2" y="792.7" class="st244" width="17.3" height="17.3"/>
	<text transform="matrix(1 0 0 1 44.93 790.93)" class="st6 st7 st249">2022</text>
	<g>
		<text transform="matrix(1 0 0 1 48.75 804.33)" class="st6 st9 st249">Mon</text>
		<text transform="matrix(1 0 0 1 52.31 822.9)" class="st6 st9 st249">T</text>
		<text transform="matrix(1 0 0 1 60.17 822.9)" class="st6 st9 st249">ue</text>
		<text transform="matrix(1 0 0 1 47.48 841.48)" class="st6 st9 st249">W</text>
		<text transform="matrix(1 0 0 1 60.16 841.48)" class="st6 st9 st249">ed</text>
		<text transform="matrix(1 0 0 1 51.8 860.05)" class="st6 st9 st249">Thu</text>
		<text transform="matrix(1 0 0 1 59.43 878.63)" class="st6 st9 st249">Fri</text>
		<text transform="matrix(1 0 0 1 54.84 897.21)" class="st6 st9 st249">Sat</text>
		<text transform="matrix(1 0 0 1 51.03 915.78)" class="st6 st9 st249">Sun</text>
	</g>
	<g>
		<g>
			<path class="st10" d="M181.2,792v74.3h-18.6V922"/>
			<text transform="matrix(1 0 0 1 87.39 788.09)" class="st6 st9 st249">Sep</text>
		</g>
		<g>
			<path class="st10" d="M255.6,792v130"/>
			<text transform="matrix(1 0 0 1 180.55 791.11)" class="st6 st9 st249">Oct</text>
		</g>
		<g>
			<path class="st10" d="M348.5,792v37.1h-18.6v92.9"/>
			<text transform="matrix(1 0 0 1 255.54 790.82)" class="st6 st9 st249">Nov</text>
		</g>
	</g>
	<g id="legend-3">
		<g>
			<g>
				<g>
					<rect x="46.9" y="960.5" class="st225" width="14.4" height="14.4"/>
					<text transform="matrix(1 0 0 1 66.09 972.6)" class="st6 st9 st250">Aliya Kanji</text>
				</g>
				<g>
					<rect x="46.9" y="980.3" class="st240" width="14.4" height="14.4"/>
					<text transform="matrix(1 0 0 1 66.09 992.32)" class="st6 st9 st250">Alpaca Farm</text>
				</g>
				<g>
					<rect x="46.9" y="1000" class="st224" width="14.4" height="14.4"/>
					<text transform="matrix(1 0 0 1 66.09 1012.05)" class="st6 st9 st250">Blair</text>
					<text transform="matrix(1 0 0 1 85.34 1012.05)" class="st6 st9 st250"> </text>
					<text transform="matrix(1 0 0 1 87.48 1012.05)" class="st6 st9 st250">Arch</text>
				</g>
				<g>
					<rect x="46.9" y="1019.7" class="st234" width="14.4" height="14.4"/>
					<text transform="matrix(1 0 0 1 66.09 1031.77)" class="st6 st9 st250">Boulder Classroom</text>
				</g>
				<g>
					<rect x="46.9" y="1039.5" class="st243" width="14.4" height="14.4"/>
					<text transform="matrix(1 0 0 1 66.09 1051.49)" class="st6 st9 st250">Broadway</text>
				</g>
				<g>
					<rect x="46.9" y="1059.2" class="st207" width="14.4" height="14.4"/>
					<text transform="matrix(1 0 0 1 66.09 1071.22)" class="st6 st9 st250">Butler Basement</text>
				</g>
				<g>
					<rect x="46.9" y="1078.9" class="st230" width="14.4" height="14.4"/>
					<text transform="matrix(1 0 0 1 66.09 1090.9399)" class="st6 st9 st250">COS Classroom</text>
				</g>
				<g>
					<rect x="46.9" y="1098.7" class="st215" width="14.4" height="14.4"/>
					<text transform="matrix(1 0 0 1 66.09 1110.66)" class="st6 st9 st250">CVS</text>
				</g>
				<g>
					<rect x="162.7" y="963.2" class="st235" width="14.4" height="14.4"/>
					<text transform="matrix(1 0 0 1 181.95 975.25)" class="st6 st9 st250">Car</text>
				</g>
				<g>
					<rect x="162.7" y="982.9" class="st236" width="14.4" height="14.4"/>
					<text transform="matrix(1 0 0 1 181.95 994.97)" class="st6 st9 st250">Castle Rock</text>
				</g>
				<g>
					<rect x="162.7" y="1002.6" class="st222" width="14.4" height="14.4"/>
					<text transform="matrix(1 0 0 1 181.95 1014.69)" class="st6 st9 st250">Dillion Gym</text>
				</g>
				<g>
					<rect x="162.7" y="1022.3" class="st248" width="14.4" height="14.4"/>
					<text transform="matrix(1 0 0 1 181.95 1034.41)" class="st6 st9 st250">Dorm</text>
				</g>
				<g>
					<rect x="162.7" y="1042.1" class="st238" width="14.4" height="14.4"/>
					<text transform="matrix(1 0 0 1 181.95 1054.14)" class="st6 st9 st250">East Pyne Classroom</text>
				</g>
				<g>
					<rect x="162.7" y="1061.8" class="st228" width="14.4" height="14.4"/>
					<text transform="matrix(1 0 0 1 181.95 1073.86)" class="st6 st9 st250">Einstein Hall</text>
				</g>
				<g>
					<rect x="162.7" y="1081.5" class="st214" width="14.4" height="14.4"/>
					<text transform="matrix(1 0 0 1 181.95 1093.58)" class="st6 st9 st250">Firestone</text>
				</g>
				<g>
					<rect x="162.7" y="1101.3" class="st221" width="14.4" height="14.4"/>
					<text transform="matrix(1 0 0 1 181.95 1113.3101)" class="st6 st9 st250">Forbes Dining Hall</text>
				</g>
				<g>
					<rect x="287.2" y="960.5" class="st220" width="14.4" height="14.4"/>
					<text transform="matrix(1 0 0 1 306.49 972.6)" class="st6 st9 st250">Frist</text>
				</g>
				<g>
					<rect x="287.2" y="980.3" class="st237" width="14.4" height="14.4"/>
					<text transform="matrix(1 0 0 1 306.49 992.32)" class="st6 st9 st250">FunnyPlus</text>
				</g>
				<g>
					<rect x="287.2" y="1000" class="st244" width="14.4" height="14.4"/>
					<text transform="matrix(1 0 0 1 306.49 1012.05)" class="st6 st9 st250">Icahn Laboratory</text>
				</g>
				<g>
					<rect x="287.2" y="1019.7" class="st208" width="14.4" height="14.4"/>
					<text transform="matrix(1 0 0 1 306.49 1031.77)" class="st6 st9 st250">Joline Dorm</text>
				</g>
				<g>
					<rect x="287.2" y="1039.5" class="st227" width="14.4" height="14.4"/>
					<text transform="matrix(1 0 0 1 306.49 1051.49)" class="st6 st9 st250">Kung Fu</text>
					<text transform="matrix(1 0 0 1 342.86 1051.49)" class="st6 st9 st250"> </text>
					<text transform="matrix(1 0 0 1 345.36 1051.49)" class="st6 st9 st250 st251">T</text>
					<text transform="matrix(1 0 0 1 350.17 1051.49)" class="st6 st9 st250">ea</text>
				</g>
				<g>
					<rect x="287.2" y="1059.2" class="st247" width="14.4" height="14.4"/>
					<text transform="matrix(1 0 0 1 306.49 1071.22)" class="st6 st9 st250">Laojie Hotpot</text>
				</g>
				<g>
					<rect x="287.2" y="1078.9" class="st212" width="14.4" height="14.4"/>
					<text transform="matrix(1 0 0 1 306.49 1090.9399)" class="st6 st9 st250">Mathey Common Room</text>
				</g>
				<g>
					<rect x="287.2" y="1098.7" class="st231" width="14.4" height="14.4"/>
					<text transform="matrix(1 0 0 1 306.49 1110.66)" class="st6 st9 st250">Mathey Courtyard</text>
				</g>
				<g>
					<rect x="423.8" y="963.2" class="st209" width="14.4" height="14.4"/>
					<text transform="matrix(1 0 0 1 443.08 975.25)" class="st6 st9 st250">Mccarter</text>
					<text transform="matrix(1 0 0 1 480.5 975.25)" class="st6 st9 st250"> </text>
					<text transform="matrix(1 0 0 1 483 975.25)" class="st6 st9 st250">Theatre</text>
				</g>
				<g>
					<rect x="423.8" y="982.9" class="st210" width="14.4" height="14.4"/>
					<text transform="matrix(1 0 0 1 443.08 994.97)" class="st6 st9 st250">Mccosh 50</text>
				</g>
				<g>
					<rect x="423.8" y="1002.6" class="st233" width="14.4" height="14.4"/>
					<text transform="matrix(1 0 0 1 443.08 1014.69)" class="st6 st9 st250">Mika Sushi</text>
				</g>
				<g>
					<rect x="423.8" y="1022.3" class="st245" width="14.4" height="14.4"/>
					<text transform="matrix(1 0 0 1 443.08 1034.41)" class="st6 st9 st250">Murphy Studio</text>
				</g>
				<g>
					<rect x="423.8" y="1042.1" class="st241" width="14.4" height="14.4"/>
					<text transform="matrix(1 0 0 1 443.08 1054.14)" class="st6 st9 st250">Nassau Hall</text>
				</g>
				<g>
					<rect x="423.8" y="1061.8" class="st242" width="14.4" height="14.4"/>
					<text transform="matrix(1 0 0 1 443.08 1073.86)" class="st6 st9 st250">Pizza @</text>
					<text transform="matrix(1 0 0 1 479.04 1073.86)" class="st6 st9 st250">Y</text>
					<text transform="matrix(1 0 0 1 484.75 1073.86)" class="st6 st9 st250">ale</text>
				</g>
				<g>
					<rect x="423.8" y="1081.5" class="st246" width="14.4" height="14.4"/>
					<text transform="matrix(1 0 0 1 443.08 1093.58)" class="st6 st9 st250">SPI</text>
					<text transform="matrix(1 0 0 1 458.59 1093.58)" class="st6 st9 st250">A</text>
					<text transform="matrix(1 0 0 1 464.47 1093.58)" class="st6 st9 st250"> Fountain</text>
				</g>
				<g>
					<rect x="423.8" y="1101.3" class="st229" width="14.4" height="14.4"/>
					<text transform="matrix(1 0 0 1 443.08 1113.3101)" class="st6 st9 st250">Sinclair&apos;s Backyard</text>
				</g>
				<g>
					<g>
						<rect x="538.2" y="965.9" class="st213" width="14.4" height="14.4"/>
						<text transform="matrix(1 0 0 1 557.43 977.89)" class="st6 st9 st250 st251">T</text>
						<text transform="matrix(1 0 0 1 562.24 977.89)" class="st6 st9 st250">ea Room</text>
					</g>
					<g>
						<rect x="538.2" y="985.6" class="st232" width="14.4" height="14.4"/>
						<text transform="matrix(1 0 0 1 557.43 997.62)" class="st6 st9 st250">United</text>
						<text transform="matrix(1 0 0 1 585.24 997.62)" class="st6 st9 st250"> </text>
						<text transform="matrix(1 0 0 1 587.38 997.62)" class="st6 st9 st250">Aircraft</text>
					</g>
					<g>
						<rect x="538.2" y="1005.3" class="st223" width="14.4" height="14.4"/>
						<text transform="matrix(1 0 0 1 557.43 1017.34)" class="st6 st9 st250">W</text>
						<text transform="matrix(1 0 0 1 566.34 1017.34)" class="st6 st9 st250">ebster Hall</text>
					</g>
					<g>
						<rect x="538.2" y="1025.1" class="st216" width="14.4" height="14.4"/>
						<text transform="matrix(1 0 0 1 557.43 1037.0601)" class="st6 st9 st250">Whitman Common Room</text>
					</g>
					<g>
						<rect x="538.2" y="1044.8" class="st217" width="14.4" height="14.4"/>
						<text transform="matrix(1 0 0 1 557.43 1056.78)" class="st6 st9 st250">Whitman Courtyard</text>
					</g>
					<g>
						<rect x="538.2" y="1064.5" class="st218" width="14.4" height="14.4"/>
						<text transform="matrix(1 0 0 1 557.43 1076.51)" class="st6 st9 st250">Whitman Dining Hall</text>
					</g>
					<g>
						<rect x="538.2" y="1084.1" class="st211" width="14.4" height="14.4"/>
						<text transform="matrix(1 0 0 1 557.43 1096.23)" class="st6 st9 st250">Whitman Dorm</text>
					</g>
					<g>
						<rect x="538.2" y="1103.9" class="st219" width="14.4" height="14.4"/>
						<text transform="matrix(1 0 0 1 557.43 1115.95)" class="st6 st9 st250">Whitman Studio</text>
					</g>
					<g>
						<g>
							<rect x="668.7" y="968.4" class="st239" width="14.4" height="14.4"/>
							<text transform="matrix(1 0 0 1 687.86 980.38)" class="st6 st9 st250">Y</text>
							<text transform="matrix(1 0 0 1 693.39 980.38)" class="st6 st9 st250">eh Common Room</text>
						</g>
						<g>
							<rect x="668.7" y="988.1" class="st226" width="14.4" height="14.4"/>
							<text transform="matrix(1 0 0 1 687.86 1000.11)" class="st6 st9 st250">Y</text>
							<text transform="matrix(1 0 0 1 693.39 1000.11)" class="st6 st9 st250">eh Dining Hall</text>
						</g>
					</g>
				</g>
			</g>
			<text transform="matrix(1 0 0 1 46.85 945.66)" class="st6 st7 st252">Location</text>
		</g>
	</g>
	<text transform="matrix(1 0 0 1 348.42 790.82)" class="st6 st9 st249">Dec</text>
</g>
<g>
	<path class="st0" d="M4.9,1161.1h843v521.3H4.9V1161.1z"/>
	<path class="st253" d="M120.8,1275.6v352.7"/>
	<path class="st254" d="M296.4,1275.6v352.7"/>
	<path class="st254" d="M472,1275.6v352.7"/>
	<path class="st254" d="M646.3,1275.6v352.7"/>
	<path class="st254" d="M821.9,1275.6v352.7"/>
	<g>
		<defs>
			<rect id="SVGID_1_" x="120.8" y="1275.3" width="701" height="352.9"/>
		</defs>
		<clipPath id="SVGID_00000103246154326236318800000014653382443320001445_">
			<use xlink:href="#SVGID_1_"  style="overflow:visible;"/>
		</clipPath>
		
			<path style="clip-path:url(#SVGID_00000103246154326236318800000014653382443320001445_);fill:none;stroke:#000000;stroke-width:2;stroke-miterlimit:10;stroke-opacity:0;" d="
			M121.5,1315.6v-9.8h628c1.6,0,2.8,1.3,2.8,2.8v4.2c0,1.6-1.3,2.8-2.8,2.8H121.5z"/>
	</g>
	<g>
		<defs>
			<rect id="SVGID_00000111174536239916597830000010880192770940614571_" x="120.8" y="1275.3" width="701" height="352.9"/>
		</defs>
		<clipPath id="SVGID_00000114754615222344287250000014949918354646508672_">
			<use xlink:href="#SVGID_00000111174536239916597830000010880192770940614571_"  style="overflow:visible;"/>
		</clipPath>
		<path style="clip-path:url(#SVGID_00000114754615222344287250000014949918354646508672_);fill:#4285F4;" d="M121.5,1315.6v-9.8
			h628c1.6,0,2.8,1.3,2.8,2.8v4.2c0,1.6-1.3,2.8-2.8,2.8H121.5z"/>
	</g>
	<g>
		<defs>
			<rect id="SVGID_00000008859049247308734500000003971572001612881804_" x="120.8" y="1275.3" width="701" height="352.9"/>
		</defs>
		<clipPath id="SVGID_00000180343334674638097780000008432891753851636903_">
			<use xlink:href="#SVGID_00000008859049247308734500000003971572001612881804_"  style="overflow:visible;"/>
		</clipPath>
		
			<path style="clip-path:url(#SVGID_00000180343334674638097780000008432891753851636903_);fill:none;stroke:#000000;stroke-width:2;stroke-miterlimit:10;stroke-opacity:0;" d="
			M121.5,1397.1v-9.8h311.9c1.6,0,2.8,1.3,2.8,2.8v4.2c0,1.6-1.3,2.8-2.8,2.8H121.5z"/>
	</g>
	<g>
		<defs>
			<rect id="SVGID_00000029765139941964031420000005807586538990614406_" x="120.8" y="1275.3" width="701" height="352.9"/>
		</defs>
		<clipPath id="SVGID_00000127748299036555517440000009171251537588719282_">
			<use xlink:href="#SVGID_00000029765139941964031420000005807586538990614406_"  style="overflow:visible;"/>
		</clipPath>
		<path style="clip-path:url(#SVGID_00000127748299036555517440000009171251537588719282_);fill:#4285F4;" d="M121.5,1397.1v-9.8
			h311.9c1.6,0,2.8,1.3,2.8,2.8v4.2c0,1.6-1.3,2.8-2.8,2.8H121.5z"/>
	</g>
	<g>
		<defs>
			<rect id="SVGID_00000101061824692651094640000006716724772607257002_" x="120.8" y="1275.3" width="701" height="352.9"/>
		</defs>
		<clipPath id="SVGID_00000096039644140261550410000016914933998280308882_">
			<use xlink:href="#SVGID_00000101061824692651094640000006716724772607257002_"  style="overflow:visible;"/>
		</clipPath>
		
			<path style="clip-path:url(#SVGID_00000096039644140261550410000016914933998280308882_);fill:none;stroke:#000000;stroke-width:2;stroke-miterlimit:10;stroke-opacity:0;" d="
			M121.5,1478.6v-9.8h30.9c1.6,0,2.8,1.3,2.8,2.8v4.2c0,1.6-1.3,2.8-2.8,2.8H121.5z"/>
	</g>
	<g>
		<defs>
			<rect id="SVGID_00000101099433984163148590000011875280146284593293_" x="120.8" y="1275.3" width="701" height="352.9"/>
		</defs>
		<clipPath id="SVGID_00000094585311562572636580000011645165887497390479_">
			<use xlink:href="#SVGID_00000101099433984163148590000011875280146284593293_"  style="overflow:visible;"/>
		</clipPath>
		<path style="clip-path:url(#SVGID_00000094585311562572636580000011645165887497390479_);fill:#4285F4;" d="M121.5,1478.6v-9.8
			h30.9c1.6,0,2.8,1.3,2.8,2.8v4.2c0,1.6-1.3,2.8-2.8,2.8H121.5z"/>
	</g>
	<g>
		<defs>
			<rect id="SVGID_00000176728180051166807640000017816142107989342337_" x="120.8" y="1275.3" width="701" height="352.9"/>
		</defs>
		<clipPath id="SVGID_00000101808235675953122780000001890559783887756936_">
			<use xlink:href="#SVGID_00000176728180051166807640000017816142107989342337_"  style="overflow:visible;"/>
		</clipPath>
		
			<path style="clip-path:url(#SVGID_00000101808235675953122780000001890559783887756936_);fill:none;stroke:#000000;stroke-width:2;stroke-miterlimit:10;stroke-opacity:0;" d="
			M121.5,1558.7v-9.8h30.9c1.6,0,2.8,1.3,2.8,2.8v4.2c0,1.6-1.3,2.8-2.8,2.8H121.5z"/>
	</g>
	<g>
		<defs>
			<rect id="SVGID_00000147190554926333995720000008944590686609443728_" x="120.8" y="1275.3" width="701" height="352.9"/>
		</defs>
		<clipPath id="SVGID_00000114760291143371245910000018153382493358377350_">
			<use xlink:href="#SVGID_00000147190554926333995720000008944590686609443728_"  style="overflow:visible;"/>
		</clipPath>
		<path style="clip-path:url(#SVGID_00000114760291143371245910000018153382493358377350_);fill:#4285F4;" d="M121.5,1558.7v-9.8
			h30.9c1.6,0,2.8,1.3,2.8,2.8v4.2c0,1.6-1.3,2.8-2.8,2.8H121.5z"/>
	</g>
	<g>
		<defs>
			<rect id="SVGID_00000041266660246612093730000003658024807628239233_" x="120.8" y="1275.3" width="701" height="352.9"/>
		</defs>
		<clipPath id="SVGID_00000093878158089486608310000012120755171835758009_">
			<use xlink:href="#SVGID_00000041266660246612093730000003658024807628239233_"  style="overflow:visible;"/>
		</clipPath>
		
			<path style="clip-path:url(#SVGID_00000093878158089486608310000012120755171835758009_);fill:none;stroke:#000000;stroke-width:2;stroke-miterlimit:10;stroke-opacity:0;" d="
			M121.5,1328.3v-9.8H609c1.6,0,2.8,1.3,2.8,2.8v4.2c0,1.6-1.3,2.8-2.8,2.8H121.5z"/>
	</g>
	<g>
		<defs>
			<rect id="SVGID_00000034085266747460882670000003441614945322879360_" x="120.8" y="1275.3" width="701" height="352.9"/>
		</defs>
		<clipPath id="SVGID_00000078044524403484231750000010870066287121475242_">
			<use xlink:href="#SVGID_00000034085266747460882670000003441614945322879360_"  style="overflow:visible;"/>
		</clipPath>
		<path style="clip-path:url(#SVGID_00000078044524403484231750000010870066287121475242_);fill:#EA4335;" d="M121.5,1328.3v-9.8
			H609c1.6,0,2.8,1.3,2.8,2.8v4.2c0,1.6-1.3,2.8-2.8,2.8H121.5z"/>
	</g>
	<g>
		<defs>
			<rect id="SVGID_00000041280130483162993100000009821508078312134561_" x="120.8" y="1275.3" width="701" height="352.9"/>
		</defs>
		<clipPath id="SVGID_00000097475089565132943220000008774691500678326165_">
			<use xlink:href="#SVGID_00000041280130483162993100000009821508078312134561_"  style="overflow:visible;"/>
		</clipPath>
		
			<path style="clip-path:url(#SVGID_00000097475089565132943220000008774691500678326165_);fill:none;stroke:#000000;stroke-width:2;stroke-miterlimit:10;stroke-opacity:0;" d="
			M121.5,1409.7v-9.8h347c1.6,0,2.8,1.3,2.8,2.8v4.2c0,1.6-1.3,2.8-2.8,2.8H121.5z"/>
	</g>
	<g>
		<defs>
			<rect id="SVGID_00000058574880471981880480000006544364420368086677_" x="120.8" y="1275.3" width="701" height="352.9"/>
		</defs>
		<clipPath id="SVGID_00000109001970226577227940000003506936265404154025_">
			<use xlink:href="#SVGID_00000058574880471981880480000006544364420368086677_"  style="overflow:visible;"/>
		</clipPath>
		<path style="clip-path:url(#SVGID_00000109001970226577227940000003506936265404154025_);fill:#EA4335;" d="M121.5,1409.7v-9.8
			h347c1.6,0,2.8,1.3,2.8,2.8v4.2c0,1.6-1.3,2.8-2.8,2.8H121.5z"/>
	</g>
	<g>
		<defs>
			<rect id="SVGID_00000091693771182637798040000007178450281759429522_" x="120.8" y="1275.3" width="701" height="352.9"/>
		</defs>
		<clipPath id="SVGID_00000170998717763812863860000008397194486661676221_">
			<use xlink:href="#SVGID_00000091693771182637798040000007178450281759429522_"  style="overflow:visible;"/>
		</clipPath>
		
			<path style="clip-path:url(#SVGID_00000170998717763812863860000008397194486661676221_);fill:none;stroke:#000000;stroke-width:2;stroke-miterlimit:10;stroke-opacity:0;" d="
			M121.5,1491.2v-9.8h30.9c1.6,0,2.8,1.3,2.8,2.8v4.2c0,1.6-1.3,2.8-2.8,2.8H121.5z"/>
	</g>
	<g>
		<defs>
			<rect id="SVGID_00000080197830580017504790000005354231564517327527_" x="120.8" y="1275.3" width="701" height="352.9"/>
		</defs>
		<clipPath id="SVGID_00000080896989822422089910000007257724451592663480_">
			<use xlink:href="#SVGID_00000080197830580017504790000005354231564517327527_"  style="overflow:visible;"/>
		</clipPath>
		<path style="clip-path:url(#SVGID_00000080896989822422089910000007257724451592663480_);fill:#EA4335;" d="M121.5,1491.2v-9.8
			h30.9c1.6,0,2.8,1.3,2.8,2.8v4.2c0,1.6-1.3,2.8-2.8,2.8H121.5z"/>
	</g>
	<g>
		<defs>
			<rect id="SVGID_00000000918969095042079130000016473633338399786421_" x="120.8" y="1275.3" width="701" height="352.9"/>
		</defs>
		<clipPath id="SVGID_00000026854703572754867110000011101676820912543392_">
			<use xlink:href="#SVGID_00000000918969095042079130000016473633338399786421_"  style="overflow:visible;"/>
		</clipPath>
		
			<path style="clip-path:url(#SVGID_00000026854703572754867110000011101676820912543392_);fill:none;stroke:#000000;stroke-width:2;stroke-miterlimit:10;stroke-opacity:0;" d="
			M121.5,1571.3v-9.8h30.9c1.6,0,2.8,1.3,2.8,2.8v4.2c0,1.6-1.3,2.8-2.8,2.8H121.5z"/>
	</g>
	<g>
		<defs>
			<rect id="SVGID_00000019671741775046814040000017502115456699438232_" x="120.8" y="1275.3" width="701" height="352.9"/>
		</defs>
		<clipPath id="SVGID_00000083780888237588762880000002704677333169564074_">
			<use xlink:href="#SVGID_00000019671741775046814040000017502115456699438232_"  style="overflow:visible;"/>
		</clipPath>
		<path style="clip-path:url(#SVGID_00000083780888237588762880000002704677333169564074_);fill:#EA4335;" d="M121.5,1571.3v-9.8
			h30.9c1.6,0,2.8,1.3,2.8,2.8v4.2c0,1.6-1.3,2.8-2.8,2.8H121.5z"/>
	</g>
	<g>
		<defs>
			<rect id="SVGID_00000026873591879751716220000012234628082649855630_" x="120.8" y="1275.3" width="701" height="352.9"/>
		</defs>
		<clipPath id="SVGID_00000090263837199667743060000008197981823197568909_">
			<use xlink:href="#SVGID_00000026873591879751716220000012234628082649855630_"  style="overflow:visible;"/>
		</clipPath>
		
			<path style="clip-path:url(#SVGID_00000090263837199667743060000008197981823197568909_);fill:none;stroke:#000000;stroke-width:2;stroke-miterlimit:10;stroke-opacity:0;" d="
			M121.5,1340.9v-9.8h347c1.6,0,2.8,1.3,2.8,2.8v4.2c0,1.6-1.3,2.8-2.8,2.8H121.5z"/>
	</g>
	<g>
		<defs>
			<rect id="SVGID_00000036236486828390699180000009927470221226485944_" x="120.8" y="1275.3" width="701" height="352.9"/>
		</defs>
		<clipPath id="SVGID_00000086658137815066360810000003715667997837753990_">
			<use xlink:href="#SVGID_00000036236486828390699180000009927470221226485944_"  style="overflow:visible;"/>
		</clipPath>
		<path style="clip-path:url(#SVGID_00000086658137815066360810000003715667997837753990_);fill:#FBBC04;" d="M121.5,1340.9v-9.8
			h347c1.6,0,2.8,1.3,2.8,2.8v4.2c0,1.6-1.3,2.8-2.8,2.8H121.5z"/>
	</g>
	<g>
		<defs>
			<rect id="SVGID_00000016770146117447404120000012600557745681439392_" x="120.8" y="1275.3" width="701" height="352.9"/>
		</defs>
		<clipPath id="SVGID_00000131363450184325619390000011599146291460769190_">
			<use xlink:href="#SVGID_00000016770146117447404120000012600557745681439392_"  style="overflow:visible;"/>
		</clipPath>
		
			<path style="clip-path:url(#SVGID_00000131363450184325619390000011599146291460769190_);fill:none;stroke:#000000;stroke-width:2;stroke-miterlimit:10;stroke-opacity:0;" d="
			M121.5,1422.4v-9.8h136.3c1.6,0,2.8,1.3,2.8,2.8v4.2c0,1.6-1.3,2.8-2.8,2.8H121.5z"/>
	</g>
	<g>
		<defs>
			<rect id="SVGID_00000046326671748014863780000005537465291793657219_" x="120.8" y="1275.3" width="701" height="352.9"/>
		</defs>
		<clipPath id="SVGID_00000176738359066994846060000013796160673537121665_">
			<use xlink:href="#SVGID_00000046326671748014863780000005537465291793657219_"  style="overflow:visible;"/>
		</clipPath>
		<path style="clip-path:url(#SVGID_00000176738359066994846060000013796160673537121665_);fill:#FBBC04;" d="M121.5,1422.4v-9.8
			h136.3c1.6,0,2.8,1.3,2.8,2.8v4.2c0,1.6-1.3,2.8-2.8,2.8H121.5z"/>
	</g>
	<g>
		<defs>
			<rect id="SVGID_00000000904517633280844420000006393447612894011795_" x="120.8" y="1275.3" width="701" height="352.9"/>
		</defs>
		<clipPath id="SVGID_00000005957526421774960650000000485315146419006083_">
			<use xlink:href="#SVGID_00000000904517633280844420000006393447612894011795_"  style="overflow:visible;"/>
		</clipPath>
		
			<path style="clip-path:url(#SVGID_00000005957526421774960650000000485315146419006083_);fill:none;stroke:#000000;stroke-width:2;stroke-miterlimit:10;stroke-opacity:0;" d="
			M121.5,1503.9v-9.8h101.2c1.6,0,2.8,1.3,2.8,2.8v4.2c0,1.6-1.3,2.8-2.8,2.8H121.5z"/>
	</g>
	<g>
		<defs>
			<rect id="SVGID_00000108988367255238198300000011269912647517044414_" x="120.8" y="1275.3" width="701" height="352.9"/>
		</defs>
		<clipPath id="SVGID_00000026878131766895999140000015360401346633940127_">
			<use xlink:href="#SVGID_00000108988367255238198300000011269912647517044414_"  style="overflow:visible;"/>
		</clipPath>
		<path style="clip-path:url(#SVGID_00000026878131766895999140000015360401346633940127_);fill:#FBBC04;" d="M121.5,1503.9v-9.8
			h101.2c1.6,0,2.8,1.3,2.8,2.8v4.2c0,1.6-1.3,2.8-2.8,2.8H121.5z"/>
	</g>
	<g>
		<defs>
			<rect id="SVGID_00000102536868248691650380000006261017411290232227_" x="120.8" y="1275.3" width="701" height="352.9"/>
		</defs>
		<clipPath id="SVGID_00000011019990888982459940000015735112942718335618_">
			<use xlink:href="#SVGID_00000102536868248691650380000006261017411290232227_"  style="overflow:visible;"/>
		</clipPath>
		
			<path style="clip-path:url(#SVGID_00000011019990888982459940000015735112942718335618_);fill:none;stroke:#000000;stroke-width:2;stroke-miterlimit:10;stroke-opacity:0;" d="
			M121.5,1584v-9.8h101.2c1.6,0,2.8,1.3,2.8,2.8v4.2c0,1.6-1.3,2.8-2.8,2.8H121.5z"/>
	</g>
	<g>
		<defs>
			<rect id="SVGID_00000086680079788549255200000003107405033921024657_" x="120.8" y="1275.3" width="701" height="352.9"/>
		</defs>
		<clipPath id="SVGID_00000137097244426440195870000010746403193661937792_">
			<use xlink:href="#SVGID_00000086680079788549255200000003107405033921024657_"  style="overflow:visible;"/>
		</clipPath>
		<path style="clip-path:url(#SVGID_00000137097244426440195870000010746403193661937792_);fill:#FBBC04;" d="M121.5,1584v-9.8
			h101.2c1.6,0,2.8,1.3,2.8,2.8v4.2c0,1.6-1.3,2.8-2.8,2.8H121.5z"/>
	</g>
	<g>
		<defs>
			<rect id="SVGID_00000088097689600188674290000018258619226695117199_" x="120.8" y="1275.3" width="701" height="352.9"/>
		</defs>
		<clipPath id="SVGID_00000068660435638654185450000010166354818975558812_">
			<use xlink:href="#SVGID_00000088097689600188674290000018258619226695117199_"  style="overflow:visible;"/>
		</clipPath>
		
			<path style="clip-path:url(#SVGID_00000068660435638654185450000010166354818975558812_);fill:none;stroke:#000000;stroke-width:2;stroke-miterlimit:10;stroke-opacity:0;" d="
			M121.5,1353.5v-9.8h171.4c1.6,0,2.8,1.3,2.8,2.8v4.2c0,1.6-1.3,2.8-2.8,2.8H121.5z"/>
	</g>
	<g>
		<defs>
			<rect id="SVGID_00000138560326571543265700000012837821969372264848_" x="120.8" y="1275.3" width="701" height="352.9"/>
		</defs>
		<clipPath id="SVGID_00000116209852608610579530000017445687461195178641_">
			<use xlink:href="#SVGID_00000138560326571543265700000012837821969372264848_"  style="overflow:visible;"/>
		</clipPath>
		<path style="clip-path:url(#SVGID_00000116209852608610579530000017445687461195178641_);fill:#34A853;" d="M121.5,1353.5v-9.8
			h171.4c1.6,0,2.8,1.3,2.8,2.8v4.2c0,1.6-1.3,2.8-2.8,2.8H121.5z"/>
	</g>
	<g>
		<defs>
			<rect id="SVGID_00000054254758170292567030000018225744366184197546_" x="120.8" y="1275.3" width="701" height="352.9"/>
		</defs>
		<clipPath id="SVGID_00000100369532949077198150000017631741334444881055_">
			<use xlink:href="#SVGID_00000054254758170292567030000018225744366184197546_"  style="overflow:visible;"/>
		</clipPath>
		
			<path style="clip-path:url(#SVGID_00000100369532949077198150000017631741334444881055_);fill:none;stroke:#000000;stroke-width:2;stroke-miterlimit:10;stroke-opacity:0;" d="
			M121.5,1435v-9.8h30.9c1.6,0,2.8,1.3,2.8,2.8v4.2c0,1.6-1.3,2.8-2.8,2.8H121.5z"/>
	</g>
	<g>
		<defs>
			<rect id="SVGID_00000023994815908187552270000004896183235695210914_" x="120.8" y="1275.3" width="701" height="352.9"/>
		</defs>
		<clipPath id="SVGID_00000044175152657807579870000010458508481519409557_">
			<use xlink:href="#SVGID_00000023994815908187552270000004896183235695210914_"  style="overflow:visible;"/>
		</clipPath>
		<path style="clip-path:url(#SVGID_00000044175152657807579870000010458508481519409557_);fill:#34A853;" d="M121.5,1435v-9.8h30.9
			c1.6,0,2.8,1.3,2.8,2.8v4.2c0,1.6-1.3,2.8-2.8,2.8H121.5z"/>
	</g>
	<path d="M64.6,1335.6v-12.1h1.6v5h6.3v-5h1.6v12.1h-1.6v-5.7h-6.3v5.7H64.6z M82.7,1334.6c-0.6,0.5-1.1,0.8-1.6,1
		c-0.5,0.2-1,0.3-1.6,0.3c-1,0-1.7-0.2-2.2-0.7c-0.5-0.5-0.8-1.1-0.8-1.8c0-0.4,0.1-0.8,0.3-1.2c0.2-0.4,0.4-0.7,0.8-0.9
		c0.3-0.2,0.7-0.4,1.1-0.5c0.3-0.1,0.7-0.2,1.3-0.2c1.2-0.1,2.1-0.3,2.6-0.5c0-0.2,0-0.3,0-0.4c0-0.6-0.1-1-0.4-1.3
		c-0.4-0.3-0.9-0.5-1.7-0.5c-0.7,0-1.2,0.1-1.5,0.4c-0.3,0.2-0.6,0.7-0.7,1.3l-1.4-0.2c0.1-0.6,0.4-1.1,0.7-1.5
		c0.3-0.4,0.7-0.7,1.3-0.9c0.6-0.2,1.2-0.3,2-0.3s1.4,0.1,1.8,0.3c0.5,0.2,0.8,0.4,1,0.7c0.2,0.3,0.4,0.6,0.5,1
		c0,0.2,0.1,0.7,0.1,1.4v2c0,1.4,0,2.2,0.1,2.6c0.1,0.4,0.2,0.7,0.4,1.1H83C82.9,1335.3,82.8,1335,82.7,1334.6z M82.6,1331.3
		c-0.5,0.2-1.3,0.4-2.4,0.6c-0.6,0.1-1,0.2-1.3,0.3c-0.2,0.1-0.4,0.3-0.6,0.5c-0.1,0.2-0.2,0.4-0.2,0.7c0,0.4,0.1,0.7,0.4,1
		c0.3,0.3,0.7,0.4,1.3,0.4c0.6,0,1.1-0.1,1.5-0.4c0.5-0.2,0.8-0.6,1-1c0.2-0.3,0.2-0.8,0.2-1.5V1331.3z M86.8,1339v-12.1h1.3v1.1
		c0.3-0.4,0.7-0.8,1.1-1c0.4-0.2,0.9-0.3,1.5-0.3c0.7,0,1.4,0.2,2,0.6c0.6,0.4,1,0.9,1.3,1.6c0.3,0.7,0.4,1.5,0.4,2.3
		c0,0.9-0.2,1.7-0.5,2.4c-0.3,0.7-0.8,1.3-1.4,1.6c-0.6,0.4-1.3,0.6-1.9,0.6c-0.5,0-0.9-0.1-1.3-0.3c-0.4-0.2-0.7-0.5-1-0.8v4.3
		H86.8z M88.2,1331.3c0,1.1,0.2,2,0.7,2.5c0.5,0.5,1,0.8,1.6,0.8c0.7,0,1.2-0.3,1.7-0.8s0.7-1.4,0.7-2.6c0-1.1-0.2-1.9-0.7-2.5
		c-0.5-0.6-1-0.8-1.6-0.8c-0.6,0-1.2,0.3-1.7,0.9C88.4,1329.3,88.2,1330.2,88.2,1331.3z M96.7,1339v-12.1H98v1.1
		c0.3-0.4,0.7-0.8,1.1-1c0.4-0.2,0.9-0.3,1.5-0.3c0.7,0,1.4,0.2,2,0.6c0.6,0.4,1,0.9,1.3,1.6c0.3,0.7,0.4,1.5,0.4,2.3
		c0,0.9-0.2,1.7-0.5,2.4c-0.3,0.7-0.8,1.3-1.4,1.6c-0.6,0.4-1.3,0.6-1.9,0.6c-0.5,0-0.9-0.1-1.3-0.3c-0.4-0.2-0.7-0.5-1-0.8v4.3
		H96.7z M98,1331.3c0,1.1,0.2,2,0.7,2.5c0.5,0.5,1,0.8,1.6,0.8c0.7,0,1.2-0.3,1.7-0.8c0.5-0.6,0.7-1.4,0.7-2.6
		c0-1.1-0.2-1.9-0.7-2.5c-0.5-0.6-1-0.8-1.6-0.8c-0.6,0-1.2,0.3-1.7,0.9C98.3,1329.3,98,1330.2,98,1331.3z M106.4,1339l-0.2-1.4
		c0.3,0.1,0.6,0.1,0.9,0.1c0.3,0,0.6-0.1,0.8-0.2c0.2-0.1,0.4-0.2,0.5-0.4c0.1-0.2,0.2-0.5,0.5-1.1c0-0.1,0.1-0.2,0.1-0.4l-3.3-8.8
		h1.6l1.8,5c0.2,0.6,0.4,1.3,0.6,2c0.2-0.7,0.4-1.4,0.6-2l1.9-5.1h1.5l-3.3,8.9c-0.4,1-0.6,1.6-0.8,2c-0.3,0.5-0.6,0.9-0.9,1.1
		c-0.3,0.2-0.7,0.4-1.2,0.4C107.1,1339.2,106.8,1339.1,106.4,1339z"/>
	<path d="M77.4,1416.8v-10.6h-4v-1.4H83v1.4h-4v10.6H77.4z M84,1406.4v-1.7h1.5v1.7H84z M84,1416.8v-8.7h1.5v8.7H84z M88.2,1416.8
		v-8.7h1.3v1.3c0.3-0.6,0.6-1,0.9-1.2c0.3-0.2,0.6-0.3,1-0.3c0.5,0,1,0.2,1.5,0.5l-0.5,1.4c-0.4-0.2-0.7-0.3-1.1-0.3
		c-0.3,0-0.6,0.1-0.9,0.3c-0.2,0.2-0.4,0.5-0.5,0.8c-0.2,0.5-0.3,1.1-0.3,1.7v4.6H88.2z M99.8,1414l1.5,0.2
		c-0.2,0.9-0.7,1.6-1.3,2.1c-0.7,0.5-1.5,0.7-2.5,0.7c-1.3,0-2.3-0.4-3.1-1.2c-0.7-0.8-1.1-1.9-1.1-3.3c0-1.5,0.4-2.6,1.1-3.4
		c0.8-0.8,1.7-1.2,2.9-1.2c1.2,0,2.1,0.4,2.9,1.2c0.7,0.8,1.1,1.9,1.1,3.4c0,0.1,0,0.2,0,0.4h-6.5c0.1,1,0.3,1.7,0.8,2.2
		c0.5,0.5,1.1,0.7,1.8,0.7c0.5,0,1-0.1,1.4-0.4C99.3,1415,99.6,1414.6,99.8,1414z M95,1411.6h4.9c-0.1-0.7-0.2-1.3-0.5-1.7
		c-0.5-0.6-1.1-0.9-1.8-0.9c-0.7,0-1.3,0.2-1.7,0.7C95.3,1410.2,95,1410.8,95,1411.6z M109.4,1416.8v-1.1c-0.6,0.9-1.4,1.3-2.4,1.3
		c-0.7,0-1.3-0.2-1.9-0.6c-0.6-0.4-1-0.9-1.4-1.6c-0.3-0.7-0.5-1.5-0.5-2.4c0-0.9,0.1-1.7,0.4-2.4c0.3-0.7,0.7-1.3,1.3-1.6
		c0.6-0.4,1.2-0.6,2-0.6c0.5,0,1,0.1,1.4,0.3c0.4,0.2,0.7,0.5,1,0.9v-4.3h1.5v12.1H109.4z M104.7,1412.4c0,1.1,0.2,2,0.7,2.5
		c0.5,0.5,1,0.8,1.7,0.8c0.6,0,1.2-0.3,1.6-0.8c0.5-0.5,0.7-1.3,0.7-2.4c0-1.2-0.2-2.1-0.7-2.6c-0.5-0.6-1-0.8-1.7-0.8
		c-0.7,0-1.2,0.3-1.6,0.8C104.9,1410.4,104.7,1411.2,104.7,1412.4z"/>
	<path d="M59,1497.9v-12.1h8.7v1.4h-7.1v3.7h6.7v1.4h-6.7v4.1H68v1.4H59z M69,1497.9l3.2-4.5l-2.9-4.2h1.8l1.3,2
		c0.2,0.4,0.5,0.7,0.6,1c0.2-0.4,0.5-0.7,0.7-1l1.5-2.1h1.8l-3,4.1l3.2,4.6h-1.8l-1.8-2.7l-0.5-0.7l-2.3,3.4H69z M82.7,1494.7
		l1.4,0.2c-0.2,1-0.6,1.8-1.2,2.3c-0.7,0.6-1.5,0.9-2.4,0.9c-1.2,0-2.2-0.4-2.9-1.2c-0.7-0.8-1.1-1.9-1.1-3.4c0-0.9,0.2-1.8,0.5-2.5
		c0.3-0.7,0.8-1.3,1.4-1.6c0.6-0.4,1.3-0.5,2.1-0.5c0.9,0,1.7,0.2,2.3,0.7c0.6,0.5,1,1.1,1.2,2l-1.4,0.2c-0.1-0.6-0.4-1-0.7-1.3
		c-0.4-0.3-0.8-0.5-1.3-0.5c-0.7,0-1.4,0.3-1.8,0.8c-0.5,0.5-0.7,1.4-0.7,2.5c0,1.2,0.2,2,0.7,2.6c0.5,0.5,1,0.8,1.8,0.8
		c0.6,0,1.1-0.2,1.4-0.5C82.3,1496,82.6,1495.4,82.7,1494.7z M85.4,1487.5v-1.7h1.5v1.7H85.4z M85.4,1497.9v-8.7h1.5v8.7H85.4z
		 M92.9,1496.6l0.2,1.3c-0.4,0.1-0.8,0.1-1.1,0.1c-0.5,0-1-0.1-1.3-0.2c-0.3-0.2-0.5-0.4-0.6-0.7c-0.1-0.3-0.2-0.9-0.2-1.8v-5h-1.1
		v-1.1h1.1v-2.2l1.5-0.9v3.1h1.5v1.1h-1.5v5.1c0,0.4,0,0.7,0.1,0.8c0.1,0.1,0.1,0.2,0.3,0.3c0.1,0.1,0.3,0.1,0.5,0.1
		C92.4,1496.6,92.6,1496.6,92.9,1496.6z M99.8,1495.1l1.5,0.2c-0.2,0.9-0.7,1.6-1.3,2.1c-0.7,0.5-1.5,0.7-2.5,0.7
		c-1.3,0-2.3-0.4-3.1-1.2c-0.7-0.8-1.1-1.9-1.1-3.3c0-1.5,0.4-2.6,1.1-3.4c0.8-0.8,1.7-1.2,2.9-1.2c1.2,0,2.1,0.4,2.9,1.2
		c0.7,0.8,1.1,1.9,1.1,3.4c0,0.1,0,0.2,0,0.4h-6.5c0.1,1,0.3,1.7,0.8,2.2c0.5,0.5,1.1,0.7,1.8,0.7c0.5,0,1-0.1,1.4-0.4
		C99.3,1496.1,99.6,1495.7,99.8,1495.1z M95,1492.7h4.9c-0.1-0.7-0.2-1.3-0.5-1.7c-0.5-0.6-1.1-0.9-1.8-0.9c-0.7,0-1.3,0.2-1.7,0.7
		C95.3,1491.3,95,1491.9,95,1492.7z M109.4,1497.9v-1.1c-0.6,0.9-1.4,1.3-2.4,1.3c-0.7,0-1.3-0.2-1.9-0.6c-0.6-0.4-1-0.9-1.4-1.6
		c-0.3-0.7-0.5-1.5-0.5-2.4c0-0.9,0.1-1.7,0.4-2.4c0.3-0.7,0.7-1.3,1.3-1.6c0.6-0.4,1.2-0.6,2-0.6c0.5,0,1,0.1,1.4,0.3
		c0.4,0.2,0.7,0.5,1,0.9v-4.3h1.5v12.1H109.4z M104.7,1493.5c0,1.1,0.2,2,0.7,2.5c0.5,0.5,1,0.8,1.7,0.8c0.6,0,1.2-0.3,1.6-0.8
		s0.7-1.3,0.7-2.4c0-1.2-0.2-2.1-0.7-2.6c-0.5-0.6-1-0.8-1.7-0.8c-0.7,0-1.2,0.3-1.6,0.8C104.9,1491.5,104.7,1492.4,104.7,1493.5z"
		/>
	<path d="M32.3,1579v-12.1H41v1.4h-7.1v3.7h6.7v1.4h-6.7v4.1h7.4v1.4H32.3z M42.3,1579l3.2-4.5l-2.9-4.2h1.8l1.3,2
		c0.2,0.4,0.5,0.7,0.6,1c0.2-0.4,0.5-0.7,0.7-1l1.5-2.1h1.8l-3,4.1l3.2,4.6h-1.8l-1.8-2.7l-0.5-0.7l-2.3,3.4H42.3z M50.3,1579v-12.1
		h1.5v4.3c0.7-0.8,1.6-1.2,2.6-1.2c0.7,0,1.2,0.1,1.7,0.4c0.5,0.2,0.8,0.6,1,1.1c0.2,0.4,0.3,1.1,0.3,2v5.5h-1.5v-5.5
		c0-0.7-0.2-1.3-0.5-1.6c-0.3-0.3-0.8-0.5-1.4-0.5c-0.4,0-0.9,0.1-1.3,0.4c-0.4,0.2-0.7,0.5-0.8,0.9c-0.2,0.4-0.2,0.9-0.2,1.6v4.8
		H50.3z M65.9,1577.9c-0.6,0.5-1.1,0.8-1.6,1c-0.5,0.2-1,0.3-1.6,0.3c-1,0-1.7-0.2-2.2-0.7c-0.5-0.5-0.8-1.1-0.8-1.8
		c0-0.4,0.1-0.8,0.3-1.2c0.2-0.4,0.4-0.7,0.8-0.9c0.3-0.2,0.7-0.4,1.1-0.5c0.3-0.1,0.7-0.2,1.3-0.2c1.2-0.1,2.1-0.3,2.6-0.5
		c0-0.2,0-0.3,0-0.4c0-0.6-0.1-1-0.4-1.3c-0.4-0.3-0.9-0.5-1.7-0.5c-0.7,0-1.2,0.1-1.5,0.4c-0.3,0.2-0.6,0.7-0.7,1.3l-1.4-0.2
		c0.1-0.6,0.4-1.1,0.7-1.5s0.7-0.7,1.3-0.9c0.6-0.2,1.2-0.3,2-0.3c0.7,0,1.4,0.1,1.8,0.3c0.5,0.2,0.8,0.4,1,0.7
		c0.2,0.3,0.4,0.6,0.5,1c0,0.2,0.1,0.7,0.1,1.4v2c0,1.4,0,2.2,0.1,2.6c0.1,0.4,0.2,0.7,0.4,1.1h-1.6
		C66,1578.7,65.9,1578.4,65.9,1577.9z M65.7,1574.6c-0.5,0.2-1.3,0.4-2.4,0.6c-0.6,0.1-1,0.2-1.3,0.3c-0.2,0.1-0.4,0.3-0.6,0.5
		c-0.1,0.2-0.2,0.4-0.2,0.7c0,0.4,0.1,0.7,0.4,1c0.3,0.3,0.7,0.4,1.3,0.4s1.1-0.1,1.5-0.4c0.5-0.2,0.8-0.6,1-1
		c0.2-0.3,0.2-0.8,0.2-1.5V1574.6z M75.7,1579v-1.3c-0.7,1-1.6,1.5-2.8,1.5c-0.5,0-1-0.1-1.4-0.3c-0.4-0.2-0.8-0.5-1-0.7
		c-0.2-0.3-0.4-0.7-0.5-1.1c-0.1-0.3-0.1-0.7-0.1-1.4v-5.4h1.5v4.9c0,0.8,0,1.3,0.1,1.6c0.1,0.4,0.3,0.7,0.6,0.9
		c0.3,0.2,0.7,0.3,1.1,0.3c0.4,0,0.8-0.1,1.2-0.3c0.4-0.2,0.7-0.5,0.8-0.9c0.2-0.4,0.3-1,0.3-1.7v-4.7H77v8.7H75.7z M79.2,1576.4
		l1.4-0.2c0.1,0.6,0.3,1,0.7,1.3c0.4,0.3,0.9,0.5,1.6,0.5c0.7,0,1.2-0.1,1.5-0.4c0.3-0.3,0.5-0.6,0.5-1c0-0.3-0.1-0.6-0.4-0.8
		c-0.2-0.1-0.7-0.3-1.5-0.5c-1.1-0.3-1.8-0.5-2.3-0.7c-0.4-0.2-0.7-0.5-0.9-0.8c-0.2-0.4-0.3-0.7-0.3-1.2c0-0.4,0.1-0.7,0.3-1.1
		c0.2-0.3,0.4-0.6,0.7-0.8c0.2-0.2,0.5-0.3,0.9-0.4c0.4-0.1,0.8-0.2,1.3-0.2c0.7,0,1.3,0.1,1.8,0.3c0.5,0.2,0.9,0.5,1.2,0.8
		c0.2,0.3,0.4,0.8,0.5,1.3l-1.4,0.2c-0.1-0.4-0.2-0.8-0.6-1c-0.3-0.3-0.8-0.4-1.3-0.4c-0.7,0-1.2,0.1-1.4,0.4
		c-0.3,0.2-0.4,0.5-0.4,0.8c0,0.2,0.1,0.4,0.2,0.5c0.1,0.2,0.3,0.3,0.6,0.4c0.1,0.1,0.6,0.2,1.3,0.4c1.1,0.3,1.8,0.5,2.2,0.7
		s0.7,0.4,1,0.8c0.2,0.3,0.4,0.8,0.4,1.3c0,0.5-0.1,1-0.4,1.4c-0.3,0.4-0.7,0.8-1.2,1c-0.5,0.2-1.2,0.4-1.8,0.4
		c-1.1,0-2-0.2-2.6-0.7C79.8,1578,79.4,1577.3,79.2,1576.4z M92.9,1577.7l0.2,1.3c-0.4,0.1-0.8,0.1-1.1,0.1c-0.5,0-1-0.1-1.3-0.2
		c-0.3-0.2-0.5-0.4-0.6-0.7c-0.1-0.3-0.2-0.9-0.2-1.8v-5h-1.1v-1.1h1.1v-2.2l1.5-0.9v3.1h1.5v1.1h-1.5v5.1c0,0.4,0,0.7,0.1,0.8
		c0.1,0.1,0.1,0.2,0.3,0.3c0.1,0.1,0.3,0.1,0.5,0.1C92.4,1577.7,92.6,1577.7,92.9,1577.7z M99.8,1576.2l1.5,0.2
		c-0.2,0.9-0.7,1.6-1.3,2.1c-0.7,0.5-1.5,0.7-2.5,0.7c-1.3,0-2.3-0.4-3.1-1.2c-0.7-0.8-1.1-1.9-1.1-3.3c0-1.5,0.4-2.6,1.1-3.4
		c0.8-0.8,1.7-1.2,2.9-1.2c1.2,0,2.1,0.4,2.9,1.2c0.7,0.8,1.1,1.9,1.1,3.4c0,0.1,0,0.2,0,0.4h-6.5c0.1,1,0.3,1.7,0.8,2.2
		c0.5,0.5,1.1,0.7,1.8,0.7c0.5,0,1-0.1,1.4-0.4C99.3,1577.3,99.6,1576.8,99.8,1576.2z M95,1573.8h4.9c-0.1-0.7-0.2-1.3-0.5-1.7
		c-0.5-0.6-1.1-0.9-1.8-0.9c-0.7,0-1.3,0.2-1.7,0.7C95.3,1572.4,95,1573,95,1573.8z M109.4,1579v-1.1c-0.6,0.9-1.4,1.3-2.4,1.3
		c-0.7,0-1.3-0.2-1.9-0.6c-0.6-0.4-1-0.9-1.4-1.6c-0.3-0.7-0.5-1.5-0.5-2.4c0-0.9,0.1-1.7,0.4-2.4c0.3-0.7,0.7-1.3,1.3-1.6
		c0.6-0.4,1.2-0.6,2-0.6c0.5,0,1,0.1,1.4,0.3c0.4,0.2,0.7,0.5,1,0.9v-4.3h1.5v12.1H109.4z M104.7,1574.6c0,1.1,0.2,2,0.7,2.5
		c0.5,0.5,1,0.8,1.7,0.8c0.6,0,1.2-0.3,1.6-0.8s0.7-1.3,0.7-2.4c0-1.2-0.2-2.1-0.7-2.6c-0.5-0.6-1-0.8-1.7-0.8
		c-0.7,0-1.2,0.3-1.6,0.8C104.9,1572.6,104.7,1573.5,104.7,1574.6z"/>
	<path d="M116.6,1646.1c0-1.4,0.1-2.6,0.4-3.4c0.3-0.9,0.7-1.6,1.3-2c0.6-0.5,1.3-0.7,2.2-0.7c0.6,0,1.2,0.1,1.7,0.4
		c0.5,0.3,0.9,0.6,1.2,1.1c0.3,0.5,0.6,1.1,0.7,1.8c0.2,0.7,0.3,1.7,0.3,2.9c0,1.4-0.1,2.6-0.4,3.4c-0.3,0.9-0.7,1.5-1.3,2
		c-0.6,0.5-1.3,0.7-2.2,0.7c-1.2,0-2.1-0.4-2.7-1.3C117,1650,116.6,1648.4,116.6,1646.1z M118.1,1646.1c0,2,0.2,3.3,0.7,4
		c0.5,0.7,1,1,1.7,1c0.7,0,1.3-0.3,1.7-1c0.5-0.7,0.7-2,0.7-4c0-2-0.2-3.3-0.7-4c-0.5-0.7-1-1-1.7-1c-0.7,0-1.2,0.3-1.6,0.9
		C118.4,1642.7,118.1,1644.1,118.1,1646.1z"/>
	<path d="M291.9,1648.9l1.6-0.1c0.1,0.8,0.4,1.3,0.8,1.7c0.4,0.4,0.9,0.6,1.5,0.6c0.7,0,1.3-0.3,1.8-0.8c0.5-0.5,0.7-1.3,0.7-2.1
		c0-0.8-0.2-1.5-0.7-2c-0.5-0.5-1.1-0.7-1.9-0.7c-0.5,0-0.9,0.1-1.3,0.3c-0.4,0.2-0.7,0.5-0.9,0.8l-1.4-0.2l1.2-6.2h6v1.4h-4.8
		l-0.6,3.2c0.7-0.5,1.5-0.8,2.3-0.8c1.1,0,1.9,0.4,2.7,1.1c0.7,0.7,1.1,1.7,1.1,2.8c0,1.1-0.3,2-0.9,2.8c-0.8,1-1.8,1.4-3.2,1.4
		c-1.1,0-2-0.3-2.7-0.9C292.4,1650.7,292,1649.9,291.9,1648.9z"/>
	<path d="M467.8,1652h-1.5v-9.4c-0.4,0.3-0.8,0.7-1.4,1c-0.6,0.3-1.1,0.6-1.5,0.7v-1.4c0.8-0.4,1.5-0.9,2.2-1.4
		c0.6-0.6,1.1-1.1,1.3-1.6h0.9V1652z M472,1646.1c0-1.4,0.1-2.6,0.4-3.4c0.3-0.9,0.7-1.6,1.3-2c0.6-0.5,1.3-0.7,2.2-0.7
		c0.6,0,1.2,0.1,1.7,0.4c0.5,0.3,0.9,0.6,1.2,1.1c0.3,0.5,0.6,1.1,0.7,1.8c0.2,0.7,0.3,1.7,0.3,2.9c0,1.4-0.1,2.6-0.4,3.4
		c-0.3,0.9-0.7,1.5-1.3,2c-0.6,0.5-1.3,0.7-2.2,0.7c-1.2,0-2.1-0.4-2.7-1.3C472.4,1650,472,1648.4,472,1646.1z M473.5,1646.1
		c0,2,0.2,3.3,0.7,4s1,1,1.7,1c0.7,0,1.3-0.3,1.7-1c0.5-0.7,0.7-2,0.7-4c0-2-0.2-3.3-0.7-4c-0.5-0.7-1-1-1.7-1
		c-0.7,0-1.2,0.3-1.6,0.9C473.8,1642.7,473.5,1644.1,473.5,1646.1z"/>
	<path d="M643,1652h-1.5v-9.4c-0.4,0.3-0.8,0.7-1.4,1c-0.6,0.3-1.1,0.6-1.5,0.7v-1.4c0.8-0.4,1.5-0.9,2.2-1.4
		c0.6-0.6,1.1-1.1,1.3-1.6h0.9V1652z M647.3,1648.9l1.6-0.1c0.1,0.8,0.4,1.3,0.8,1.7c0.4,0.4,0.9,0.6,1.5,0.6c0.7,0,1.3-0.3,1.8-0.8
		c0.5-0.5,0.7-1.3,0.7-2.1c0-0.8-0.2-1.5-0.7-2c-0.5-0.5-1.1-0.7-1.9-0.7c-0.5,0-0.9,0.1-1.3,0.3c-0.4,0.2-0.7,0.5-0.9,0.8l-1.4-0.2
		l1.2-6.2h6v1.4h-4.8l-0.6,3.2c0.7-0.5,1.5-0.8,2.3-0.8c1.1,0,1.9,0.4,2.7,1.1c0.7,0.7,1.1,1.7,1.1,2.8c0,1.1-0.3,2-0.9,2.8
		c-0.8,1-1.8,1.4-3.2,1.4c-1.1,0-2-0.3-2.7-0.9C647.8,1650.7,647.4,1649.9,647.3,1648.9z"/>
	<path d="M820.5,1650.6v1.4h-8c0-0.4,0.1-0.7,0.2-1c0.2-0.5,0.5-1.1,1-1.6c0.5-0.5,1.1-1.1,2-1.8c1.3-1.1,2.2-1.9,2.7-2.6
		c0.5-0.6,0.7-1.2,0.7-1.8c0-0.6-0.2-1.1-0.6-1.5c-0.4-0.4-1-0.6-1.6-0.6c-0.7,0-1.3,0.2-1.7,0.6c-0.4,0.4-0.6,1-0.7,1.8l-1.5-0.2
		c0.1-1.1,0.5-2,1.2-2.6c0.7-0.6,1.6-0.9,2.8-0.9s2.1,0.3,2.7,1c0.7,0.6,1,1.4,1,2.4c0,0.5-0.1,1-0.3,1.4c-0.2,0.5-0.5,0.9-1,1.5
		c-0.5,0.5-1.2,1.2-2.3,2.1c-0.9,0.7-1.5,1.3-1.7,1.5c-0.2,0.3-0.5,0.5-0.6,0.8H820.5z M822.5,1646.1c0-1.4,0.1-2.6,0.4-3.4
		c0.3-0.9,0.7-1.6,1.3-2c0.6-0.5,1.3-0.7,2.2-0.7c0.6,0,1.2,0.1,1.7,0.4c0.5,0.3,0.9,0.6,1.2,1.1c0.3,0.5,0.6,1.1,0.7,1.8
		c0.2,0.7,0.3,1.7,0.3,2.9c0,1.4-0.1,2.6-0.4,3.4c-0.3,0.9-0.7,1.5-1.3,2c-0.6,0.5-1.3,0.7-2.2,0.7c-1.2,0-2.1-0.4-2.7-1.3
		C822.9,1650,822.5,1648.4,822.5,1646.1z M824,1646.1c0,2,0.2,3.3,0.7,4c0.5,0.7,1,1,1.7,1c0.7,0,1.3-0.3,1.7-1c0.5-0.7,0.7-2,0.7-4
		c0-2-0.2-3.3-0.7-4c-0.5-0.7-1-1-1.7-1c-0.7,0-1.2,0.3-1.6,0.9C824.3,1642.7,824,1644.1,824,1646.1z"/>
	<path class="st283" d="M278.1,1241c0-0.8,0.6-1.4,1.4-1.4h14.1c0.8,0,1.4,0.6,1.4,1.4v14.1c0,0.8-0.6,1.4-1.4,1.4h-14.1
		c-0.8,0-1.4-0.6-1.4-1.4V1241z"/>
	<path class="st284" d="M307,1249.8l1.5-0.1c0.1,0.6,0.2,1.1,0.5,1.5c0.3,0.4,0.7,0.7,1.2,0.9c0.6,0.2,1.2,0.4,1.9,0.4
		c0.6,0,1.1-0.1,1.6-0.3c0.5-0.2,0.8-0.4,1-0.7c0.2-0.3,0.4-0.7,0.4-1c0-0.4-0.1-0.7-0.3-1c-0.2-0.3-0.6-0.5-1.1-0.7
		c-0.3-0.1-1.1-0.3-2.2-0.6c-1.1-0.3-1.9-0.5-2.3-0.7c-0.6-0.3-1-0.7-1.3-1.1c-0.3-0.5-0.4-1-0.4-1.5c0-0.6,0.2-1.2,0.5-1.7
		c0.4-0.5,0.9-0.9,1.5-1.2c0.7-0.3,1.4-0.4,2.2-0.4c0.9,0,1.7,0.1,2.4,0.4c0.7,0.3,1.2,0.7,1.6,1.3c0.4,0.6,0.6,1.2,0.6,1.9
		l-1.5,0.1c-0.1-0.8-0.4-1.3-0.9-1.7c-0.5-0.4-1.2-0.6-2.1-0.6c-1,0-1.7,0.2-2.1,0.5c-0.4,0.4-0.7,0.8-0.7,1.3
		c0,0.4,0.2,0.8,0.5,1.1s1.1,0.6,2.4,0.9c1.3,0.3,2.2,0.5,2.7,0.8c0.7,0.3,1.2,0.8,1.6,1.3c0.3,0.5,0.5,1.1,0.5,1.7
		c0,0.6-0.2,1.3-0.5,1.8c-0.4,0.6-0.9,1-1.6,1.3c-0.7,0.3-1.5,0.5-2.3,0.5c-1.1,0-2-0.2-2.8-0.5c-0.7-0.3-1.3-0.8-1.7-1.4
		C307.2,1251.3,307,1250.6,307,1249.8z M324.6,1250.9l1.5,0.2c-0.2,0.9-0.7,1.6-1.3,2.1c-0.7,0.5-1.5,0.7-2.5,0.7
		c-1.3,0-2.3-0.4-3.1-1.2c-0.7-0.8-1.1-1.9-1.1-3.3c0-1.5,0.4-2.6,1.1-3.4c0.8-0.8,1.7-1.2,2.9-1.2c1.2,0,2.1,0.4,2.9,1.2
		c0.7,0.8,1.1,1.9,1.1,3.4c0,0.1,0,0.2,0,0.4h-6.5c0.1,1,0.3,1.7,0.8,2.2c0.5,0.5,1.1,0.7,1.8,0.7c0.5,0,1-0.1,1.4-0.4
		C324,1251.9,324.3,1251.5,324.6,1250.9z M319.7,1248.5h4.9c-0.1-0.7-0.2-1.3-0.5-1.7c-0.5-0.6-1.1-0.9-1.8-0.9
		c-0.7,0-1.3,0.2-1.7,0.7C320,1247.1,319.8,1247.7,319.7,1248.5z M328.4,1257v-12.1h1.3v1.1c0.3-0.4,0.7-0.8,1.1-1
		c0.4-0.2,0.9-0.3,1.5-0.3c0.7,0,1.4,0.2,2,0.6c0.6,0.4,1,0.9,1.3,1.6c0.3,0.7,0.4,1.5,0.4,2.3c0,0.9-0.2,1.7-0.5,2.4
		c-0.3,0.7-0.8,1.3-1.4,1.6c-0.6,0.4-1.3,0.6-1.9,0.6c-0.5,0-0.9-0.1-1.3-0.3c-0.4-0.2-0.7-0.5-1-0.8v4.3H328.4z M329.8,1249.3
		c0,1.1,0.2,2,0.7,2.5c0.5,0.5,1,0.8,1.6,0.8c0.7,0,1.2-0.3,1.7-0.8c0.5-0.6,0.7-1.4,0.7-2.6c0-1.1-0.2-1.9-0.7-2.5
		c-0.5-0.6-1-0.8-1.6-0.8c-0.6,0-1.2,0.3-1.7,0.9S329.8,1248.2,329.8,1249.3z"/>
	<path class="st285" d="M359.6,1241c0-0.8,0.6-1.4,1.4-1.4h14.1c0.8,0,1.4,0.6,1.4,1.4v14.1c0,0.8-0.6,1.4-1.4,1.4H361
		c-0.8,0-1.4-0.6-1.4-1.4V1241z"/>
	<path class="st284" d="M388.5,1247.8c0-2,0.5-3.6,1.6-4.7c1.1-1.1,2.5-1.7,4.2-1.7c1.1,0,2.1,0.3,3,0.8c0.9,0.5,1.6,1.3,2,2.2
		s0.7,2,0.7,3.2c0,1.2-0.2,2.3-0.7,3.3s-1.2,1.7-2.1,2.2c-0.9,0.5-1.9,0.7-2.9,0.7c-1.1,0-2.2-0.3-3.1-0.8c-0.9-0.6-1.6-1.3-2-2.2
		C388.8,1249.9,388.5,1248.9,388.5,1247.8z M390.2,1247.8c0,1.5,0.4,2.6,1.2,3.4c0.8,0.8,1.8,1.3,3,1.3c1.2,0,2.2-0.4,3-1.3
		c0.8-0.8,1.2-2.1,1.2-3.6c0-1-0.2-1.8-0.5-2.6c-0.3-0.7-0.8-1.3-1.4-1.7c-0.6-0.4-1.4-0.6-2.2-0.6c-1.1,0-2.1,0.4-2.9,1.2
		C390.6,1244.7,390.2,1246,390.2,1247.8z M407.2,1250.5l1.4,0.2c-0.2,1-0.6,1.8-1.2,2.3s-1.5,0.9-2.4,0.9c-1.2,0-2.2-0.4-2.9-1.2
		c-0.7-0.8-1.1-1.9-1.1-3.4c0-0.9,0.2-1.8,0.5-2.5c0.3-0.7,0.8-1.3,1.4-1.6c0.6-0.4,1.3-0.5,2.1-0.5c0.9,0,1.7,0.2,2.3,0.7
		c0.6,0.5,1,1.1,1.2,2l-1.4,0.2c-0.1-0.6-0.4-1-0.7-1.3c-0.4-0.3-0.8-0.5-1.3-0.5c-0.7,0-1.4,0.3-1.8,0.8c-0.5,0.5-0.7,1.4-0.7,2.5
		c0,1.2,0.2,2,0.7,2.6c0.5,0.5,1,0.8,1.8,0.8c0.6,0,1.1-0.2,1.4-0.5C406.8,1251.8,407.1,1251.2,407.2,1250.5z M413.1,1252.4l0.2,1.3
		c-0.4,0.1-0.8,0.1-1.1,0.1c-0.5,0-1-0.1-1.3-0.2c-0.3-0.2-0.5-0.4-0.6-0.7c-0.1-0.3-0.2-0.9-0.2-1.8v-5h-1.1v-1.1h1.1v-2.2l1.5-0.9
		v3.1h1.5v1.1h-1.5v5.1c0,0.4,0,0.7,0.1,0.8c0.1,0.1,0.1,0.2,0.3,0.3c0.1,0.1,0.3,0.1,0.5,0.1
		C412.7,1252.4,412.9,1252.4,413.1,1252.4z"/>
	<path class="st286" d="M435.5,1241c0-0.8,0.6-1.4,1.4-1.4H451c0.8,0,1.4,0.6,1.4,1.4v14.1c0,0.8-0.6,1.4-1.4,1.4h-14.1
		c-0.8,0-1.4-0.6-1.4-1.4V1241z"/>
	<path class="st284" d="M464.9,1253.7v-12.1h1.6l6.3,9.5v-9.5h1.5v12.1h-1.6l-6.3-9.5v9.5H464.9z M476.8,1249.3
		c0-1.6,0.4-2.8,1.3-3.6c0.7-0.6,1.7-1,2.7-1c1.2,0,2.2,0.4,2.9,1.2c0.8,0.8,1.2,1.9,1.2,3.2c0,1.1-0.2,2-0.5,2.7
		c-0.3,0.6-0.8,1.1-1.5,1.5c-0.6,0.4-1.3,0.5-2.1,0.5c-1.2,0-2.2-0.4-3-1.2C477.2,1251.9,476.8,1250.8,476.8,1249.3z M478.3,1249.3
		c0,1.1,0.2,1.9,0.7,2.5c0.5,0.6,1.1,0.8,1.8,0.8c0.7,0,1.4-0.3,1.8-0.8c0.5-0.6,0.7-1.4,0.7-2.5c0-1.1-0.2-1.9-0.7-2.5
		c-0.5-0.6-1.1-0.8-1.8-0.8c-0.7,0-1.3,0.3-1.8,0.8C478.6,1247.3,478.3,1248.2,478.3,1249.3z M489.6,1253.7l-3.3-8.7h1.6l1.9,5.2
		c0.2,0.6,0.4,1.2,0.5,1.8c0.1-0.5,0.3-1,0.5-1.6l2-5.3h1.5l-3.3,8.7H489.6z"/>
	<path class="st287" d="M515.6,1241c0-0.8,0.6-1.4,1.4-1.4H531c0.8,0,1.4,0.6,1.4,1.4v14.1c0,0.8-0.6,1.4-1.4,1.4H517
		c-0.8,0-1.4-0.6-1.4-1.4V1241z"/>
	<path class="st284" d="M545,1253.7v-12.1h4.2c0.9,0,1.7,0.1,2.2,0.2c0.7,0.2,1.3,0.4,1.8,0.9c0.6,0.5,1.1,1.2,1.4,2.1
		c0.3,0.8,0.5,1.8,0.5,2.9c0,0.9-0.1,1.7-0.3,2.4c-0.2,0.7-0.5,1.3-0.8,1.8c-0.3,0.5-0.7,0.8-1.1,1.1c-0.4,0.3-0.9,0.5-1.4,0.6
		c-0.6,0.1-1.2,0.2-1.9,0.2H545z M546.6,1252.2h2.6c0.8,0,1.4-0.1,1.9-0.2c0.5-0.1,0.8-0.4,1.1-0.6c0.4-0.4,0.7-0.9,0.9-1.5
		c0.2-0.6,0.3-1.4,0.3-2.3c0-1.3-0.2-2.2-0.6-2.9c-0.4-0.7-0.9-1.1-1.5-1.4c-0.4-0.2-1.1-0.2-2.1-0.2h-2.5V1252.2z M563.4,1250.9
		l1.5,0.2c-0.2,0.9-0.7,1.6-1.3,2.1c-0.7,0.5-1.5,0.7-2.5,0.7c-1.3,0-2.3-0.4-3.1-1.2c-0.7-0.8-1.1-1.9-1.1-3.3
		c0-1.5,0.4-2.6,1.1-3.4c0.8-0.8,1.7-1.2,2.9-1.2c1.2,0,2.1,0.4,2.9,1.2c0.7,0.8,1.1,1.9,1.1,3.4c0,0.1,0,0.2,0,0.4h-6.5
		c0.1,1,0.3,1.7,0.8,2.2c0.5,0.5,1.1,0.7,1.8,0.7c0.5,0,1-0.1,1.4-0.4C562.9,1251.9,563.2,1251.5,563.4,1250.9z M558.6,1248.5h4.9
		c-0.1-0.7-0.2-1.3-0.5-1.7c-0.5-0.6-1.1-0.9-1.8-0.9c-0.7,0-1.3,0.2-1.7,0.7C558.9,1247.1,558.6,1247.7,558.6,1248.5z M573,1250.5
		l1.4,0.2c-0.2,1-0.6,1.8-1.2,2.3c-0.7,0.6-1.5,0.9-2.4,0.9c-1.2,0-2.2-0.4-2.9-1.2c-0.7-0.8-1.1-1.9-1.1-3.4c0-0.9,0.2-1.8,0.5-2.5
		c0.3-0.7,0.8-1.3,1.4-1.6c0.6-0.4,1.3-0.5,2.1-0.5c0.9,0,1.7,0.2,2.3,0.7c0.6,0.5,1,1.1,1.2,2l-1.4,0.2c-0.1-0.6-0.4-1-0.7-1.3
		c-0.4-0.3-0.8-0.5-1.3-0.5c-0.7,0-1.4,0.3-1.8,0.8c-0.5,0.5-0.7,1.4-0.7,2.5c0,1.2,0.2,2,0.7,2.6c0.5,0.5,1,0.8,1.8,0.8
		c0.6,0,1.1-0.2,1.4-0.5C572.6,1251.8,572.9,1251.2,573,1250.5z"/>
	<path class="st288" d="M33,1213.8v-20.1h4l4.7,14.2c0.4,1.3,0.8,2.3,1,3c0.2-0.7,0.6-1.8,1.1-3.2l4.8-14h3.6v20.1h-2.5V1197
		l-5.9,16.8h-2.4l-5.8-17.1v17.1H33z M55.8,1206.5c0-2.7,0.7-4.7,2.2-6c1.3-1.1,2.8-1.6,4.6-1.6c2,0,3.6,0.7,4.9,2
		c1.3,1.3,1.9,3.1,1.9,5.4c0,1.9-0.3,3.4-0.8,4.4c-0.6,1.1-1.4,1.9-2.5,2.5c-1.1,0.6-2.2,0.9-3.5,0.9c-2,0-3.7-0.7-5-2
		C56.4,1210.9,55.8,1209,55.8,1206.5z M58.3,1206.5c0,1.9,0.4,3.3,1.2,4.2c0.8,0.9,1.9,1.4,3.1,1.4c1.2,0,2.2-0.5,3.1-1.4
		c0.8-0.9,1.2-2.4,1.2-4.3c0-1.8-0.4-3.2-1.2-4.1c-0.8-0.9-1.8-1.4-3.1-1.4c-1.2,0-2.3,0.5-3.1,1.4
		C58.7,1203.3,58.3,1204.7,58.3,1206.5z M71.2,1206.5c0-2.7,0.7-4.7,2.2-6c1.3-1.1,2.8-1.6,4.6-1.6c2,0,3.6,0.7,4.9,2
		c1.3,1.3,1.9,3.1,1.9,5.4c0,1.9-0.3,3.4-0.8,4.4c-0.6,1.1-1.4,1.9-2.5,2.5c-1.1,0.6-2.2,0.9-3.5,0.9c-2,0-3.7-0.7-5-2
		C71.8,1210.9,71.2,1209,71.2,1206.5z M73.7,1206.5c0,1.9,0.4,3.3,1.2,4.2c0.8,0.9,1.9,1.4,3.1,1.4c1.2,0,2.2-0.5,3.1-1.4
		c0.8-0.9,1.2-2.4,1.2-4.3c0-1.8-0.4-3.2-1.2-4.1c-0.8-0.9-1.8-1.4-3.1-1.4c-1.2,0-2.3,0.5-3.1,1.4
		C74.1,1203.3,73.7,1204.7,73.7,1206.5z M97,1213.8v-1.8c-0.9,1.4-2.3,2.2-4.1,2.2c-1.2,0-2.2-0.3-3.2-1c-1-0.6-1.7-1.5-2.3-2.7
		c-0.5-1.1-0.8-2.5-0.8-4c0-1.5,0.2-2.8,0.7-4c0.5-1.2,1.2-2.1,2.2-2.7c1-0.6,2.1-0.9,3.2-0.9c0.9,0,1.7,0.2,2.3,0.6
		c0.7,0.4,1.3,0.8,1.7,1.4v-7.2h2.4v20.1H97z M89.2,1206.5c0,1.9,0.4,3.2,1.2,4.2c0.8,0.9,1.7,1.4,2.8,1.4c1.1,0,2-0.4,2.7-1.3
		c0.8-0.9,1.1-2.2,1.1-4c0-2-0.4-3.5-1.2-4.4c-0.8-0.9-1.7-1.4-2.8-1.4c-1.1,0-2,0.5-2.8,1.4C89.6,1203.2,89.2,1204.6,89.2,1206.5z
		 M116.2,1219.7c-1.4-1.7-2.5-3.7-3.4-6c-0.9-2.3-1.4-4.7-1.4-7.2c0-2.2,0.4-4.3,1.1-6.3c0.8-2.3,2.1-4.6,3.8-6.9h1.8
		c-1.1,1.9-1.8,3.3-2.2,4.1c-0.6,1.3-1,2.6-1.3,4c-0.4,1.7-0.6,3.4-0.6,5.2c0,4.4,1.4,8.8,4.1,13.2H116.2z M119.4,1213.8l7.7-20.1
		h2.9l8.2,20.1h-3l-2.3-6.1h-8.4l-2.2,6.1H119.4z M125.2,1205.6h6.8l-2.1-5.6c-0.6-1.7-1.1-3.1-1.4-4.2c-0.3,1.3-0.6,2.6-1.1,3.8
		L125.2,1205.6z M139.5,1213.8v-20.1h2.5v20.1H139.5z M145.1,1213.8v-20.1h2.5v20.1H145.1z M159.2,1213.8v-14.6h2.2v2
		c0.5-0.7,1.1-1.3,1.8-1.7c0.8-0.4,1.6-0.7,2.6-0.7c1.1,0,2,0.2,2.7,0.7c0.7,0.4,1.2,1.1,1.5,1.9c1.2-1.7,2.7-2.5,4.5-2.5
		c1.4,0,2.6,0.4,3.3,1.2c0.8,0.8,1.2,2,1.2,3.7v10h-2.5v-9.2c0-1-0.1-1.7-0.2-2.1c-0.2-0.4-0.5-0.8-0.9-1.1
		c-0.4-0.3-0.9-0.4-1.5-0.4c-1,0-1.9,0.3-2.6,1c-0.7,0.7-1,1.8-1,3.2v8.5h-2.5v-9.5c0-1.1-0.2-1.9-0.6-2.5c-0.4-0.6-1.1-0.8-2-0.8
		c-0.7,0-1.3,0.2-1.9,0.5c-0.6,0.4-1,0.9-1.3,1.6c-0.3,0.7-0.4,1.7-0.4,3.1v7.6H159.2z M180.8,1206.5c0-2.7,0.7-4.7,2.2-6
		c1.3-1.1,2.8-1.6,4.6-1.6c2,0,3.6,0.7,4.9,2c1.3,1.3,1.9,3.1,1.9,5.4c0,1.9-0.3,3.4-0.8,4.4c-0.6,1.1-1.4,1.9-2.5,2.5
		c-1.1,0.6-2.2,0.9-3.5,0.9c-2,0-3.7-0.7-5-2C181.4,1210.9,180.8,1209,180.8,1206.5z M183.3,1206.5c0,1.9,0.4,3.3,1.2,4.2
		c0.8,0.9,1.9,1.4,3.1,1.4c1.2,0,2.2-0.5,3.1-1.4c0.8-0.9,1.2-2.4,1.2-4.3c0-1.8-0.4-3.2-1.2-4.1c-0.8-0.9-1.8-1.4-3.1-1.4
		c-1.2,0-2.3,0.5-3.1,1.4C183.7,1203.3,183.3,1204.7,183.3,1206.5z M197.2,1213.8v-14.6h2.2v2.1c1.1-1.6,2.6-2.4,4.6-2.4
		c0.9,0,1.7,0.2,2.4,0.5c0.7,0.3,1.3,0.7,1.7,1.2c0.4,0.5,0.6,1.1,0.8,1.8c0.1,0.5,0.1,1.3,0.1,2.4v9h-2.5v-8.9c0-1-0.1-1.8-0.3-2.3
		c-0.2-0.5-0.5-0.9-1-1.2c-0.5-0.3-1.1-0.4-1.7-0.4c-1.1,0-2,0.3-2.7,1c-0.8,0.7-1.1,1.9-1.1,3.8v8H197.2z M216.6,1211.6l0.4,2.2
		c-0.7,0.1-1.3,0.2-1.9,0.2c-0.9,0-1.6-0.1-2.1-0.4c-0.5-0.3-0.8-0.7-1-1.1c-0.2-0.5-0.3-1.4-0.3-2.9v-8.4h-1.8v-1.9h1.8v-3.6
		l2.5-1.5v5.1h2.5v1.9h-2.5v8.5c0,0.7,0,1.2,0.1,1.4c0.1,0.2,0.2,0.4,0.4,0.5c0.2,0.1,0.5,0.2,0.9,0.2
		C215.8,1211.7,216.2,1211.7,216.6,1211.6z M219.6,1213.8v-20.1h2.5v7.2c1.2-1.3,2.6-2,4.4-2c1.1,0,2,0.2,2.8,0.6
		c0.8,0.4,1.4,1,1.7,1.8c0.4,0.7,0.5,1.8,0.5,3.2v9.2h-2.5v-9.2c0-1.2-0.3-2.1-0.8-2.7c-0.5-0.6-1.3-0.9-2.3-0.9
		c-0.7,0-1.4,0.2-2.1,0.6c-0.6,0.4-1.1,0.9-1.4,1.6c-0.3,0.6-0.4,1.5-0.4,2.7v8H219.6z M232.7,1209.5l2.5-0.4c0.1,1,0.5,1.7,1.1,2.3
		c0.6,0.5,1.5,0.8,2.6,0.8c1.1,0,2-0.2,2.5-0.7c0.6-0.5,0.8-1,0.8-1.6c0-0.6-0.2-1-0.7-1.3c-0.3-0.2-1.2-0.5-2.5-0.8
		c-1.8-0.5-3.1-0.9-3.8-1.2c-0.7-0.3-1.2-0.8-1.6-1.4c-0.4-0.6-0.5-1.3-0.5-2c0-0.6,0.1-1.2,0.4-1.8c0.3-0.6,0.7-1,1.2-1.4
		c0.4-0.3,0.9-0.5,1.6-0.7c0.7-0.2,1.4-0.3,2.2-0.3c1.1,0,2.1,0.2,3,0.5c0.9,0.3,1.5,0.8,1.9,1.3c0.4,0.6,0.7,1.3,0.9,2.2l-2.4,0.3
		c-0.1-0.7-0.4-1.3-1-1.7c-0.5-0.4-1.3-0.6-2.2-0.6c-1.1,0-2,0.2-2.4,0.6c-0.5,0.4-0.7,0.8-0.7,1.3c0,0.3,0.1,0.6,0.3,0.9
		c0.2,0.3,0.5,0.5,0.9,0.7c0.2,0.1,1,0.3,2.2,0.6c1.8,0.5,3,0.9,3.7,1.2c0.7,0.3,1.2,0.7,1.6,1.3c0.4,0.6,0.6,1.3,0.6,2.1
		c0,0.8-0.2,1.6-0.7,2.3s-1.2,1.3-2.1,1.7s-1.9,0.6-3.1,0.6c-1.9,0-3.3-0.4-4.3-1.2C233.6,1212.2,233,1211,232.7,1209.5z
		 M249.4,1219.7h-1.8c2.7-4.4,4.1-8.8,4.1-13.2c0-1.7-0.2-3.4-0.6-5.1c-0.3-1.4-0.8-2.7-1.3-4c-0.4-0.8-1.1-2.2-2.2-4.1h1.8
		c1.7,2.3,3,4.6,3.8,6.9c0.7,2,1.1,4.1,1.1,6.3c0,2.5-0.5,4.9-1.4,7.2C251.9,1216,250.7,1218,249.4,1219.7z"/>
</g>
</svg>
