<svg version="1.1" viewBox="0.0 0.0 685.0 425.0" fill="none" stroke="none" stroke-linecap="square" stroke-miterlimit="10" width="685" height="425" xmlns:xlink="http://www.w3.org/1999/xlink" xmlns="http://www.w3.org/2000/svg"><path fill="#ffffff" d="M0 0L685.0 0L685.0 425.0L0 425.0L0 0Z" fill-rule="nonzero"/><path stroke="#333333" stroke-width="1.0" stroke-linecap="butt" d="M85.5 59.5L85.5 383.5" fill-rule="nonzero"/><path stroke="#cccccc" stroke-width="1.0" stroke-linecap="butt" d="M278.5 59.5L278.5 383.5" fill-rule="nonzero"/><path stroke="#cccccc" stroke-width="1.0" stroke-linecap="butt" d="M470.5 59.5L470.5 383.5" fill-rule="nonzero"/><path stroke="#cccccc" stroke-width="1.0" stroke-linecap="butt" d="M663.5 59.5L663.5 383.5" fill-rule="nonzero"/><clipPath id="id_0"><path d="M85.25 59.416668L663.75 59.416668L663.75 383.75L85.25 383.75L85.25 59.416668Z" clip-rule="nonzero"/></clipPath><path stroke="#000000" stroke-width="2.0" stroke-linecap="butt" stroke-opacity="0.0" clip-path="url(#id_0)" d="M85.0 134.0L85.0 86.0L623.0 86.0C624.10455 86.0 625.0 86.89543 625.0 88.0L625.0 132.0C625.0 133.10457 624.10455 134.0 623.0 134.0Z" fill-rule="nonzero"/><path fill="#4285f4" clip-path="url(#id_0)" d="M85.0 134.0L85.0 86.0L623.0 86.0C624.10455 86.0 625.0 86.89543 625.0 88.0L625.0 132.0C625.0 133.10457 624.10455 134.0 623.0 134.0Z" fill-rule="nonzero"/><path stroke="#000000" stroke-width="2.0" stroke-linecap="butt" stroke-opacity="0.0" clip-path="url(#id_0)" d="M85.0 208.0L85.0 160.0L469.0 160.0C470.10458 160.0 471.0 160.89543 471.0 162.0L471.0 206.0C471.0 207.10457 470.10458 208.0 469.0 208.0Z" fill-rule="nonzero"/><path fill="#4285f4" clip-path="url(#id_0)" d="M85.0 208.0L85.0 160.0L469.0 160.0C470.10458 160.0 471.0 160.89543 471.0 162.0L471.0 206.0C471.0 207.10457 470.10458 208.0 469.0 208.0Z" fill-rule="nonzero"/><path stroke="#000000" stroke-width="2.0" stroke-linecap="butt" stroke-opacity="0.0" clip-path="url(#id_0)" d="M85.0 283.0L85.0 235.0L122.0 235.0C123.10457 235.0 124.0 235.89543 124.0 237.0L124.0 281.0C124.0 282.10458 123.10457 283.0 122.0 283.0Z" fill-rule="nonzero"/><path fill="#4285f4" clip-path="url(#id_0)" d="M85.0 283.0L85.0 235.0L122.0 235.0C123.10457 235.0 124.0 235.89543 124.0 237.0L124.0 281.0C124.0 282.10458 123.10457 283.0 122.0 283.0Z" fill-rule="nonzero"/><path stroke="#000000" stroke-width="2.0" stroke-linecap="butt" stroke-opacity="0.0" clip-path="url(#id_0)" d="M85.0 357.0L85.0 309.0L122.0 309.0C123.10457 309.0 124.0 309.89542 124.0 311.0L124.0 355.0C124.0 356.10458 123.10457 357.0 122.0 357.0Z" fill-rule="nonzero"/><path fill="#4285f4" clip-path="url(#id_0)" d="M85.0 357.0L85.0 309.0L122.0 309.0C123.10457 309.0 124.0 309.89542 124.0 311.0L124.0 355.0C124.0 356.10458 123.10457 357.0 122.0 357.0Z" fill-rule="nonzero"/><path fill="#000000" d="M45.21875 113.744255L45.21875 105.150505L46.34375 105.150505L46.34375 108.681755L50.8125 108.681755L50.8125 105.150505L51.953125 105.150505L51.953125 113.744255L50.8125 113.744255L50.8125 109.69738L46.34375 109.69738L46.34375 113.744255L45.21875 113.744255ZM58.109375 112.97863Q57.515625 113.47863 56.96875 113.681755Q56.4375 113.88488 55.8125 113.88488Q54.78125 113.88488 54.234375 113.38488Q53.6875 112.88488 53.6875 112.10363Q53.6875 111.650505 53.890625 111.275505Q54.09375 110.88488 54.4375 110.66613Q54.78125 110.431755 55.203125 110.32238Q55.5 110.22863 56.140625 110.150505Q57.40625 110.00988 58.015625 109.79113Q58.015625 109.57238 58.015625 109.525505Q58.015625 108.869255 57.71875 108.60363Q57.3125 108.25988 56.515625 108.25988Q55.78125 108.25988 55.421875 108.525505Q55.0625 108.775505 54.890625 109.431755L53.859375 109.29113Q54.0 108.63488 54.328125 108.22863Q54.65625 107.82238 55.265625 107.60363Q55.875 107.38488 56.671875 107.38488Q57.46875 107.38488 57.96875 107.57238Q58.46875 107.75988 58.703125 108.04113Q58.9375 108.32238 59.03125 108.75988Q59.078125 109.025505 59.078125 109.72863L59.078125 111.13488Q59.078125 112.60363 59.140625 112.994255Q59.21875 113.38488 59.421875 113.744255L58.3125 113.744255Q58.15625 113.41613 58.109375 112.97863ZM58.015625 110.619255Q57.4375 110.85363 56.296875 111.025505Q55.640625 111.119255 55.375 111.244255Q55.109375 111.35363 54.953125 111.57238Q54.8125 111.79113 54.8125 112.07238Q54.8125 112.494255 55.125 112.775505Q55.453125 113.056755 56.0625 113.056755Q56.671875 113.056755 57.140625 112.79113Q57.625 112.525505 57.84375 112.056755Q58.015625 111.69738 58.015625 111.00988L58.015625 110.619255ZM61.046875 116.13488L61.046875 107.525505L62.0 107.525505L62.0 108.32238Q62.34375 107.85363 62.765625 107.619255Q63.203125 107.38488 63.8125 107.38488Q64.609375 107.38488 65.21875 107.79113Q65.828125 108.19738 66.125 108.94738Q66.4375 109.69738 66.4375 110.588005Q66.4375 111.54113 66.09375 112.306755Q65.765625 113.07238 65.109375 113.47863Q64.453125 113.88488 63.734375 113.88488Q63.203125 113.88488 62.78125 113.66613Q62.359375 113.431755 62.09375 113.10363L62.09375 116.13488L61.046875 116.13488ZM62.0 110.66613Q62.0 111.869255 62.484375 112.44738Q62.96875 113.00988 63.65625 113.00988Q64.359375 113.00988 64.859375 112.41613Q65.359375 111.82238 65.359375 110.57238Q65.359375 109.38488 64.875 108.806755Q64.390625 108.213005 63.703125 108.213005Q63.03125 108.213005 62.515625 108.838005Q62.0 109.463005 62.0 110.66613ZM68.046875 116.13488L68.046875 107.525505L69.0 107.525505L69.0 108.32238Q69.34375 107.85363 69.765625 107.619255Q70.203125 107.38488 70.8125 107.38488Q71.609375 107.38488 72.21875 107.79113Q72.828125 108.19738 73.125 108.94738Q73.4375 109.69738 73.4375 110.588005Q73.4375 111.54113 73.09375 112.306755Q72.765625 113.07238 72.109375 113.47863Q71.453125 113.88488 70.734375 113.88488Q70.203125 113.88488 69.78125 113.66613Q69.359375 113.431755 69.09375 113.10363L69.09375 116.13488L68.046875 116.13488ZM69.0 110.66613Q69.0 111.869255 69.484375 112.44738Q69.96875 113.00988 70.65625 113.00988Q71.359375 113.00988 71.859375 112.41613Q72.359375 111.82238 72.359375 110.57238Q72.359375 109.38488 71.875 108.806755Q71.390625 108.213005 70.703125 108.213005Q70.03125 108.213005 69.515625 108.838005Q69.0 109.463005 69.0 110.66613ZM75.0 116.13488L74.875 115.150505Q75.21875 115.244255 75.484375 115.244255Q75.828125 115.244255 76.03125 115.119255Q76.25 115.00988 76.390625 114.806755Q76.484375 114.63488 76.71875 114.00988Q76.734375 113.931755 76.8125 113.75988L74.4375 107.525505L75.578125 107.525505L76.875 111.119255Q77.125 111.806755 77.328125 112.57238Q77.515625 111.838005 77.765625 111.150505L79.09375 107.525505L80.140625 107.525505L77.78125 113.85363Q77.390625 114.869255 77.1875 115.25988Q76.90625 115.79113 76.53125 116.025505Q76.171875 116.275505 75.671875 116.275505Q75.375 116.275505 75.0 116.13488Z" fill-rule="nonzero"/><path fill="#000000" d="M54.359375 188.30363L54.359375 180.72551L51.53125 180.72551L51.53125 179.70988L58.34375 179.70988L58.34375 180.72551L55.5 180.72551L55.5 188.30363L54.359375 188.30363ZM59.046875 180.92863L59.046875 179.70988L60.109375 179.70988L60.109375 180.92863L59.046875 180.92863ZM59.046875 188.30363L59.046875 182.08488L60.109375 182.08488L60.109375 188.30363L59.046875 188.30363ZM62.03125 188.30363L62.03125 182.08488L62.984375 182.08488L62.984375 183.02238Q63.34375 182.36613 63.640625 182.16301Q63.953125 181.94426 64.328125 181.94426Q64.859375 181.94426 65.40625 182.27238L65.046875 183.25676Q64.65625 183.02238 64.28125 183.02238Q63.921875 183.02238 63.640625 183.24113Q63.375 183.44426 63.265625 183.81926Q63.078125 184.38176 63.078125 185.03801L63.078125 188.30363L62.03125 188.30363ZM70.296875 186.30363L71.390625 186.42863Q71.140625 187.38176 70.4375 187.91301Q69.734375 188.44426 68.65625 188.44426Q67.296875 188.44426 66.484375 187.60051Q65.6875 186.75676 65.6875 185.24113Q65.6875 183.67863 66.5 182.81926Q67.3125 181.94426 68.59375 181.94426Q69.84375 181.94426 70.625 182.78801Q71.421875 183.63176 71.421875 185.17863Q71.421875 185.27238 71.421875 185.45988L66.78125 185.45988Q66.84375 186.49113 67.359375 187.03801Q67.875 187.56926 68.65625 187.56926Q69.234375 187.56926 69.640625 187.27238Q70.0625 186.95988 70.296875 186.30363ZM66.84375 184.60051L70.3125 184.60051Q70.25 183.80363 69.921875 183.41301Q69.40625 182.80363 68.609375 182.80363Q67.875 182.80363 67.375 183.28801Q66.890625 183.77238 66.84375 184.60051ZM77.078125 188.30363L77.078125 187.52238Q76.484375 188.44426 75.34375 188.44426Q74.59375 188.44426 73.96875 188.03801Q73.34375 187.61613 73.0 186.88176Q72.65625 186.14738 72.65625 185.19426Q72.65625 184.27238 72.96875 183.50676Q73.28125 182.74113 73.90625 182.35051Q74.53125 181.94426 75.296875 181.94426Q75.859375 181.94426 76.296875 182.17863Q76.734375 182.41301 77.015625 182.78801L77.015625 179.70988L78.0625 179.70988L78.0625 188.30363L77.078125 188.30363ZM73.75 185.19426Q73.75 186.39738 74.25 186.99113Q74.75 187.56926 75.4375 187.56926Q76.125 187.56926 76.609375 187.00676Q77.09375 186.44426 77.09375 185.28801Q77.09375 184.00676 76.59375 183.41301Q76.109375 182.81926 75.390625 182.81926Q74.6875 182.81926 74.21875 183.39738Q73.75 183.95988 73.75 185.19426Z" fill-rule="nonzero"/><path fill="#000000" d="M41.203125 262.86304L41.203125 254.26929L47.40625 254.26929L47.40625 255.28491L42.34375 255.28491L42.34375 257.9099L47.09375 257.9099L47.09375 258.92554L42.34375 258.92554L42.34375 261.8474L47.609375 261.8474L47.609375 262.86304L41.203125 262.86304ZM48.34375 262.86304L50.609375 259.62866L48.515625 256.6443L49.828125 256.6443L50.78125 258.0974Q51.046875 258.5193 51.21875 258.80054Q51.46875 258.4099 51.6875 258.11304L52.734375 256.6443L54.0 256.6443L51.84375 259.56616L54.15625 262.86304L52.875 262.86304L51.59375 260.92554L51.25 260.4099L49.609375 262.86304L48.34375 262.86304ZM58.109375 260.5818L59.140625 260.7224Q58.96875 261.7849 58.265625 262.3943Q57.5625 263.00366 56.546875 263.00366Q55.265625 263.00366 54.484375 262.17554Q53.71875 261.3318 53.71875 259.7693Q53.71875 258.7693 54.046875 258.0193Q54.390625 257.25366 55.0625 256.87866Q55.75 256.50366 56.5625 256.50366Q57.5625 256.50366 58.203125 257.0193Q58.859375 257.5193 59.046875 258.4724L58.015625 258.62866Q57.875 258.00366 57.5 257.69116Q57.125 257.36304 56.59375 257.36304Q55.796875 257.36304 55.296875 257.94116Q54.796875 258.50366 54.796875 259.73804Q54.796875 261.00366 55.28125 261.56616Q55.765625 262.12866 56.53125 262.12866Q57.15625 262.12866 57.5625 261.75366Q57.984375 261.37866 58.109375 260.5818ZM60.046875 255.48804L60.046875 254.26929L61.109375 254.26929L61.109375 255.48804L60.046875 255.48804ZM60.046875 262.86304L60.046875 256.6443L61.109375 256.6443L61.109375 262.86304L60.046875 262.86304ZM65.34375 261.92554L65.5 262.8474Q65.046875 262.94116 64.703125 262.94116Q64.125 262.94116 63.8125 262.7693Q63.5 262.5818 63.359375 262.2849Q63.234375 261.98804 63.234375 261.0349L63.234375 257.4568L62.46875 257.4568L62.46875 256.6443L63.234375 256.6443L63.234375 255.09741L64.28125 254.47241L64.28125 256.6443L65.34375 256.6443L65.34375 257.4568L64.28125 257.4568L64.28125 261.0974Q64.28125 261.55054 64.328125 261.67554Q64.390625 261.80054 64.515625 261.87866Q64.640625 261.9568 64.875 261.9568Q65.0625 261.9568 65.34375 261.92554ZM70.296875 260.86304L71.390625 260.98804Q71.140625 261.94116 70.4375 262.4724Q69.734375 263.00366 68.65625 263.00366Q67.296875 263.00366 66.484375 262.1599Q65.6875 261.31616 65.6875 259.80054Q65.6875 258.23804 66.5 257.37866Q67.3125 256.50366 68.59375 256.50366Q69.84375 256.50366 70.625 257.3474Q71.421875 258.19116 71.421875 259.73804Q71.421875 259.8318 71.421875 260.0193L66.78125 260.0193Q66.84375 261.05054 67.359375 261.5974Q67.875 262.12866 68.65625 262.12866Q69.234375 262.12866 69.640625 261.8318Q70.0625 261.5193 70.296875 260.86304ZM66.84375 259.1599L70.3125 259.1599Q70.25 258.36304 69.921875 257.9724Q69.40625 257.36304 68.609375 257.36304Q67.875 257.36304 67.375 257.8474Q66.890625 258.3318 66.84375 259.1599ZM77.078125 262.86304L77.078125 262.0818Q76.484375 263.00366 75.34375 263.00366Q74.59375 263.00366 73.96875 262.5974Q73.34375 262.17554 73.0 261.44116Q72.65625 260.7068 72.65625 259.75366Q72.65625 258.8318 72.96875 258.06616Q73.28125 257.30054 73.90625 256.9099Q74.53125 256.50366 75.296875 256.50366Q75.859375 256.50366 76.296875 256.73804Q76.734375 256.9724 77.015625 257.3474L77.015625 254.26929L78.0625 254.26929L78.0625 262.86304L77.078125 262.86304ZM73.75 259.75366Q73.75 260.9568 74.25 261.55054Q74.75 262.12866 75.4375 262.12866Q76.125 262.12866 76.609375 261.56616Q77.09375 261.00366 77.09375 259.8474Q77.09375 258.56616 76.59375 257.9724Q76.109375 257.37866 75.390625 257.37866Q74.6875 257.37866 74.21875 257.9568Q73.75 258.5193 73.75 259.75366Z" fill-rule="nonzero"/><path fill="#000000" d="M22.203125 337.42242L22.203125 328.82867L28.40625 328.82867L28.40625 329.8443L23.34375 329.8443L23.34375 332.4693L28.09375 332.4693L28.09375 333.48492L23.34375 333.48492L23.34375 336.4068L28.609375 336.4068L28.609375 337.42242L22.203125 337.42242ZM29.34375 337.42242L31.609375 334.18805L29.515625 331.20367L30.828125 331.20367L31.78125 332.6568Q32.046875 333.07867 32.21875 333.35992Q32.46875 332.9693 32.6875 332.67242L33.734375 331.20367L35.0 331.20367L32.84375 334.12555L35.15625 337.42242L33.875 337.42242L32.59375 335.48492L32.25 334.9693L30.609375 337.42242L29.34375 337.42242ZM35.046875 337.42242L35.046875 328.82867L36.09375 328.82867L36.09375 331.9068Q36.828125 331.06305 37.953125 331.06305Q38.65625 331.06305 39.15625 331.3443Q39.671875 331.60992 39.890625 332.0943Q40.109375 332.56305 40.109375 333.48492L40.109375 337.42242L39.0625 337.42242L39.0625 333.48492Q39.0625 332.68805 38.71875 332.32867Q38.375 331.9693 37.75 331.9693Q37.28125 331.9693 36.859375 332.2193Q36.453125 332.45367 36.265625 332.87555Q36.09375 333.2818 36.09375 334.01617L36.09375 337.42242L35.046875 337.42242ZM46.109375 336.6568Q45.515625 337.1568 44.96875 337.35992Q44.4375 337.56305 43.8125 337.56305Q42.78125 337.56305 42.234375 337.06305Q41.6875 336.56305 41.6875 335.7818Q41.6875 335.32867 41.890625 334.95367Q42.09375 334.56305 42.4375 334.3443Q42.78125 334.10992 43.203125 334.00055Q43.5 333.9068 44.140625 333.82867Q45.40625 333.68805 46.015625 333.4693Q46.015625 333.25055 46.015625 333.20367Q46.015625 332.54742 45.71875 332.2818Q45.3125 331.93805 44.515625 331.93805Q43.78125 331.93805 43.421875 332.20367Q43.0625 332.45367 42.890625 333.10992L41.859375 332.9693Q42.0 332.31305 42.328125 331.9068Q42.65625 331.50055 43.265625 331.2818Q43.875 331.06305 44.671875 331.06305Q45.46875 331.06305 45.96875 331.25055Q46.46875 331.43805 46.703125 331.7193Q46.9375 332.00055 47.03125 332.43805Q47.078125 332.70367 47.078125 333.4068L47.078125 334.81305Q47.078125 336.2818 47.140625 336.67242Q47.21875 337.06305 47.421875 337.42242L46.3125 337.42242Q46.15625 337.0943 46.109375 336.6568ZM46.015625 334.29742Q45.4375 334.5318 44.296875 334.70367Q43.640625 334.79742 43.375 334.92242Q43.109375 335.0318 42.953125 335.25055Q42.8125 335.4693 42.8125 335.75055Q42.8125 336.17242 43.125 336.45367Q43.453125 336.73492 44.0625 336.73492Q44.671875 336.73492 45.140625 336.4693Q45.625 336.20367 45.84375 335.73492Q46.015625 335.37555 46.015625 334.68805L46.015625 334.29742ZM53.125 337.42242L53.125 336.50055Q52.390625 337.56305 51.140625 337.56305Q50.59375 337.56305 50.109375 337.35992Q49.640625 337.14117 49.40625 336.82867Q49.171875 336.50055 49.078125 336.0318Q49.015625 335.73492 49.015625 335.04742L49.015625 331.20367L50.078125 331.20367L50.078125 334.6568Q50.078125 335.4693 50.140625 335.76617Q50.234375 336.17242 50.546875 336.42242Q50.875 336.6568 51.359375 336.6568Q51.828125 336.6568 52.234375 336.42242Q52.65625 336.17242 52.828125 335.75055Q53.015625 335.32867 53.015625 334.5318L53.015625 331.20367L54.0625 331.20367L54.0625 337.42242L53.125 337.42242ZM55.625 335.56305L56.65625 335.4068Q56.75 336.0318 57.140625 336.35992Q57.546875 336.68805 58.28125 336.68805Q59.0 336.68805 59.34375 336.4068Q59.703125 336.10992 59.703125 335.70367Q59.703125 335.3443 59.390625 335.14117Q59.171875 335.00055 58.3125 334.7818Q57.15625 334.48492 56.703125 334.2818Q56.265625 334.06305 56.03125 333.68805Q55.796875 333.31305 55.796875 332.8443Q55.796875 332.43805 55.984375 332.07867Q56.171875 331.7193 56.5 331.48492Q56.75 331.31305 57.171875 331.18805Q57.59375 331.06305 58.09375 331.06305Q58.8125 331.06305 59.359375 331.2818Q59.921875 331.48492 60.1875 331.8443Q60.453125 332.20367 60.546875 332.79742L59.515625 332.93805Q59.453125 332.4693 59.109375 332.20367Q58.78125 331.92242 58.15625 331.92242Q57.4375 331.92242 57.125 332.17242Q56.8125 332.4068 56.8125 332.73492Q56.8125 332.93805 56.9375 333.0943Q57.078125 333.26617 57.34375 333.37555Q57.5 333.43805 58.28125 333.64117Q59.40625 333.95367 59.84375 334.14117Q60.28125 334.32867 60.53125 334.68805Q60.78125 335.04742 60.78125 335.5943Q60.78125 336.12555 60.46875 336.5943Q60.171875 337.04742 59.59375 337.31305Q59.015625 337.56305 58.28125 337.56305Q57.0625 337.56305 56.421875 337.06305Q55.796875 336.54742 55.625 335.56305ZM65.34375 336.48492L65.5 337.4068Q65.046875 337.50055 64.703125 337.50055Q64.125 337.50055 63.8125 337.32867Q63.5 337.14117 63.359375 336.8443Q63.234375 336.54742 63.234375 335.5943L63.234375 332.01617L62.46875 332.01617L62.46875 331.20367L63.234375 331.20367L63.234375 329.6568L64.28125 329.0318L64.28125 331.20367L65.34375 331.20367L65.34375 332.01617L64.28125 332.01617L64.28125 335.6568Q64.28125 336.10992 64.328125 336.23492Q64.390625 336.35992 64.515625 336.43805Q64.640625 336.51617 64.875 336.51617Q65.0625 336.51617 65.34375 336.48492ZM70.296875 335.42242L71.390625 335.54742Q71.140625 336.50055 70.4375 337.0318Q69.734375 337.56305 68.65625 337.56305Q67.296875 337.56305 66.484375 336.7193Q65.6875 335.87555 65.6875 334.35992Q65.6875 332.79742 66.5 331.93805Q67.3125 331.06305 68.59375 331.06305Q69.84375 331.06305 70.625 331.9068Q71.421875 332.75055 71.421875 334.29742Q71.421875 334.39117 71.421875 334.57867L66.78125 334.57867Q66.84375 335.60992 67.359375 336.1568Q67.875 336.68805 68.65625 336.68805Q69.234375 336.68805 69.640625 336.39117Q70.0625 336.07867 70.296875 335.42242ZM66.84375 333.7193L70.3125 333.7193Q70.25 332.92242 69.921875 332.5318Q69.40625 331.92242 68.609375 331.92242Q67.875 331.92242 67.375 332.4068Q66.890625 332.89117 66.84375 333.7193ZM77.078125 337.42242L77.078125 336.64117Q76.484375 337.56305 75.34375 337.56305Q74.59375 337.56305 73.96875 337.1568Q73.34375 336.73492 73.0 336.00055Q72.65625 335.26617 72.65625 334.31305Q72.65625 333.39117 72.96875 332.62555Q73.28125 331.85992 73.90625 331.4693Q74.53125 331.06305 75.296875 331.06305Q75.859375 331.06305 76.296875 331.29742Q76.734375 331.5318 77.015625 331.9068L77.015625 328.82867L78.0625 328.82867L78.0625 337.42242L77.078125 337.42242ZM73.75 334.31305Q73.75 335.51617 74.25 336.10992Q74.75 336.68805 75.4375 336.68805Q76.125 336.68805 76.609375 336.12555Q77.09375 335.56305 77.09375 334.4068Q77.09375 333.12555 76.59375 332.5318Q76.109375 331.93805 75.390625 331.93805Q74.6875 331.93805 74.21875 332.51617Q73.75 333.07867 73.75 334.31305Z" fill-rule="nonzero"/><path fill="#000000" d="M82.25 396.51562Q82.25 394.98438 82.5625 394.0625Q82.875 393.125 83.484375 392.625Q84.109375 392.125 85.046875 392.125Q85.734375 392.125 86.25 392.40625Q86.78125 392.6875 87.125 393.21875Q87.46875 393.73438 87.65625 394.48438Q87.84375 395.23438 87.84375 396.51562Q87.84375 398.03125 87.53125 398.95312Q87.234375 399.875 86.609375 400.39062Q86.0 400.89062 85.046875 400.89062Q83.8125 400.89062 83.09375 400.0Q82.25 398.9375 82.25 396.51562ZM83.328125 396.51562Q83.328125 398.625 83.828125 399.32812Q84.328125 400.03125 85.046875 400.03125Q85.78125 400.03125 86.265625 399.32812Q86.765625 398.625 86.765625 396.51562Q86.765625 394.39062 86.265625 393.70312Q85.78125 393.0 85.03125 393.0Q84.3125 393.0 83.875 393.60938Q83.328125 394.39062 83.328125 396.51562Z" fill-rule="nonzero"/><path fill="#000000" d="M275.08334 398.5L276.19272 398.40625Q276.31772 399.21875 276.75522 399.625Q277.20834 400.03125 277.84897 400.03125Q278.59897 400.03125 279.13022 399.45312Q279.66147 398.875 279.66147 397.9375Q279.66147 397.03125 279.14584 396.51562Q278.64584 395.98438 277.81772 395.98438Q277.31772 395.98438 276.89584 396.21875Q276.4896 396.45312 276.25522 396.8125L275.27084 396.6875L276.09897 392.28125L280.38022 392.28125L280.38022 393.28125L276.94272 393.28125L276.4896 395.59375Q277.25522 395.04688 278.09897 395.04688Q279.22397 395.04688 279.9896 395.82812Q280.77084 396.60938 280.77084 397.84375Q280.77084 399.0 280.09897 399.85938Q279.27084 400.89062 277.84897 400.89062Q276.6771 400.89062 275.9271 400.23438Q275.19272 399.57812 275.08334 398.5Z" fill-rule="nonzero"/><path fill="#000000" d="M468.3854 400.75L467.33853 400.75L467.33853 394.03125Q466.9479 394.39062 466.3229 394.76562Q465.71353 395.125 465.22916 395.29688L465.22916 394.28125Q466.10416 393.85938 466.7604 393.28125Q467.43228 392.6875 467.71353 392.125L468.3854 392.125L468.3854 400.75ZM471.41666 396.51562Q471.41666 394.98438 471.72916 394.0625Q472.04166 393.125 472.65103 392.625Q473.27603 392.125 474.21353 392.125Q474.90103 392.125 475.41666 392.40625Q475.9479 392.6875 476.29166 393.21875Q476.6354 393.73438 476.8229 394.48438Q477.0104 395.23438 477.0104 396.51562Q477.0104 398.03125 476.6979 398.95312Q476.40103 399.875 475.77603 400.39062Q475.16666 400.89062 474.21353 400.89062Q472.97916 400.89062 472.2604 400.0Q471.41666 398.9375 471.41666 396.51562ZM472.49478 396.51562Q472.49478 398.625 472.99478 399.32812Q473.49478 400.03125 474.21353 400.03125Q474.9479 400.03125 475.43228 399.32812Q475.93228 398.625 475.93228 396.51562Q475.93228 394.39062 475.43228 393.70312Q474.9479 393.0 474.1979 393.0Q473.47916 393.0 473.04166 393.60938Q472.49478 394.39062 472.49478 396.51562Z" fill-rule="nonzero"/><path fill="#000000" d="M661.21875 400.75L660.1719 400.75L660.1719 394.03125Q659.78125 394.39062 659.15625 394.76562Q658.5469 395.125 658.0625 395.29688L658.0625 394.28125Q658.9375 393.85938 659.59375 393.28125Q660.2656 392.6875 660.5469 392.125L661.21875 392.125L661.21875 400.75ZM664.25 398.5L665.3594 398.40625Q665.4844 399.21875 665.9219 399.625Q666.375 400.03125 667.0156 400.03125Q667.7656 400.03125 668.2969 399.45312Q668.8281 398.875 668.8281 397.9375Q668.8281 397.03125 668.3125 396.51562Q667.8125 395.98438 666.9844 395.98438Q666.4844 395.98438 666.0625 396.21875Q665.65625 396.45312 665.4219 396.8125L664.4375 396.6875L665.2656 392.28125L669.5469 392.28125L669.5469 393.28125L666.1094 393.28125L665.65625 395.59375Q666.4219 395.04688 667.2656 395.04688Q668.3906 395.04688 669.15625 395.82812Q669.9375 396.60938 669.9375 397.84375Q669.9375 399.0 669.2656 399.85938Q668.4375 400.89062 667.0156 400.89062Q665.84375 400.89062 665.09375 400.23438Q664.3594 399.57812 664.25 398.5Z" fill-rule="nonzero"/><path fill="#757575" d="M22.734375 40.25L22.734375 25.9375L25.59375 25.9375L28.96875 36.0625Q29.4375 37.484375 29.65625 38.1875Q29.90625 37.40625 30.421875 35.890625L33.84375 25.9375L36.390625 25.9375L36.390625 40.25L34.578125 40.25L34.578125 28.265625L30.40625 40.25L28.703125 40.25L24.5625 28.0625L24.5625 40.25L22.734375 40.25ZM38.921875 35.0625Q38.921875 32.1875 40.515625 30.796875Q41.859375 29.640625 43.78125 29.640625Q45.921875 29.640625 47.265625 31.046875Q48.625 32.453125 48.625 34.921875Q48.625 36.921875 48.03125 38.078125Q47.4375 39.21875 46.28125 39.859375Q45.140625 40.484375 43.78125 40.484375Q41.59375 40.484375 40.25 39.09375Q38.921875 37.6875 38.921875 35.0625ZM40.71875 35.0625Q40.71875 37.0625 41.578125 38.046875Q42.453125 39.03125 43.78125 39.03125Q45.09375 39.03125 45.953125 38.046875Q46.828125 37.046875 46.828125 35.0Q46.828125 33.078125 45.953125 32.09375Q45.078125 31.09375 43.78125 31.09375Q42.453125 31.09375 41.578125 32.09375Q40.71875 33.078125 40.71875 35.0625ZM49.921875 35.0625Q49.921875 32.1875 51.515625 30.796875Q52.859375 29.640625 54.78125 29.640625Q56.921875 29.640625 58.265625 31.046875Q59.625 32.453125 59.625 34.921875Q59.625 36.921875 59.03125 38.078125Q58.4375 39.21875 57.28125 39.859375Q56.140625 40.484375 54.78125 40.484375Q52.59375 40.484375 51.25 39.09375Q49.921875 37.6875 49.921875 35.0625ZM51.71875 35.0625Q51.71875 37.0625 52.578125 38.046875Q53.453125 39.03125 54.78125 39.03125Q56.09375 39.03125 56.953125 38.046875Q57.828125 37.046875 57.828125 35.0Q57.828125 33.078125 56.953125 32.09375Q56.078125 31.09375 54.78125 31.09375Q53.453125 31.09375 52.578125 32.09375Q51.71875 33.078125 51.71875 35.0625ZM68.296875 40.25L68.296875 38.9375Q67.3125 40.484375 65.390625 40.484375Q64.15625 40.484375 63.109375 39.796875Q62.078125 39.109375 61.5 37.890625Q60.9375 36.671875 60.9375 35.078125Q60.9375 33.515625 61.453125 32.25Q61.96875 30.984375 63.0 30.3125Q64.046875 29.640625 65.3125 29.640625Q66.25 29.640625 66.984375 30.046875Q67.71875 30.4375 68.1875 31.0625L68.1875 25.9375L69.921875 25.9375L69.921875 40.25L68.296875 40.25ZM62.734375 35.078125Q62.734375 37.0625 63.578125 38.046875Q64.421875 39.03125 65.5625 39.03125Q66.71875 39.03125 67.515625 38.09375Q68.328125 37.15625 68.328125 35.21875Q68.328125 33.09375 67.5 32.09375Q66.6875 31.09375 65.484375 31.09375Q64.3125 31.09375 63.515625 32.0625Q62.734375 33.015625 62.734375 35.078125ZM81.921875 44.453125Q80.46875 42.625 79.46875 40.171875Q78.46875 37.703125 78.46875 35.0625Q78.46875 32.734375 79.21875 30.609375Q80.09375 28.140625 81.921875 25.6875L83.1875 25.6875Q82.0 27.71875 81.625 28.59375Q81.03125 29.9375 80.6875 31.40625Q80.265625 33.234375 80.265625 35.078125Q80.265625 39.765625 83.1875 44.453125L81.921875 44.453125ZM85.21875 33.28125Q85.21875 29.71875 87.125 27.703125Q89.046875 25.671875 92.078125 25.671875Q94.0625 25.671875 95.640625 26.625Q97.234375 27.578125 98.0625 29.28125Q98.90625 30.96875 98.90625 33.109375Q98.90625 35.28125 98.03125 37.0Q97.15625 38.71875 95.53125 39.609375Q93.921875 40.5 92.0625 40.5Q90.046875 40.5 88.453125 39.53125Q86.859375 38.546875 86.03125 36.859375Q85.21875 35.15625 85.21875 33.28125ZM87.171875 33.3125Q87.171875 35.890625 88.5625 37.390625Q89.953125 38.875 92.046875 38.875Q94.1875 38.875 95.5625 37.375Q96.953125 35.859375 96.953125 33.09375Q96.953125 31.359375 96.359375 30.0625Q95.78125 28.75 94.640625 28.03125Q93.5 27.3125 92.078125 27.3125Q90.078125 27.3125 88.625 28.703125Q87.171875 30.078125 87.171875 33.3125ZM108.34375 36.453125L110.0625 36.671875Q109.78125 38.46875 108.609375 39.484375Q107.453125 40.484375 105.75 40.484375Q103.625 40.484375 102.328125 39.09375Q101.03125 37.703125 101.03125 35.109375Q101.03125 33.421875 101.578125 32.171875Q102.140625 30.90625 103.28125 30.28125Q104.421875 29.640625 105.765625 29.640625Q107.453125 29.640625 108.515625 30.5Q109.59375 31.359375 109.90625 32.921875L108.1875 33.1875Q107.953125 32.140625 107.328125 31.625Q106.703125 31.09375 105.828125 31.09375Q104.5 31.09375 103.671875 32.046875Q102.84375 33.0 102.84375 35.046875Q102.84375 37.140625 103.640625 38.09375Q104.4375 39.03125 105.734375 39.03125Q106.765625 39.03125 107.453125 38.40625Q108.15625 37.765625 108.34375 36.453125ZM115.40625 38.671875L115.65625 40.234375Q114.921875 40.390625 114.328125 40.390625Q113.375 40.390625 112.84375 40.09375Q112.328125 39.78125 112.109375 39.296875Q111.890625 38.796875 111.890625 37.21875L111.890625 31.25L110.609375 31.25L110.609375 29.875L111.890625 29.875L111.890625 27.3125L113.640625 26.25L113.640625 29.875L115.40625 29.875L115.40625 31.25L113.640625 31.25L113.640625 37.3125Q113.640625 38.0625 113.734375 38.28125Q113.828125 38.484375 114.03125 38.625Q114.25 38.75 114.640625 38.75Q114.921875 38.75 115.40625 38.671875ZM118.71875 44.453125L117.46875 44.453125Q120.375 39.765625 120.375 35.078125Q120.375 33.234375 119.96875 31.4375Q119.625 29.96875 119.03125 28.625Q118.65625 27.734375 117.46875 25.6875L118.71875 25.6875Q120.5625 28.140625 121.4375 30.609375Q122.1875 32.734375 122.1875 35.0625Q122.1875 37.703125 121.171875 40.171875Q120.171875 42.625 118.71875 44.453125Z" fill-rule="nonzero"/></svg>