<svg version="1.1" viewBox="0.0 0.0 687.0 435.0" fill="none" stroke="none" stroke-linecap="square" stroke-miterlimit="10" width="687" height="435" xmlns:xlink="http://www.w3.org/1999/xlink" xmlns="http://www.w3.org/2000/svg"><path fill="#ffffff" d="M0 0L687.0 0L687.0 435.0L0 435.0L0 0Z" fill-rule="nonzero"/><path stroke="#333333" stroke-width="1.0" stroke-linecap="butt" d="M85.5 60.5L85.5 393.5" fill-rule="nonzero"/><path stroke="#cccccc" stroke-width="1.0" stroke-linecap="butt" d="M201.5 60.5L201.5 393.5" fill-rule="nonzero"/><path stroke="#cccccc" stroke-width="1.0" stroke-linecap="butt" d="M317.5 60.5L317.5 393.5" fill-rule="nonzero"/><path stroke="#cccccc" stroke-width="1.0" stroke-linecap="butt" d="M433.5 60.5L433.5 393.5" fill-rule="nonzero"/><path stroke="#cccccc" stroke-width="1.0" stroke-linecap="butt" d="M549.5 60.5L549.5 393.5" fill-rule="nonzero"/><path stroke="#cccccc" stroke-width="1.0" stroke-linecap="butt" d="M665.5 60.5L665.5 393.5" fill-rule="nonzero"/><clipPath id="id_0"><path d="M85.75 60.25L665.25 60.25L665.25 393.25L85.75 393.25L85.75 60.25Z" clip-rule="nonzero"/></clipPath><path stroke="#000000" stroke-width="2.0" stroke-linecap="butt" stroke-opacity="0.0" clip-path="url(#id_0)" d="M86.0 122.0L86.0 82.0L582.0 82.0C583.10455 82.0 584.0 82.89543 584.0 84.0L584.0 120.0C584.0 121.10457 583.10455 122.0 582.0 122.0Z" fill-rule="nonzero"/><path fill="#4285f4" clip-path="url(#id_0)" d="M86.0 122.0L86.0 82.0L582.0 82.0C583.10455 82.0 584.0 82.89543 584.0 84.0L584.0 120.0C584.0 121.10457 583.10455 122.0 582.0 122.0Z" fill-rule="nonzero"/><path stroke="#000000" stroke-width="2.0" stroke-linecap="butt" stroke-opacity="0.0" clip-path="url(#id_0)" d="M86.0 185.0L86.0 145.0L408.0 145.0C409.10458 145.0 410.0 145.89543 410.0 147.0L410.0 183.0C410.0 184.10457 409.10458 185.0 408.0 185.0Z" fill-rule="nonzero"/><path fill="#4285f4" clip-path="url(#id_0)" d="M86.0 185.0L86.0 145.0L408.0 145.0C409.10458 145.0 410.0 145.89543 410.0 147.0L410.0 183.0C410.0 184.10457 409.10458 185.0 408.0 185.0Z" fill-rule="nonzero"/><path stroke="#000000" stroke-width="2.0" stroke-linecap="butt" stroke-opacity="0.0" clip-path="url(#id_0)" d="M86.0 247.0L86.0 207.0L107.0 207.0C108.10457 207.0 109.0 207.89543 109.0 209.0L109.0 245.0C109.0 246.10457 108.10457 247.0 107.0 247.0Z" fill-rule="nonzero"/><path fill="#4285f4" clip-path="url(#id_0)" d="M86.0 247.0L86.0 207.0L107.0 207.0C108.10457 207.0 109.0 207.89543 109.0 209.0L109.0 245.0C109.0 246.10457 108.10457 247.0 107.0 247.0Z" fill-rule="nonzero"/><path stroke="#000000" stroke-width="2.0" stroke-linecap="butt" stroke-opacity="0.0" clip-path="url(#id_0)" d="M86.0 309.0L86.0 269.0L142.0 269.0C143.10457 269.0 144.0 269.89542 144.0 271.0L144.0 307.0C144.0 308.10458 143.10457 309.0 142.0 309.0Z" fill-rule="nonzero"/><path fill="#4285f4" clip-path="url(#id_0)" d="M86.0 309.0L86.0 269.0L142.0 269.0C143.10457 269.0 144.0 269.89542 144.0 271.0L144.0 307.0C144.0 308.10458 143.10457 309.0 142.0 309.0Z" fill-rule="nonzero"/><path stroke="#000000" stroke-width="2.0" stroke-linecap="butt" stroke-opacity="0.0" clip-path="url(#id_0)" d="M86.0 371.0L86.0 331.0L119.0 331.0C120.10457 331.0 121.0 331.89542 121.0 333.0L121.0 369.0C121.0 370.10458 120.10457 371.0 119.0 371.0Z" fill-rule="nonzero"/><path fill="#4285f4" clip-path="url(#id_0)" d="M86.0 371.0L86.0 331.0L119.0 331.0C120.10457 331.0 121.0 331.89542 121.0 333.0L121.0 369.0C121.0 370.10458 120.10457 371.0 119.0 371.0Z" fill-rule="nonzero"/><path fill="#000000" d="M45.71875 106.264015L45.71875 97.670265L46.84375 97.670265L46.84375 101.201515L51.3125 101.201515L51.3125 97.670265L52.453125 97.670265L52.453125 106.264015L51.3125 106.264015L51.3125 102.21714L46.84375 102.21714L46.84375 106.264015L45.71875 106.264015ZM58.609375 105.49839Q58.015625 105.99839 57.46875 106.201515Q56.9375 106.40464 56.3125 106.40464Q55.28125 106.40464 54.734375 105.90464Q54.1875 105.40464 54.1875 104.62339Q54.1875 104.170265 54.390625 103.795265Q54.59375 103.40464 54.9375 103.18589Q55.28125 102.951515 55.703125 102.84214Q56.0 102.74839 56.640625 102.670265Q57.90625 102.52964 58.515625 102.31089Q58.515625 102.09214 58.515625 102.045265Q58.515625 101.389015 58.21875 101.12339Q57.8125 100.77964 57.015625 100.77964Q56.28125 100.77964 55.921875 101.045265Q55.5625 101.295265 55.390625 101.951515L54.359375 101.81089Q54.5 101.15464 54.828125 100.74839Q55.15625 100.34214 55.765625 100.12339Q56.375 99.90464 57.171875 99.90464Q57.96875 99.90464 58.46875 100.09214Q58.96875 100.27964 59.203125 100.56089Q59.4375 100.84214 59.53125 101.27964Q59.578125 101.545265 59.578125 102.24839L59.578125 103.65464Q59.578125 105.12339 59.640625 105.514015Q59.71875 105.90464 59.921875 106.264015L58.8125 106.264015Q58.65625 105.93589 58.609375 105.49839ZM58.515625 103.139015Q57.9375 103.37339 56.796875 103.545265Q56.140625 103.639015 55.875 103.764015Q55.609375 103.87339 55.453125 104.09214Q55.3125 104.31089 55.3125 104.59214Q55.3125 105.014015 55.625 105.295265Q55.953125 105.576515 56.5625 105.576515Q57.171875 105.576515 57.640625 105.31089Q58.125 105.045265 58.34375 104.576515Q58.515625 104.21714 58.515625 103.52964L58.515625 103.139015ZM61.546875 108.65464L61.546875 100.045265L62.5 100.045265L62.5 100.84214Q62.84375 100.37339 63.265625 100.139015Q63.703125 99.90464 64.3125 99.90464Q65.109375 99.90464 65.71875 100.31089Q66.328125 100.71714 66.625 101.46714Q66.9375 102.21714 66.9375 103.107765Q66.9375 104.06089 66.59375 104.826515Q66.265625 105.59214 65.609375 105.99839Q64.953125 106.40464 64.234375 106.40464Q63.703125 106.40464 63.28125 106.18589Q62.859375 105.951515 62.59375 105.62339L62.59375 108.65464L61.546875 108.65464ZM62.5 103.18589Q62.5 104.389015 62.984375 104.96714Q63.46875 105.52964 64.15625 105.52964Q64.859375 105.52964 65.359375 104.93589Q65.859375 104.34214 65.859375 103.09214Q65.859375 101.90464 65.375 101.326515Q64.890625 100.732765 64.203125 100.732765Q63.53125 100.732765 63.015625 101.357765Q62.5 101.982765 62.5 103.18589ZM68.546875 108.65464L68.546875 100.045265L69.5 100.045265L69.5 100.84214Q69.84375 100.37339 70.265625 100.139015Q70.703125 99.90464 71.3125 99.90464Q72.109375 99.90464 72.71875 100.31089Q73.328125 100.71714 73.625 101.46714Q73.9375 102.21714 73.9375 103.107765Q73.9375 104.06089 73.59375 104.826515Q73.265625 105.59214 72.609375 105.99839Q71.953125 106.40464 71.234375 106.40464Q70.703125 106.40464 70.28125 106.18589Q69.859375 105.951515 69.59375 105.62339L69.59375 108.65464L68.546875 108.65464ZM69.5 103.18589Q69.5 104.389015 69.984375 104.96714Q70.46875 105.52964 71.15625 105.52964Q71.859375 105.52964 72.359375 104.93589Q72.859375 104.34214 72.859375 103.09214Q72.859375 101.90464 72.375 101.326515Q71.890625 100.732765 71.203125 100.732765Q70.53125 100.732765 70.015625 101.357765Q69.5 101.982765 69.5 103.18589ZM75.5 108.65464L75.375 107.670265Q75.71875 107.764015 75.984375 107.764015Q76.328125 107.764015 76.53125 107.639015Q76.75 107.52964 76.890625 107.326515Q76.984375 107.15464 77.21875 106.52964Q77.234375 106.451515 77.3125 106.27964L74.9375 100.045265L76.078125 100.045265L77.375 103.639015Q77.625 104.326515 77.828125 105.09214Q78.015625 104.357765 78.265625 103.670265L79.59375 100.045265L80.640625 100.045265L78.28125 106.37339Q77.890625 107.389015 77.6875 107.77964Q77.40625 108.31089 77.03125 108.545265Q76.671875 108.795265 76.171875 108.795265Q75.875 108.795265 75.5 108.65464Z" fill-rule="nonzero"/><path fill="#000000" d="M54.859375 168.507L54.859375 160.92888L52.03125 160.92888L52.03125 159.91325L58.84375 159.91325L58.84375 160.92888L56.0 160.92888L56.0 168.507L54.859375 168.507ZM59.546875 161.132L59.546875 159.91325L60.609375 159.91325L60.609375 161.132L59.546875 161.132ZM59.546875 168.507L59.546875 162.28825L60.609375 162.28825L60.609375 168.507L59.546875 168.507ZM62.53125 168.507L62.53125 162.28825L63.484375 162.28825L63.484375 163.22575Q63.84375 162.5695 64.140625 162.36638Q64.453125 162.14763 64.828125 162.14763Q65.359375 162.14763 65.90625 162.47575L65.546875 163.46013Q65.15625 163.22575 64.78125 163.22575Q64.421875 163.22575 64.140625 163.4445Q63.875 163.64763 63.765625 164.02263Q63.578125 164.58513 63.578125 165.24138L63.578125 168.507L62.53125 168.507ZM70.796875 166.507L71.890625 166.632Q71.640625 167.58513 70.9375 168.11638Q70.234375 168.64763 69.15625 168.64763Q67.796875 168.64763 66.984375 167.80388Q66.1875 166.96013 66.1875 165.4445Q66.1875 163.882 67.0 163.02263Q67.8125 162.14763 69.09375 162.14763Q70.34375 162.14763 71.125 162.99138Q71.921875 163.83513 71.921875 165.382Q71.921875 165.47575 71.921875 165.66325L67.28125 165.66325Q67.34375 166.6945 67.859375 167.24138Q68.375 167.77263 69.15625 167.77263Q69.734375 167.77263 70.140625 167.47575Q70.5625 167.16325 70.796875 166.507ZM67.34375 164.80388L70.8125 164.80388Q70.75 164.007 70.421875 163.61638Q69.90625 163.007 69.109375 163.007Q68.375 163.007 67.875 163.49138Q67.390625 163.97575 67.34375 164.80388ZM77.578125 168.507L77.578125 167.72575Q76.984375 168.64763 75.84375 168.64763Q75.09375 168.64763 74.46875 168.24138Q73.84375 167.8195 73.5 167.08513Q73.15625 166.35075 73.15625 165.39763Q73.15625 164.47575 73.46875 163.71013Q73.78125 162.9445 74.40625 162.55388Q75.03125 162.14763 75.796875 162.14763Q76.359375 162.14763 76.796875 162.382Q77.234375 162.61638 77.515625 162.99138L77.515625 159.91325L78.5625 159.91325L78.5625 168.507L77.578125 168.507ZM74.25 165.39763Q74.25 166.60075 74.75 167.1945Q75.25 167.77263 75.9375 167.77263Q76.625 167.77263 77.109375 167.21013Q77.59375 166.64763 77.59375 165.49138Q77.59375 164.21013 77.09375 163.61638Q76.609375 163.02263 75.890625 163.02263Q75.1875 163.02263 74.71875 163.60075Q74.25 164.16325 74.25 165.39763Z" fill-rule="nonzero"/><path fill="#000000" d="M41.703125 230.75L41.703125 222.15625L47.90625 222.15625L47.90625 223.17188L42.84375 223.17188L42.84375 225.79688L47.59375 225.79688L47.59375 226.8125L42.84375 226.8125L42.84375 229.73438L48.109375 229.73438L48.109375 230.75L41.703125 230.75ZM48.84375 230.75L51.109375 227.51562L49.015625 224.53125L50.328125 224.53125L51.28125 225.98438Q51.546875 226.40625 51.71875 226.6875Q51.96875 226.29688 52.1875 226.0L53.234375 224.53125L54.5 224.53125L52.34375 227.45312L54.65625 230.75L53.375 230.75L52.09375 228.8125L51.75 228.29688L50.109375 230.75L48.84375 230.75ZM58.609375 228.46875L59.640625 228.60938Q59.46875 229.67188 58.765625 230.28125Q58.0625 230.89062 57.046875 230.89062Q55.765625 230.89062 54.984375 230.0625Q54.21875 229.21875 54.21875 227.65625Q54.21875 226.65625 54.546875 225.90625Q54.890625 225.14062 55.5625 224.76562Q56.25 224.39062 57.0625 224.39062Q58.0625 224.39062 58.703125 224.90625Q59.359375 225.40625 59.546875 226.35938L58.515625 226.51562Q58.375 225.89062 58.0 225.57812Q57.625 225.25 57.09375 225.25Q56.296875 225.25 55.796875 225.82812Q55.296875 226.39062 55.296875 227.625Q55.296875 228.89062 55.78125 229.45312Q56.265625 230.01562 57.03125 230.01562Q57.65625 230.01562 58.0625 229.64062Q58.484375 229.26562 58.609375 228.46875ZM60.546875 223.375L60.546875 222.15625L61.609375 222.15625L61.609375 223.375L60.546875 223.375ZM60.546875 230.75L60.546875 224.53125L61.609375 224.53125L61.609375 230.75L60.546875 230.75ZM65.84375 229.8125L66.0 230.73438Q65.546875 230.82812 65.203125 230.82812Q64.625 230.82812 64.3125 230.65625Q64.0 230.46875 63.859375 230.17188Q63.734375 229.875 63.734375 228.92188L63.734375 225.34375L62.96875 225.34375L62.96875 224.53125L63.734375 224.53125L63.734375 222.98438L64.78125 222.35938L64.78125 224.53125L65.84375 224.53125L65.84375 225.34375L64.78125 225.34375L64.78125 228.98438Q64.78125 229.4375 64.828125 229.5625Q64.890625 229.6875 65.015625 229.76562Q65.140625 229.84375 65.375 229.84375Q65.5625 229.84375 65.84375 229.8125ZM70.796875 228.75L71.890625 228.875Q71.640625 229.82812 70.9375 230.35938Q70.234375 230.89062 69.15625 230.89062Q67.796875 230.89062 66.984375 230.04688Q66.1875 229.20312 66.1875 227.6875Q66.1875 226.125 67.0 225.26562Q67.8125 224.39062 69.09375 224.39062Q70.34375 224.39062 71.125 225.23438Q71.921875 226.07812 71.921875 227.625Q71.921875 227.71875 71.921875 227.90625L67.28125 227.90625Q67.34375 228.9375 67.859375 229.48438Q68.375 230.01562 69.15625 230.01562Q69.734375 230.01562 70.140625 229.71875Q70.5625 229.40625 70.796875 228.75ZM67.34375 227.04688L70.8125 227.04688Q70.75 226.25 70.421875 225.85938Q69.90625 225.25 69.109375 225.25Q68.375 225.25 67.875 225.73438Q67.390625 226.21875 67.34375 227.04688ZM77.578125 230.75L77.578125 229.96875Q76.984375 230.89062 75.84375 230.89062Q75.09375 230.89062 74.46875 230.48438Q73.84375 230.0625 73.5 229.32812Q73.15625 228.59375 73.15625 227.64062Q73.15625 226.71875 73.46875 225.95312Q73.78125 225.1875 74.40625 224.79688Q75.03125 224.39062 75.796875 224.39062Q76.359375 224.39062 76.796875 224.625Q77.234375 224.85938 77.515625 225.23438L77.515625 222.15625L78.5625 222.15625L78.5625 230.75L77.578125 230.75ZM74.25 227.64062Q74.25 228.84375 74.75 229.4375Q75.25 230.01562 75.9375 230.01562Q76.625 230.01562 77.109375 229.45312Q77.59375 228.89062 77.59375 227.73438Q77.59375 226.45312 77.09375 225.85938Q76.609375 225.26562 75.890625 225.26562Q75.1875 225.26562 74.71875 225.84375Q74.25 226.40625 74.25 227.64062Z" fill-rule="nonzero"/><path fill="#000000" d="M22.703125 292.99298L22.703125 284.39923L28.90625 284.39923L28.90625 285.41486L23.84375 285.41486L23.84375 288.03986L28.59375 288.03986L28.59375 289.05548L23.84375 289.05548L23.84375 291.97736L29.109375 291.97736L29.109375 292.99298L22.703125 292.99298ZM29.84375 292.99298L32.109375 289.7586L30.015625 286.77423L31.328125 286.77423L32.28125 288.22736Q32.546875 288.64923 32.71875 288.93048Q32.96875 288.53986 33.1875 288.24298L34.234375 286.77423L35.5 286.77423L33.34375 289.6961L35.65625 292.99298L34.375 292.99298L33.09375 291.05548L32.75 290.53986L31.109375 292.99298L29.84375 292.99298ZM35.546875 292.99298L35.546875 284.39923L36.59375 284.39923L36.59375 287.47736Q37.328125 286.6336 38.453125 286.6336Q39.15625 286.6336 39.65625 286.91486Q40.171875 287.18048 40.390625 287.66486Q40.609375 288.1336 40.609375 289.05548L40.609375 292.99298L39.5625 292.99298L39.5625 289.05548Q39.5625 288.2586 39.21875 287.89923Q38.875 287.53986 38.25 287.53986Q37.78125 287.53986 37.359375 287.78986Q36.953125 288.02423 36.765625 288.4461Q36.59375 288.85236 36.59375 289.58673L36.59375 292.99298L35.546875 292.99298ZM46.609375 292.22736Q46.015625 292.72736 45.46875 292.93048Q44.9375 293.1336 44.3125 293.1336Q43.28125 293.1336 42.734375 292.6336Q42.1875 292.1336 42.1875 291.35236Q42.1875 290.89923 42.390625 290.52423Q42.59375 290.1336 42.9375 289.91486Q43.28125 289.68048 43.703125 289.5711Q44.0 289.47736 44.640625 289.39923Q45.90625 289.2586 46.515625 289.03986Q46.515625 288.8211 46.515625 288.77423Q46.515625 288.11798 46.21875 287.85236Q45.8125 287.5086 45.015625 287.5086Q44.28125 287.5086 43.921875 287.77423Q43.5625 288.02423 43.390625 288.68048L42.359375 288.53986Q42.5 287.8836 42.828125 287.47736Q43.15625 287.0711 43.765625 286.85236Q44.375 286.6336 45.171875 286.6336Q45.96875 286.6336 46.46875 286.8211Q46.96875 287.0086 47.203125 287.28986Q47.4375 287.5711 47.53125 288.0086Q47.578125 288.27423 47.578125 288.97736L47.578125 290.3836Q47.578125 291.85236 47.640625 292.24298Q47.71875 292.6336 47.921875 292.99298L46.8125 292.99298Q46.65625 292.66486 46.609375 292.22736ZM46.515625 289.86798Q45.9375 290.10236 44.796875 290.27423Q44.140625 290.36798 43.875 290.49298Q43.609375 290.60236 43.453125 290.8211Q43.3125 291.03986 43.3125 291.3211Q43.3125 291.74298 43.625 292.02423Q43.953125 292.30548 44.5625 292.30548Q45.171875 292.30548 45.640625 292.03986Q46.125 291.77423 46.34375 291.30548Q46.515625 290.9461 46.515625 290.2586L46.515625 289.86798ZM53.625 292.99298L53.625 292.0711Q52.890625 293.1336 51.640625 293.1336Q51.09375 293.1336 50.609375 292.93048Q50.140625 292.71173 49.90625 292.39923Q49.671875 292.0711 49.578125 291.60236Q49.515625 291.30548 49.515625 290.61798L49.515625 286.77423L50.578125 286.77423L50.578125 290.22736Q50.578125 291.03986 50.640625 291.33673Q50.734375 291.74298 51.046875 291.99298Q51.375 292.22736 51.859375 292.22736Q52.328125 292.22736 52.734375 291.99298Q53.15625 291.74298 53.328125 291.3211Q53.515625 290.89923 53.515625 290.10236L53.515625 286.77423L54.5625 286.77423L54.5625 292.99298L53.625 292.99298ZM56.125 291.1336L57.15625 290.97736Q57.25 291.60236 57.640625 291.93048Q58.046875 292.2586 58.78125 292.2586Q59.5 292.2586 59.84375 291.97736Q60.203125 291.68048 60.203125 291.27423Q60.203125 290.91486 59.890625 290.71173Q59.671875 290.5711 58.8125 290.35236Q57.65625 290.05548 57.203125 289.85236Q56.765625 289.6336 56.53125 289.2586Q56.296875 288.8836 56.296875 288.41486Q56.296875 288.0086 56.484375 287.64923Q56.671875 287.28986 57.0 287.05548Q57.25 286.8836 57.671875 286.7586Q58.09375 286.6336 58.59375 286.6336Q59.3125 286.6336 59.859375 286.85236Q60.421875 287.05548 60.6875 287.41486Q60.953125 287.77423 61.046875 288.36798L60.015625 288.5086Q59.953125 288.03986 59.609375 287.77423Q59.28125 287.49298 58.65625 287.49298Q57.9375 287.49298 57.625 287.74298Q57.3125 287.97736 57.3125 288.30548Q57.3125 288.5086 57.4375 288.66486Q57.578125 288.83673 57.84375 288.9461Q58.0 289.0086 58.78125 289.21173Q59.90625 289.52423 60.34375 289.71173Q60.78125 289.89923 61.03125 290.2586Q61.28125 290.61798 61.28125 291.16486Q61.28125 291.6961 60.96875 292.16486Q60.671875 292.61798 60.09375 292.8836Q59.515625 293.1336 58.78125 293.1336Q57.5625 293.1336 56.921875 292.6336Q56.296875 292.11798 56.125 291.1336ZM65.84375 292.05548L66.0 292.97736Q65.546875 293.0711 65.203125 293.0711Q64.625 293.0711 64.3125 292.89923Q64.0 292.71173 63.859375 292.41486Q63.734375 292.11798 63.734375 291.16486L63.734375 287.58673L62.96875 287.58673L62.96875 286.77423L63.734375 286.77423L63.734375 285.22736L64.78125 284.60236L64.78125 286.77423L65.84375 286.77423L65.84375 287.58673L64.78125 287.58673L64.78125 291.22736Q64.78125 291.68048 64.828125 291.80548Q64.890625 291.93048 65.015625 292.0086Q65.140625 292.08673 65.375 292.08673Q65.5625 292.08673 65.84375 292.05548ZM70.796875 290.99298L71.890625 291.11798Q71.640625 292.0711 70.9375 292.60236Q70.234375 293.1336 69.15625 293.1336Q67.796875 293.1336 66.984375 292.28986Q66.1875 291.4461 66.1875 289.93048Q66.1875 288.36798 67.0 287.5086Q67.8125 286.6336 69.09375 286.6336Q70.34375 286.6336 71.125 287.47736Q71.921875 288.3211 71.921875 289.86798Q71.921875 289.96173 71.921875 290.14923L67.28125 290.14923Q67.34375 291.18048 67.859375 291.72736Q68.375 292.2586 69.15625 292.2586Q69.734375 292.2586 70.140625 291.96173Q70.5625 291.64923 70.796875 290.99298ZM67.34375 289.28986L70.8125 289.28986Q70.75 288.49298 70.421875 288.10236Q69.90625 287.49298 69.109375 287.49298Q68.375 287.49298 67.875 287.97736Q67.390625 288.46173 67.34375 289.28986ZM77.578125 292.99298L77.578125 292.21173Q76.984375 293.1336 75.84375 293.1336Q75.09375 293.1336 74.46875 292.72736Q73.84375 292.30548 73.5 291.5711Q73.15625 290.83673 73.15625 289.8836Q73.15625 288.96173 73.46875 288.1961Q73.78125 287.43048 74.40625 287.03986Q75.03125 286.6336 75.796875 286.6336Q76.359375 286.6336 76.796875 286.86798Q77.234375 287.10236 77.515625 287.47736L77.515625 284.39923L78.5625 284.39923L78.5625 292.99298L77.578125 292.99298ZM74.25 289.8836Q74.25 291.08673 74.75 291.68048Q75.25 292.2586 75.9375 292.2586Q76.625 292.2586 77.109375 291.6961Q77.59375 291.1336 77.59375 289.97736Q77.59375 288.6961 77.09375 288.10236Q76.609375 287.5086 75.890625 287.5086Q75.1875 287.5086 74.71875 288.08673Q74.25 288.64923 74.25 289.8836Z" fill-rule="nonzero"/><path fill="#000000" d="M41.71875 355.236L41.71875 346.64224L42.84375 346.64224L42.84375 350.1735L47.3125 350.1735L47.3125 346.64224L48.453125 346.64224L48.453125 355.236L47.3125 355.236L47.3125 351.18912L42.84375 351.18912L42.84375 355.236L41.71875 355.236ZM54.625 355.236L54.625 354.31412Q53.890625 355.37662 52.640625 355.37662Q52.09375 355.37662 51.609375 355.1735Q51.140625 354.95474 50.90625 354.64224Q50.671875 354.31412 50.578125 353.84537Q50.515625 353.5485 50.515625 352.861L50.515625 349.01724L51.578125 349.01724L51.578125 352.47037Q51.578125 353.28287 51.640625 353.57974Q51.734375 353.986 52.046875 354.236Q52.375 354.47037 52.859375 354.47037Q53.328125 354.47037 53.734375 354.236Q54.15625 353.986 54.328125 353.56412Q54.515625 353.14224 54.515625 352.34537L54.515625 349.01724L55.5625 349.01724L55.5625 355.236L54.625 355.236ZM57.546875 355.236L57.546875 349.01724L58.484375 349.01724L58.484375 349.89224Q59.171875 348.87662 60.46875 348.87662Q61.03125 348.87662 61.5 349.07974Q61.984375 349.28287 62.21875 349.611Q62.453125 349.93912 62.546875 350.37662Q62.59375 350.6735 62.59375 351.40787L62.59375 355.236L61.546875 355.236L61.546875 351.45474Q61.546875 350.7985 61.421875 350.486Q61.296875 350.1735 60.984375 349.986Q60.671875 349.78287 60.25 349.78287Q59.578125 349.78287 59.078125 350.22037Q58.59375 350.64224 58.59375 351.82974L58.59375 355.236L57.546875 355.236ZM64.34375 355.75162L65.375 355.90787Q65.4375 356.37662 65.734375 356.59537Q66.125 356.89224 66.796875 356.89224Q67.53125 356.89224 67.921875 356.59537Q68.328125 356.2985 68.46875 355.78287Q68.5625 355.45474 68.546875 354.4235Q67.859375 355.236 66.828125 355.236Q65.546875 355.236 64.84375 354.31412Q64.140625 353.37662 64.140625 352.09537Q64.140625 351.20474 64.453125 350.45474Q64.78125 349.68912 65.390625 349.28287Q66.0 348.87662 66.828125 348.87662Q67.9375 348.87662 68.65625 349.76724L68.65625 349.01724L69.625 349.01724L69.625 354.39224Q69.625 355.84537 69.328125 356.45474Q69.03125 357.06412 68.390625 357.40787Q67.75 357.76724 66.8125 357.76724Q65.703125 357.76724 65.015625 357.26724Q64.328125 356.76724 64.34375 355.75162ZM65.21875 352.01724Q65.21875 353.236 65.703125 353.7985Q66.1875 354.361 66.921875 354.361Q67.65625 354.361 68.140625 353.7985Q68.640625 353.236 68.640625 352.0485Q68.640625 350.90787 68.125 350.32974Q67.625 349.75162 66.90625 349.75162Q66.203125 349.75162 65.703125 350.32974Q65.21875 350.89224 65.21875 352.01724ZM71.53125 355.236L71.53125 349.01724L72.484375 349.01724L72.484375 349.95474Q72.84375 349.2985 73.140625 349.09537Q73.453125 348.87662 73.828125 348.87662Q74.359375 348.87662 74.90625 349.20474L74.546875 350.18912Q74.15625 349.95474 73.78125 349.95474Q73.421875 349.95474 73.140625 350.1735Q72.875 350.37662 72.765625 350.75162Q72.578125 351.31412 72.578125 351.97037L72.578125 355.236L71.53125 355.236ZM75.5 357.62662L75.375 356.64224Q75.71875 356.736 75.984375 356.736Q76.328125 356.736 76.53125 356.611Q76.75 356.50162 76.890625 356.2985Q76.984375 356.12662 77.21875 355.50162Q77.234375 355.4235 77.3125 355.25162L74.9375 349.01724L76.078125 349.01724L77.375 352.611Q77.625 353.2985 77.828125 354.06412Q78.015625 353.32974 78.265625 352.64224L79.59375 349.01724L80.640625 349.01724L78.28125 355.34537Q77.890625 356.361 77.6875 356.75162Q77.40625 357.28287 77.03125 357.51724Q76.671875 357.76724 76.171875 357.76724Q75.875 357.76724 75.5 357.62662Z" fill-rule="nonzero"/><path fill="#000000" d="M82.75 406.01562Q82.75 404.48438 83.0625 403.5625Q83.375 402.625 83.984375 402.125Q84.609375 401.625 85.546875 401.625Q86.234375 401.625 86.75 401.90625Q87.28125 402.1875 87.625 402.71875Q87.96875 403.23438 88.15625 403.98438Q88.34375 404.73438 88.34375 406.01562Q88.34375 407.53125 88.03125 408.45312Q87.734375 409.375 87.109375 409.89062Q86.5 410.39062 85.546875 410.39062Q84.3125 410.39062 83.59375 409.5Q82.75 408.4375 82.75 406.01562ZM83.828125 406.01562Q83.828125 408.125 84.328125 408.82812Q84.828125 409.53125 85.546875 409.53125Q86.28125 409.53125 86.765625 408.82812Q87.265625 408.125 87.265625 406.01562Q87.265625 403.89062 86.765625 403.20312Q86.28125 402.5 85.53125 402.5Q84.8125 402.5 84.375 403.10938Q83.828125 403.89062 83.828125 406.01562Z" fill-rule="nonzero"/><path fill="#000000" d="M199.11874 410.25L198.07187 410.25L198.07187 403.53125Q197.68124 403.89062 197.05624 404.26562Q196.44687 404.625 195.9625 404.79688L195.9625 403.78125Q196.8375 403.35938 197.49374 402.78125Q198.16562 402.1875 198.44687 401.625L199.11874 401.625L199.11874 410.25ZM202.15 406.01562Q202.15 404.48438 202.4625 403.5625Q202.775 402.625 203.38437 402.125Q204.00937 401.625 204.94687 401.625Q205.63437 401.625 206.15 401.90625Q206.68124 402.1875 207.025 402.71875Q207.36874 403.23438 207.55624 403.98438Q207.74374 404.73438 207.74374 406.01562Q207.74374 407.53125 207.43124 408.45312Q207.13437 409.375 206.50937 409.89062Q205.9 410.39062 204.94687 410.39062Q203.7125 410.39062 202.99374 409.5Q202.15 408.4375 202.15 406.01562ZM203.22812 406.01562Q203.22812 408.125 203.72812 408.82812Q204.22812 409.53125 204.94687 409.53125Q205.68124 409.53125 206.16562 408.82812Q206.66562 408.125 206.66562 406.01562Q206.66562 403.89062 206.16562 403.20312Q205.68124 402.5 204.93124 402.5Q204.2125 402.5 203.775 403.10938Q203.22812 403.89062 203.22812 406.01562Z" fill-rule="nonzero"/><path fill="#000000" d="M316.59686 409.23438L316.59686 410.25L310.90936 410.25Q310.90936 409.875 311.03436 409.51562Q311.2531 408.9375 311.72186 408.375Q312.20624 407.8125 313.1125 407.07812Q314.51874 405.92188 315.0031 405.25Q315.5031 404.57812 315.5031 403.98438Q315.5031 403.35938 315.05 402.9375Q314.59686 402.5 313.8781 402.5Q313.1125 402.5 312.65936 402.95312Q312.20624 403.40625 312.1906 404.21875L311.1125 404.10938Q311.22186 402.89062 311.9406 402.26562Q312.675 401.625 313.90936 401.625Q315.14374 401.625 315.8625 402.3125Q316.58124 403.0 316.58124 404.01562Q316.58124 404.53125 316.3625 405.03125Q316.15936 405.51562 315.65936 406.07812Q315.175 406.625 314.05 407.57812Q313.09686 408.375 312.8156 408.67188Q312.55 408.95312 312.3781 409.23438L316.59686 409.23438ZM318.05 406.01562Q318.05 404.48438 318.3625 403.5625Q318.675 402.625 319.28436 402.125Q319.90936 401.625 320.84686 401.625Q321.53436 401.625 322.05 401.90625Q322.58124 402.1875 322.925 402.71875Q323.26874 403.23438 323.45624 403.98438Q323.64374 404.73438 323.64374 406.01562Q323.64374 407.53125 323.33124 408.45312Q323.03436 409.375 322.40936 409.89062Q321.8 410.39062 320.84686 410.39062Q319.6125 410.39062 318.89374 409.5Q318.05 408.4375 318.05 406.01562ZM319.1281 406.01562Q319.1281 408.125 319.6281 408.82812Q320.1281 409.53125 320.84686 409.53125Q321.58124 409.53125 322.0656 408.82812Q322.5656 408.125 322.5656 406.01562Q322.5656 403.89062 322.0656 403.20312Q321.58124 402.5 320.83124 402.5Q320.1125 402.5 319.675 403.10938Q319.1281 403.89062 319.1281 406.01562Z" fill-rule="nonzero"/><path fill="#000000" d="M426.95 407.98438L428.0125 407.84375Q428.1844 408.73438 428.6219 409.14062Q429.0594 409.53125 429.6844 409.53125Q430.4344 409.53125 430.95 409.01562Q431.46564 408.5 431.46564 407.73438Q431.46564 407.01562 430.98126 406.54688Q430.5125 406.0625 429.77814 406.0625Q429.48126 406.0625 429.02814 406.1875L429.15314 405.25Q429.2625 405.26562 429.325 405.26562Q429.9969 405.26562 430.52814 404.92188Q431.075 404.5625 431.075 403.82812Q431.075 403.25 430.6844 402.875Q430.29376 402.48438 429.66876 402.48438Q429.0594 402.48438 428.6375 402.875Q428.23126 403.26562 428.1219 404.03125L427.0594 403.84375Q427.2469 402.79688 427.9344 402.21875Q428.6219 401.625 429.6375 401.625Q430.34064 401.625 430.9344 401.9375Q431.52814 402.23438 431.84064 402.75Q432.15314 403.26562 432.15314 403.85938Q432.15314 404.40625 431.85626 404.875Q431.5594 405.32812 430.98126 405.59375Q431.73126 405.76562 432.15314 406.32812Q432.575 406.875 432.575 407.71875Q432.575 408.84375 431.7469 409.625Q430.9344 410.40625 429.6844 410.40625Q428.5594 410.40625 427.8094 409.73438Q427.0594 409.04688 426.95 407.98438ZM433.95 406.01562Q433.95 404.48438 434.2625 403.5625Q434.575 402.625 435.1844 402.125Q435.8094 401.625 436.7469 401.625Q437.4344 401.625 437.95 401.90625Q438.48126 402.1875 438.825 402.71875Q439.16876 403.23438 439.35626 403.98438Q439.54376 404.73438 439.54376 406.01562Q439.54376 407.53125 439.23126 408.45312Q438.9344 409.375 438.3094 409.89062Q437.7 410.39062 436.7469 410.39062Q435.5125 410.39062 434.79376 409.5Q433.95 408.4375 433.95 406.01562ZM435.02814 406.01562Q435.02814 408.125 435.52814 408.82812Q436.02814 409.53125 436.7469 409.53125Q437.48126 409.53125 437.96564 408.82812Q438.46564 408.125 438.46564 406.01562Q438.46564 403.89062 437.96564 403.20312Q437.48126 402.5 436.73126 402.5Q436.0125 402.5 435.575 403.10938Q435.02814 403.89062 435.02814 406.01562Z" fill-rule="nonzero"/><path fill="#000000" d="M546.225 410.25L546.225 408.1875L542.5062 408.1875L542.5062 407.21875L546.4281 401.65625L547.2875 401.65625L547.2875 407.21875L548.4437 407.21875L548.4437 408.1875L547.2875 408.1875L547.2875 410.25L546.225 410.25ZM546.225 407.21875L546.225 403.35938L543.5375 407.21875L546.225 407.21875ZM549.85 406.01562Q549.85 404.48438 550.1625 403.5625Q550.475 402.625 551.08435 402.125Q551.70935 401.625 552.64685 401.625Q553.33435 401.625 553.85 401.90625Q554.3812 402.1875 554.725 402.71875Q555.0687 403.23438 555.2562 403.98438Q555.4437 404.73438 555.4437 406.01562Q555.4437 407.53125 555.1312 408.45312Q554.83435 409.375 554.20935 409.89062Q553.6 410.39062 552.64685 410.39062Q551.4125 410.39062 550.6937 409.5Q549.85 408.4375 549.85 406.01562ZM550.9281 406.01562Q550.9281 408.125 551.4281 408.82812Q551.9281 409.53125 552.64685 409.53125Q553.3812 409.53125 553.8656 408.82812Q554.3656 408.125 554.3656 406.01562Q554.3656 403.89062 553.8656 403.20312Q553.3812 402.5 552.6312 402.5Q551.9125 402.5 551.475 403.10938Q550.9281 403.89062 550.9281 406.01562Z" fill-rule="nonzero"/><path fill="#000000" d="M658.75 408.0L659.8594 407.90625Q659.9844 408.71875 660.4219 409.125Q660.875 409.53125 661.5156 409.53125Q662.2656 409.53125 662.7969 408.95312Q663.3281 408.375 663.3281 407.4375Q663.3281 406.53125 662.8125 406.01562Q662.3125 405.48438 661.4844 405.48438Q660.9844 405.48438 660.5625 405.71875Q660.15625 405.95312 659.9219 406.3125L658.9375 406.1875L659.7656 401.78125L664.0469 401.78125L664.0469 402.78125L660.6094 402.78125L660.15625 405.09375Q660.9219 404.54688 661.7656 404.54688Q662.8906 404.54688 663.65625 405.32812Q664.4375 406.10938 664.4375 407.34375Q664.4375 408.5 663.7656 409.35938Q662.9375 410.39062 661.5156 410.39062Q660.34375 410.39062 659.59375 409.73438Q658.8594 409.07812 658.75 408.0ZM665.75 406.01562Q665.75 404.48438 666.0625 403.5625Q666.375 402.625 666.9844 402.125Q667.6094 401.625 668.5469 401.625Q669.2344 401.625 669.75 401.90625Q670.28125 402.1875 670.625 402.71875Q670.96875 403.23438 671.15625 403.98438Q671.34375 404.73438 671.34375 406.01562Q671.34375 407.53125 671.03125 408.45312Q670.7344 409.375 670.1094 409.89062Q669.5 410.39062 668.5469 410.39062Q667.3125 410.39062 666.59375 409.5Q665.75 408.4375 665.75 406.01562ZM666.8281 406.01562Q666.8281 408.125 667.3281 408.82812Q667.8281 409.53125 668.5469 409.53125Q669.28125 409.53125 669.7656 408.82812Q670.2656 408.125 670.2656 406.01562Q670.2656 403.89062 669.7656 403.20312Q669.28125 402.5 668.53125 402.5Q667.8125 402.5 667.375 403.10938Q666.8281 403.89062 666.8281 406.01562Z" fill-rule="nonzero"/><path fill="#757575" d="M23.234375 40.75L23.234375 26.4375L26.09375 26.4375L29.46875 36.5625Q29.9375 37.984375 30.15625 38.6875Q30.40625 37.90625 30.921875 36.390625L34.34375 26.4375L36.890625 26.4375L36.890625 40.75L35.078125 40.75L35.078125 28.765625L30.90625 40.75L29.203125 40.75L25.0625 28.5625L25.0625 40.75L23.234375 40.75ZM39.421875 35.5625Q39.421875 32.6875 41.015625 31.296875Q42.359375 30.140625 44.28125 30.140625Q46.421875 30.140625 47.765625 31.546875Q49.125 32.953125 49.125 35.421875Q49.125 37.421875 48.53125 38.578125Q47.9375 39.71875 46.78125 40.359375Q45.640625 40.984375 44.28125 40.984375Q42.09375 40.984375 40.75 39.59375Q39.421875 38.1875 39.421875 35.5625ZM41.21875 35.5625Q41.21875 37.5625 42.078125 38.546875Q42.953125 39.53125 44.28125 39.53125Q45.59375 39.53125 46.453125 38.546875Q47.328125 37.546875 47.328125 35.5Q47.328125 33.578125 46.453125 32.59375Q45.578125 31.59375 44.28125 31.59375Q42.953125 31.59375 42.078125 32.59375Q41.21875 33.578125 41.21875 35.5625ZM50.421875 35.5625Q50.421875 32.6875 52.015625 31.296875Q53.359375 30.140625 55.28125 30.140625Q57.421875 30.140625 58.765625 31.546875Q60.125 32.953125 60.125 35.421875Q60.125 37.421875 59.53125 38.578125Q58.9375 39.71875 57.78125 40.359375Q56.640625 40.984375 55.28125 40.984375Q53.09375 40.984375 51.75 39.59375Q50.421875 38.1875 50.421875 35.5625ZM52.21875 35.5625Q52.21875 37.5625 53.078125 38.546875Q53.953125 39.53125 55.28125 39.53125Q56.59375 39.53125 57.453125 38.546875Q58.328125 37.546875 58.328125 35.5Q58.328125 33.578125 57.453125 32.59375Q56.578125 31.59375 55.28125 31.59375Q53.953125 31.59375 53.078125 32.59375Q52.21875 33.578125 52.21875 35.5625ZM68.796875 40.75L68.796875 39.4375Q67.8125 40.984375 65.890625 40.984375Q64.65625 40.984375 63.609375 40.296875Q62.578125 39.609375 62.0 38.390625Q61.4375 37.171875 61.4375 35.578125Q61.4375 34.015625 61.953125 32.75Q62.46875 31.484375 63.5 30.8125Q64.546875 30.140625 65.8125 30.140625Q66.75 30.140625 67.484375 30.546875Q68.21875 30.9375 68.6875 31.5625L68.6875 26.4375L70.421875 26.4375L70.421875 40.75L68.796875 40.75ZM63.234375 35.578125Q63.234375 37.5625 64.078125 38.546875Q64.921875 39.53125 66.0625 39.53125Q67.21875 39.53125 68.015625 38.59375Q68.828125 37.65625 68.828125 35.71875Q68.828125 33.59375 68.0 32.59375Q67.1875 31.59375 65.984375 31.59375Q64.8125 31.59375 64.015625 32.5625Q63.234375 33.515625 63.234375 35.578125ZM82.421875 44.953125Q80.96875 43.125 79.96875 40.671875Q78.96875 38.203125 78.96875 35.5625Q78.96875 33.234375 79.71875 31.109375Q80.59375 28.640625 82.421875 26.1875L83.6875 26.1875Q82.5 28.21875 82.125 29.09375Q81.53125 30.4375 81.1875 31.90625Q80.765625 33.734375 80.765625 35.578125Q80.765625 40.265625 83.6875 44.953125L82.421875 44.953125ZM85.65625 36.15625L87.4375 36.0Q87.5625 37.0625 88.015625 37.75Q88.484375 38.4375 89.453125 38.875Q90.4375 39.296875 91.671875 39.296875Q92.75 39.296875 93.578125 38.984375Q94.40625 38.65625 94.8125 38.09375Q95.21875 37.53125 95.21875 36.859375Q95.21875 36.1875 94.828125 35.6875Q94.4375 35.1875 93.546875 34.84375Q92.96875 34.609375 90.984375 34.140625Q89.015625 33.671875 88.234375 33.25Q87.203125 32.71875 86.703125 31.921875Q86.203125 31.125 86.203125 30.140625Q86.203125 29.046875 86.8125 28.109375Q87.421875 27.171875 88.609375 26.6875Q89.796875 26.1875 91.234375 26.1875Q92.828125 26.1875 94.046875 26.703125Q95.265625 27.21875 95.90625 28.21875Q96.5625 29.203125 96.609375 30.46875L94.796875 30.609375Q94.65625 29.25 93.8125 28.5625Q92.96875 27.859375 91.3125 27.859375Q89.59375 27.859375 88.796875 28.5Q88.015625 29.125 88.015625 30.0Q88.015625 30.78125 88.578125 31.28125Q89.125 31.78125 91.4375 32.296875Q93.75 32.8125 94.609375 33.203125Q95.859375 33.78125 96.453125 34.671875Q97.046875 35.546875 97.046875 36.703125Q97.046875 37.84375 96.390625 38.859375Q95.734375 39.875 94.5 40.4375Q93.28125 41.0 91.75 41.0Q89.8125 41.0 88.5 40.4375Q87.1875 39.859375 86.4375 38.71875Q85.6875 37.578125 85.65625 36.15625ZM106.171875 37.40625L107.984375 37.640625Q107.5625 39.21875 106.390625 40.109375Q105.234375 40.984375 103.421875 40.984375Q101.15625 40.984375 99.8125 39.59375Q98.484375 38.1875 98.484375 35.65625Q98.484375 33.03125 99.828125 31.59375Q101.171875 30.140625 103.328125 30.140625Q105.40625 30.140625 106.71875 31.5625Q108.046875 32.96875 108.046875 35.546875Q108.046875 35.703125 108.03125 36.015625L100.296875 36.015625Q100.390625 37.71875 101.265625 38.625Q102.140625 39.53125 103.4375 39.53125Q104.40625 39.53125 105.078125 39.03125Q105.765625 38.515625 106.171875 37.40625ZM100.390625 34.5625L106.1875 34.5625Q106.078125 33.265625 105.53125 32.609375Q104.6875 31.59375 103.34375 31.59375Q102.140625 31.59375 101.3125 32.40625Q100.484375 33.203125 100.390625 34.5625ZM110.0625 44.71875L110.0625 30.375L111.671875 30.375L111.671875 31.71875Q112.234375 30.9375 112.9375 30.546875Q113.65625 30.140625 114.671875 30.140625Q116.0 30.140625 117.015625 30.828125Q118.03125 31.515625 118.546875 32.765625Q119.078125 34.0 119.078125 35.484375Q119.078125 37.078125 118.5 38.359375Q117.9375 39.625 116.84375 40.3125Q115.75 40.984375 114.546875 40.984375Q113.671875 40.984375 112.96875 40.609375Q112.28125 40.234375 111.828125 39.671875L111.828125 44.71875L110.0625 44.71875ZM111.65625 35.625Q111.65625 37.625 112.46875 38.578125Q113.28125 39.53125 114.4375 39.53125Q115.609375 39.53125 116.4375 38.546875Q117.28125 37.5625 117.28125 35.46875Q117.28125 33.5 116.453125 32.515625Q115.640625 31.515625 114.515625 31.515625Q113.390625 31.515625 112.515625 32.578125Q111.65625 33.625 111.65625 35.625ZM122.21875 44.953125L120.96875 44.953125Q123.875 40.265625 123.875 35.578125Q123.875 33.734375 123.46875 31.9375Q123.125 30.46875 122.53125 29.125Q122.15625 28.234375 120.96875 26.1875L122.21875 26.1875Q124.0625 28.640625 124.9375 31.109375Q125.6875 33.234375 125.6875 35.5625Q125.6875 38.203125 124.671875 40.671875Q123.671875 43.125 122.21875 44.953125Z" fill-rule="nonzero"/></svg>