<svg version="1.1" viewBox="0.0 0.0 687.0 425.0" fill="none" stroke="none" stroke-linecap="square" stroke-miterlimit="10" width="687" height="425" xmlns:xlink="http://www.w3.org/1999/xlink" xmlns="http://www.w3.org/2000/svg"><path fill="#ffffff" d="M0 0L687.0 0L687.0 425.0L0 425.0L0 0Z" fill-rule="nonzero"/><path stroke="#333333" stroke-width="1.0" stroke-linecap="butt" d="M85.5 59.5L85.5 383.5" fill-rule="nonzero"/><path stroke="#cccccc" stroke-width="1.0" stroke-linecap="butt" d="M201.5 59.5L201.5 383.5" fill-rule="nonzero"/><path stroke="#cccccc" stroke-width="1.0" stroke-linecap="butt" d="M317.5 59.5L317.5 383.5" fill-rule="nonzero"/><path stroke="#cccccc" stroke-width="1.0" stroke-linecap="butt" d="M433.5 59.5L433.5 383.5" fill-rule="nonzero"/><path stroke="#cccccc" stroke-width="1.0" stroke-linecap="butt" d="M549.5 59.5L549.5 383.5" fill-rule="nonzero"/><path stroke="#cccccc" stroke-width="1.0" stroke-linecap="butt" d="M665.5 59.5L665.5 383.5" fill-rule="nonzero"/><clipPath id="id_0"><path d="M85.25 59.416668L665.75 59.416668L665.75 383.75L85.25 383.75L85.25 59.416668Z" clip-rule="nonzero"/></clipPath><path stroke="#000000" stroke-width="2.0" stroke-linecap="butt" stroke-opacity="0.0" clip-path="url(#id_0)" d="M85.0 134.0L85.0 86.0L664.0 86.0C665.10455 86.0 666.0 86.89543 666.0 88.0L666.0 132.0C666.0 133.10457 665.10455 134.0 664.0 134.0Z" fill-rule="nonzero"/><path fill="#4285f4" clip-path="url(#id_0)" d="M85.0 134.0L85.0 86.0L664.0 86.0C665.10455 86.0 666.0 86.89543 666.0 88.0L666.0 132.0C666.0 133.10457 665.10455 134.0 664.0 134.0Z" fill-rule="nonzero"/><path stroke="#000000" stroke-width="2.0" stroke-linecap="butt" stroke-opacity="0.0" clip-path="url(#id_0)" d="M85.0 208.0L85.0 160.0L315.0 160.0C316.10458 160.0 317.0 160.89543 317.0 162.0L317.0 206.0C317.0 207.10457 316.10458 208.0 315.0 208.0Z" fill-rule="nonzero"/><path fill="#4285f4" clip-path="url(#id_0)" d="M85.0 208.0L85.0 160.0L315.0 160.0C316.10458 160.0 317.0 160.89543 317.0 162.0L317.0 206.0C317.0 207.10457 316.10458 208.0 315.0 208.0Z" fill-rule="nonzero"/><path stroke="#000000" stroke-width="2.0" stroke-linecap="butt" stroke-opacity="0.0" clip-path="url(#id_0)" d="M85.0 283.0L85.0 235.0L257.0 235.0C258.10458 235.0 259.0 235.89543 259.0 237.0L259.0 281.0C259.0 282.10458 258.10458 283.0 257.0 283.0Z" fill-rule="nonzero"/><path fill="#4285f4" clip-path="url(#id_0)" d="M85.0 283.0L85.0 235.0L257.0 235.0C258.10458 235.0 259.0 235.89543 259.0 237.0L259.0 281.0C259.0 282.10458 258.10458 283.0 257.0 283.0Z" fill-rule="nonzero"/><path stroke="#000000" stroke-width="2.0" stroke-linecap="butt" stroke-opacity="0.0" clip-path="url(#id_0)" d="M85.0 357.0L85.0 309.0L257.0 309.0C258.10458 309.0 259.0 309.89542 259.0 311.0L259.0 355.0C259.0 356.10458 258.10458 357.0 257.0 357.0Z" fill-rule="nonzero"/><path fill="#4285f4" clip-path="url(#id_0)" d="M85.0 357.0L85.0 309.0L257.0 309.0C258.10458 309.0 259.0 309.89542 259.0 311.0L259.0 355.0C259.0 356.10458 258.10458 357.0 257.0 357.0Z" fill-rule="nonzero"/><path fill="#000000" d="M45.21875 113.744255L45.21875 105.150505L46.34375 105.150505L46.34375 108.681755L50.8125 108.681755L50.8125 105.150505L51.953125 105.150505L51.953125 113.744255L50.8125 113.744255L50.8125 109.69738L46.34375 109.69738L46.34375 113.744255L45.21875 113.744255ZM58.109375 112.97863Q57.515625 113.47863 56.96875 113.681755Q56.4375 113.88488 55.8125 113.88488Q54.78125 113.88488 54.234375 113.38488Q53.6875 112.88488 53.6875 112.10363Q53.6875 111.650505 53.890625 111.275505Q54.09375 110.88488 54.4375 110.66613Q54.78125 110.431755 55.203125 110.32238Q55.5 110.22863 56.140625 110.150505Q57.40625 110.00988 58.015625 109.79113Q58.015625 109.57238 58.015625 109.525505Q58.015625 108.869255 57.71875 108.60363Q57.3125 108.25988 56.515625 108.25988Q55.78125 108.25988 55.421875 108.525505Q55.0625 108.775505 54.890625 109.431755L53.859375 109.29113Q54.0 108.63488 54.328125 108.22863Q54.65625 107.82238 55.265625 107.60363Q55.875 107.38488 56.671875 107.38488Q57.46875 107.38488 57.96875 107.57238Q58.46875 107.75988 58.703125 108.04113Q58.9375 108.32238 59.03125 108.75988Q59.078125 109.025505 59.078125 109.72863L59.078125 111.13488Q59.078125 112.60363 59.140625 112.994255Q59.21875 113.38488 59.421875 113.744255L58.3125 113.744255Q58.15625 113.41613 58.109375 112.97863ZM58.015625 110.619255Q57.4375 110.85363 56.296875 111.025505Q55.640625 111.119255 55.375 111.244255Q55.109375 111.35363 54.953125 111.57238Q54.8125 111.79113 54.8125 112.07238Q54.8125 112.494255 55.125 112.775505Q55.453125 113.056755 56.0625 113.056755Q56.671875 113.056755 57.140625 112.79113Q57.625 112.525505 57.84375 112.056755Q58.015625 111.69738 58.015625 111.00988L58.015625 110.619255ZM61.046875 116.13488L61.046875 107.525505L62.0 107.525505L62.0 108.32238Q62.34375 107.85363 62.765625 107.619255Q63.203125 107.38488 63.8125 107.38488Q64.609375 107.38488 65.21875 107.79113Q65.828125 108.19738 66.125 108.94738Q66.4375 109.69738 66.4375 110.588005Q66.4375 111.54113 66.09375 112.306755Q65.765625 113.07238 65.109375 113.47863Q64.453125 113.88488 63.734375 113.88488Q63.203125 113.88488 62.78125 113.66613Q62.359375 113.431755 62.09375 113.10363L62.09375 116.13488L61.046875 116.13488ZM62.0 110.66613Q62.0 111.869255 62.484375 112.44738Q62.96875 113.00988 63.65625 113.00988Q64.359375 113.00988 64.859375 112.41613Q65.359375 111.82238 65.359375 110.57238Q65.359375 109.38488 64.875 108.806755Q64.390625 108.213005 63.703125 108.213005Q63.03125 108.213005 62.515625 108.838005Q62.0 109.463005 62.0 110.66613ZM68.046875 116.13488L68.046875 107.525505L69.0 107.525505L69.0 108.32238Q69.34375 107.85363 69.765625 107.619255Q70.203125 107.38488 70.8125 107.38488Q71.609375 107.38488 72.21875 107.79113Q72.828125 108.19738 73.125 108.94738Q73.4375 109.69738 73.4375 110.588005Q73.4375 111.54113 73.09375 112.306755Q72.765625 113.07238 72.109375 113.47863Q71.453125 113.88488 70.734375 113.88488Q70.203125 113.88488 69.78125 113.66613Q69.359375 113.431755 69.09375 113.10363L69.09375 116.13488L68.046875 116.13488ZM69.0 110.66613Q69.0 111.869255 69.484375 112.44738Q69.96875 113.00988 70.65625 113.00988Q71.359375 113.00988 71.859375 112.41613Q72.359375 111.82238 72.359375 110.57238Q72.359375 109.38488 71.875 108.806755Q71.390625 108.213005 70.703125 108.213005Q70.03125 108.213005 69.515625 108.838005Q69.0 109.463005 69.0 110.66613ZM75.0 116.13488L74.875 115.150505Q75.21875 115.244255 75.484375 115.244255Q75.828125 115.244255 76.03125 115.119255Q76.25 115.00988 76.390625 114.806755Q76.484375 114.63488 76.71875 114.00988Q76.734375 113.931755 76.8125 113.75988L74.4375 107.525505L75.578125 107.525505L76.875 111.119255Q77.125 111.806755 77.328125 112.57238Q77.515625 111.838005 77.765625 111.150505L79.09375 107.525505L80.140625 107.525505L77.78125 113.85363Q77.390625 114.869255 77.1875 115.25988Q76.90625 115.79113 76.53125 116.025505Q76.171875 116.275505 75.671875 116.275505Q75.375 116.275505 75.0 116.13488Z" fill-rule="nonzero"/><path fill="#000000" d="M54.359375 188.30363L54.359375 180.72551L51.53125 180.72551L51.53125 179.70988L58.34375 179.70988L58.34375 180.72551L55.5 180.72551L55.5 188.30363L54.359375 188.30363ZM59.046875 180.92863L59.046875 179.70988L60.109375 179.70988L60.109375 180.92863L59.046875 180.92863ZM59.046875 188.30363L59.046875 182.08488L60.109375 182.08488L60.109375 188.30363L59.046875 188.30363ZM62.03125 188.30363L62.03125 182.08488L62.984375 182.08488L62.984375 183.02238Q63.34375 182.36613 63.640625 182.16301Q63.953125 181.94426 64.328125 181.94426Q64.859375 181.94426 65.40625 182.27238L65.046875 183.25676Q64.65625 183.02238 64.28125 183.02238Q63.921875 183.02238 63.640625 183.24113Q63.375 183.44426 63.265625 183.81926Q63.078125 184.38176 63.078125 185.03801L63.078125 188.30363L62.03125 188.30363ZM70.296875 186.30363L71.390625 186.42863Q71.140625 187.38176 70.4375 187.91301Q69.734375 188.44426 68.65625 188.44426Q67.296875 188.44426 66.484375 187.60051Q65.6875 186.75676 65.6875 185.24113Q65.6875 183.67863 66.5 182.81926Q67.3125 181.94426 68.59375 181.94426Q69.84375 181.94426 70.625 182.78801Q71.421875 183.63176 71.421875 185.17863Q71.421875 185.27238 71.421875 185.45988L66.78125 185.45988Q66.84375 186.49113 67.359375 187.03801Q67.875 187.56926 68.65625 187.56926Q69.234375 187.56926 69.640625 187.27238Q70.0625 186.95988 70.296875 186.30363ZM66.84375 184.60051L70.3125 184.60051Q70.25 183.80363 69.921875 183.41301Q69.40625 182.80363 68.609375 182.80363Q67.875 182.80363 67.375 183.28801Q66.890625 183.77238 66.84375 184.60051ZM77.078125 188.30363L77.078125 187.52238Q76.484375 188.44426 75.34375 188.44426Q74.59375 188.44426 73.96875 188.03801Q73.34375 187.61613 73.0 186.88176Q72.65625 186.14738 72.65625 185.19426Q72.65625 184.27238 72.96875 183.50676Q73.28125 182.74113 73.90625 182.35051Q74.53125 181.94426 75.296875 181.94426Q75.859375 181.94426 76.296875 182.17863Q76.734375 182.41301 77.015625 182.78801L77.015625 179.70988L78.0625 179.70988L78.0625 188.30363L77.078125 188.30363ZM73.75 185.19426Q73.75 186.39738 74.25 186.99113Q74.75 187.56926 75.4375 187.56926Q76.125 187.56926 76.609375 187.00676Q77.09375 186.44426 77.09375 185.28801Q77.09375 184.00676 76.59375 183.41301Q76.109375 182.81926 75.390625 182.81926Q74.6875 182.81926 74.21875 183.39738Q73.75 183.95988 73.75 185.19426Z" fill-rule="nonzero"/><path fill="#000000" d="M22.203125 262.86304L22.203125 254.26929L28.40625 254.26929L28.40625 255.28491L23.34375 255.28491L23.34375 257.9099L28.09375 257.9099L28.09375 258.92554L23.34375 258.92554L23.34375 261.8474L28.609375 261.8474L28.609375 262.86304L22.203125 262.86304ZM29.34375 262.86304L31.609375 259.62866L29.515625 256.6443L30.828125 256.6443L31.78125 258.0974Q32.046875 258.5193 32.21875 258.80054Q32.46875 258.4099 32.6875 258.11304L33.734375 256.6443L35.0 256.6443L32.84375 259.56616L35.15625 262.86304L33.875 262.86304L32.59375 260.92554L32.25 260.4099L30.609375 262.86304L29.34375 262.86304ZM35.046875 262.86304L35.046875 254.26929L36.09375 254.26929L36.09375 257.3474Q36.828125 256.50366 37.953125 256.50366Q38.65625 256.50366 39.15625 256.7849Q39.671875 257.05054 39.890625 257.5349Q40.109375 258.00366 40.109375 258.92554L40.109375 262.86304L39.0625 262.86304L39.0625 258.92554Q39.0625 258.12866 38.71875 257.7693Q38.375 257.4099 37.75 257.4099Q37.28125 257.4099 36.859375 257.6599Q36.453125 257.8943 36.265625 258.31616Q36.09375 258.7224 36.09375 259.4568L36.09375 262.86304L35.046875 262.86304ZM46.109375 262.0974Q45.515625 262.5974 44.96875 262.80054Q44.4375 263.00366 43.8125 263.00366Q42.78125 263.00366 42.234375 262.50366Q41.6875 262.00366 41.6875 261.2224Q41.6875 260.7693 41.890625 260.3943Q42.09375 260.00366 42.4375 259.7849Q42.78125 259.55054 43.203125 259.44116Q43.5 259.3474 44.140625 259.2693Q45.40625 259.12866 46.015625 258.9099Q46.015625 258.69116 46.015625 258.6443Q46.015625 257.98804 45.71875 257.7224Q45.3125 257.37866 44.515625 257.37866Q43.78125 257.37866 43.421875 257.6443Q43.0625 257.8943 42.890625 258.55054L41.859375 258.4099Q42.0 257.75366 42.328125 257.3474Q42.65625 256.94116 43.265625 256.7224Q43.875 256.50366 44.671875 256.50366Q45.46875 256.50366 45.96875 256.69116Q46.46875 256.87866 46.703125 257.1599Q46.9375 257.44116 47.03125 257.87866Q47.078125 258.1443 47.078125 258.8474L47.078125 260.25366Q47.078125 261.7224 47.140625 262.11304Q47.21875 262.50366 47.421875 262.86304L46.3125 262.86304Q46.15625 262.5349 46.109375 262.0974ZM46.015625 259.73804Q45.4375 259.9724 44.296875 260.1443Q43.640625 260.23804 43.375 260.36304Q43.109375 260.4724 42.953125 260.69116Q42.8125 260.9099 42.8125 261.19116Q42.8125 261.61304 43.125 261.8943Q43.453125 262.17554 44.0625 262.17554Q44.671875 262.17554 45.140625 261.9099Q45.625 261.6443 45.84375 261.17554Q46.015625 260.81616 46.015625 260.12866L46.015625 259.73804ZM53.125 262.86304L53.125 261.94116Q52.390625 263.00366 51.140625 263.00366Q50.59375 263.00366 50.109375 262.80054Q49.640625 262.5818 49.40625 262.2693Q49.171875 261.94116 49.078125 261.4724Q49.015625 261.17554 49.015625 260.48804L49.015625 256.6443L50.078125 256.6443L50.078125 260.0974Q50.078125 260.9099 50.140625 261.2068Q50.234375 261.61304 50.546875 261.86304Q50.875 262.0974 51.359375 262.0974Q51.828125 262.0974 52.234375 261.86304Q52.65625 261.61304 52.828125 261.19116Q53.015625 260.7693 53.015625 259.9724L53.015625 256.6443L54.0625 256.6443L54.0625 262.86304L53.125 262.86304ZM55.625 261.00366L56.65625 260.8474Q56.75 261.4724 57.140625 261.80054Q57.546875 262.12866 58.28125 262.12866Q59.0 262.12866 59.34375 261.8474Q59.703125 261.55054 59.703125 261.1443Q59.703125 260.7849 59.390625 260.5818Q59.171875 260.44116 58.3125 260.2224Q57.15625 259.92554 56.703125 259.7224Q56.265625 259.50366 56.03125 259.12866Q55.796875 258.75366 55.796875 258.2849Q55.796875 257.87866 55.984375 257.5193Q56.171875 257.1599 56.5 256.92554Q56.75 256.75366 57.171875 256.62866Q57.59375 256.50366 58.09375 256.50366Q58.8125 256.50366 59.359375 256.7224Q59.921875 256.92554 60.1875 257.2849Q60.453125 257.6443 60.546875 258.23804L59.515625 258.37866Q59.453125 257.9099 59.109375 257.6443Q58.78125 257.36304 58.15625 257.36304Q57.4375 257.36304 57.125 257.61304Q56.8125 257.8474 56.8125 258.17554Q56.8125 258.37866 56.9375 258.5349Q57.078125 258.7068 57.34375 258.81616Q57.5 258.87866 58.28125 259.0818Q59.40625 259.3943 59.84375 259.5818Q60.28125 259.7693 60.53125 260.12866Q60.78125 260.48804 60.78125 261.0349Q60.78125 261.56616 60.46875 262.0349Q60.171875 262.48804 59.59375 262.75366Q59.015625 263.00366 58.28125 263.00366Q57.0625 263.00366 56.421875 262.50366Q55.796875 261.98804 55.625 261.00366ZM65.34375 261.92554L65.5 262.8474Q65.046875 262.94116 64.703125 262.94116Q64.125 262.94116 63.8125 262.7693Q63.5 262.5818 63.359375 262.2849Q63.234375 261.98804 63.234375 261.0349L63.234375 257.4568L62.46875 257.4568L62.46875 256.6443L63.234375 256.6443L63.234375 255.09741L64.28125 254.47241L64.28125 256.6443L65.34375 256.6443L65.34375 257.4568L64.28125 257.4568L64.28125 261.0974Q64.28125 261.55054 64.328125 261.67554Q64.390625 261.80054 64.515625 261.87866Q64.640625 261.9568 64.875 261.9568Q65.0625 261.9568 65.34375 261.92554ZM70.296875 260.86304L71.390625 260.98804Q71.140625 261.94116 70.4375 262.4724Q69.734375 263.00366 68.65625 263.00366Q67.296875 263.00366 66.484375 262.1599Q65.6875 261.31616 65.6875 259.80054Q65.6875 258.23804 66.5 257.37866Q67.3125 256.50366 68.59375 256.50366Q69.84375 256.50366 70.625 257.3474Q71.421875 258.19116 71.421875 259.73804Q71.421875 259.8318 71.421875 260.0193L66.78125 260.0193Q66.84375 261.05054 67.359375 261.5974Q67.875 262.12866 68.65625 262.12866Q69.234375 262.12866 69.640625 261.8318Q70.0625 261.5193 70.296875 260.86304ZM66.84375 259.1599L70.3125 259.1599Q70.25 258.36304 69.921875 257.9724Q69.40625 257.36304 68.609375 257.36304Q67.875 257.36304 67.375 257.8474Q66.890625 258.3318 66.84375 259.1599ZM77.078125 262.86304L77.078125 262.0818Q76.484375 263.00366 75.34375 263.00366Q74.59375 263.00366 73.96875 262.5974Q73.34375 262.17554 73.0 261.44116Q72.65625 260.7068 72.65625 259.75366Q72.65625 258.8318 72.96875 258.06616Q73.28125 257.30054 73.90625 256.9099Q74.53125 256.50366 75.296875 256.50366Q75.859375 256.50366 76.296875 256.73804Q76.734375 256.9724 77.015625 257.3474L77.015625 254.26929L78.0625 254.26929L78.0625 262.86304L77.078125 262.86304ZM73.75 259.75366Q73.75 260.9568 74.25 261.55054Q74.75 262.12866 75.4375 262.12866Q76.125 262.12866 76.609375 261.56616Q77.09375 261.00366 77.09375 259.8474Q77.09375 258.56616 76.59375 257.9724Q76.109375 257.37866 75.390625 257.37866Q74.6875 257.37866 74.21875 257.9568Q73.75 258.5193 73.75 259.75366Z" fill-rule="nonzero"/><path fill="#000000" d="M41.21875 337.42242L41.21875 328.82867L42.34375 328.82867L42.34375 332.35992L46.8125 332.35992L46.8125 328.82867L47.953125 328.82867L47.953125 337.42242L46.8125 337.42242L46.8125 333.37555L42.34375 333.37555L42.34375 337.42242L41.21875 337.42242ZM54.125 337.42242L54.125 336.50055Q53.390625 337.56305 52.140625 337.56305Q51.59375 337.56305 51.109375 337.35992Q50.640625 337.14117 50.40625 336.82867Q50.171875 336.50055 50.078125 336.0318Q50.015625 335.73492 50.015625 335.04742L50.015625 331.20367L51.078125 331.20367L51.078125 334.6568Q51.078125 335.4693 51.140625 335.76617Q51.234375 336.17242 51.546875 336.42242Q51.875 336.6568 52.359375 336.6568Q52.828125 336.6568 53.234375 336.42242Q53.65625 336.17242 53.828125 335.75055Q54.015625 335.32867 54.015625 334.5318L54.015625 331.20367L55.0625 331.20367L55.0625 337.42242L54.125 337.42242ZM57.046875 337.42242L57.046875 331.20367L57.984375 331.20367L57.984375 332.07867Q58.671875 331.06305 59.96875 331.06305Q60.53125 331.06305 61.0 331.26617Q61.484375 331.4693 61.71875 331.79742Q61.953125 332.12555 62.046875 332.56305Q62.09375 332.85992 62.09375 333.5943L62.09375 337.42242L61.046875 337.42242L61.046875 333.64117Q61.046875 332.98492 60.921875 332.67242Q60.796875 332.35992 60.484375 332.17242Q60.171875 331.9693 59.75 331.9693Q59.078125 331.9693 58.578125 332.4068Q58.09375 332.82867 58.09375 334.01617L58.09375 337.42242L57.046875 337.42242ZM63.84375 337.93805L64.875 338.0943Q64.9375 338.56305 65.234375 338.7818Q65.625 339.07867 66.296875 339.07867Q67.03125 339.07867 67.421875 338.7818Q67.828125 338.48492 67.96875 337.9693Q68.0625 337.64117 68.046875 336.60992Q67.359375 337.42242 66.328125 337.42242Q65.046875 337.42242 64.34375 336.50055Q63.640625 335.56305 63.640625 334.2818Q63.640625 333.39117 63.953125 332.64117Q64.28125 331.87555 64.890625 331.4693Q65.5 331.06305 66.328125 331.06305Q67.4375 331.06305 68.15625 331.95367L68.15625 331.20367L69.125 331.20367L69.125 336.57867Q69.125 338.0318 68.828125 338.64117Q68.53125 339.25055 67.890625 339.5943Q67.25 339.95367 66.3125 339.95367Q65.203125 339.95367 64.515625 339.45367Q63.828125 338.95367 63.84375 337.93805ZM64.71875 334.20367Q64.71875 335.42242 65.203125 335.98492Q65.6875 336.54742 66.421875 336.54742Q67.15625 336.54742 67.640625 335.98492Q68.140625 335.42242 68.140625 334.23492Q68.140625 333.0943 67.625 332.51617Q67.125 331.93805 66.40625 331.93805Q65.703125 331.93805 65.203125 332.51617Q64.71875 333.07867 64.71875 334.20367ZM71.03125 337.42242L71.03125 331.20367L71.984375 331.20367L71.984375 332.14117Q72.34375 331.48492 72.640625 331.2818Q72.953125 331.06305 73.328125 331.06305Q73.859375 331.06305 74.40625 331.39117L74.046875 332.37555Q73.65625 332.14117 73.28125 332.14117Q72.921875 332.14117 72.640625 332.35992Q72.375 332.56305 72.265625 332.93805Q72.078125 333.50055 72.078125 334.1568L72.078125 337.42242L71.03125 337.42242ZM75.0 339.81305L74.875 338.82867Q75.21875 338.92242 75.484375 338.92242Q75.828125 338.92242 76.03125 338.79742Q76.25 338.68805 76.390625 338.48492Q76.484375 338.31305 76.71875 337.68805Q76.734375 337.60992 76.8125 337.43805L74.4375 331.20367L75.578125 331.20367L76.875 334.79742Q77.125 335.48492 77.328125 336.25055Q77.515625 335.51617 77.765625 334.82867L79.09375 331.20367L80.140625 331.20367L77.78125 337.5318Q77.390625 338.54742 77.1875 338.93805Q76.90625 339.4693 76.53125 339.70367Q76.171875 339.95367 75.671875 339.95367Q75.375 339.95367 75.0 339.81305Z" fill-rule="nonzero"/><path fill="#000000" d="M82.25 396.51562Q82.25 394.98438 82.5625 394.0625Q82.875 393.125 83.484375 392.625Q84.109375 392.125 85.046875 392.125Q85.734375 392.125 86.25 392.40625Q86.78125 392.6875 87.125 393.21875Q87.46875 393.73438 87.65625 394.48438Q87.84375 395.23438 87.84375 396.51562Q87.84375 398.03125 87.53125 398.95312Q87.234375 399.875 86.609375 400.39062Q86.0 400.89062 85.046875 400.89062Q83.8125 400.89062 83.09375 400.0Q82.25 398.9375 82.25 396.51562ZM83.328125 396.51562Q83.328125 398.625 83.828125 399.32812Q84.328125 400.03125 85.046875 400.03125Q85.78125 400.03125 86.265625 399.32812Q86.765625 398.625 86.765625 396.51562Q86.765625 394.39062 86.265625 393.70312Q85.78125 393.0 85.03125 393.0Q84.3125 393.0 83.875 393.60938Q83.328125 394.39062 83.328125 396.51562Z" fill-rule="nonzero"/><path fill="#000000" d="M203.89688 399.73438L203.89688 400.75L198.20938 400.75Q198.20938 400.375 198.33438 400.01562Q198.55313 399.4375 199.02188 398.875Q199.50626 398.3125 200.4125 397.57812Q201.81876 396.42188 202.30313 395.75Q202.80313 395.07812 202.80313 394.48438Q202.80313 393.85938 202.35 393.4375Q201.89688 393.0 201.17813 393.0Q200.4125 393.0 199.95938 393.45312Q199.50626 393.90625 199.49063 394.71875L198.4125 394.60938Q198.52188 393.39062 199.24063 392.76562Q199.975 392.125 201.20938 392.125Q202.44376 392.125 203.1625 392.8125Q203.88126 393.5 203.88126 394.51562Q203.88126 395.03125 203.6625 395.53125Q203.45938 396.01562 202.95938 396.57812Q202.475 397.125 201.35 398.07812Q200.39688 398.875 200.11563 399.17188Q199.85 399.45312 199.67813 399.73438L203.89688 399.73438Z" fill-rule="nonzero"/><path fill="#000000" d="M317.825 400.75L317.825 398.6875L314.10626 398.6875L314.10626 397.71875L318.02814 392.15625L318.8875 392.15625L318.8875 397.71875L320.04376 397.71875L320.04376 398.6875L318.8875 398.6875L318.8875 400.75L317.825 400.75ZM317.825 397.71875L317.825 393.85938L315.1375 397.71875L317.825 397.71875Z" fill-rule="nonzero"/><path fill="#000000" d="M436.01874 394.26562L434.97186 394.34375Q434.83124 393.71875 434.58124 393.4375Q434.14374 392.98438 433.51874 392.98438Q433.01874 392.98438 432.6281 393.26562Q432.14374 393.64062 431.84686 394.34375Q431.5656 395.03125 431.55 396.3125Q431.925 395.73438 432.47186 395.45312Q433.03436 395.17188 433.64374 395.17188Q434.6906 395.17188 435.425 395.95312Q436.175 396.73438 436.175 397.95312Q436.175 398.76562 435.8156 399.46875Q435.47186 400.15625 434.8625 400.53125Q434.2531 400.89062 433.4875 400.89062Q432.15936 400.89062 431.33124 399.92188Q430.5031 398.95312 430.5031 396.73438Q430.5031 394.23438 431.425 393.10938Q432.22186 392.125 433.58124 392.125Q434.59686 392.125 435.2375 392.70312Q435.89374 393.26562 436.01874 394.26562ZM431.72186 397.96875Q431.72186 398.51562 431.9406 399.01562Q432.175 399.5 432.58124 399.76562Q433.0031 400.03125 433.47186 400.03125Q434.1281 400.03125 434.6125 399.5Q435.09686 398.95312 435.09686 398.03125Q435.09686 397.14062 434.6125 396.625Q434.14374 396.10938 433.425 396.10938Q432.70624 396.10938 432.20624 396.625Q431.72186 397.14062 431.72186 397.96875Z" fill-rule="nonzero"/><path fill="#000000" d="M548.275 396.09375Q547.6188 395.84375 547.29065 395.40625Q546.97815 394.95312 546.97815 394.34375Q546.97815 393.40625 547.65 392.76562Q548.3375 392.125 549.4469 392.125Q550.5719 392.125 551.2594 392.78125Q551.9469 393.4375 551.9469 394.375Q551.9469 394.96875 551.6344 395.40625Q551.3219 395.84375 550.6813 396.09375Q551.47815 396.34375 551.8844 396.92188Q552.29065 397.5 552.29065 398.29688Q552.29065 399.39062 551.5094 400.14062Q550.7438 400.89062 549.4625 400.89062Q548.1969 400.89062 547.41565 400.14062Q546.6344 399.39062 546.6344 398.26562Q546.6344 397.42188 547.0563 396.85938Q547.4938 396.29688 548.275 396.09375ZM548.0563 394.29688Q548.0563 394.90625 548.4469 395.29688Q548.85315 395.6875 549.47815 395.6875Q550.0875 395.6875 550.47815 395.3125Q550.8688 394.92188 550.8688 394.35938Q550.8688 393.78125 550.4625 393.39062Q550.0563 392.98438 549.4625 392.98438Q548.85315 392.98438 548.4469 393.375Q548.0563 393.76562 548.0563 394.29688ZM547.72815 398.26562Q547.72815 398.71875 547.9313 399.14062Q548.15 399.5625 548.5719 399.79688Q548.9938 400.03125 549.47815 400.03125Q550.22815 400.03125 550.7125 399.54688Q551.2125 399.0625 551.2125 398.3125Q551.2125 397.54688 550.7125 397.04688Q550.2125 396.54688 549.4469 396.54688Q548.6969 396.54688 548.2125 397.04688Q547.72815 397.53125 547.72815 398.26562Z" fill-rule="nonzero"/><path fill="#000000" d="M663.21875 400.75L662.1719 400.75L662.1719 394.03125Q661.78125 394.39062 661.15625 394.76562Q660.5469 395.125 660.0625 395.29688L660.0625 394.28125Q660.9375 393.85938 661.59375 393.28125Q662.2656 392.6875 662.5469 392.125L663.21875 392.125L663.21875 400.75ZM666.25 396.51562Q666.25 394.98438 666.5625 394.0625Q666.875 393.125 667.4844 392.625Q668.1094 392.125 669.0469 392.125Q669.7344 392.125 670.25 392.40625Q670.78125 392.6875 671.125 393.21875Q671.46875 393.73438 671.65625 394.48438Q671.84375 395.23438 671.84375 396.51562Q671.84375 398.03125 671.53125 398.95312Q671.2344 399.875 670.6094 400.39062Q670.0 400.89062 669.0469 400.89062Q667.8125 400.89062 667.09375 400.0Q666.25 398.9375 666.25 396.51562ZM667.3281 396.51562Q667.3281 398.625 667.8281 399.32812Q668.3281 400.03125 669.0469 400.03125Q669.78125 400.03125 670.2656 399.32812Q670.7656 398.625 670.7656 396.51562Q670.7656 394.39062 670.2656 393.70312Q669.78125 393.0 669.03125 393.0Q668.3125 393.0 667.875 393.60938Q667.3281 394.39062 667.3281 396.51562Z" fill-rule="nonzero"/><path fill="#757575" d="M22.734375 40.25L22.734375 25.9375L25.59375 25.9375L28.96875 36.0625Q29.4375 37.484375 29.65625 38.1875Q29.90625 37.40625 30.421875 35.890625L33.84375 25.9375L36.390625 25.9375L36.390625 40.25L34.578125 40.25L34.578125 28.265625L30.40625 40.25L28.703125 40.25L24.5625 28.0625L24.5625 40.25L22.734375 40.25ZM38.921875 35.0625Q38.921875 32.1875 40.515625 30.796875Q41.859375 29.640625 43.78125 29.640625Q45.921875 29.640625 47.265625 31.046875Q48.625 32.453125 48.625 34.921875Q48.625 36.921875 48.03125 38.078125Q47.4375 39.21875 46.28125 39.859375Q45.140625 40.484375 43.78125 40.484375Q41.59375 40.484375 40.25 39.09375Q38.921875 37.6875 38.921875 35.0625ZM40.71875 35.0625Q40.71875 37.0625 41.578125 38.046875Q42.453125 39.03125 43.78125 39.03125Q45.09375 39.03125 45.953125 38.046875Q46.828125 37.046875 46.828125 35.0Q46.828125 33.078125 45.953125 32.09375Q45.078125 31.09375 43.78125 31.09375Q42.453125 31.09375 41.578125 32.09375Q40.71875 33.078125 40.71875 35.0625ZM49.921875 35.0625Q49.921875 32.1875 51.515625 30.796875Q52.859375 29.640625 54.78125 29.640625Q56.921875 29.640625 58.265625 31.046875Q59.625 32.453125 59.625 34.921875Q59.625 36.921875 59.03125 38.078125Q58.4375 39.21875 57.28125 39.859375Q56.140625 40.484375 54.78125 40.484375Q52.59375 40.484375 51.25 39.09375Q49.921875 37.6875 49.921875 35.0625ZM51.71875 35.0625Q51.71875 37.0625 52.578125 38.046875Q53.453125 39.03125 54.78125 39.03125Q56.09375 39.03125 56.953125 38.046875Q57.828125 37.046875 57.828125 35.0Q57.828125 33.078125 56.953125 32.09375Q56.078125 31.09375 54.78125 31.09375Q53.453125 31.09375 52.578125 32.09375Q51.71875 33.078125 51.71875 35.0625ZM68.296875 40.25L68.296875 38.9375Q67.3125 40.484375 65.390625 40.484375Q64.15625 40.484375 63.109375 39.796875Q62.078125 39.109375 61.5 37.890625Q60.9375 36.671875 60.9375 35.078125Q60.9375 33.515625 61.453125 32.25Q61.96875 30.984375 63.0 30.3125Q64.046875 29.640625 65.3125 29.640625Q66.25 29.640625 66.984375 30.046875Q67.71875 30.4375 68.1875 31.0625L68.1875 25.9375L69.921875 25.9375L69.921875 40.25L68.296875 40.25ZM62.734375 35.078125Q62.734375 37.0625 63.578125 38.046875Q64.421875 39.03125 65.5625 39.03125Q66.71875 39.03125 67.515625 38.09375Q68.328125 37.15625 68.328125 35.21875Q68.328125 33.09375 67.5 32.09375Q66.6875 31.09375 65.484375 31.09375Q64.3125 31.09375 63.515625 32.0625Q62.734375 33.015625 62.734375 35.078125ZM81.921875 44.453125Q80.46875 42.625 79.46875 40.171875Q78.46875 37.703125 78.46875 35.0625Q78.46875 32.734375 79.21875 30.609375Q80.09375 28.140625 81.921875 25.6875L83.1875 25.6875Q82.0 27.71875 81.625 28.59375Q81.03125 29.9375 80.6875 31.40625Q80.265625 33.234375 80.265625 35.078125Q80.265625 39.765625 83.1875 44.453125L81.921875 44.453125ZM85.78125 40.25L85.78125 25.9375L87.71875 25.9375L95.234375 37.171875L95.234375 25.9375L97.046875 25.9375L97.046875 40.25L95.109375 40.25L87.59375 29.0L87.59375 40.25L85.78125 40.25ZM97.921875 35.0625Q97.921875 32.1875 99.515625 30.796875Q100.859375 29.640625 102.78125 29.640625Q104.921875 29.640625 106.265625 31.046875Q107.625 32.453125 107.625 34.921875Q107.625 36.921875 107.03125 38.078125Q106.4375 39.21875 105.28125 39.859375Q104.140625 40.484375 102.78125 40.484375Q100.59375 40.484375 99.25 39.09375Q97.921875 37.6875 97.921875 35.0625ZM99.71875 35.0625Q99.71875 37.0625 100.578125 38.046875Q101.453125 39.03125 102.78125 39.03125Q104.09375 39.03125 104.953125 38.046875Q105.828125 37.046875 105.828125 35.0Q105.828125 33.078125 104.953125 32.09375Q104.078125 31.09375 102.78125 31.09375Q101.453125 31.09375 100.578125 32.09375Q99.71875 33.078125 99.71875 35.0625ZM112.453125 40.25L108.5 29.875L110.359375 29.875L112.59375 36.09375Q112.953125 37.09375 113.25 38.171875Q113.484375 37.359375 113.90625 36.203125L116.203125 29.875L118.015625 29.875L114.09375 40.25L112.453125 40.25ZM119.71875 44.453125L118.46875 44.453125Q121.375 39.765625 121.375 35.078125Q121.375 33.234375 120.96875 31.4375Q120.625 29.96875 120.03125 28.625Q119.65625 27.734375 118.46875 25.6875L119.71875 25.6875Q121.5625 28.140625 122.4375 30.609375Q123.1875 32.734375 123.1875 35.0625Q123.1875 37.703125 122.171875 40.171875Q121.171875 42.625 119.71875 44.453125Z" fill-rule="nonzero"/></svg>