<svg version="1.1" viewBox="0.0 0.0 685.0 425.0" fill="none" stroke="none" stroke-linecap="square" stroke-miterlimit="10" width="685" height="425" xmlns:xlink="http://www.w3.org/1999/xlink" xmlns="http://www.w3.org/2000/svg"><path fill="#ffffff" d="M0 0L685.0 0L685.0 425.0L0 425.0L0 0Z" fill-rule="nonzero"/><path stroke="#333333" stroke-width="1.0" stroke-linecap="butt" d="M62.5 59.5L62.5 383.5" fill-rule="nonzero"/><path stroke="#cccccc" stroke-width="1.0" stroke-linecap="butt" d="M182.5 59.5L182.5 383.5" fill-rule="nonzero"/><path stroke="#cccccc" stroke-width="1.0" stroke-linecap="butt" d="M302.5 59.5L302.5 383.5" fill-rule="nonzero"/><path stroke="#cccccc" stroke-width="1.0" stroke-linecap="butt" d="M423.5 59.5L423.5 383.5" fill-rule="nonzero"/><path stroke="#cccccc" stroke-width="1.0" stroke-linecap="butt" d="M543.5 59.5L543.5 383.5" fill-rule="nonzero"/><path stroke="#cccccc" stroke-width="1.0" stroke-linecap="butt" d="M663.5 59.5L663.5 383.5" fill-rule="nonzero"/><clipPath id="id_0"><path d="M62.25 59.416668L663.75 59.416668L663.75 383.75L62.25 383.75L62.25 59.416668Z" clip-rule="nonzero"/></clipPath><path stroke="#000000" stroke-width="2.0" stroke-linecap="butt" stroke-opacity="0.0" clip-path="url(#id_0)" d="M62.0 198.0L62.0 108.0L662.0 108.0C663.10455 108.0 664.0 108.89543 664.0 110.0L664.0 196.0C664.0 197.10457 663.10455 198.0 662.0 198.0Z" fill-rule="nonzero"/><path fill="#4285f4" clip-path="url(#id_0)" d="M62.0 198.0L62.0 108.0L662.0 108.0C663.10455 108.0 664.0 108.89543 664.0 110.0L664.0 196.0C664.0 197.10457 663.10455 198.0 662.0 198.0Z" fill-rule="nonzero"/><path stroke="#000000" stroke-width="2.0" stroke-linecap="butt" stroke-opacity="0.0" clip-path="url(#id_0)" d="M62.0 336.0L62.0 246.0L181.0 246.0C182.10457 246.0 183.0 246.89543 183.0 248.0L183.0 334.0C183.0 335.10458 182.10457 336.0 181.0 336.0Z" fill-rule="nonzero"/><path fill="#4285f4" clip-path="url(#id_0)" d="M62.0 336.0L62.0 246.0L181.0 246.0C182.10457 246.0 183.0 246.89543 183.0 248.0L183.0 334.0C183.0 335.10458 182.10457 336.0 181.0 336.0Z" fill-rule="nonzero"/><path fill="#000000" d="M31.359375 156.57625L31.359375 148.99812L28.53125 148.99812L28.53125 147.9825L35.34375 147.9825L35.34375 148.99812L32.5 148.99812L32.5 156.57625L31.359375 156.57625ZM36.046875 149.20125L36.046875 147.9825L37.109375 147.9825L37.109375 149.20125L36.046875 149.20125ZM36.046875 156.57625L36.046875 150.3575L37.109375 150.3575L37.109375 156.57625L36.046875 156.57625ZM39.03125 156.57625L39.03125 150.3575L39.984375 150.3575L39.984375 151.295Q40.34375 150.63875 40.640625 150.43562Q40.953125 150.21687 41.328125 150.21687Q41.859375 150.21687 42.40625 150.545L42.046875 151.52937Q41.65625 151.295 41.28125 151.295Q40.921875 151.295 40.640625 151.51375Q40.375 151.71687 40.265625 152.09187Q40.078125 152.65437 40.078125 153.31062L40.078125 156.57625L39.03125 156.57625ZM47.296875 154.57625L48.390625 154.70125Q48.140625 155.65437 47.4375 156.18562Q46.734375 156.71687 45.65625 156.71687Q44.296875 156.71687 43.484375 155.87312Q42.6875 155.02937 42.6875 153.51375Q42.6875 151.95125 43.5 151.09187Q44.3125 150.21687 45.59375 150.21687Q46.84375 150.21687 47.625 151.06062Q48.421875 151.90437 48.421875 153.45125Q48.421875 153.545 48.421875 153.7325L43.78125 153.7325Q43.84375 154.76375 44.359375 155.31062Q44.875 155.84187 45.65625 155.84187Q46.234375 155.84187 46.640625 155.545Q47.0625 155.2325 47.296875 154.57625ZM43.84375 152.87312L47.3125 152.87312Q47.25 152.07625 46.921875 151.68562Q46.40625 151.07625 45.609375 151.07625Q44.875 151.07625 44.375 151.56062Q43.890625 152.045 43.84375 152.87312ZM54.078125 156.57625L54.078125 155.795Q53.484375 156.71687 52.34375 156.71687Q51.59375 156.71687 50.96875 156.31062Q50.34375 155.88875 50.0 155.15437Q49.65625 154.42 49.65625 153.46687Q49.65625 152.545 49.96875 151.77937Q50.28125 151.01375 50.90625 150.62312Q51.53125 150.21687 52.296875 150.21687Q52.859375 150.21687 53.296875 150.45125Q53.734375 150.68562 54.015625 151.06062L54.015625 147.9825L55.0625 147.9825L55.0625 156.57625L54.078125 156.57625ZM50.75 153.46687Q50.75 154.67 51.25 155.26375Q51.75 155.84187 52.4375 155.84187Q53.125 155.84187 53.609375 155.27937Q54.09375 154.71687 54.09375 153.56062Q54.09375 152.27937 53.59375 151.68562Q53.109375 151.09187 52.390625 151.09187Q51.6875 151.09187 51.21875 151.67Q50.75 152.2325 50.75 153.46687Z" fill-rule="nonzero"/><path fill="#000000" d="M22.21875 294.59042L22.21875 285.99667L23.34375 285.99667L23.34375 289.52792L27.8125 289.52792L27.8125 285.99667L28.953125 285.99667L28.953125 294.59042L27.8125 294.59042L27.8125 290.54355L23.34375 290.54355L23.34375 294.59042L22.21875 294.59042ZM35.109375 293.8248Q34.515625 294.3248 33.96875 294.52792Q33.4375 294.73105 32.8125 294.73105Q31.78125 294.73105 31.234375 294.23105Q30.6875 293.73105 30.6875 292.9498Q30.6875 292.49667 30.890625 292.12167Q31.09375 291.73105 31.4375 291.5123Q31.78125 291.27792 32.203125 291.16855Q32.5 291.0748 33.140625 290.99667Q34.40625 290.85605 35.015625 290.6373Q35.015625 290.41855 35.015625 290.37167Q35.015625 289.71542 34.71875 289.4498Q34.3125 289.10605 33.515625 289.10605Q32.78125 289.10605 32.421875 289.37167Q32.0625 289.62167 31.890625 290.27792L30.859375 290.1373Q31.0 289.48105 31.328125 289.0748Q31.65625 288.66855 32.265625 288.4498Q32.875 288.23105 33.671875 288.23105Q34.46875 288.23105 34.96875 288.41855Q35.46875 288.60605 35.703125 288.8873Q35.9375 289.16855 36.03125 289.60605Q36.078125 289.87167 36.078125 290.5748L36.078125 291.98105Q36.078125 293.4498 36.140625 293.84042Q36.21875 294.23105 36.421875 294.59042L35.3125 294.59042Q35.15625 294.2623 35.109375 293.8248ZM35.015625 291.46542Q34.4375 291.6998 33.296875 291.87167Q32.640625 291.96542 32.375 292.09042Q32.109375 292.1998 31.953125 292.41855Q31.8125 292.6373 31.8125 292.91855Q31.8125 293.34042 32.125 293.62167Q32.453125 293.90292 33.0625 293.90292Q33.671875 293.90292 34.140625 293.6373Q34.625 293.37167 34.84375 292.90292Q35.015625 292.54355 35.015625 291.85605L35.015625 291.46542ZM38.046875 296.98105L38.046875 288.37167L39.0 288.37167L39.0 289.16855Q39.34375 288.6998 39.765625 288.46542Q40.203125 288.23105 40.8125 288.23105Q41.609375 288.23105 42.21875 288.6373Q42.828125 289.04355 43.125 289.79355Q43.4375 290.54355 43.4375 291.43417Q43.4375 292.3873 43.09375 293.15292Q42.765625 293.91855 42.109375 294.3248Q41.453125 294.73105 40.734375 294.73105Q40.203125 294.73105 39.78125 294.5123Q39.359375 294.27792 39.09375 293.9498L39.09375 296.98105L38.046875 296.98105ZM39.0 291.5123Q39.0 292.71542 39.484375 293.29355Q39.96875 293.85605 40.65625 293.85605Q41.359375 293.85605 41.859375 293.2623Q42.359375 292.66855 42.359375 291.41855Q42.359375 290.23105 41.875 289.65292Q41.390625 289.05917 40.703125 289.05917Q40.03125 289.05917 39.515625 289.68417Q39.0 290.30917 39.0 291.5123ZM45.046875 296.98105L45.046875 288.37167L46.0 288.37167L46.0 289.16855Q46.34375 288.6998 46.765625 288.46542Q47.203125 288.23105 47.8125 288.23105Q48.609375 288.23105 49.21875 288.6373Q49.828125 289.04355 50.125 289.79355Q50.4375 290.54355 50.4375 291.43417Q50.4375 292.3873 50.09375 293.15292Q49.765625 293.91855 49.109375 294.3248Q48.453125 294.73105 47.734375 294.73105Q47.203125 294.73105 46.78125 294.5123Q46.359375 294.27792 46.09375 293.9498L46.09375 296.98105L45.046875 296.98105ZM46.0 291.5123Q46.0 292.71542 46.484375 293.29355Q46.96875 293.85605 47.65625 293.85605Q48.359375 293.85605 48.859375 293.2623Q49.359375 292.66855 49.359375 291.41855Q49.359375 290.23105 48.875 289.65292Q48.390625 289.05917 47.703125 289.05917Q47.03125 289.05917 46.515625 289.68417Q46.0 290.30917 46.0 291.5123ZM52.0 296.98105L51.875 295.99667Q52.21875 296.09042 52.484375 296.09042Q52.828125 296.09042 53.03125 295.96542Q53.25 295.85605 53.390625 295.65292Q53.484375 295.48105 53.71875 294.85605Q53.734375 294.77792 53.8125 294.60605L51.4375 288.37167L52.578125 288.37167L53.875 291.96542Q54.125 292.65292 54.328125 293.41855Q54.515625 292.68417 54.765625 291.99667L56.09375 288.37167L57.140625 288.37167L54.78125 294.6998Q54.390625 295.71542 54.1875 296.10605Q53.90625 296.6373 53.53125 296.87167Q53.171875 297.12167 52.671875 297.12167Q52.375 297.12167 52.0 296.98105Z" fill-rule="nonzero"/><path fill="#000000" d="M59.25 396.51562Q59.25 394.98438 59.5625 394.0625Q59.875 393.125 60.484375 392.625Q61.109375 392.125 62.046875 392.125Q62.734375 392.125 63.25 392.40625Q63.78125 392.6875 64.125 393.21875Q64.46875 393.73438 64.65625 394.48438Q64.84375 395.23438 64.84375 396.51562Q64.84375 398.03125 64.53125 398.95312Q64.234375 399.875 63.609375 400.39062Q63.0 400.89062 62.046875 400.89062Q60.8125 400.89062 60.09375 400.0Q59.25 398.9375 59.25 396.51562ZM60.328125 396.51562Q60.328125 398.625 60.828125 399.32812Q61.328125 400.03125 62.046875 400.03125Q62.78125 400.03125 63.265625 399.32812Q63.765625 398.625 63.765625 396.51562Q63.765625 394.39062 63.265625 393.70312Q62.78125 393.0 62.03125 393.0Q61.3125 393.0 60.875 393.60938Q60.328125 394.39062 60.328125 396.51562Z" fill-rule="nonzero"/><path fill="#000000" d="M183.51875 400.75L182.47188 400.75L182.47188 394.03125Q182.08125 394.39062 181.45625 394.76562Q180.84688 395.125 180.3625 395.29688L180.3625 394.28125Q181.2375 393.85938 181.89375 393.28125Q182.56563 392.6875 182.84688 392.125L183.51875 392.125L183.51875 400.75Z" fill-rule="nonzero"/><path fill="#000000" d="M305.39688 399.73438L305.39688 400.75L299.70938 400.75Q299.70938 400.375 299.83438 400.01562Q300.05313 399.4375 300.52188 398.875Q301.00626 398.3125 301.9125 397.57812Q303.31876 396.42188 303.80313 395.75Q304.30313 395.07812 304.30313 394.48438Q304.30313 393.85938 303.85 393.4375Q303.39688 393.0 302.67813 393.0Q301.9125 393.0 301.45938 393.45312Q301.00626 393.90625 300.99063 394.71875L299.9125 394.60938Q300.02188 393.39062 300.74063 392.76562Q301.475 392.125 302.70938 392.125Q303.94376 392.125 304.6625 392.8125Q305.38126 393.5 305.38126 394.51562Q305.38126 395.03125 305.1625 395.53125Q304.95938 396.01562 304.45938 396.57812Q303.975 397.125 302.85 398.07812Q301.89688 398.875 301.61563 399.17188Q301.35 399.45312 301.17813 399.73438L305.39688 399.73438Z" fill-rule="nonzero"/><path fill="#000000" d="M420.15 398.48438L421.2125 398.34375Q421.38437 399.23438 421.82187 399.64062Q422.25937 400.03125 422.88437 400.03125Q423.63437 400.03125 424.15 399.51562Q424.66562 399.0 424.66562 398.23438Q424.66562 397.51562 424.18124 397.04688Q423.7125 396.5625 422.97812 396.5625Q422.68124 396.5625 422.22812 396.6875L422.35312 395.75Q422.4625 395.76562 422.525 395.76562Q423.19687 395.76562 423.72812 395.42188Q424.275 395.0625 424.275 394.32812Q424.275 393.75 423.88437 393.375Q423.49374 392.98438 422.86874 392.98438Q422.25937 392.98438 421.8375 393.375Q421.43124 393.76562 421.32187 394.53125L420.25937 394.34375Q420.44687 393.29688 421.13437 392.71875Q421.82187 392.125 422.8375 392.125Q423.54062 392.125 424.13437 392.4375Q424.72812 392.73438 425.04062 393.25Q425.35312 393.76562 425.35312 394.35938Q425.35312 394.90625 425.05624 395.375Q424.75937 395.82812 424.18124 396.09375Q424.93124 396.26562 425.35312 396.82812Q425.775 397.375 425.775 398.21875Q425.775 399.34375 424.94687 400.125Q424.13437 400.90625 422.88437 400.90625Q421.75937 400.90625 421.00937 400.23438Q420.25937 399.54688 420.15 398.48438Z" fill-rule="nonzero"/><path fill="#000000" d="M543.825 400.75L543.825 398.6875L540.10626 398.6875L540.10626 397.71875L544.02814 392.15625L544.8875 392.15625L544.8875 397.71875L546.04376 397.71875L546.04376 398.6875L544.8875 398.6875L544.8875 400.75L543.825 400.75ZM543.825 397.71875L543.825 393.85938L541.1375 397.71875L543.825 397.71875Z" fill-rule="nonzero"/><path fill="#000000" d="M660.75 398.5L661.8594 398.40625Q661.9844 399.21875 662.4219 399.625Q662.875 400.03125 663.5156 400.03125Q664.2656 400.03125 664.7969 399.45312Q665.3281 398.875 665.3281 397.9375Q665.3281 397.03125 664.8125 396.51562Q664.3125 395.98438 663.4844 395.98438Q662.9844 395.98438 662.5625 396.21875Q662.15625 396.45312 661.9219 396.8125L660.9375 396.6875L661.7656 392.28125L666.0469 392.28125L666.0469 393.28125L662.6094 393.28125L662.15625 395.59375Q662.9219 395.04688 663.7656 395.04688Q664.8906 395.04688 665.65625 395.82812Q666.4375 396.60938 666.4375 397.84375Q666.4375 399.0 665.7656 399.85938Q664.9375 400.89062 663.5156 400.89062Q662.34375 400.89062 661.59375 400.23438Q660.8594 399.57812 660.75 398.5Z" fill-rule="nonzero"/><path fill="#757575" d="M22.734375 40.25L22.734375 25.9375L25.59375 25.9375L28.96875 36.0625Q29.4375 37.484375 29.65625 38.1875Q29.90625 37.40625 30.421875 35.890625L33.84375 25.9375L36.390625 25.9375L36.390625 40.25L34.578125 40.25L34.578125 28.265625L30.40625 40.25L28.703125 40.25L24.5625 28.0625L24.5625 40.25L22.734375 40.25ZM38.921875 35.0625Q38.921875 32.1875 40.515625 30.796875Q41.859375 29.640625 43.78125 29.640625Q45.921875 29.640625 47.265625 31.046875Q48.625 32.453125 48.625 34.921875Q48.625 36.921875 48.03125 38.078125Q47.4375 39.21875 46.28125 39.859375Q45.140625 40.484375 43.78125 40.484375Q41.59375 40.484375 40.25 39.09375Q38.921875 37.6875 38.921875 35.0625ZM40.71875 35.0625Q40.71875 37.0625 41.578125 38.046875Q42.453125 39.03125 43.78125 39.03125Q45.09375 39.03125 45.953125 38.046875Q46.828125 37.046875 46.828125 35.0Q46.828125 33.078125 45.953125 32.09375Q45.078125 31.09375 43.78125 31.09375Q42.453125 31.09375 41.578125 32.09375Q40.71875 33.078125 40.71875 35.0625ZM49.921875 35.0625Q49.921875 32.1875 51.515625 30.796875Q52.859375 29.640625 54.78125 29.640625Q56.921875 29.640625 58.265625 31.046875Q59.625 32.453125 59.625 34.921875Q59.625 36.921875 59.03125 38.078125Q58.4375 39.21875 57.28125 39.859375Q56.140625 40.484375 54.78125 40.484375Q52.59375 40.484375 51.25 39.09375Q49.921875 37.6875 49.921875 35.0625ZM51.71875 35.0625Q51.71875 37.0625 52.578125 38.046875Q53.453125 39.03125 54.78125 39.03125Q56.09375 39.03125 56.953125 38.046875Q57.828125 37.046875 57.828125 35.0Q57.828125 33.078125 56.953125 32.09375Q56.078125 31.09375 54.78125 31.09375Q53.453125 31.09375 52.578125 32.09375Q51.71875 33.078125 51.71875 35.0625ZM68.296875 40.25L68.296875 38.9375Q67.3125 40.484375 65.390625 40.484375Q64.15625 40.484375 63.109375 39.796875Q62.078125 39.109375 61.5 37.890625Q60.9375 36.671875 60.9375 35.078125Q60.9375 33.515625 61.453125 32.25Q61.96875 30.984375 63.0 30.3125Q64.046875 29.640625 65.3125 29.640625Q66.25 29.640625 66.984375 30.046875Q67.71875 30.4375 68.1875 31.0625L68.1875 25.9375L69.921875 25.9375L69.921875 40.25L68.296875 40.25ZM62.734375 35.078125Q62.734375 37.0625 63.578125 38.046875Q64.421875 39.03125 65.5625 39.03125Q66.71875 39.03125 67.515625 38.09375Q68.328125 37.15625 68.328125 35.21875Q68.328125 33.09375 67.5 32.09375Q66.6875 31.09375 65.484375 31.09375Q64.3125 31.09375 63.515625 32.0625Q62.734375 33.015625 62.734375 35.078125ZM81.921875 44.453125Q80.46875 42.625 79.46875 40.171875Q78.46875 37.703125 78.46875 35.0625Q78.46875 32.734375 79.21875 30.609375Q80.09375 28.140625 81.921875 25.6875L83.1875 25.6875Q82.0 27.71875 81.625 28.59375Q81.03125 29.9375 80.6875 31.40625Q80.265625 33.234375 80.265625 35.078125Q80.265625 39.765625 83.1875 44.453125L81.921875 44.453125ZM85.796875 40.25L85.796875 25.9375L90.71875 25.9375Q92.390625 25.9375 93.28125 26.140625Q94.5 26.421875 95.375 27.15625Q96.5 28.125 97.0625 29.609375Q97.625 31.09375 97.625 33.015625Q97.625 34.640625 97.25 35.90625Q96.875 37.15625 96.265625 37.984375Q95.671875 38.8125 94.96875 39.296875Q94.265625 39.765625 93.265625 40.015625Q92.265625 40.25 90.953125 40.25L85.796875 40.25ZM87.6875 38.5625L90.75 38.5625Q92.15625 38.5625 92.953125 38.296875Q93.765625 38.03125 94.25 37.546875Q94.921875 36.875 95.296875 35.75Q95.671875 34.609375 95.671875 32.984375Q95.671875 30.734375 94.9375 29.53125Q94.203125 28.328125 93.140625 27.921875Q92.390625 27.625 90.703125 27.625L87.6875 27.625L87.6875 38.5625ZM106.671875 36.90625L108.484375 37.140625Q108.0625 38.71875 106.890625 39.609375Q105.734375 40.484375 103.921875 40.484375Q101.65625 40.484375 100.3125 39.09375Q98.984375 37.6875 98.984375 35.15625Q98.984375 32.53125 100.328125 31.09375Q101.671875 29.640625 103.828125 29.640625Q105.90625 29.640625 107.21875 31.0625Q108.546875 32.46875 108.546875 35.046875Q108.546875 35.203125 108.53125 35.515625L100.796875 35.515625Q100.890625 37.21875 101.765625 38.125Q102.640625 39.03125 103.9375 39.03125Q104.90625 39.03125 105.578125 38.53125Q106.265625 38.015625 106.671875 36.90625ZM100.890625 34.0625L106.6875 34.0625Q106.578125 32.765625 106.03125 32.109375Q105.1875 31.09375 103.84375 31.09375Q102.640625 31.09375 101.8125 31.90625Q100.984375 32.703125 100.890625 34.0625ZM117.34375 36.453125L119.0625 36.671875Q118.78125 38.46875 117.609375 39.484375Q116.453125 40.484375 114.75 40.484375Q112.625 40.484375 111.328125 39.09375Q110.03125 37.703125 110.03125 35.109375Q110.03125 33.421875 110.578125 32.171875Q111.140625 30.90625 112.28125 30.28125Q113.421875 29.640625 114.765625 29.640625Q116.453125 29.640625 117.515625 30.5Q118.59375 31.359375 118.90625 32.921875L117.1875 33.1875Q116.953125 32.140625 116.328125 31.625Q115.703125 31.09375 114.828125 31.09375Q113.5 31.09375 112.671875 32.046875Q111.84375 33.0 111.84375 35.046875Q111.84375 37.140625 112.640625 38.09375Q113.4375 39.03125 114.734375 39.03125Q115.765625 39.03125 116.453125 38.40625Q117.15625 37.765625 117.34375 36.453125ZM121.71875 44.453125L120.46875 44.453125Q123.375 39.765625 123.375 35.078125Q123.375 33.234375 122.96875 31.4375Q122.625 29.96875 122.03125 28.625Q121.65625 27.734375 120.46875 25.6875L121.71875 25.6875Q123.5625 28.140625 124.4375 30.609375Q125.1875 32.734375 125.1875 35.0625Q125.1875 37.703125 124.171875 40.171875Q123.171875 42.625 121.71875 44.453125Z" fill-rule="nonzero"/></svg>